<svg xmlns="http://www.w3.org/2000/svg" xmlns:xlink="http://www.w3.org/1999/xlink" width="32" height="32" viewBox="0 0 32 32"><defs><style>.cls-1{stroke-width:0px}</style></defs><g id="svgID0"><path fill="#aaaaaa" d="M17.2 23v-1.5c1.8-.4 3-1.6 3-3.3 0-4.3-5.7-3-5.7-4.8s.5-1 1.4-1 1.7.5 1.8 1.3h2.4c-.2-1.7-1.2-2.9-2.9-3.3V8.9H15v1.4c-1.8.3-3.1 1.5-3.1 3.1 0 4.1 5.7 2.8 5.7 4.8s-.7 1.1-1.6 1.1-2-.7-2.2-1.9h-2.4c.2 2.1 1.4 3.6 3.5 3.9v1.4h2.2Z" class="cls-1"/><path fill="#aaaaaa" d="M26 6v3.4C23.9 6.1 20.2 4 16 4 9.4 4 4 9.4 4 16s5.4 12 12 12 10.9-4.3 11.8-10h-2c-.9 4.6-5 8-9.8 8S6 21.5 6 16 10.5 6 16 6s6.9 2 8.6 5H21v2h7V6z" class="cls-1"/></g></svg>