<svg xmlns="http://www.w3.org/2000/svg" xmlns:xlink="http://www.w3.org/1999/xlink" width="16" height="16" viewBox="0 0 16 16"><style>.st1{clip-path:url(#SVGID_00000005253966236058116400000015269798551600424127_)}.st2{fill-rule:evenodd;clip-rule:evenodd}</style><path fill="#aaaaaa" d="m3.652 7.698-.707-.707 2.97-2.97.707.707z" class="st0"/><path fill="#aaaaaa" d="m3.015 6.949.707-.707 2.97 2.97-.707.707z" class="st0"/><path fill="#aaaaaa" d="M13.1 9.2c0-1.5-1.2-2.8-2.8-2.8H4v1h6.3c1 0 1.8.8 1.8 1.8s-.8 1.8-1.8 1.8h.7v.9c1.2-.3 2.1-1.4 2.1-2.7" class="st0"/><path fill="#aaaaaa" d="M9 11h1.3v1H9zm1.3 0v1c.2 0 .5 0 .7-.1V11z" class="st0"/></svg>