<svg xmlns="http://www.w3.org/2000/svg" xmlns:xlink="http://www.w3.org/1999/xlink" width="32" height="32" viewBox="0 0 32 32"><path fill="#aaaaaa" d="M23.97 21H8.02l-1.04 9h18.03zM20 28v-3h-2v3H9.23l.58-5h12.38l.58 5zm4-14h-3.01c-1.1 0-1.99-.89-1.99-1.99s.53-5.82.81-7.72a2.006 2.006 0 00-1.98-2.3h-3.67c-.58 0-1.14.25-1.52.7-.38.44-.55 1.02-.46 1.6.29 1.95.81 6.59.81 7.72S12.1 14 11 14H7.99v6h16v-6Zm-2 4H10v-2h1.01c2.2 0 3.99-1.79 3.99-3.99 0-1.31-.56-6.18-.83-8.01h3.67c-.28 1.84-.84 6.71-.84 8.01 0 2.2 1.79 3.99 3.99 3.99H22z"/></svg>