<svg xmlns="http://www.w3.org/2000/svg" xmlns:xlink="http://www.w3.org/1999/xlink" width="45" height="45" viewBox="0 0 45 45"><defs><style>.cls-1{stroke-width:0px}</style></defs><path fill="#aaaaaa" d="M22.5 40C12.85 40 5 32.15 5 22.5S12.85 5 22.5 5 40 12.85 40 22.5 32.15 40 22.5 40m0-33C13.95 7 7 13.95 7 22.5S13.95 38 22.5 38 38 31.05 38 22.5 31.05 7 22.5 7" class="cls-1"/><path fill="#aaaaaa" d="M22.5 36C15.06 36 9 29.94 9 22.5S15.06 9 22.5 9 36 15.06 36 22.5 29.94 36 22.5 36m0-25C16.16 11 11 16.16 11 22.5S16.16 34 22.5 34 34 28.84 34 22.5 28.84 11 22.5 11" class="cls-1"/><path fill="#aaaaaa" d="M15.99 16.55h2.82l2.8 6.75c.65 1.56.92 2.5.92 2.5s.27-.93.92-2.5l2.8-6.75H29v11.9h-2.01v-6.54c0-1.7.07-2.69.07-2.69s-.34.93-.99 2.5l-2.79 6.73h-1.6l-2.79-6.71c-.66-1.58-.97-2.52-.97-2.52s.05.99.05 2.7v6.53h-2.01v-11.9Z" class="cls-1"/></svg>