<svg xmlns="http://www.w3.org/2000/svg" xmlns:xlink="http://www.w3.org/1999/xlink" width="32" height="32" viewBox="0 0 32 32"><path fill="#aaaaaa" d="M13.95 26.98h4v2h-4zm-2-3.98h8v2h-8zM16 3.02c-4.47 0-8.11 3.64-8.11 8.11 0 2.34 1.01 4.56 2.77 6.1.65.57 1.14 1.96 1.38 3.03l.18.76h7.49l.18-.77c.21-.89.77-2.43 1.44-3.02a8.1 8.1 0 002.76-6.1c0-4.47-3.64-8.11-8.11-8.11Zm4.02 12.7c-.97.85-1.56 2.36-1.86 3.3h-4.38c-.29-1.01-.86-2.46-1.81-3.3a6.1 6.1 0 01-2.09-4.6c0-3.37 2.74-6.11 6.11-6.11s6.11 2.74 6.11 6.11c0 1.76-.76 3.43-2.08 4.59Z"/></svg>