<?xml version="1.0" encoding="UTF-8"?>
<svg id="Motiv" xmlns="http://www.w3.org/2000/svg" viewBox="0 0 32 32">
  <defs>
    <style>
      .cls-1 {
        fill: #08191f;
        stroke-width: 0px;
      }
    </style>
  </defs>
  <path class="cls-1" d="M29.22,17h-14.45l1.26,6h2.97v7h2v-7h2v7h2v-7h3.01l1.21-6ZM26.37,21h-8.72l-.42-2h9.55l-.4,2Z"/>
  <polygon class="cls-1" points="21 10 21 12 18 12 18 16 20 16 20 14 24 14 24 16 26 16 26 12 23 12 23 10 21 10"/>
  <path class="cls-1" d="M19.55,7.43h0s2.33-1.12,2.33-1.12l-.87-1.8-4.13,1.98-8.24-2.9-3.32,1.91,5.27,4-2.65,1.27-3.99-2.08-.92,1.77,4.88,2.54,5.22-2.5,6.42-3.08ZM12.62,8.54l-3.49-2.64,5.19,1.83-.73.35-.98.47Z"/>
</svg>