<?xml version="1.0" encoding="UTF-8"?>
<svg id="Ebene_2" data-name="Ebene 2" xmlns="http://www.w3.org/2000/svg" viewBox="0 0 45 45">
  <defs>
    <style>
      .cls-1 {
        fill: #08191f;
        stroke-width: 0px;
      }
    </style>
  </defs>
  <path class="cls-1" d="M12.37,15.29c0-1.79.75-2.67,1.89-2.67.93,0,1.47.63,1.47,1.56v4.83h2.31v-5.44c0-1.78-1.28-2.98-3.09-2.98-1.19,0-2.18.54-2.58,1.1v-.98h-2.33v8.31h2.33v-3.72Z"/>
  <polygon class="cls-1" points="31.85 25.55 29.03 32.78 26.24 25.55 22.96 25.55 22.96 36.05 25.34 36.05 25.27 28.84 28.13 36.05 29.87 36.05 32.74 28.84 32.66 36.05 35.04 36.05 35.04 25.55 31.85 25.55"/>
  <path class="cls-1" d="M29.75,9c-4.86,8.77-12.07,16.02-20.76,20.95v2.29c9.77-5.28,17.8-13.37,23.02-23.23h-2.26Z"/>
</svg>