<?xml version="1.0" encoding="UTF-8"?>
<svg id="Motiv" xmlns="http://www.w3.org/2000/svg" viewBox="0 0 32 32">
  <defs>
    <style>
      .cls-1 {
        fill: #08191f;
        stroke-width: 0px;
      }
    </style>
  </defs>
  <path class="cls-1" d="M16,26c-5.51,0-10-4.49-10-10S10.48,6,16,6c2.24,0,4.3.75,5.97,2h-3.97v2h7s0-7,0-7h-2v3.28c-1.97-1.43-4.38-2.28-7-2.28-6.62,0-12,5.38-12,12s5.38,12,12,12c4.43,0,8.29-2.41,10.37-5.99h-2.4c-1.83,2.42-4.72,3.99-7.97,3.99Z"/>
  <g>
    <path class="cls-1" d="M8.99,17.28h1.71c.07.71.5,1.21,1.36,1.21.76,0,1.31-.5,1.31-1.19s-.51-1.16-1.23-1.16c-.41,0-.75.07-1.12.22v-1.35l1.57-1.52h-3.34v-1.54h5.46v1.41l-1.78,1.63c1.45.11,2.22,1.03,2.22,2.36,0,1.58-1.28,2.67-3.11,2.67-1.97,0-3.05-1.23-3.05-2.75Z"/>
    <path class="cls-1" d="M15.95,16.34c0-2.66,1.39-4.47,3.44-4.47,1.63,0,2.75.91,2.87,2.36h-1.71c-.08-.54-.55-.88-1.16-.88-1,0-1.53.95-1.65,2.03.4-.47,1.01-.72,1.74-.72,1.6,0,2.77,1.14,2.77,2.68s-1.27,2.69-3.01,2.69c-2.04,0-3.29-1.55-3.29-3.69ZM20.5,17.29c.01-.75-.54-1.28-1.3-1.28s-1.3.54-1.3,1.28.54,1.27,1.3,1.27,1.3-.51,1.3-1.27Z"/>
    <path class="cls-1" d="M23.02,17.46h1.71c.08.62.52,1.03,1.25,1.03s1.23-.5,1.23-1.24-.5-1.24-1.23-1.24c-.51,0-.91.23-1.14.6h-1.65l.68-4.65h4.51v1.54h-3.16l-.29,1.71c.34-.34.87-.56,1.49-.56,1.49,0,2.56,1.06,2.56,2.6,0,1.66-1.19,2.78-3.02,2.78-1.73,0-2.9-1.11-2.96-2.56Z"/>
  </g>
</svg>