<?xml version="1.0" encoding="UTF-8"?>
<svg id="PowerGrey" xmlns="http://www.w3.org/2000/svg" viewBox="0 0 32 32">
  <defs>
    <style>
      .cls-1 {
        fill: #08191f;
        stroke-width: 0px;
      }
    </style>
  </defs>
  <path class="cls-1" d="M16,3c-7.41,0-13,2.58-13,6v14c0,3.42,5.59,6,13,6s13-2.58,13-6v-14c0-3.42-5.59-6-13-6ZM16,5c6.3,0,11,2.11,11,4s-4.7,4-11,4-11-2.11-11-4,4.7-4,11-4ZM16,27c-6.3,0-11-2.11-11-4v-3.72c2.26,1.66,6.25,2.72,11,2.72s8.74-1.06,11-2.72v3.72c0,1.89-4.7,4-11,4ZM16,20c-6.3,0-11-2.11-11-4v-3.72c2.26,1.66,6.25,2.72,11,2.72s8.74-1.06,11-2.72v3.72c0,1.89-4.7,4-11,4Z"/>
  <circle class="cls-1" cx="24" cy="16" r="1"/>
  <circle class="cls-1" cx="24" cy="23" r="1"/>
</svg>