<?xml version="1.0" encoding="UTF-8"?>
<svg id="Ebene_1" data-name="Ebene 1" xmlns="http://www.w3.org/2000/svg" viewBox="0 0 32 32">
  <path d="M7.6766357421875,21.500488283403683h-2.3106689453125c1.99554443359375,3.84954833984375,6.0079345703125,6.49188232421875,10.634033203125,6.49951171875v-2c-3.47442626953125-.0068359375-6.5355224609375-1.79693603515625-8.3233642578125-4.49951171875Z" fill="#08191f" stroke-width="0"/>
  <path d="M16,6.000000002153683c5.513671875,0,10,4.486328125,10,10h2c0-6.6171875-5.3828125-12-12-12-4.634033203125,0-8.65478515625,2.64453125-10.6533203125,6.49951171875h2.31097412109375c1.79132080078125-2.70758056640625,4.860107421875-4.49951171875,8.34234619140625-4.49951171875Z" fill="#08191f" stroke-width="0"/>
  <polygon points="27.52734375 22.141601564653683 25.0098876953125 24.668884279497433 24.97998046875 19.000000002153683 22.97998046875 19.009765627153683 23.00982666015625 24.674804689653683 20.46875 22.143554689653683 19.056640625 23.559570314653683 24.0166015625 28.500000002153683 28.943359375 23.553710939653683 27.52734375 22.141601564653683" fill="#08191f" stroke-width="0"/>
  <path d="M9.7908935546875,16.852600099809933h-1.9755859375c-.1103515625.638671875-.619140625,1.0380859375-1.248046875,1.0380859375-.8779296875,0-1.6259765625-.638671875-1.6259765625-1.90625,0-1.2666015625.73828125-1.9052734375,1.6259765625-1.9052734375.6591796875,0,1.158203125.4384765625,1.2275390625,1.0673828125h1.9765625c-.1103515625-1.6064453125-1.4169921875-2.734375-3.2041015625-2.734375-1.9951171875,0-3.6025390625,1.2578125-3.6025390625,3.572265625,0,2.3251953125,1.6572265625,3.5732421875,3.6025390625,3.5732421875,1.8564453125,0,3.07421875-1.1474609375,3.2236328125-2.705078125Z" fill="#08191f" stroke-width="0"/>
  <path d="M13.8787841796875,12.412170412309933c-2.115234375,0-3.7021484375,1.5166015625-3.7021484375,3.572265625,0,2.056640625,1.5869140625,3.5732421875,3.7021484375,3.5732421875,2.095703125,0,3.6728515625-1.5166015625,3.6728515625-3.5732421875,0-2.0556640625-1.5771484375-3.572265625-3.6728515625-3.572265625ZM13.8787841796875,17.890686037309933c-1.017578125,0-1.7255859375-.818359375-1.7255859375-1.90625,0-1.0869140625.7080078125-1.9052734375,1.7255859375-1.9052734375.98828125,0,1.697265625.818359375,1.697265625,1.9052734375,0,1.087890625-.708984375,1.90625-1.697265625,1.90625Z" fill="#08191f" stroke-width="0"/>
  <path d="M19.1923828125,17.602966310747433l-1.078125.8779296875v.91796875h2.923828125v-1.0380859375h-1.20703125l.2294921875-.12890625c.7177734375-.4091796875.9775390625-.8486328125.9775390625-1.3876953125,0-.7685546875-.5986328125-1.3271484375-1.5166015625-1.3271484375-.9287109375,0-1.5869140625.71875-1.5166015625,1.5771484375h1.1669921875c-.0302734375-.369140625.1396484375-.5390625.349609375-.5390625.19921875,0,.298828125.119140625.298828125.2890625,0,.259765625-.26953125.46875-.6279296875.7587890625Z" fill="#08191f" stroke-width="0"/>
</svg>