<?xml version="1.0" encoding="UTF-8"?>
<svg id="PowerGrey" xmlns="http://www.w3.org/2000/svg" viewBox="0 0 32 32">
  <defs>
    <style>
      .cls-1 {
        fill: #08191f;
        stroke-width: 0px;
      }
    </style>
  </defs>
  <polygon class="cls-1" points="15.53 16.18 13.33 13.98 11.92 15.4 15.53 19.01 20.24 14.3 18.83 12.89 15.53 16.18"/>
  <path class="cls-1" d="M25,16c0-.19,0-.37-.02-.56l3.41-1.97-3.99-6.93-3.41,1.97c-.32-.21-.65-.4-.99-.57v-3.94h-8v3.94c-.34.17-.67.36-.99.57l-3.41-1.97-3.99,6.93,3.41,1.97c-.01.19-.02.37-.02.56s0,.37.02.56l-3.41,1.97,3.99,6.93,3.41-1.97c.32.21.65.4.99.57v3.94h8v-3.94c.34-.17.67-.36.99-.57l3.41,1.97,3.99-6.93-3.41-1.97c.01-.19.02-.37.02-.56ZM25.66,19.26l-2,3.47-2.82-1.63-.53.42c-.52.4-1.08.73-1.69.98l-.62.25v3.25h-4v-3.25l-.62-.25c-.6-.24-1.17-.57-1.69-.98l-.53-.42-2.82,1.63-2-3.47,2.82-1.63-.09-.67c-.04-.32-.07-.64-.07-.97s.02-.65.07-.97l.09-.67-2.82-1.63,2-3.47,2.82,1.63.53-.42c.52-.4,1.08-.73,1.69-.98l.62-.25v-3.25h4v3.25l.62.25c.6.24,1.17.57,1.69.98l.53.42,2.82-1.63,2,3.47-2.82,1.63.09.67c.04.32.07.64.07.97s-.02.65-.07.97l-.09.67,2.82,1.63Z"/>
</svg>