<?xml version="1.0" encoding="UTF-8"?>
<svg id="Ebene_2" data-name="Ebene 2" xmlns="http://www.w3.org/2000/svg" viewBox="0 0 68 127">
  <defs>
    <style>
      .cls-1 {
        fill: #08191f;
        stroke-width: 0px;
      }
    </style>
  </defs>
  <path class="cls-1" d="M59.41,18.43l-1.41,1.41,1.12,1.12h-20.18c-.52-5.03-4.78-8.97-9.95-8.97s-9.43,3.94-9.95,8.97H5v2h14.04c.46,4.73,4.22,8.51,8.95,8.98v18.77c-7.25.52-13,6.57-13,13.95s5.75,13.43,13,13.95v22.26h-11v24h24v-24h-11v-22.26c7.25-.52,13-6.57,13-13.95s-5.75-13.43-13-13.95v-18.77c4.73-.47,8.49-4.25,8.95-8.98h20.24l-1.18,1.18,1.41,1.41,3.57-3.57-3.57-3.57ZM37.58,102.88l-18.59,18.59v-18.59h18.59ZM20.41,122.88l18.59-18.59v18.59h-18.59ZM36.93,21.03l-9.42-6.88c.48-.09.98-.14,1.48-.14,4.08,0,7.45,3.07,7.93,7.03ZM20.99,22c0-3.05,1.71-5.7,4.23-7.05l9.56,6.99-9.67,7.05c-2.45-1.37-4.12-3.99-4.12-6.99ZM40.99,64.67c0,6.62-5.38,12-12,12s-12-5.38-12-12,5.38-12,12-12,12,5.38,12,12ZM28.99,30c-.56,0-1.11-.06-1.64-.17l9.59-6.99c-.42,4.02-3.83,7.16-7.96,7.16Z"/>
  <path class="cls-1" d="M34.49,117.48c-.88,0-1.42-1.05-2.82-1.05-1.58,0-2.62,1.11-2.7,2.87h1.83c.09-.64.39-.93.95-.93.9,0,1.44,1.05,2.82,1.05,1.53,0,2.55-1.11,2.66-2.87h-1.83c-.11.71-.42.93-.9.93Z"/>
  <path class="cls-1" d="M23.77,108.26c.9,0,1.44,1.05,2.82,1.05,1.53,0,2.55-1.11,2.66-2.87h-1.83c-.11.71-.42.93-.9.93-.88,0-1.42-1.05-2.82-1.05-1.58,0-2.62,1.11-2.7,2.87h1.83c.09-.64.39-.93.95-.93Z"/>
  <path class="cls-1" d="M25.33,58.77h-2.8v11.8h1.99s-.02-8.45-.05-9.15c.22.67,3.73,9.15,3.73,9.15h1.58s3.5-8.48,3.74-9.15c-.04.71-.07,9.15-.07,9.15h1.99v-11.8h-2.73s-3.49,8.5-3.69,9.17c-.2-.67-3.69-9.17-3.69-9.17Z"/>
</svg>