<?xml version="1.0" encoding="UTF-8"?>
<svg id="Motiv" xmlns="http://www.w3.org/2000/svg" viewBox="0 0 32 32">
  <defs>
    <style>
      .cls-1 {
        fill: #08191f;
        stroke-width: 0px;
      }
    </style>
  </defs>
  <polygon class="cls-1" points="9.03 3 9.03 5.94 11.03 5.94 11 5 27 5 27 15.99 16.03 15.99 16.03 18 29 18 29 3 9.03 3"/>
  <polygon class="cls-1" points="18.71 14.71 23 10.42 23 14 25 14 25 7 18 7 18 9 21.58 9 17.29 13.29 18.71 14.71"/>
  <polygon class="cls-1" points="5.32 20 3 25.81 3 29 5 29 5 26.19 6.68 22 13.32 22 15 26.19 15 29 17 29 17 25.81 14.68 20 5.32 20"/>
  <path class="cls-1" d="M10,18c2.76,0,5-2.24,5-5s-2.24-5-5-5-5,2.24-5,5,2.24,5,5,5ZM10,10c1.65,0,3,1.35,3,3s-1.35,3-3,3-3-1.35-3-3,1.35-3,3-3Z"/>
</svg>