<?xml version="1.0" encoding="utf-8"?>
<!-- Generator: Adobe Illustrator 28.1.0, SVG Export Plug-In . SVG Version: 6.00 Build 0)  -->
<svg version="1.1" id="power_grey" xmlns="http://www.w3.org/2000/svg" xmlns:xlink="http://www.w3.org/1999/xlink" x="0px" y="0px"
	 viewBox="0 0 16 16" style="enable-background:new 0 0 16 16;" xml:space="preserve">
<style type="text/css">
	.st0{fill:#08191F;}
	.st1{clip-path:url(#SVGID_00000161621484141654456290000013573774019774422944_);}
	.st2{fill-rule:evenodd;clip-rule:evenodd;fill:#08191F;}
</style>
<g>
	<path class="st0" d="M6,9l1.6-2H6.1V6.2h2.7V7l-1.6,2h1.6v0.9H6V9z"/>
	<path class="st0" d="M9.4,6.2h1v3.6h-1V6.2z"/>
	<path class="st0" d="M11,6.2h1.6c0.3,0,0.5,0,0.7,0.1c0.2,0.1,0.3,0.2,0.4,0.4c0.1,0.2,0.2,0.4,0.2,0.6c0,0.2-0.1,0.4-0.2,0.6
		c-0.1,0.2-0.2,0.3-0.4,0.4s-0.4,0.1-0.7,0.1H12v1.2h-1V6.2z M12.7,7.6c0.1-0.1,0.1-0.1,0.1-0.2s0-0.2-0.1-0.2
		c-0.1-0.1-0.2-0.1-0.3-0.1H12v0.6h0.4C12.5,7.7,12.6,7.7,12.7,7.6z"/>
</g>
<polygon class="st0" points="9,11 9,12 3,12 3,4 9,4 9,5 10,5 10,3 2,3 2,13 10,13 10,11 "/>
</svg>
