<?xml version="1.0" encoding="utf-8"?>
<!-- Generator: Adobe Illustrator 28.1.0, SVG Export Plug-In . SVG Version: 6.00 Build 0)  -->
<svg version="1.1" id="power_grey" xmlns="http://www.w3.org/2000/svg" xmlns:xlink="http://www.w3.org/1999/xlink" x="0px" y="0px"
	 viewBox="0 0 16 16" style="enable-background:new 0 0 16 16;" xml:space="preserve">
<style type="text/css">
	.st0{fill:#08191F;}
	.st1{clip-path:url(#SVGID_00000156559227969589539190000000869186772868021418_);}
	.st2{fill-rule:evenodd;clip-rule:evenodd;fill:#08191F;}
</style>
<g>
	<path class="st0" d="M4,6.2h1.3c0.3,0,0.7,0.1,0.9,0.2S6.8,6.7,7,7c0.2,0.3,0.3,0.6,0.3,1c0,0.4-0.1,0.7-0.3,1
		C6.8,9.3,6.6,9.5,6.3,9.6S5.7,9.8,5.3,9.8H4V6.2z M5.9,8.7C6.1,8.6,6.2,8.3,6.2,8c0-0.3-0.1-0.6-0.3-0.7C5.7,7.1,5.5,7.1,5.2,7.1H5
		v1.9h0.2C5.5,8.9,5.7,8.9,5.9,8.7z"/>
	<path class="st0" d="M8.4,9.6C8.1,9.4,7.8,9.2,7.7,8.9C7.5,8.7,7.4,8.3,7.4,8c0-0.3,0.1-0.7,0.2-0.9c0.2-0.3,0.4-0.5,0.7-0.7
		s0.6-0.2,1-0.2c0.4,0,0.7,0.1,1,0.2c0.3,0.2,0.5,0.4,0.7,0.7c0.2,0.3,0.2,0.6,0.2,0.9c0,0.3-0.1,0.7-0.2,0.9
		c-0.2,0.3-0.4,0.5-0.7,0.7c-0.3,0.2-0.6,0.2-1,0.2C9,9.8,8.6,9.7,8.4,9.6z M9.8,8.8c0.1-0.1,0.2-0.2,0.3-0.3
		c0.1-0.1,0.1-0.3,0.1-0.5s0-0.3-0.1-0.5C10,7.4,9.9,7.2,9.8,7.2C9.6,7.1,9.5,7,9.3,7C9.2,7,9,7.1,8.9,7.2C8.7,7.2,8.6,7.4,8.6,7.5
		C8.5,7.7,8.4,7.8,8.4,8s0,0.3,0.1,0.5c0.1,0.1,0.2,0.3,0.3,0.3C9,8.9,9.2,9,9.3,9C9.5,9,9.6,8.9,9.8,8.8z"/>
	<path class="st0" d="M12.3,9.6C12,9.5,11.8,9.3,11.7,9s-0.2-0.6-0.2-1c0-0.4,0.1-0.7,0.2-1c0.2-0.3,0.4-0.5,0.7-0.6
		c0.3-0.1,0.6-0.2,0.9-0.2c0.3,0,0.6,0.1,0.8,0.2c0.2,0.1,0.4,0.3,0.6,0.5s0.2,0.5,0.2,0.7h-1c0-0.2-0.1-0.3-0.2-0.4
		C13.6,7.1,13.4,7,13.3,7c-0.2,0-0.4,0.1-0.6,0.3S12.4,7.7,12.4,8c0,0.2,0,0.4,0.1,0.5c0.1,0.1,0.2,0.3,0.3,0.3
		C13,8.9,13.1,9,13.3,9c0.2,0,0.3,0,0.4-0.1s0.2-0.2,0.2-0.4h1c0,0.3-0.1,0.5-0.3,0.7s-0.3,0.4-0.6,0.5c-0.2,0.1-0.5,0.2-0.8,0.2
		C12.9,9.8,12.6,9.8,12.3,9.6z"/>
</g>
<polygon class="st0" points="9,11 9,12 3,12 3,4 9,4 9,5 10,5 10,3 2,3 2,13 10,13 10,11 "/>
</svg>
