<?xml version="1.0" encoding="utf-8"?>
<!-- Generator: Adobe Illustrator 28.1.0, SVG Export Plug-In . SVG Version: 6.00 Build 0)  -->
<svg version="1.1" id="power_grey" xmlns="http://www.w3.org/2000/svg" xmlns:xlink="http://www.w3.org/1999/xlink" x="0px" y="0px"
	 viewBox="0 0 16 16" style="enable-background:new 0 0 16 16;" xml:space="preserve">
<style type="text/css">
	.st0{fill:#08191F;}
	.st1{clip-path:url(#SVGID_00000057110472272029954620000006067816497291106477_);}
	.st2{fill-rule:evenodd;clip-rule:evenodd;fill:#08191F;}
</style>
<polygon class="st0" points="9,11 9,12 3,12 3,4 9,4 9,5 10,5 10,3 2,3 2,13 10,13 10,11 "/>
<g>
	<path class="st0" d="M4.7,6.2h1.4l0.4,1.1c0.2,0.4,0.3,0.7,0.3,1c0.1-0.3,0.2-0.6,0.3-1l0.5-1.1H9v3.6H8V8.7c0-0.4,0-0.8,0-1.1
		c-0.1,0.3-0.2,0.6-0.4,1L7.2,9.8H6.5L6,8.6c-0.2-0.4-0.3-0.7-0.4-1c0,0.3,0,0.7,0,1.1v1.1h-1V6.2z"/>
	<path class="st0" d="M9.2,6.2h1.5c0.3,0,0.5,0,0.7,0.1c0.2,0.1,0.3,0.2,0.4,0.4C11.9,6.9,12,7.1,12,7.4c0,0.2-0.1,0.4-0.2,0.6
		c-0.1,0.2-0.2,0.3-0.4,0.4c-0.2,0.1-0.4,0.1-0.7,0.1h-0.5v1.2h-1V6.2z M10.9,7.6C11,7.6,11,7.5,11,7.4c0-0.1,0-0.2-0.1-0.2
		c-0.1-0.1-0.2-0.1-0.3-0.1h-0.4v0.6h0.4C10.7,7.7,10.8,7.7,10.9,7.6z"/>
	<path class="st0" d="M13.6,9.2h-1.7V8.4l1.6-2.2h1v2.1H15v0.9h-0.4v0.6h-1V9.2z M13.6,8.4V7.5l-0.7,0.9H13.6z"/>
</g>
</svg>
