<?xml version="1.0" encoding="UTF-8"?>
<svg id="Motiv" xmlns="http://www.w3.org/2000/svg" viewBox="0 0 32 32">
  <defs>
    <style>
      .cls-1 {
        fill: #08191f;
        stroke-width: 0px;
      }
    </style>
  </defs>
  <g>
    <path class="cls-1" d="M6,16c0-5.17,3.94-9.44,8.98-9.95v-2c-6.14.52-10.98,5.68-10.98,11.95,0,5.22,3.35,9.65,8.01,11.3v-2.14c-3.53-1.55-6.01-5.07-6.01-9.16Z"/>
    <path class="cls-1" d="M20.97,5.1v2.24c3,1.73,5.03,4.96,5.03,8.66,0,4.83-3.44,8.87-8,9.8v2.02c5.67-.96,10-5.88,10-11.82,0-4.84-2.89-9.01-7.03-10.91Z"/>
  </g>
  <path class="cls-1" d="M13.98,28v-11h-4.11l9.11-13v11h4.17s-9.17,13-9.17,13ZM13.7,15h2.28v6.74l3.32-4.74h-2.32v-6.66l-3.28,4.66Z"/>
</svg>