<?xml version="1.0" encoding="UTF-8"?>
<svg id="power_grey" data-name="power grey" xmlns="http://www.w3.org/2000/svg" viewBox="0 0 16 16">
  <defs>
    <style>
      .cls-1 {
        fill: #08191f;
        stroke-width: 0px;
      }
    </style>
  </defs>
  <path class="cls-1" d="M8,2c-3.31,0-6,2.69-6,6s2.69,6,6,6,6-2.69,6-6-2.69-6-6-6ZM8,13c-2.76,0-5-2.24-5-5s2.24-5,5-5,5,2.24,5,5-2.24,5-5,5Z"/>
  <polygon class="cls-1" points="9.65 5.65 8 7.29 6.35 5.65 5.65 6.35 7.29 8 5.65 9.65 6.35 10.35 8 8.71 9.65 10.35 10.35 9.65 8.71 8 10.35 6.35 9.65 5.65"/>
</svg>