<?xml version="1.0" encoding="UTF-8"?>
<svg id="Motiv" xmlns="http://www.w3.org/2000/svg" viewBox="0 0 32 32">
  <defs>
    <style>
      .cls-1 {
        fill: #08191f;
        stroke-width: 0px;
      }
    </style>
  </defs>
  <rect class="cls-1" x="9.99" y="5.01" width="2" height="9"/>
  <polygon class="cls-1" points="21.45 8.39 20.03 6.97 13.01 14 15.84 14 21.45 8.39"/>
  <path class="cls-1" d="M16,14.99H2v2h5v3h-3v7h15v-7h-3v-5ZM9,16.99h5v2.99h-5v-2.99ZM17,24.99H6v-3h11v3Z"/>
  <rect class="cls-1" x="2" y="11.99" width="4" height="2"/>
  <path class="cls-1" d="M30,14.99h-2.09l1.48-1.48-1.41-1.41-1.47,1.47v-2.09h-2v2.09s-1.47-1.47-1.47-1.47l-1.41,1.41,1.48,1.47h-6.09v2h6.09s-1.47,1.47-1.47,1.47l1.41,1.41,1.47-1.48v2.09h2v-2.09s1.47,1.47,1.47,1.47l1.41-1.41-1.47-1.47h2.08v-2ZM25.5,17.49c-.83,0-1.5-.67-1.5-1.5s.67-1.5,1.5-1.5,1.5.67,1.5,1.5-.67,1.5-1.5,1.5Z"/>
</svg>