<?xml version="1.0" encoding="UTF-8"?>
<svg id="Motiv" xmlns="http://www.w3.org/2000/svg" viewBox="0 0 32.000019542771042 32.000053299354477">
  <path d="M10.00048828125,18.153346962177238c0,3.8642578125,4.4375,5.6982421875,4.6259765625,5.7744140625l.1796875.072265625h.19384765625v-2.44512939453125c-.2373046875-.3380126953125-.466796875-.7991943359375-.50732421875-1.37713623046875-.0712890625-1,.4482421875-2.138671875,1.5078125-3.3271484375,1.0517578125,1.1796875,1.5712890625,2.3095703125,1.509765625,3.302734375-.036376953119543.592529296875-.26904296875,1.06298828125-.51025390625,1.40557861328125v2.44110107421875h.19091796875l.177734375-.0703125c.189453125-.0751953125,4.6318359375-1.8798828125,4.6318359375-5.7763671875,0-4.251953125-5.0966796875-9.232421875-5.3134765625-9.4423828125l-.6962890625-.673828125-.6953125.6748046875c-.216796875.2099609375-5.294921875,5.1904296875-5.294921875,9.44140625ZM15.99267578125,10.869167274677238c1.5390625,1.6767578125,4.0078125,4.875,4.0078125,7.2841796875,0,.60955810546875-.205078125,1.14276123046875-.49853515625,1.61468505859375-.075439453119543-1.666015625-1.0146484375-3.3701171875-2.81396484375-5.07464599609375l-.6875-.65234375-.6875.65234375c-1.7958984375,1.7010498046875-2.735107421869543,3.40179443359375-2.81396484375,5.064453125-.29345703125-.4705810546875-.49853515625-1.0009765625-.49853515625-1.6044921875,0-2.4091796875,2.458984375-5.607421875,3.9921875-7.2841796875Z" fill="#08191f" stroke-width="0"/>
  <path d="M15.9755859375,3.035182899677238l-10.75,2.1396484375v13.3916015625c0,5.3642578125,8.6064453125,9.6015625,10.3310546875,10.396484375l.4189453125.1923828125.41796875-.1923828125c1.7255859375-.794921875,10.33203125-5.0302734375,10.33203125-10.396484375V5.174831337177238l-10.75-2.1396484375ZM24.7255859375,18.566432899677238c0,3.3017578125-5.3125,6.7265625-8.75,8.3828125-3.4375-1.6572265625-8.75-5.08203125-8.75-8.3828125V6.815456337177238l8.75-1.7412109375,8.75,1.7412109375v11.7509765625Z" fill="#08191f" stroke-width="0"/>
</svg>