<?xml version="1.0" encoding="UTF-8"?>
<svg id="Motiv" xmlns="http://www.w3.org/2000/svg" viewBox="0 0 32 32">
  <defs>
    <style>
      .cls-1 {
        fill: #08191f;
        stroke-width: 0px;
      }
    </style>
  </defs>
  <polygon class="cls-1" points="8 6 20 6 20 15 22 15 22 4 6 4 6 28 14 28 14 26 8 26 8 6"/>
  <rect class="cls-1" x="10" y="8" width="8" height="2"/>
  <rect class="cls-1" x="10" y="12" width="8" height="2"/>
  <rect class="cls-1" x="10" y="16" width="5" height="2"/>
  <path class="cls-1" d="M27.42,27.09l-2.28-2.28c.54-.8.86-1.77.86-2.81,0-2.76-2.24-5-5-5s-5,2.24-5,5,2.24,5,5,5c1,0,1.92-.3,2.7-.8l2.3,2.3,1.41-1.41ZM18,22c0-1.65,1.35-3,3-3s3,1.35,3,3-1.35,3-3,3-3-1.35-3-3Z"/>
</svg>