<?xml version="1.0" encoding="UTF-8"?>
<svg id="Motiv_grey" xmlns="http://www.w3.org/2000/svg" viewBox="0 0 32 32">
  <defs>
    <style>
      .cls-1 {
        fill: #08191f;
        stroke-width: 0px;
      }
    </style>
  </defs>
  <path class="cls-1" d="M28.92,14.36l-6.36-6.36,2.83-2.83-.71-.71c-1.95-1.95-5.12-1.95-7.07,0l-2.83,2.83,4.24,4.24,2.12-2.12,6.36,6.36,1.41-1.41ZM17.61,7.29l1.41-1.41c.92-.92,2.3-1.12,3.42-.59l-3.42,3.41-1.41-1.41Z"/>
  <path class="cls-1" d="M15,12.88v-3.87h-7v3.87c-2.38,1.26-4,3.76-4,6.63,0,1.99.79,3.8,2.06,5.15l-1.68,3.35h2.24l1.04-2.07c1.13.68,2.44,1.07,3.85,1.07s2.72-.4,3.85-1.08l1.04,2.08h2.24l-1.68-3.36c1.27-1.34,2.06-3.15,2.06-5.14,0-2.87-1.62-5.37-4-6.63ZM10,11.01h3v1.15c-.48-.1-.99-.15-1.5-.15s-1.02.05-1.5.15v-1.15ZM11.5,25.01c-3.03,0-5.5-2.47-5.5-5.5s2.47-5.5,5.5-5.5,5.5,2.47,5.5,5.5-2.47,5.5-5.5,5.5Z"/>
  <path class="cls-1" d="M11.5,16.41c-1.65,0-3,1.35-3,3s1.35,3,3,3,3-1.35,3-3-1.35-3-3-3ZM11.5,20.41c-.55,0-1-.45-1-1s.45-1,1-1,1,.45,1,1-.45,1-1,1Z"/>
</svg>