<?xml version="1.0" encoding="UTF-8"?>
<svg id="Motiv" xmlns="http://www.w3.org/2000/svg" viewBox="0 0 32.000009803841749 32.000005820718798">
  <path d="M10.249516620669965,5.027712871300537c1.39501953125,0,2.70556640625.564331054689319,3.690063476560681,1.588989257808862l1.649291992189319,1.716674804691138,1.647216796880457-1.716552734380457c.965209960930224-1.004638671869543,2.249877929680224-1.557861328119543,3.617309570310681-1.557861328119543,1.367553710939319,0,2.652221679689319.55322265625,3.617431640619543,1.557739257808862,1.744018554689319,1.815185546880457,1.992309570319776,4.589111328130457.777099609380457,6.697143554689319l2.013549804689319.464111328121362c1.307373046869543-2.779907226560681.864379882810681-6.243774414060681-1.348510742189319-8.546875-1.391357421880457-1.447998046869543-3.225463867191138-2.172119140619543-5.059448242191138-2.172119140619543-1.834106445308862,0-3.668212890619543.72412109375-5.0595703125,2.172119140619543l-.205932617189319.214599609380457-.206176757810681-.214599609380457c-1.411376953119543-1.468994140619543-3.271850585939319-2.203369140619543-5.13232421875-2.203369140619543-1.860473632808862,0-3.721069335939319.734375-5.132446289058862,2.203369140619543-2.822875976560681,2.93798828125-2.822875976560681,7.74560546875,0,10.683471679689319l8.687255859369543,9.041748046880457,1.41455078125-1.41455078125L6.559209003480646,14.528811504109399c-2.095947265619543-2.181274414060681-2.095947265619543-5.730590820308862,0-7.911987304689319.984619140630457-1.024780273430224,2.295166015630457-1.589111328119543,3.690307617189319-1.589111328119543Z" fill="#08191f" stroke-width="0"/>
  <path d="M23.543584003480646,13.947512675989856l-6.503173828119543,1.49951171875v7.950805664058862c0,3.248413085941138,3.850463867189319,5.334350585941138,5.505859375,6.080444335941138l.998413085939319.447875976558862.994262695310681-.447265625c1.65673828125-.746215820308862,5.507690429689319-2.831665039058862,5.507690429689319-6.0810546875v-7.950805664058862l-6.503051757819776-1.49951171875ZM28.046635761300422,23.397830058798718c0,2.197265625-3.605224609380457,3.931518554691138-4.328002929689319,4.257080078121362l-.175048828130457.078735351569776-.175537109369543-.078735351569776c-.722412109380457-.325561523430224-4.32763671875-2.060546875-4.32763671875-4.257080078121362v-6.359497070308862l4.503173828119543-1.038330078130457,4.503051757819776,1.038330078130457v6.359497070308862Z" fill="#08191f" stroke-width="0"/>
  <polygon points="21.706059589419965 20.008791972859399 20.266606464419965 21.397463847859399 23.209965839419965 24.452151347859399 26.821293964419965 20.692385722859399 25.379887714419965 19.307620097859399 23.208012714419965 21.567385722859399 21.706059589419965 20.008791972859399" fill="#08191f" stroke-width="0"/>
</svg>