<?xml version="1.0" encoding="UTF-8"?>
<svg id="Motiv" xmlns="http://www.w3.org/2000/svg" viewBox="0 0 32 32">
  <defs>
    <style>
      .cls-1 {
        fill: #08191f;
        stroke-width: 0px;
      }
    </style>
  </defs>
  <polygon class="cls-1" points="14.99 8 14.99 16.01 19.63 19.48 20.82 17.88 16.99 15.01 16.99 8 14.99 8"/>
  <path class="cls-1" d="M15.99,4c-4.18,0-7.86,2.15-10,5.39v-3.39h-2v7h7v-2h-3.64c1.73-2.98,4.95-5,8.64-5,5.51,0,10,4.49,10,10s-4.49,10-10,10c-4.83,0-8.87-3.44-9.8-8h-2.02c.95,5.67,5.88,10,11.82,10,6.63,0,12-5.37,12-12S22.61,4,15.99,4Z"/>
</svg>