<?xml version="1.0" encoding="UTF-8"?>
<svg id="Motiv" xmlns="http://www.w3.org/2000/svg" viewBox="0 0 32 32">
  <defs>
    <style>
      .cls-1 {
        fill: #08191f;
        stroke-width: 0px;
      }
    </style>
  </defs>
  <polygon class="cls-1" points="18 19 18 12.01 16.01 12.01 16.01 14.63 13.99 14.63 13.99 12.01 12 12.01 12 19 13.99 19 13.99 16.31 16.01 16.31 16.01 19 18 19"/>
  <path class="cls-1" d="M22.02,18.16c0-.77-.6-1.34-1.53-1.34s-1.6.72-1.53,1.59h1.18c-.03-.37.14-.54.35-.54s.3.12.3.29c0,.26-.27.47-.63.76l-1.09.88v.92h2.95v-1.04h-1.22l.23-.13c.72-.41.99-.85.99-1.4Z"/>
  <path class="cls-1" d="M27.77,13.84l-1.97.37c.77,4.15-1.17,8.36-4.83,10.48-3.5,2.02-7.85,1.71-11.01-.68h4.04v-2h-7v2h0v5.01h2v-3.23c2.07,1.48,4.52,2.24,6.98,2.24,2.06,0,4.13-.53,5.99-1.6,4.39-2.54,6.72-7.59,5.8-12.57Z"/>
  <path class="cls-1" d="M11,7.34c3.49-2.03,7.85-1.74,11.03.67h-4.04v2h7v-2h0V2.99h-2v3.24c-3.8-2.72-8.9-3-13-.62-4.39,2.55-6.7,7.61-5.76,12.59l1.96-.37c-.78-4.15,1.15-8.37,4.8-10.49Z"/>
</svg>