<?xml version="1.0" encoding="utf-8"?>
<!-- Generator: Adobe Illustrator 28.1.0, SVG Export Plug-In . SVG Version: 6.00 Build 0)  -->
<svg version="1.1" id="power_grey" xmlns="http://www.w3.org/2000/svg" xmlns:xlink="http://www.w3.org/1999/xlink" x="0px" y="0px"
	 viewBox="0 0 16 16" style="enable-background:new 0 0 16 16;" xml:space="preserve">
<style type="text/css">
	.st0{fill:#08191F;}
	.st1{clip-path:url(#SVGID_00000057866294530743012670000010373591317292637331_);}
	.st2{fill-rule:evenodd;clip-rule:evenodd;fill:#08191F;}
</style>
<g>
	<path class="st0" d="M8,2C6.4,2,6.2,2,5.5,2c-0.6,0-1.1,0.1-1.5,0.3C3.7,2.5,3.3,2.7,3,3C2.7,3.3,2.5,3.7,2.3,4.1
		C2.2,4.5,2.1,4.9,2,5.5C2,6.2,2,6.4,2,8c0,1.6,0,1.8,0,2.5c0,0.6,0.1,1.1,0.3,1.5C2.5,12.3,2.7,12.7,3,13c0.3,0.3,0.7,0.5,1.1,0.7
		c0.4,0.1,0.8,0.2,1.5,0.3c0.6,0,0.8,0,2.5,0c1.6,0,1.8,0,2.5,0c0.6,0,1.1-0.1,1.5-0.3c0.4-0.2,0.7-0.4,1.1-0.7
		c0.3-0.3,0.5-0.7,0.7-1.1c0.1-0.4,0.2-0.8,0.3-1.5c0-0.6,0-0.8,0-2.5c0-1.6,0-1.8,0-2.5c0-0.6-0.1-1.1-0.3-1.5
		C13.5,3.7,13.3,3.3,13,3c-0.3-0.3-0.7-0.5-1.1-0.7c-0.4-0.1-0.8-0.2-1.5-0.3C9.8,2,9.6,2,8,2z M8,3.1c1.6,0,1.8,0,2.4,0
		c0.6,0,0.9,0.1,1.1,0.2c0.3,0.1,0.5,0.2,0.7,0.4c0.2,0.2,0.3,0.4,0.4,0.7c0.1,0.2,0.2,0.5,0.2,1.1c0,0.6,0,0.8,0,2.4s0,1.8,0,2.4
		c0,0.6-0.1,0.9-0.2,1.1c-0.1,0.3-0.2,0.5-0.4,0.7c-0.2,0.2-0.4,0.3-0.7,0.4c-0.2,0.1-0.5,0.2-1.1,0.2c-0.6,0-0.8,0-2.4,0
		s-1.8,0-2.4,0c-0.6,0-0.9-0.1-1.1-0.2c-0.3-0.1-0.5-0.2-0.7-0.4c-0.2-0.2-0.3-0.4-0.4-0.7c-0.1-0.2-0.2-0.5-0.2-1.1
		c0-0.6,0-0.8,0-2.4s0-1.8,0-2.4c0-0.6,0.1-0.9,0.2-1.1C3.4,4.2,3.6,4,3.8,3.8C4,3.6,4.2,3.4,4.5,3.3C4.7,3.2,5,3.1,5.6,3.1
		C6.2,3.1,6.4,3.1,8,3.1"/>
	<path class="st0" d="M8,10c-1.1,0-2-0.9-2-2c0-1.1,0.9-2,2-2c1.1,0,2,0.9,2,2C10,9.1,9.1,10,8,10z M8,4.9C6.3,4.9,4.9,6.3,4.9,8
		c0,1.7,1.4,3.1,3.1,3.1c1.7,0,3.1-1.4,3.1-3.1C11.1,6.3,9.7,4.9,8,4.9 M11.9,4.8c0,0.4-0.3,0.7-0.7,0.7c-0.4,0-0.7-0.3-0.7-0.7
		c0-0.4,0.3-0.7,0.7-0.7C11.6,4.1,11.9,4.4,11.9,4.8"/>
</g>
</svg>
