<?xml version="1.0" encoding="UTF-8"?>
<svg id="power_grey" data-name="power grey" xmlns="http://www.w3.org/2000/svg" viewBox="0 0 16 16">
  <defs>
    <style>
      .cls-1 {
        fill: #08191f;
        fill-rule: evenodd;
        stroke-width: 0px;
      }
    </style>
  </defs>
  <path class="cls-1" d="M11.55,12.49c.89-.9,1.43-2.13,1.43-3.49,0-2.04-1.23-3.79-2.99-4.56v-2.4h1.97v-1h-6.97v1h1.01v2.4c-1.76.77-2.99,2.52-2.99,4.56,0,1.36.55,2.59,1.43,3.49l-.75,1.49h-.69v1h2.49v-1h-.69l.42-.84c.79.53,1.74.84,2.76.84s1.97-.31,2.76-.84l.42.84h-.69v1h2.49v-1h-.69l-.75-1.49ZM7,2.03h1.99v2.08c-.32-.07-.66-.1-1-.1s-.67.04-1,.1v-2.08ZM4.01,9c0-2.2,1.79-3.99,3.99-3.99s3.99,1.79,3.99,3.99-1.79,3.99-3.99,3.99-3.99-1.79-3.99-3.99Z"/>
  <path class="cls-1" d="M8,6.99c-1.11,0-2.01.9-2.01,2.01s.9,2.01,2.01,2.01,2.01-.9,2.01-2.01-.9-2.01-2.01-2.01ZM8,9.99c-.55,0-.99-.44-.99-.99s.44-.99.99-.99.99.44.99.99-.44.99-.99.99Z"/>
</svg>