<?xml version="1.0" encoding="UTF-8"?>
<svg id="Icon_PG" data-name="Icon PG" xmlns="http://www.w3.org/2000/svg" version="1.1" viewBox="0 0 32 32">
  <defs>
    <style>
      .cls-1 {
        fill: #08191f;
        stroke-width: 0px;
      }
    </style>
  </defs>
  <path class="cls-1" d="M7,18h-2.1l3.2,11h15.7l3.2-11h-2l-2.8,9h-12.4l-2.8-9Z"/>
  <g>
    <path class="cls-1" d="M24,9v-2h-2v-2h-3v-2h-2v2h-2v-2h-2v2h-3v2h-2v2h2v2h-2v2h2v2h-2v2h2v2h3v2h2v-2h2v2h2v-2h3v-2h2v-2h-2v-2h2v-2h-2v-2h2ZM20,17h-8V7h8v10Z"/>
    <circle class="cls-1" cx="14" cy="10" r="1"/>
  </g>
</svg>