<?xml version="1.0" encoding="UTF-8"?>
<svg id="Motiv" xmlns="http://www.w3.org/2000/svg" viewBox="0 0 32 32">
  <defs>
    <style>
      .cls-1 {
        fill: #08191f;
        stroke-width: 0px;
      }
    </style>
  </defs>
  <path class="cls-1" d="M20.93,23.93c-1.61,1.24-3.46,2.29-4.96,3.02-3.44-1.66-8.75-5.08-8.75-8.38V6.82l8.75-1.74,8.75,1.74v4.18h2v-5.83l-10.75-2.14-10.75,2.14v13.39c0,5.36,8.61,9.6,10.33,10.4l.42.19.42-.19c.88-.41,3.56-1.71,5.96-3.61l-1.42-1.42Z"/>
  <g>
    <polygon class="cls-1" points="22.29 22.76 20.87 21.35 25.17 17.05 20.87 12.76 22.29 11.35 27.99 17.05 22.29 22.76"/>
    <polygon class="cls-1" points="16.63 22.76 15.22 21.35 19.51 17.05 15.22 12.76 16.63 11.35 22.34 17.05 16.63 22.76"/>
  </g>
</svg>