<?xml version="1.0" encoding="UTF-8"?>
<svg id="Ebene_2" data-name="Ebene 2" xmlns="http://www.w3.org/2000/svg" viewBox="0 0 45 45">
  <defs>
    <style>
      .cls-large-1 {
        stroke: #08191f;
        stroke-miterlimit: 10;
        stroke-width: 2px;
      }
      .cls-large-2 {
        stroke: #08191f;
        stroke-miterlimit: 10;
        stroke-width: 2px;
        fill:none;
      }

    </style>
  </defs>
  <g>
    <polygon class="cls-large-2" points="23.85 33 39.29 33 41 31.7 41 21.31 39.29 20 23.85 20 21 21.49 21 31.22 23.85 33"/>
    <line class="cls-large-1" x1="26" y1="20.27" x2="26" y2="32.98"/>
    <line class="cls-large-1" x1="36" y1="20.5" x2="36" y2="32.5"/>
    <line class="cls-large-1" x1="26" y1="24" x2="36" y2="24"/>
    <line class="cls-large-1" x1="26" y1="28" x2="36" y2="28"/>
    <polyline class="cls-large-2" points="26 20 26 17 32 17 32 20"/>
  </g>
  <polygon class="cls-large-2" points="8 12 8 33 18 33 18 18 14 18 14 12 8 12"/>
  <rect class="cls-large-2" x="4" y="21" width="4" height="10"/>
  <line class="cls-large-1" x1="18" y1="12" x2="5" y2="12"/>
</svg>