<?xml version="1.0" encoding="UTF-8"?>
<svg id="Ebene_2" data-name="Ebene 2" xmlns="http://www.w3.org/2000/svg" viewBox="0 0 400 225">
  <defs>
    <style>
      .cls-1 {
	      fill: none;
        fill-opacity:0;
        stroke: #08191f;
        stroke-miterlimit: 10;
        stroke-width: 10px;
      }
    </style>
  </defs>
  <g>
    <polygon class="cls-1" points="98.48 46.5 98.48 177.49 167.5 177.49 167.5 84.51 142.51 84.51 142.51 46.5 98.48 46.5"/>
    <rect class="cls-1" x="73.5" y="102.49" width="24.98" height="61.98"/>
    <line class="cls-1" x1="168.01" y1="46.5" x2="79.98" y2="46.5"/>
  </g>
  <polygon class="cls-1" points="204.54 177.49 317.14 177.49 327.53 171.49 327.53 102.03 317.14 96.5 204.54 96.5 189.46 102.19 189.46 171.76 204.54 177.49"/>
  <line class="cls-1" x1="217.48" y1="98.31" x2="217.48" y2="176.18"/>
  <line class="cls-1" x1="288.54" y1="98.31" x2="288.54" y2="176.18"/>
  <line class="cls-1" x1="217.88" y1="120.49" x2="288.9" y2="120.49"/>
  <line class="cls-1" x1="217.88" y1="144.53" x2="288.9" y2="144.53"/>
  <rect class="cls-1" x="217.48" y="77.48" width="43.01" height="19.02"/>
</svg>