<?xml version="1.0" encoding="UTF-8"?>
<svg id="Motiv" xmlns="http://www.w3.org/2000/svg" viewBox="0 0 32 32">
  <defs>
    <style>
      .cls-1 {
        fill: #08191f;
        stroke-width: 0px;
      }
    </style>
  </defs>
  <path class="cls-1" d="M27.41,14h-10.72l-1.7,1.13v-3.13h-3v-4h1v-2H4.07v2h.93v18h10v-1.13l1.7,1.13h10.72l2.59-2.59v-6.83l-2.59-2.59ZM13,24h-6V8h3v6h3v10ZM15,22.46v-4.93l2-1.33v7.6l-2-1.33ZM28,22.59l-1.41,1.41h-7.59v-4h6.97v-2h-6.97v-2h7.59l1.41,1.41v5.17Z"/>
  <rect class="cls-1" x="17" y="11" width="5" height="2"/>
  <rect class="cls-1" x="2" y="15" width="2" height="8"/>
</svg>