<?xml version="1.0" encoding="UTF-8"?>
<svg id="Motiv" xmlns="http://www.w3.org/2000/svg" viewBox="0 0 32 32">
  <defs>
    <style>
      .cls-1 {
        fill: #08191f;
        fill-rule: evenodd;
        stroke-width: 0px;
      }
    </style>
  </defs>
  <polygon class="cls-1" points="23.78 13.88 28.73 8.93 27.31 7.51 23.78 11.05 20.95 8.22 24.49 4.69 23.07 3.27 18.12 8.22 20.24 10.34 5.39 25.19 6.81 26.61 21.66 11.76 23.78 13.88"/>
  <path class="cls-1" d="M16,20.24l7.78,7.78,4.24-4.24-7.78-7.78-4.24,4.24ZM23.78,25.19l-4.95-4.95,1.41-1.41,4.95,4.95-1.41,1.41Z"/>
  <polygon class="cls-1" points="6.81 8.22 13.19 14.6 14.6 13.19 8.22 6.81 8.93 6.1 7.51 4.69 4.69 7.51 6.1 8.93 6.81 8.22"/>
</svg>