<?xml version="1.0" encoding="UTF-8"?>
<svg id="Motiv" xmlns="http://www.w3.org/2000/svg" viewBox="0 0 32 32">
  <defs>
    <style>
      .cls-1 {
        fill: #08191f;
        stroke-width: 0px;
      }
    </style>
  </defs>
  <path class="cls-1" d="M19.99,18.64v-2.09c-1.41.24-2.49,1.48-2.49,2.96,0,1.65,1.35,3,3,3,1.48,0,2.71-1.09,2.95-2.5h-2.1c-.17.29-.48.5-.85.5-.55,0-1-.45-1-1,0-.37.2-.69.49-.86Z"/>
  <g>
    <polygon class="cls-1" points="14.01 8.99 3 8.99 3 20.95 11 21 11 19 5.02 18.95 5.02 10.98 11.99 10.98 11.99 10.97 14.01 10.97 14.01 8.99"/>
    <rect class="cls-1" x="7" y="13" width="4" height="2"/>
    <path class="cls-1" d="M21,18h7v-7h-2v3.42c-1.37-1.48-3.33-2.42-5.5-2.42-4.14,0-7.5,3.36-7.5,7.5,0,1.98.78,3.78,2.04,5.13l-1.68,3.37h2.23l1.04-2.09c1.13.68,2.45,1.09,3.87,1.09s2.74-.4,3.87-1.09l1.04,2.09h2.25l-1.68-3.39c1.14-1.23,1.88-2.83,2-4.61h-2c-.25,2.8-2.61,5-5.47,5-3.03,0-5.5-2.47-5.5-5.5s2.47-5.5,5.5-5.5c1.7,0,3.23.78,4.24,2h-3.74v2Z"/>
    <polygon class="cls-1" points="23 10.98 23 10.98 23 8.98 18 8.98 18 9 18 9 18 11 23 11 23 10.98"/>
  </g>
</svg>