<?xml version="1.0" encoding="UTF-8"?>
<svg id="power_grey" data-name="power grey" xmlns="http://www.w3.org/2000/svg" viewBox="0 0 16 16">
  <defs>
    <style>
      .cls-1 {
        fill: #08191f;
        stroke-width: 0px;
      }
    </style>
  </defs>
  <path class="cls-1" d="M12.95,8c0-.72-.16-1.4-.44-2.02l1.83-1.06-.5-.87-1.83,1.06c-.81-1.12-2.06-1.87-3.5-2.01V.98s-1,0-1,0v2.12c-1.44.15-2.69.89-3.5,2l-1.83-1.06-.5.87,1.82,1.06c-.28.62-.45,1.31-.45,2.03s.16,1.4.44,2.02l-1.83,1.05.5.87,1.83-1.05c.81,1.12,2.06,1.87,3.51,2.02v2.12s.99,0,.99,0v-2.13c1.45-.15,2.7-.9,3.51-2.01l1.83,1.06.5-.87-1.83-1.06c.28-.62.45-1.3.45-2.03ZM8,12.05c-2.23,0-4.05-1.82-4.05-4.05s1.82-4.05,4.05-4.05,4.05,1.82,4.05,4.05-1.82,4.05-4.05,4.05Z"/>
</svg>