<?xml version="1.0" encoding="UTF-8"?><svg id="Icons_Power_Gray" xmlns="http://www.w3.org/2000/svg" viewBox="0 0 16 16"><defs><style>.cls-1{fill:#08191f;}</style></defs><path class="cls-1" d="M11,10c-.51,0-.97.2-1.33.51l-2.79-1.86c.07-.21.12-.42.12-.65s-.05-.45-.12-.65l2.79-1.86c.35.32.82.51,1.33.51,1.1,0,2-.9,2-2s-.9-2-2-2-2,.9-2,2c0,.23.05.45.12.65l-2.79,1.86c-.35-.32-.82-.51-1.33-.51-1.1,0-2,.9-2,2s.9,2,2,2c.51,0,.97-.2,1.33-.51l2.79,1.86c-.07.21-.12.42-.12.65,0,1.1.9,2,2,2s2-.9,2-2-.9-2-2-2ZM11,3c.55,0,1,.45,1,1s-.45,1-1,1-1-.45-1-1,.45-1,1-1ZM5,9c-.55,0-1-.45-1-1s.45-1,1-1,1,.45,1,1-.45,1-1,1ZM11,13c-.55,0-1-.45-1-1s.45-1,1-1,1,.45,1,1-.45,1-1,1Z"/></svg>