<?xml version="1.0" encoding="UTF-8"?>
<svg id="Motiv" xmlns="http://www.w3.org/2000/svg" viewBox="0 0 32 32">
  <defs>
    <style>
      .cls-1 {
        fill: #08191f;
        stroke-width: 0px;
      }
    </style>
  </defs>
  <path class="cls-1" d="M18.5,22H4.5c-1.38,0-2.5,1.12-2.5,2.5s1.12,2.5,2.5,2.5h14c1.38,0,2.5-1.12,2.5-2.5s-1.12-2.5-2.5-2.5ZM18.5,25H4.5c-.28,0-.5-.22-.5-.5s.22-.5.5-.5h14c.28,0,.5.22.5.5s-.22.5-.5.5Z"/>
  <path class="cls-1" d="M28,15V5h-1.99S4,14,4,14h0v7h15s7-12.03,7-12.03v6.03h-2v8h2.41l3.59-3.59v-4.41h-2ZM24.35,7.84l-5.35,9.19v-3.02h-9.72l15.06-6.16ZM17,19H6v-3h11v3ZM28,18.59l-2,2v-3.59h2v1.59Z"/>
</svg>