<?xml version="1.0" encoding="UTF-8"?>
<svg id="Motiv" xmlns="http://www.w3.org/2000/svg" viewBox="0 0 32 32">
  <defs>
    <style>
      .cls-1 {
        fill: #08191f;
        stroke-width: 0px;
      }
    </style>
  </defs>
  <rect class="cls-1" x="9" y="6" width="4" height="2"/>
  <path class="cls-1" d="M17,13V5h1.5v-2H3.5v2h1.5v8h12ZM7,5h8v6H7v-6Z"/>
  <path class="cls-1" d="M29,18.13l-6-1.28v-2.39c0-1.36-1.14-2.46-2.5-2.46s-2.48,1.1-2.48,2.46v6.83c-.7-.12-1.42-.06-2.1.18-1.03.37-1.85,1.12-2.31,2.12l-.37.81,5.76,3.55v1.05s2,0,2,0v-2.18s-5.04-3.1-5.04-3.1c.19-.16.4-.29.64-.37.52-.19,1.09-.16,1.59.07l1.82.87v-9.83c0-.26.23-.46.48-.46s.5.2.5.46v4.02l6,1.28v3.67l-2.02,2.02v3.56h2.01v-2.73s2-2.02,2-2.02v-6.12Z"/>
</svg>