<?xml version="1.0" encoding="UTF-8"?>
<svg id="Motiv" xmlns="http://www.w3.org/2000/svg" viewBox="0 0 32 32">
  <path d="M16.98828125,8.050404778019583v-2.05078125h3v-2h-8v2h3v2.05078125c-1.983276367189319.197875976560681-3.795166015619543.980346679691138-5.26708984375,2.16845703125l-2.21337890625-2.21337890625-1.4140625,1.4140625,2.200927734380457,2.200927734380457c-1.43896484375,1.732666015619543-2.306396484380457,3.956298828119543-2.306396484380457,6.379150390619543,0,5.513671875,4.486328125,10,10,10s10-4.486328125,10-10c0-5.176147460941138-3.9541015625-9.44580078125-9-9.94921875ZM15.98828125,25.999623528019583c-4.4111328125,0-8-3.5888671875-8-8s3.5888671875-8,8-8,8,3.5888671875,8,8-3.5888671875,8-8,8Z" fill="#08191f" stroke-width="0"/>
  <polygon points="16.968017578130457 12.035756340519583 14.968017578130457 12.035756340519583 14.968017578130457 18.025136223328445 19.59033203125 21.526967278019583 20.78515625 19.924062004578445 16.968017578130457 17.092519035828445 16.968017578130457 12.035756340519583" fill="#08191f" stroke-width="0"/>
</svg>