<?xml version="1.0" encoding="UTF-8"?>
<svg id="power_grey" data-name="power grey" xmlns="http://www.w3.org/2000/svg" viewBox="0 0 16 16">
  <defs>
    <style>
      .cls-1 {
        fill: #08191f;
        stroke-width: 0px;
      }
    </style>
  </defs>
  <polygon class="cls-1" points="5.71 6.75 5 7.46 8 10.46 14 4.46 13.29 3.75 8 9.04 5.71 6.75"/>
  <path class="cls-1" d="M12.9,7c.07.32.1.66.1,1,0,2.76-2.24,5-5,5s-5-2.24-5-5,2.24-5,5-5c1.28,0,2.44.5,3.33,1.3l.72-.72c-1.07-.98-2.49-1.58-4.05-1.58-3.31,0-6,2.69-6,6s2.69,6,6,6,6-2.69,6-6c0-.34-.03-.67-.09-1h-1.02Z"/>
</svg>