<?xml version="1.0" encoding="UTF-8"?><svg id="Motiv_White" xmlns="http://www.w3.org/2000/svg" viewBox="0 0 32 32"><defs><style>.cls-1{fill:#fff;stroke-width:0px;}</style></defs><rect class="cls-1" x="7.02" y="28" width="10" height="2"/><polygon class="cls-1" points="21.02 30 19.02 30 19.02 26.18 17.35 21.99 6.7 21.99 5.02 26.18 5.02 30 3.02 30 3.02 25.8 5.35 19.99 18.7 19.99 21.02 25.8 21.02 30"/><path class="cls-1" d="M12.02,18c-3.31,0-6-2.69-6-6h2c0,2.21,1.79,4,4,4s4-1.79,4-4h2c0,3.31-2.69,6-6,6Z"/><path class="cls-1" d="M19.02,9h-2c0-2.76-2.24-5-5-5s-5,2.24-5,5h-2c0-3.86,3.14-7,7-7s7,3.14,7,7Z"/><rect class="cls-1" x="3.02" y="8" width="18" height="2"/><rect class="cls-1" x="11.02" y="3.41" width="2" height="3.6"/><polygon class="cls-1" points="26.7 19.99 20.85 19.99 21.65 21.99 25.35 21.99 27.02 26.18 27.02 28.99 29.02 28.99 29.02 25.8 26.7 19.99"/><path class="cls-1" d="M18.55,16.58c.9.88,2.13,1.42,3.49,1.42,2.76,0,5-2.24,5-5,0-2.43-1.74-4.45-4.03-4.9v2.08c1.18.41,2.03,1.51,2.03,2.83,0,1.65-1.35,3-3,3-.93,0-1.77-.43-2.32-1.1l-1.17,1.68Z"/></svg>