<?xml version="1.0" encoding="UTF-8"?>
<svg id="Motiv" xmlns="http://www.w3.org/2000/svg" viewBox="0 0 32 32">
  <defs>
    <style>
      .cls-1 {
        fill: #08191f;
        stroke-width: 0px;
      }
    </style>
  </defs>
  <polygon class="cls-1" points="9.13 9.23 11.26 9.78 14 7.57 16.74 9.76 18.86 9.23 19.93 11 22.26 11 19.82 6.94 17.22 7.58 14 5 10.79 7.59 8.18 6.93 5.75 11 8.08 11 9.13 9.23"/>
  <g>
    <rect class="cls-1" x="7" y="20.97" width="2" height="5.96"/>
    <path class="cls-1" d="M28.58,12.58l-2.83-2.83-1.41,1.41,1.83,1.83H5.6c-1.99,0-3.61,1.57-3.61,3.5s1.62,3.5,3.61,3.5h15.39v6.95h2v-8.95H5.6c-.89,0-1.61-.67-1.61-1.5s.72-1.5,1.61-1.5h20.56l-1.83,1.83,1.41,1.41,2.83-2.83,1.41-1.41-1.41-1.41Z"/>
  </g>
</svg>