<?xml version="1.0" encoding="utf-8"?>
<svg id="Motiv_Power_Grey" xmlns="http://www.w3.org/2000/svg" viewBox="0 0 32 32">
  <defs>
    <style>
      .cls-1 {
        fill: #08191f;
        stroke-width: 0px;
      }
    </style>
  </defs>
  <path class="cls-1" d="M 24.03 18 L 26.03 18 C 25.8 15.71 24.17 13.84 22 13.26 C 22 13.64 22 15.406 22 15.36 C 23.06 15.83 23.84 16.81 24.03 18"/>
  <polygon class="cls-1" points="20 13 9.83 13 9.83 13 12.36 10.46 10.95 9.05 6 14 10.95 18.95 12.36 17.54 9.83 15 20 15 20 13"/>
  <path class="cls-1" d="M 19.993 13 C 19.993 13 21.36 13.067 22.007 13.275 C 23.172 13.649 23.035 15.813 22.016 15.366 C 21.381 15.087 19.982 14.999 19.982 14.999"/>
</svg>