<svg viewBox="0 0 32 32" xmlns="http://www.w3.org/2000/svg"><g fill="#fff"><path d="m1.81 17.82h22.76v2h-22.76z" transform="matrix(.70710678 -.70710678 .70710678 .70710678 -9.44 14.84)"/><path d="m23.36 14.31-5.65-5.66 4.95-4.95 1.41 1.41-3.54 3.54 2.83 2.83 3.54-3.54 1.41 1.42z"/><path d="m23.32 29-7.96-7.96 4.41-4.35 7.96 7.96zm-5.12-7.95 5.13 5.13 1.56-1.54-5.13-5.13z"/><path d="m8.71 5.99h2v10h-2z" transform="matrix(.70710678 -.70710678 .70710678 .70710678 -4.93 10.08)"/><path d="m3.78 6.17h4.22v2h-4.22z" transform="matrix(.70710678 -.70710678 .70710678 .70710678 -3.35 6.26)"/></g></svg>