<?xml version="1.0" encoding="UTF-8"?>
<svg id="Motiv" xmlns="http://www.w3.org/2000/svg" viewBox="0 0 32 32.000000000003638">
  <path d="M15.96533203125,9c1.9296875,0,3.5-1.5703125,3.5-3.5s-1.5703125-3.5-3.5-3.5-3.5,1.5703125-3.5,3.5,1.5703125,3.5,3.5,3.5ZM15.96533203125,4c.8271484375,0,1.5.6728515625,1.5,1.5s-.6728515625,1.5-1.5,1.5-1.5-.6728515625-1.5-1.5.6728515625-1.5,1.5-1.5Z" fill="#08191f" stroke-width="0"/>
  <polygon points="19.22021484375 9.9833984375 12.69384765625 9.9833984375 9 24 13 24 13 30 15 30 15 22 11.59619140625 22 14.23486328125 11.9833984375 17.68896484375 11.9833984375 20.38623046875 22 17 22 17 30 19 30 19 24 23 24 19.22021484375 9.9833984375" fill="#08191f" stroke-width="0"/>
</svg>