<?xml version="1.0" encoding="UTF-8"?><svg id="Icons_Power_Gray" xmlns="http://www.w3.org/2000/svg" viewBox="0 0 16 16"><defs><style>.cls-1{fill:#08191f;}</style></defs><path class="cls-1" d="M13.75,5.11c-.14-.52-.54-.92-1.06-1.06-.94-.25-4.69-.25-4.69-.25,0,0-3.75,0-4.69.25-.52.14-.92.54-1.06,1.06-.25.94-.25,2.89-.25,2.89,0,0,0,1.95.25,2.89.14.52.54.92,1.06,1.06.94.25,4.69.25,4.69.25,0,0,3.75,0,4.69-.25.52-.14.92-.54,1.06-1.06.25-.94.25-2.89.25-2.89,0,0,0-1.95-.25-2.89ZM6.8,9.8v-3.6l3.12,1.8-3.12,1.8Z"/></svg>