<svg xmlns="http://www.w3.org/2000/svg" xmlns:xlink="http://www.w3.org/1999/xlink" width="45" height="45" viewBox="0 0 45 45"><defs><style>
.cls-1 {
	fill: #aaaaaa;
	stroke-width: 0px;
}
</style></defs><path d="M10 15.97c-1.65 0-3 1.35-3 3s1.35 3 3 3 3-1.35 3-3-1.35-3-3-3m0 4c-.55 0-1-.45-1-1s.45-1 1-1 1 .45 1 1-.45 1-1 1" class="cls-1"/><path d="M39.63 15.01H32v-3h-7v3h-1.4l-1.9.99h-5.2l-2.97-4H3v21h19v-3.97l1.56.98h16.06l2.38-1.8V16.82zm-4.63 8h-8v-2h8zm-8 2h8v3h-8zm8-6h-8v-2h8zm-8-5h3v1h-3zM20 31H5V14h7.52l2.97 4h4.5v13Zm2-4.33V18.1l2.09-1.09H25v11h-.87L22 26.68Zm18 .54-1.05.79H37V17h1.95l1.05.8v9.4Z" class="cls-1"/></svg>