<svg xmlns="http://www.w3.org/2000/svg" xmlns:xlink="http://www.w3.org/1999/xlink" width="32" height="32" viewBox="0 0 32 32"><defs><style>
.cls-1 {
	fill: #aaaaaa;
	stroke-width: 0px;
}
</style></defs><path d="M30 17.81 27.68 12H20v6h2v-4h4.32L28 18.19V24h-2.18c-.41-1.16-1.51-2-2.82-2s-2.4.84-2.82 2H9.79c-.42-1.15-1.51-1.99-2.81-1.99-1.65 0-2.99 1.34-2.99 2.99s1.34 2.99 2.99 2.99c1.3 0 2.4-.84 2.81-1.99h10.39c.41 1.16 1.51 2 2.82 2s2.4-.84 2.82-2H30zM6.99 25.99c-.55 0-.99-.44-.99-.99s.45-.99.99-.99.99.44.99.99-.45.99-.99.99M23 26c-.55 0-1-.45-1-1s.45-1 1-1 1 .45 1 1-.45 1-1 1" class="cls-1"/><path d="M9.99 20v-2C6.72 18.01 4 15.3 4 12s2.69-6 6-6 6 2.69 6 6h2c0-4.41-3.59-8-8-8s-8 3.59-8 8 3.58 8 7.99 8" class="cls-1"/><path d="M11.57 15.56 9 13V8.01h2v4.16l1.98 1.98z" class="cls-1"/></svg>