<svg xmlns="http://www.w3.org/2000/svg" xmlns:xlink="http://www.w3.org/1999/xlink" width="32" height="32" viewBox="0 0 32 32"><defs><style>.cls-1{stroke-width:0px}</style></defs><path fill="#aaaaaa" d="M16.01 16.31h-2.02V19H12v-6.99h1.99v2.62h2.02v-2.62H18V19h-1.99zm3.06 3.5 1.09-.88c.36-.29.63-.5.63-.76 0-.17-.1-.29-.3-.29s-.38.17-.35.54h-1.18c-.07-.87.59-1.59 1.53-1.59s1.53.56 1.53 1.34c0 .54-.26.99-.99 1.4l-.23.13h1.22v1.04h-2.95v-.92Z" class="cls-1"/><path fill="#aaaaaa" d="m27.77 13.84-1.97.37c.77 4.15-1.17 8.36-4.83 10.48a9.98 9.98 0 01-11.01-.68H13v-2H7v6.01h2v-2.23a12.01 12.01 0 0012.97.64c4.4-2.54 6.73-7.59 5.8-12.57ZM11 7.34a9.98 9.98 0 0111.03.67h-3.05v2h6V3.99h-2v2.23c-3.8-2.72-8.9-3-13-.62-4.39 2.55-6.7 7.61-5.76 12.59l1.96-.37c-.78-4.15 1.15-8.37 4.8-10.49Z" class="cls-1"/></svg>