<svg xmlns="http://www.w3.org/2000/svg" xmlns:xlink="http://www.w3.org/1999/xlink" width="16" height="16" viewBox="0 0 16 16"><style>.st1{clip-path:url(#SVGID_00000057866294530743012670000010373591317292637331_)}.st2{fill-rule:evenodd;clip-rule:evenodd}</style><path fill="#aaaaaa" d="M8 2H5.5q-.9 0-1.5.3c-.3.2-.7.4-1 .7s-.5.7-.7 1.1c-.1.4-.2.8-.3 1.4v5q0 .9.3 1.5c.2.3.4.7.7 1s.7.5 1.1.7c.4.1.8.2 1.5.3h5q.9 0 1.5-.3c.4-.2.7-.4 1.1-.7.3-.3.5-.7.7-1.1.1-.4.2-.8.3-1.5v-5q0-.9-.3-1.5c-.4-.2-.6-.6-.9-.9s-.7-.5-1.1-.7c-.4-.1-.8-.2-1.5-.3zm0 1.1h2.4c.6 0 .9.1 1.1.2.3.1.5.2.7.4s.3.4.4.7c.1.2.2.5.2 1.1v4.8c0 .6-.1.9-.2 1.1-.1.3-.2.5-.4.7s-.4.3-.7.4c-.2.1-.5.2-1.1.2H5.6c-.6 0-.9-.1-1.1-.2-.3-.1-.5-.2-.7-.4s-.3-.4-.4-.7c-.1-.2-.2-.5-.2-1.1V5.5c0-.6.1-.9.2-1.1 0-.2.2-.4.4-.6s.4-.4.7-.5c.2-.1.5-.2 1.1-.2z" class="st0"/><path fill="#aaaaaa" d="M8 10c-1.1 0-2-.9-2-2s.9-2 2-2 2 .9 2 2-.9 2-2 2m0-5.1C6.3 4.9 4.9 6.3 4.9 8s1.4 3.1 3.1 3.1 3.1-1.4 3.1-3.1S9.7 4.9 8 4.9m3.9-.1c0 .4-.3.7-.7.7s-.7-.3-.7-.7.3-.7.7-.7.7.3.7.7" class="st0"/></svg>