<svg xmlns="http://www.w3.org/2000/svg" xmlns:xlink="http://www.w3.org/1999/xlink" width="32" height="32" viewBox="0 0 32 32"><defs><style>
.cls-1 {
	fill: #aaaaaa;
	stroke-width: 0px;
}
</style></defs><path d="M21 6v9h2V4H7v20h8v-2H9V6z" class="cls-1"/><path d="M19 8h-8v2h8zm0 4h-8v2h8zm-3 4h-5v2h5zm10 7c0-.37-.07-.72-.16-1.06l1.86-1.07-1-1.73-1.85 1.07c-.5-.51-1.14-.87-1.85-1.06v-2.14h-2v2.14c-.71.18-1.34.55-1.84 1.05l-1.84-1.07-1 1.73 1.86 1.08c-.1.34-.16.7-.16 1.07s.07.72.16 1.05l-1.86 1.07 1 1.73 1.85-1.06c.5.51 1.14.88 1.85 1.06V29h2v-2.14c.72-.18 1.35-.55 1.86-1.06l1.84 1.07 1-1.73-1.86-1.07c.09-.34.16-.69.16-1.06Zm-4 2c-1.1 0-2-.9-2-2s.9-2 2-2 2 .9 2 2-.9 2-2 2" class="cls-1"/></svg>