<svg xmlns="http://www.w3.org/2000/svg" xmlns:xlink="http://www.w3.org/1999/xlink" width="16" height="16" viewBox="0 0 16 16"><path fill="#aaaaaa" d="M11 10c-.51 0-.97.2-1.33.51L6.88 8.65C6.95 8.44 7 8.23 7 8s-.05-.45-.12-.65l2.79-1.86c.35.32.82.51 1.33.51 1.1 0 2-.9 2-2s-.9-2-2-2-2 .9-2 2c0 .23.05.45.12.65L6.33 6.51C5.98 6.19 5.51 6 5 6c-1.1 0-2 .9-2 2s.9 2 2 2c.51 0 .97-.2 1.33-.51l2.79 1.86c-.07.21-.12.42-.12.65 0 1.1.9 2 2 2s2-.9 2-2-.9-2-2-2m0-7c.55 0 1 .45 1 1s-.45 1-1 1-1-.45-1-1 .45-1 1-1M5 9c-.55 0-1-.45-1-1s.45-1 1-1 1 .45 1 1-.45 1-1 1m6 4c-.55 0-1-.45-1-1s.45-1 1-1 1 .45 1 1-.45 1-1 1"/></svg>