<svg xmlns="http://www.w3.org/2000/svg" xmlns:xlink="http://www.w3.org/1999/xlink" width="32" height="32" viewBox="0 0 32 32"><defs><style>
.cls-1 {
	fill: #ffffff;
	stroke-width: 0px;
}
</style></defs><path d="M6 12h20v9h2V10h-7V7.99C21 6.89 20.11 6 19.01 6h-6.03c-1.1 0-1.99.89-1.99 1.99V10H4v16h16v-2H6zm13-4v2h-6V8z" class="cls-1"/><path d="M15.79 15.83c.5 0 .95.31 1.03.74h2.2c-.13-1.24-.88-2.13-2.03-2.48V13h-1.96v1c-1.21.26-2.14 1.16-2.14 2.37 0 3 3.86 2.27 3.86 3.28 0 .38-.33.55-.78.55-.77 0-1.14-.43-1.26-1.06h-2.2c.15 1.5 1.03 2.57 2.52 2.88v.97h1.96v-1.01c1.21-.32 2.03-1.22 2.03-2.48 0-3.11-3.86-2.33-3.86-3.25 0-.26.24-.42.63-.42M29 23.39l-1.41-1.41-2.3 2.29L23 21.98l-1.41 1.41 2.29 2.3-2.29 2.29L23 29.39l2.29-2.29 2.3 2.29L29 27.98l-2.29-2.29z" class="cls-1"/></svg>