<svg xmlns="http://www.w3.org/2000/svg" xmlns:xlink="http://www.w3.org/1999/xlink" width="32" height="32" viewBox="0 0 32 32"><g fill="#ffffff" stroke-width="0"><path d="M7.022 28h10v2h-10z"/><path d="m5.346 20-2.324 5.808V30h2v-3.808L6.699 22H16v-2zM12 16c-2.206 0-4-1.794-4-4H6c0 3.308 2.691 6 6 6s6-2.692 6-6h-2c0 2.206-1.794 4-4 4m9-8h-2.08c-.488-3.386-3.4-6-6.92-6S5.568 4.614 5.08 8H3v2h18zM7.101 8A5.01 5.01 0 0111 4.101v2.91h2V4.1A5.01 5.01 0 0116.899 8z"/></g><path fill="#ffffff" d="M27.001 23c0-.37-.066-.72-.16-1.06l1.858-1.072-1-1.732-1.847 1.065a4 4 0 00-1.85-1.059V17h-2v2.142a4 4 0 00-1.845 1.051l-1.844-1.07-1.004 1.73 1.856 1.077a4 4 0 00-.164 1.07c0 .367.066.716.16 1.055l-1.86 1.069.998 1.734 1.849-1.063c.5.51 1.137.876 1.848 1.061L21.994 29l2 .002.002-2.141a4 4 0 001.853-1.058l1.845 1.067 1.002-1.73-1.857-1.074c.095-.341.162-.694.162-1.065m-4 2c-1.102 0-2-.897-2-2s.898-2 2-2 2 .897 2 2-.897 2-2 2"/></svg>