<svg xmlns="http://www.w3.org/2000/svg" xmlns:xlink="http://www.w3.org/1999/xlink" width="16" height="16" viewBox="0 0 16 16"><path fill="#ffffff" d="M4 6.09V3H3v3.09c-.58.21-1 .76-1 1.41s.42 1.2 1 1.41V13h1V8.91c.58-.21 1-.76 1-1.41s-.42-1.2-1-1.41M3.5 8c-.28 0-.5-.22-.5-.5s.22-.5.5-.5.5.22.5.5-.22.5-.5.5m5 1.09V3h-1v6.09c-.58.21-1 .76-1 1.41s.42 1.2 1 1.41V13h1v-1.09c.58-.21 1-.76 1-1.41s-.42-1.2-1-1.41M8 11c-.28 0-.5-.22-.5-.5s.22-.5.5-.5.5.22.5.5-.22.5-.5.5m6-5.5c0-.65-.42-1.2-1-1.41V3h-1v1.09c-.58.21-1 .76-1 1.41s.42 1.2 1 1.41V13h1V6.91c.58-.21 1-.76 1-1.41m-1.5.5c-.28 0-.5-.22-.5-.5s.22-.5.5-.5.5.22.5.5-.22.5-.5.5"/></svg>