<svg xmlns="http://www.w3.org/2000/svg" xmlns:xlink="http://www.w3.org/1999/xlink" width="32" height="32" viewBox="0 0 32 32"><defs><style>
.cls-1 {
	fill: #ffffff;
	stroke-width: 0px;
}
</style></defs><path d="M5 5h8v4h2V3H3v22h4v-2H5z" class="cls-1"/><path d="M7 7h4v2H7zm2 21h10V11H9zm2-15h6v13h-6z" class="cls-1"/><path d="M13 15h2v2h-2zm11.5 4.5c0-1.65-1.35-3-3-3-.17 0-.34.02-.5.05v2.1c.15-.09.31-.15.5-.15.55 0 1 .45 1 1s-.45 1-1 1c-.19 0-.35-.06-.5-.15v2.1c.16.03.33.05.5.05 1.65 0 3-1.35 3-3" class="cls-1"/><path d="M29 19.5c0-2.87-1.62-5.37-4-6.63V9h-4v2h2v1.15c-.48-.1-.99-.15-1.5-.15-.17 0-.33.01-.5.03v2c.17-.01.33-.03.5-.03 3.03 0 5.5 2.47 5.5 5.5S24.53 25 21.5 25c-.17 0-.33-.01-.5-.03v1.99c.17.01.33.03.5.03 1.41 0 2.72-.4 3.85-1.08l1.04 2.08h2.24l-1.68-3.36a7.46 7.46 0 002.06-5.14Z" class="cls-1"/></svg>