<svg xmlns="http://www.w3.org/2000/svg" xmlns:xlink="http://www.w3.org/1999/xlink" width="32" height="32" viewBox="0 0 32 32"><defs><style>
.cls-1 {
	fill: #ffffff;
	stroke-width: 0px;
}
</style></defs><path d="M9.03 3v2.94h2L11 5h16v10.99H16.03V18H29V3z" class="cls-1"/><path d="M18.71 14.71 23 10.42V14h2V7h-7v2h3.58l-4.29 4.29zM5.32 20 3 25.81V29h2v-2.81L6.68 22h6.64L15 26.19V29h2v-3.19L14.68 20zM10 18c2.76 0 5-2.24 5-5s-2.24-5-5-5-5 2.24-5 5 2.24 5 5 5m0-8c1.65 0 3 1.35 3 3s-1.35 3-3 3-3-1.35-3-3 1.35-3 3-3" class="cls-1"/></svg>