<svg xmlns="http://www.w3.org/2000/svg" xmlns:xlink="http://www.w3.org/1999/xlink" width="16" height="16" viewBox="0 0 16 16"><style>
.st0 {
	fill: #ffffff;
}
.st1 {
	clip-path: url(#SVGID_00000156559227969589539190000000869186772868021418_);
}
.st2 {
	fill-rule: evenodd;
	clip-rule: evenodd;
	fill: #ffffff;
}
</style><path d="M4 6.2h1.3c.3 0 .7.1.9.2s.6.3.8.6.3.6.3 1-.1.7-.3 1-.4.5-.7.6-.6.2-1 .2H4zm1.9 2.5c.2-.1.3-.4.3-.7s-.1-.6-.3-.7c-.2-.2-.4-.2-.7-.2H5V9h.2c.3-.1.5-.1.7-.3m2.5.9c-.3-.2-.6-.4-.7-.7-.2-.2-.3-.6-.3-.9s.1-.7.2-.9c.2-.3.4-.5.7-.7s.6-.2 1-.2.7.1 1 .2c.3.2.5.4.7.7s.2.6.2.9-.1.7-.2.9c-.2.3-.4.5-.7.7s-.6.2-1 .2c-.3 0-.7-.1-.9-.2m1.4-.8.3-.3c.1-.1.1-.3.1-.5s0-.3-.1-.5c-.1-.1-.2-.3-.3-.3-.2-.1-.3-.2-.5-.2-.1 0-.3.1-.4.2-.2 0-.3.2-.3.3-.1.2-.2.3-.2.5s0 .3.1.5c.1.1.2.3.3.3.2.1.4.2.5.2.2 0 .3-.1.5-.2m2.5.8q-.45-.15-.6-.6c-.15-.45-.2-.6-.2-1s.1-.7.2-1c.2-.3.4-.5.7-.6s.6-.2.9-.2.6.1.8.2.4.3.6.5.2.5.2.7h-1c0-.2-.1-.3-.2-.4s-.3-.2-.4-.2q-.3 0-.6.3c-.3.3-.3.4-.3.7 0 .2 0 .4.1.5s.2.3.3.3c.2.1.3.2.5.2s.3 0 .4-.1.2-.2.2-.4h1c0 .3-.1.5-.3.7s-.3.4-.6.5c-.2.1-.5.2-.8.2-.3-.1-.6-.1-.9-.3" class="st0"/><path d="M9 11v1H3V4h6v1h1V3H2v10h8v-2z" class="st0"/></svg>