<svg xmlns="http://www.w3.org/2000/svg" xmlns:xlink="http://www.w3.org/1999/xlink" width="32" height="32" viewBox="0 0 32 32"><g fill="#ffffff"><path d="m22.92 3.87-1.14 1.64c3.68 2.05 6.18 5.98 6.18 10.49 0 6.62-5.38 12-12 12s-12-5.38-12-12c0-6.47 5.14-11.74 11.55-11.98l1.37-1.98c-.3-.01-.61-.04-.92-.04-7.72 0-14 6.28-14 14s6.28 14 14 14 14-6.28 14-14c0-5.18-2.84-9.71-7.04-12.13"/><path d="M22.99 12h-8.15l5.86-8.43h-.01l.4-.57a13.6 13.6 0 00-2-.61l-1.24 1.78L11.01 14h8.05l-5.08 6.99V17H12v5.99l-.01 1.02 1.02-.01h5.98v-2h-3.26z"/></g></svg>