<svg xmlns="http://www.w3.org/2000/svg" xmlns:xlink="http://www.w3.org/1999/xlink" width="32" height="32" viewBox="0 0 32 32"><defs><style>.cls-1{stroke-width:0px}</style></defs><g id="svgID0"><path fill="#ffffff" d="M26 16h2c0-4.8-2.9-9-7-10.9v2.2c3 1.7 5 5 5 8.7M6 16c0-5.2 4-9.5 9-9.9v-2C8.8 4.6 4 9.8 4 16s3.4 9.7 8 11.3v-2.1c-3.5-1.5-6-5.1-6-9.2m21.5 6.1L25 24.7V19h-2v5.7l-2.5-2.6-1.5 1.5 5 4.9 4.9-5z" class="cls-1"/><path fill="#ffffff" d="M23.2 15H19V4L9.9 17H14v11zm-9.5 0 3.3-4.7V17h2.3L16 21.7V15z" class="cls-1"/></g></svg>