<svg xmlns="http://www.w3.org/2000/svg" xmlns:xlink="http://www.w3.org/1999/xlink" width="32" height="32" viewBox="0 0 32 32"><g fill="#ffffff"><path d="M30 28H11.99L17 22h4l2-2.01V17l2-2.01v-2.96l5-3.05zm-13.74-2H28V12.54l-1 .61v2.66l-2 2.01v2.99L21.82 24h-3.89zM21 15v-2h-3.11a4.9 4.9 0 00-.73-1.75l2.21-2.21-1.41-1.41-2.21 2.21c-.52-.35-1.11-.6-1.74-.73V5.99h-2v3.12c-.63.13-1.22.38-1.74.73L8.04 7.62 6.63 9.04l1.95 1.95H13c.83 0 1.58.34 2.13.88.53.53.86 1.26.88 2.07v.12c-.02.78-.33 1.48-.82 2.01l-.11.11c-.52.49-1.21.8-1.98.82H8.57l-1.94 1.95 1.41 1.41 2.2-2.2c.52.35 1.11.6 1.75.73V22h2v-3.11c.64-.13 1.23-.38 1.75-.73l2.2 2.2 1.41-1.41-2.2-2.2c.35-.52.6-1.11.73-1.75z"/><path d="M2 12.99h11v2H2z"/></g></svg>