<svg xmlns="http://www.w3.org/2000/svg" xmlns:xlink="http://www.w3.org/1999/xlink" width="32" height="32" viewBox="0 0 32 32"><path fill="#ffffff" d="M6 7H5v2h1v1.84l-1 3V25h8V13.84l-1-3V9h1V7zm5 7.16V23H7v-8.84l1-3V9h2v2.16zm17.66 7.75C27.68 18.98 24.8 17 21.5 17s-6.06 1.9-7.1 4.74c-.28.75-.17 1.59.29 2.24.45.65 1.17 1.02 1.96 1.02h9.71c.78 0 1.52-.38 1.98-1.01.44-.62.56-1.37.32-2.08m-1.95.91c-.08.11-.21.18-.35.18h-9.71c-.17 0-.27-.09-.32-.17a.45.45 0 01-.05-.41c.47-1.28 1.46-2.3 2.72-2.88V21h2v-1.96c.17-.01.33-.04.5-.04s.33.02.5.04V21h2v-1.44c1.3.61 2.32 1.67 2.76 2.98.03.09.01.19-.05.28"/></svg>