<svg xmlns="http://www.w3.org/2000/svg" xmlns:xlink="http://www.w3.org/1999/xlink" width="32" height="32" viewBox="0 0 32 32"><defs><style>.cls-1{stroke-width:0px}</style></defs><path fill="#ffffff" d="M19 6v2h3.52L17 13.55l1.42 1.41 5.54-5.56V13h2V6zM5 5h8v4h2V3H3v22h4v-2H5z" class="cls-1"/><path fill="#ffffff" d="M7 7h4v2H7zm6 8h2v2h-2z" class="cls-1"/><path fill="#ffffff" d="M17 26h-6V13h4.02v-2H9v17h10V17.02h-2zm2-24h3.01v2H19zm4-.02h2.96v2H23zm6.96.06V2h-2.95v2h.95v1.03h2zm-2 3.99h2v3h-2zm0 3.96h2v3h-2z" class="cls-1"/></svg>