<svg xmlns="http://www.w3.org/2000/svg" xmlns:xlink="http://www.w3.org/1999/xlink" width="32" height="32" viewBox="0 0 32 32"><defs><style>.cls-1{stroke-width:0px}</style></defs><path fill="#ffffff" d="M28.92 14.36 22.56 8l2.83-2.83-.71-.71a5.003 5.003 0 00-7.07 0l-2.83 2.83 4.24 4.24 2.12-2.12 6.36 6.36 1.41-1.41ZM17.61 7.29l1.41-1.41c.92-.92 2.3-1.12 3.42-.59L19.02 8.7zM15 12.88V9.01H8v3.87c-2.38 1.26-4 3.76-4 6.63 0 1.99.79 3.8 2.06 5.15l-1.68 3.35h2.24l1.04-2.07a7.43 7.43 0 007.7-.01l1.04 2.08h2.24l-1.68-3.36a7.46 7.46 0 002.06-5.14c0-2.87-1.62-5.37-4-6.63Zm-5-1.87h3v1.15c-.48-.1-.99-.15-1.5-.15s-1.02.05-1.5.15zm1.5 14c-3.03 0-5.5-2.47-5.5-5.5s2.47-5.5 5.5-5.5 5.5 2.47 5.5 5.5-2.47 5.5-5.5 5.5" class="cls-1"/><path fill="#ffffff" d="M11.5 16.41c-1.65 0-3 1.35-3 3s1.35 3 3 3 3-1.35 3-3-1.35-3-3-3m0 4c-.55 0-1-.45-1-1s.45-1 1-1 1 .45 1 1-.45 1-1 1" class="cls-1"/></svg>