<svg xmlns="http://www.w3.org/2000/svg" xmlns:xlink="http://www.w3.org/1999/xlink" width="32" height="32" viewBox="0 0 32 32"><path fill="#ffffff" d="M10.996 28h10v2h-10z"/><path fill="#ffffff" d="M24.996 30h-2v-5.808L21.319 20H10.673l-1.677 4.192V30h-2v-6.193L9.319 18h13.354l2.323 5.807zM16 14h-.004c-2.757 0-5-2.243-5-5s2.243-5 5-5H16V2h-.004c-3.86 0-7 3.14-7 7s3.14 7 7 7H16zm10.01-4.971c0-.37-.066-.72-.16-1.06l1.857-1.071-1-1.732-1.846 1.065A4 4 0 0023 5.168V3.03h-2v2.145a4 4 0 00-1.833 1.048l-1.843-1.069-1.004 1.73 1.855 1.076a4 4 0 00-.164 1.069c0 .367.066.717.16 1.055l-1.86 1.069.997 1.733 1.85-1.063A4 4 0 0021 12.883l-.003 2.144 2 .003.003-2.14a4 4 0 001.856-1.059l1.846 1.068 1.002-1.731-1.857-1.074c.095-.342.162-.694.162-1.065m-4 2c-1.102 0-1.999-.897-1.999-2s.897-2 2-2 2 .897 2 2-.897 2-2 2"/></svg>