<svg xmlns="http://www.w3.org/2000/svg" xmlns:xlink="http://www.w3.org/1999/xlink" width="32" height="32" viewBox="0 0 32 32"><defs><style>
.cls-1 {
	fill: #ffffff;
	stroke-width: 0px;
}
</style></defs><path d="m8.09 22.01-.76-1.53 8.68-3.39 8.56 3.44-.72 1.48h2.23l1.24-2.54-11.3-4.53-11.45 4.47 1.29 2.6zM14.99 4h2v3.03h-2z" class="cls-1"/><path d="M11.76 10.01h8.49l1.41 5.03 2.34.94-2.24-7.97H10.24l-2.19 7.88 2.33-.91zm15.75 15.28c-.58-.53-1.37-1.27-2.84-1.27s-2.27.73-2.84 1.27c-.5.46-.79.73-1.49.73s-.99-.28-1.49-.73c-.58-.53-1.37-1.27-2.84-1.27s-2.27.73-2.85 1.27c-.5.46-.8.73-1.49.73s-.99-.28-1.49-.74c-.58-.53-1.37-1.26-2.85-1.26s-2.27.73-2.85 1.26c-.17.16-.32.28-.47.4v2.2c.85-.24 1.4-.74 1.82-1.13.5-.46.8-.74 1.49-.74s.99.28 1.49.74c.58.53 1.37 1.26 2.85 1.26s2.27-.73 2.85-1.27c.5-.46.8-.73 1.49-.73s.99.28 1.49.73c.58.53 1.37 1.27 2.84 1.27s2.27-.73 2.84-1.27c.5-.46.79-.73 1.49-.73s.99.28 1.49.73c.42.39.96.88 1.78 1.12v-2.22c-.13-.1-.27-.22-.43-.37Z" class="cls-1"/></svg>