<svg xmlns="http://www.w3.org/2000/svg" xmlns:xlink="http://www.w3.org/1999/xlink" width="32" height="32" viewBox="0 0 32 32"><defs><style>
.cls-1 {
	fill: #ffffff;
	stroke-width: 0px;
}
</style></defs><path d="M23 11.47c.44.77.68 1.64.68 2.54s-.23 1.76-.67 2.52l1.49 1.48c.8-1.17 1.23-2.56 1.23-4.01s-.43-2.84-1.24-4.02L23 11.46Zm3.04-3.03c1.29 1.57 1.99 3.51 1.99 5.55s-.7 3.98-1.99 5.55L27.49 21c1.67-1.96 2.59-4.42 2.59-7s-.91-5.04-2.58-7l-1.46 1.45ZM21 21 2 18.06v-7.09L21 7zM4 16.34l15 2.32V9.45L4 12.58v3.75Z" class="cls-1"/><path d="M6 18h2v8H6z" class="cls-1"/></svg>