<svg xmlns="http://www.w3.org/2000/svg" xmlns:xlink="http://www.w3.org/1999/xlink" width="32" height="32" viewBox="0 0 32 32"><path fill="#ffffff" d="m8.5 7.44-.91 1.08C4.97 11.64 2 15.18 2 18.52c0 3.58 2.92 6.5 6.5 6.5s6.5-2.92 6.5-6.5c0-3.31-2.93-6.82-5.52-9.91L8.5 7.43Zm0 15.59c-2.48 0-4.5-2.02-4.5-4.5s2.35-5.4 4.5-7.97c2.13 2.56 4.5 5.59 4.5 7.97s-2.02 4.5-4.5 4.5M24.19 8.32l-.7-.67-.7.67C22.55 8.55 17 14 17 18.63c0 4.18 4.82 6.18 5.03 6.26l.18.07v-2.69a3.1 3.1 0 01-.47-1.43c-.07-1.14.54-2.44 1.76-3.79 1.23 1.35 1.83 2.65 1.76 3.79a3 3 0 01-.49 1.45v2.67l.19-.07c.21-.08 5.03-2.04 5.03-6.26 0-4.63-5.58-10.08-5.81-10.31Zm3.07 12.45c.04-1.92-.98-3.88-3.07-5.86l-.69-.65-.69.65c-2.08 1.97-3.1 3.94-3.07 5.85-.44-.6-.75-1.3-.75-2.11 0-2.72 2.8-6.33 4.49-8.16 1.7 1.83 4.51 5.44 4.51 8.16 0 .82-.31 1.53-.75 2.13Z"/></svg>