<svg xmlns="http://www.w3.org/2000/svg" xmlns:xlink="http://www.w3.org/1999/xlink" width="32" height="32" viewBox="0 0 32 32"><defs><style>
.cls-1 {
	fill: #ffffff;
	stroke-width: 0px;
}
</style></defs><path d="M26.67 18h-5.84l.8 2h3.69L27 24.19V27h2v-3.19zM7 28h10v2H7zm5-12c-3.86 0-7-3.14-7-7s3.14-7 7-7 7 3.14 7 7-3.14 7-7 7m0-12C9.24 4 7 6.24 7 9s2.24 5 5 5 5-2.24 5-5-2.24-5-5-5" class="cls-1"/><path d="M21 30h-2v-5.81L17.32 20H6.67L5 24.19V30H3v-6.19L5.32 18h13.35L21 23.81zm1-24c-.49 0-.95.09-1.4.23l.45 1.94c.3-.1.62-.17.95-.17 1.65 0 3 1.35 3 3s-1.35 3-3 3c-.75 0-1.43-.29-1.96-.75l-1.14 1.64c.85.68 1.92 1.11 3.09 1.11 2.76 0 5-2.24 5-5s-2.24-5-5-5Z" class="cls-1"/></svg>