<svg xmlns="http://www.w3.org/2000/svg" xmlns:xlink="http://www.w3.org/1999/xlink" width="32" height="32" viewBox="0 0 32 32"><defs><style>
.cls-1 {
	fill: #ffffff;
	stroke-width: 0px;
}
</style></defs><path d="M17 22.74c-.64.17-1.31.26-2 .26-4.41 0-8-3.59-8-8s3.59-8 8-8 8 3.59 8 8h2c0-5.51-4.49-10-10-10S5 9.49 5 15s4.49 10 10 10c.68 0 1.35-.07 2-.2z" class="cls-1"/><path d="m24.03 27.03-4.96-4.94 1.41-1.42 3.54 3.53 3.52-3.53 1.42 1.41z" class="cls-1"/><path d="m23.01 17.001 2-.01.04 8.6-2 .01zm-9.28-4.051c0-.47.41-.76 1.07-.76.73 0 1.32.41 1.44 1.06h1.91c-.14-1.3-.94-2.21-2.15-2.56V9h-2v1.6c-1.29.26-2.24 1.17-2.24 2.43 0 3.21 4.47 2.24 4.47 3.79 0 .58-.52.91-1.23.91-.99 0-1.58-.56-1.7-1.48h-1.91c.13 1.6 1.07 2.71 2.61 3.05V21h2v-1.72.02c1.32-.32 2.21-1.26 2.21-2.59 0-3.38-4.48-2.39-4.48-3.75Z" class="cls-1"/></svg>