<svg xmlns="http://www.w3.org/2000/svg" xmlns:xlink="http://www.w3.org/1999/xlink" width="32" height="32" viewBox="0 0 32 32"><defs><style>.cls-1{stroke-width:0px}</style></defs><path fill="#ffffff" d="M14.03 14.5h4v2h-4z" class="cls-1"/><path fill="#ffffff" d="M22.03 20.5v-7h.98v-2H8.99v2h1.04v7zm-10-7h8v5h-8z" class="cls-1"/><path fill="#ffffff" d="m27.8 13.84-1.97.37c.77 4.15-1.17 8.36-4.83 10.48a9.98 9.98 0 01-11.01-.68h4.04v-2h-7v7.01h2v-3.23a12.01 12.01 0 0012.97.64c4.4-2.54 6.73-7.59 5.8-12.57Zm-16.76-6.5a9.98 9.98 0 0111.03.67h-4.04v2h7V2.99h-2v3.23c-3.8-2.72-8.9-3-13-.62-4.39 2.55-6.7 7.61-5.76 12.59l1.96-.37c-.78-4.15 1.15-8.37 4.8-10.49Z" class="cls-1"/></svg>