<svg xmlns="http://www.w3.org/2000/svg" xmlns:xlink="http://www.w3.org/1999/xlink" width="32" height="32" viewBox="0 0 32 32"><path fill="#ffffff" d="m27.15 18.01-.01-2h-6.18l2.53-2.53-1.41-1.42-4.95 4.95 4.95 4.95 1.41-1.41-2.53-2.54zM9.82 13.42c0-.6.52-.96 1.36-.96.93 0 1.67.52 1.83 1.34h2.43c-.19-1.71-1.25-2.89-2.87-3.3V9h-2.18v1.39c-1.75.27-3.06 1.47-3.06 3.14 0 4.07 5.68 2.84 5.68 4.81 0 .74-.66 1.15-1.56 1.15-1.26 0-2-.71-2.16-1.88H6.86c.17 2.11 1.45 3.57 3.54 3.93v1.44l2.18.02v-1.48c1.75-.36 2.95-1.6 2.95-3.33 0-4.29-5.7-3.03-5.7-4.77Z"/></svg>