<svg xmlns="http://www.w3.org/2000/svg" xmlns:xlink="http://www.w3.org/1999/xlink" width="32" height="32" viewBox="0 0 32 32"><defs><style>.cls-1{stroke-width:0px}</style></defs><path fill="#ffffff" d="M16.71 2.69 16 1.98l-.71.71C11.3 6.68 7 13.18 7 18c0 3.91 2.51 7.24 6 8.48v-2.16c-2.36-1.13-4-3.53-4-6.31 0-3.81 3.41-9.34 7-13.17 3.59 3.83 7 9.35 7 13.17 0 2.78-1.64 5.19-4 6.31v2.16c3.49-1.24 6-4.57 6-8.47 0-4.82-4.3-11.32-8.29-15.31Z" class="cls-1"/><path fill="#ffffff" d="m21.02 18-1.41-1.42L17 19.19V8h-2v7.17l-1.6-1.6-1.41 1.42L15 18v12h2v-7.98z" class="cls-1"/></svg>