<svg xmlns="http://www.w3.org/2000/svg" xmlns:xlink="http://www.w3.org/1999/xlink" width="32" height="32" viewBox="0 0 32 32"><defs><style>
.cls-1 {
	fill: #ffffff;
	stroke-width: 0px;
}
</style></defs><path d="M7.02 28h10v2h-10z" class="cls-1"/><path d="M21.02 30h-2v-3.82l-1.67-4.19H6.7l-1.68 4.19V30h-2v-4.2l2.33-5.81H18.7l2.32 5.81zm-9-12c-3.31 0-6-2.69-6-6h2c0 2.21 1.79 4 4 4s4-1.79 4-4h2c0 3.31-2.69 6-6 6m7-9h-2c0-2.76-2.24-5-5-5s-5 2.24-5 5h-2c0-3.86 3.14-7 7-7s7 3.14 7 7" class="cls-1"/><path d="M3.02 8h18v2h-18zm8-4.59h2v3.6h-2zM26.7 19.99h-5.85l.8 2h3.7l1.67 4.19v2.81h2V25.8zm-8.15-3.41A5.002 5.002 0 0027.04 13a5 5 0 00-4.03-4.9v2.08c1.18.41 2.03 1.51 2.03 2.83 0 1.65-1.35 3-3 3-.93 0-1.77-.43-2.32-1.1l-1.17 1.68Z" class="cls-1"/></svg>