<svg xmlns="http://www.w3.org/2000/svg" xmlns:xlink="http://www.w3.org/1999/xlink" width="45" height="45" viewBox="0 0 45 45"><defs><style>
.cls-1 {
	fill: #ffffff;
	stroke-width: 0px;
}
</style></defs><path d="M15.41 15.76c1.42 0 2.06 1.53 4.02 1.53 1.85 0 3.14-1.33 3.27-3.37h-1.96c-.13.92-.64 1.31-1.38 1.31-1.38 0-2.06-1.53-4.02-1.53s-3.2 1.33-3.31 3.37h1.96c.13-.88.62-1.31 1.42-1.31" class="cls-1"/><path d="M6 6v33h33V6zm29.59 2L8 35.59V8zM9.41 37 37 9.41V37z" class="cls-1"/><path d="M30.67 29.26c-1.38 0-2.06-1.53-4.02-1.53s-3.2 1.33-3.31 3.37h1.96c.13-.88.62-1.31 1.42-1.31 1.42 0 2.06 1.53 4.02 1.53 1.85 0 3.14-1.33 3.27-3.37h-1.96c-.13.92-.64 1.31-1.38 1.31" class="cls-1"/></svg>