<svg xmlns="http://www.w3.org/2000/svg" xmlns:xlink="http://www.w3.org/1999/xlink" width="32" height="32" viewBox="0 0 32 32"><path fill="#ffffff" d="M16 26c-5.514 0-10-4.486-10-10S10.486 6 16 6s10 4.486 10 10h2c0-6.617-5.383-12-12-12S4 9.383 4 16s5.383 12 12 12c.88 0 1.778-.104 2.669-.31l-.45-1.949A10 10 0 0116 26"/><path fill="#ffffff" d="M14.979 8.02v8.008l4.641 3.474 1.195-1.604-3.836-2.872V8.02zm13.964 15.534-1.416-1.412-2.521 2.53L24.98 19l-2 .01.026 5.661-2.537-2.527-1.412 1.416 4.96 4.94z"/></svg>