<svg xmlns="http://www.w3.org/2000/svg" xmlns:xlink="http://www.w3.org/1999/xlink" width="32" height="32" viewBox="0 0 32 32"><defs><style>.cls-1{stroke-width:0px}</style></defs><path fill="#ffffff" d="M25.15 24.8a5.002 5.002 0 00-4.14-7.81c-2.76 0-5 2.24-5 5s2.24 5 5 5c1 0 1.92-.3 2.7-.8l2.3 2.3 1.41-1.41-2.28-2.28Zm-4.14.19c-1.65 0-3-1.35-3-3s1.35-3 3-3 3 1.35 3 3-1.35 3-3 3" class="cls-1"/><path fill="#ffffff" d="M7.2 14.64c-1.59-1.74-1.58-4.62.01-6.42C7.89 7.46 8.9 7.01 9.98 7h.04c1.1 0 2.11.44 2.84 1.23l1.13 1.23 1.13-1.23c.72-.78 1.7-1.22 2.76-1.22h.03c1.09 0 2.14.45 2.88 1.23.81.85 1.21 2.01 1.21 3.17 0 1.51-.57 2.6-1.04 3.57h2.09c.62-1.07.93-2.29.95-3.52.02-1.67-.56-3.35-1.76-4.6A6 6 0 0017.91 5h-.04c-1.46.01-2.82.55-3.88 1.53-1.09-1-2.57-1.56-4.03-1.54-1.65.02-3.2.71-4.25 1.89-2.29 2.59-2.29 6.58.01 9.09 1.97 2.15 7.54 8.19 7.54 8.19l.05.06 1.33-1.5-1.22-1.33c-1.77-1.92-4.86-5.28-6.23-6.77Z" class="cls-1"/><path fill="#ffffff" d="M20.01 14.99v-2h-3.55l-1.18 1.86-2.27-4.87-2.47 3.01H9.01v2h2.47l1.06-1.29 2.48 5.3 2.54-4.01z" class="cls-1"/></svg>