<svg xmlns="http://www.w3.org/2000/svg" xmlns:xlink="http://www.w3.org/1999/xlink" width="32" height="32" viewBox="0 0 32 32"><path fill="#ffffff" d="M26 12c0-5.51-4.49-10-10-10S6 6.49 6 12H4v8h6v-8H8c0-4.41 3.59-8 8-8s8 3.59 8 8h-2v8h6v-8zM8 18H6v-4h2zm18 0h-2v-4h2zM3.94 27.78l2.5-2.08c.69-.58 1.04-1.04 1.04-1.52 0-.56-.39-.92-.96-.92-.7 0-1.1.53-1.03 1.39H3.91c-.08-1.55 1.04-2.75 2.62-2.75s2.56.94 2.56 2.28c0 .95-.58 1.77-1.76 2.59l-1.08.88h2.86V29H3.94zm9.15-.13H9.64v-1.21L13 21.99h1.68v4.32h.83v1.34h-.83V29h-1.59zm0-1.35v-2.39l-1.84 2.39zm7.02-4.32h1.53L18.48 29h-1.52zm6.3 1.36h-3.5v-1.35h5.14v1.35c-1.61 2.12-2.69 4.19-2.81 5.66h-1.58c.22-1.71 1.23-3.78 2.75-5.66"/></svg>