<svg xmlns="http://www.w3.org/2000/svg" xmlns:xlink="http://www.w3.org/1999/xlink" width="47" height="48" viewBox="-7 -8 47 48"><g fill="#ffffff"><path d="m19.057 11.557 1.886 1.886-3.058 3.057 3.058 3.057-1.886 1.886L16 18.385l-3.057 3.058-1.886-1.886 3.058-3.057-3.058-3.057 1.886-1.886L16 14.615z"/><path fill-rule="evenodd" d="M2.667 16.5C2.667 9.137 8.637 3.167 16 3.167S29.333 9.137 29.333 16.5 23.363 29.833 16 29.833 2.667 23.863 2.667 16.5m24 0c0-5.881-4.786-10.667-10.667-10.667S5.333 10.62 5.333 16.5 10.12 27.167 16 27.167 26.667 22.38 26.667 16.5" clip-rule="evenodd"/></g></svg>