<svg xmlns="http://www.w3.org/2000/svg" xmlns:xlink="http://www.w3.org/1999/xlink" width="32" height="32" viewBox="0 0 32 32"><defs><style>
.cls-1 {
	fill: #ffffff;
	stroke-width: 0px;
}
</style></defs><path d="M9.99 5.01h2v9h-2zm11.46 3.38-1.42-1.42L13.01 14h2.83zM16 14.99H2v2h5v3H4v7h15v-7h-3zm-7 2h5v2.99H9zm8 8H6v-3h11zm-15-13h4v2H2z" class="cls-1"/><path d="M30 14.99h-2.09l1.48-1.48-1.41-1.41-1.47 1.47v-2.09h-2v2.09l-1.47-1.47-1.41 1.41 1.48 1.47h-6.09v2h6.09l-1.47 1.47 1.41 1.41 1.47-1.48v2.09h2v-2.09l1.47 1.47 1.41-1.41-1.47-1.47h2.08v-2Zm-4.5 2.5c-.83 0-1.5-.67-1.5-1.5s.67-1.5 1.5-1.5 1.5.67 1.5 1.5-.67 1.5-1.5 1.5" class="cls-1"/></svg>