<svg xmlns="http://www.w3.org/2000/svg" xmlns:xlink="http://www.w3.org/1999/xlink" width="32" height="32" viewBox="0 0 32 32"><defs><style>
.cls-1 {
	fill: #ffffff;
	stroke-width: 0px;
}
</style></defs><path d="M25 12.03v2.96L23 17v2.99L21 22h-4l-5.01 6H30V8.98zM28 26H16.26l1.67-2h3.89l3.17-3.18v-2.99l2-2.01v-2.66l1-.61v13.46Zm-16.01-6h2v-3.11c.64-.13 1.23-.38 1.75-.73l2.2 2.2 1.41-1.41-2.2-2.2c.35-.52.6-1.11.73-1.75h3.11v-2h-3.11a4.9 4.9 0 00-.73-1.75l2.21-2.21-1.41-1.41-2.21 2.21c-.52-.35-1.11-.6-1.74-.73V3.99h-2v3.12c-.63.13-1.22.38-1.74.73L8.05 5.63 6.64 7.04l1.95 1.95h4.42c.83 0 1.58.34 2.13.88.53.53.86 1.26.88 2.07v.12c-.02.78-.33 1.48-.82 2.01l-.11.11c-.52.49-1.21.8-1.98.82H8.59l-1.94 1.95 1.41 1.41 2.2-2.2c.52.35 1.11.6 1.75.73V20Z" class="cls-1"/><path d="M2 10.99h11v2H2z" class="cls-1"/></svg>