<svg xmlns="http://www.w3.org/2000/svg" xmlns:xlink="http://www.w3.org/1999/xlink" width="32" height="32" viewBox="0 0 32 32"><defs><path id="svgID0" fill="#ffffff" d="m24.929 29.046-3.637-3.63 1.427-1.428 2.21 2.213 3.306-3.309 1.427 1.418z"/></defs><path fill="#ffffff" d="M16.04 4.005c-.013 0-.025-.005-.039-.005H16C9.373 4 4 9.373 4 16s5.372 12 12 12c2.761 0 5-5.373 5-12 0-6.595-2.217-11.942-4.96-11.995M13 16c0-.933.05-1.796.129-2.602h5.742a26.4 26.4 0 01-.008 5.279h-5.726A26 26 0 0113 16m3-10c.563 0 1.903 1.847 2.585 5.398h-5.17C14.096 7.846 15.436 6 16 6m2.57 14.677C17.884 24.179 16.56 26 16 26s-1.884-1.82-2.57-5.323zM12.969 6.473c-.694 1.273-1.247 2.963-1.587 4.925h-4.25a10.04 10.04 0 015.837-4.925m-6.614 6.925h4.766A28 28 0 0011 16c0 .922.047 1.815.13 2.677H6.374A10 10 0 016 16c0-.901.13-1.77.355-2.602m.812 7.279h4.227c.34 1.93.89 3.593 1.575 4.85a10.05 10.05 0 01-5.802-4.85"/><use href="#svgID0" fill-rule="evenodd"/><use href="#svgID0" fill-rule="evenodd"/><path fill="#ffffff" d="M26 16c0 2.361-.84 4.516-2.217 6.224l1.434 1.434A11.9 11.9 0 0028 16c0-5.083-3.161-9.425-7.625-11.174.56.87 1.029 1.9 1.41 3.043C24.331 9.681 26 12.644 26 16"/></svg>