<svg xmlns="http://www.w3.org/2000/svg" xmlns:xlink="http://www.w3.org/1999/xlink" width="32" height="32" viewBox="0 0 32 32"><defs><style>.cls-1{stroke-width:0px}</style></defs><path fill="#ffffff" d="M9.99 2h2v5h-2zm2.764 4.831 3.536-3.536 1.414 1.415-3.535 3.535zM4.303 4.703 5.717 3.29l3.535 3.536L7.838 8.24z" class="cls-1"/><path fill="#ffffff" d="m22.22 12.5 3.11-3.11c1.16-1.16 1.16-3.05 0-4.21s-3.05-1.16-4.21 0l-9.96 9.96-.8-2.13a4.594 4.594 0 00-5.09-2.9l-2 .35 1.74 9.86v5.67h2v-5.76l-1.43-8.15h.02c1.22-.22 2.43.47 2.87 1.63l1.58 4.18 1.87-.7 10.6-10.6a.99.99 0 011.39 0c.38.38.38 1 0 1.39l-5.97 5.97 1.41 1.41 1.44-1.44 5.22 5.22v2.98L20.13 28h-6.14v2h6.96l5-5L28 22.95v-4.64l-5.8-5.8Z" class="cls-1"/></svg>