<svg xmlns="http://www.w3.org/2000/svg" xmlns:xlink="http://www.w3.org/1999/xlink" width="32" height="32" viewBox="0 0 32 32"><defs><style>
.cls-1 {
	fill: #ffffff;
	stroke-width: 0px;
}
</style></defs><path d="M14.99 8v8.01l4.64 3.47 1.19-1.6-3.83-2.87V8z" class="cls-1"/><path d="M15.99 4c-4.18 0-7.86 2.15-10 5.39V6h-2v7h7v-2H7.35c1.73-2.98 4.95-5 8.64-5 5.51 0 10 4.49 10 10s-4.49 10-10 10c-4.83 0-8.87-3.44-9.8-8H4.17c.95 5.67 5.88 10 11.82 10 6.63 0 12-5.37 12-12s-5.38-12-12-12" class="cls-1"/></svg>