<svg xmlns="http://www.w3.org/2000/svg" xmlns:xlink="http://www.w3.org/1999/xlink" width="32" height="32" viewBox="0 0 32 32"><defs><style>
.cls-1 {
	fill: #ffffff;
	stroke-width: 0px;
}
</style></defs><path d="M18 19v-6.99h-1.99v2.62h-2.02v-2.62H12V19h1.99v-2.69h2.02V19zm4.02-.84c0-.77-.6-1.34-1.53-1.34s-1.6.72-1.53 1.59h1.18c-.03-.37.14-.54.35-.54s.3.12.3.29c0 .26-.27.47-.63.76l-1.09.88v.92h2.95v-1.04H20.8l.23-.13c.72-.41.99-.85.99-1.4Z" class="cls-1"/><path d="m27.77 13.84-1.97.37c.77 4.15-1.17 8.36-4.83 10.48a10 10 0 01-11.01-.68H14v-2H7v7.01h2v-3.23a12.01 12.01 0 0012.97.64c4.39-2.54 6.72-7.59 5.8-12.57ZM11 7.34a9.98 9.98 0 0111.03.67h-4.04v2h7V2.99h-2v3.24c-3.8-2.72-8.9-3-13-.62-4.39 2.55-6.7 7.61-5.76 12.59l1.96-.37c-.78-4.15 1.15-8.37 4.8-10.49Z" class="cls-1"/></svg>