<svg xmlns="http://www.w3.org/2000/svg" xmlns:xlink="http://www.w3.org/1999/xlink" width="16" height="16" viewBox="0 0 16 16"><defs><style>
.cls-1 {
	fill: #ffffff;
	fill-rule: evenodd;
	stroke-width: 0px;
}
</style></defs><path d="M11.55 12.49c.89-.9 1.43-2.13 1.43-3.49 0-2.04-1.23-3.79-2.99-4.56v-2.4h1.97v-1H4.99v1H6v2.4A4.98 4.98 0 003.01 9c0 1.36.55 2.59 1.43 3.49l-.75 1.49H3v1h2.49v-1H4.8l.42-.84c.79.53 1.74.84 2.76.84s1.97-.31 2.76-.84l.42.84h-.69v1h2.49v-1h-.69l-.75-1.49ZM7 2.03h1.99v2.08c-.32-.07-.66-.1-1-.1s-.67.04-1 .1V2.03ZM4.01 9C4.01 6.8 5.8 5.01 8 5.01S11.99 6.8 11.99 9 10.2 12.99 8 12.99 4.01 11.2 4.01 9" class="cls-1"/><path d="M8 6.99a2.01 2.01 0 100 4.02 2.01 2.01 0 000-4.02m0 3c-.55 0-.99-.44-.99-.99s.44-.99.99-.99.99.44.99.99-.44.99-.99.99" class="cls-1"/></svg>