<svg xmlns="http://www.w3.org/2000/svg" xmlns:xlink="http://www.w3.org/1999/xlink" width="32" height="32" viewBox="0 0 32 32"><defs><style>
.cls-2 {
	fill: #ffffff;
	stroke-width: 0px;
}
</style></defs><g id="svgID0"><path d="M6 24.98H3v-22h12v10h-2v-8H5v18h1z" class="cls-2"/><path d="M7 6.98h4v2H7z" class="cls-2"/></g><path d="M21.5 16.48c-.17 0-.34.02-.5.05v2.1c.15-.09.31-.15.5-.15.55 0 1 .45 1 1s-.45 1-1 1c-.19 0-.35-.06-.5-.15v2.1c.16.03.33.05.5.05 1.65 0 3-1.35 3-3s-1.35-3-3-3" class="cls-2"/><path d="M29 19.48c0-2.87-1.62-5.37-4-6.63V8.98h-4v2h2v1.15c-.48-.1-.99-.15-1.5-.15-.17 0-.33.01-.5.03v2c.17-.01.33-.03.5-.03 3.03 0 5.5 2.47 5.5 5.5s-2.47 5.5-5.5 5.5c-.17 0-.33-.01-.5-.03v1.99c.17.01.33.03.5.03 1.41 0 2.72-.4 3.85-1.08l1.04 2.08h2.24l-1.68-3.36a7.46 7.46 0 002.06-5.14Z" class="cls-2"/><path fill="#ffffff" fill-rule="evenodd" stroke-width="0" d="m19 27-11-.05V14.99h11.01v1.98l-8.99.01v7.97L19 25z"/><path d="M12 19h6v2h-6z" class="cls-2"/></svg>