<svg xmlns="http://www.w3.org/2000/svg" xmlns:xlink="http://www.w3.org/1999/xlink" width="32" height="32" viewBox="0 0 32 32"><path fill="#ffffff" d="M25.002 22c0-.37-.067-.72-.16-1.06l1.857-1.072-1-1.732-1.847 1.065a4 4 0 00-1.85-1.059V16h-2v2.142a4 4 0 00-1.844 1.051l-1.845-1.07-1.003 1.73 1.855 1.077a4 4 0 00-.163 1.07c0 .367.066.716.159 1.055l-1.86 1.069.999 1.734 1.848-1.063c.5.51 1.138.876 1.849 1.061L19.994 28l2 .002.003-2.141a4 4 0 001.853-1.058l1.844 1.067 1.002-1.73-1.856-1.074c.095-.341.162-.694.162-1.065m-4 2c-1.103 0-2-.897-2-2s.897-2 2-2 2 .897 2 2-.898 2-2 2"/><path fill="#ffffff" d="M8 5.999h12v8h2v-10H6v24h8v-2H8z"/><path fill="#ffffff" d="M10 7.999h8v2h-8zm0 4h8v2h-8zm0 4h5v2h-5z"/></svg>