<svg xmlns="http://www.w3.org/2000/svg" xmlns:xlink="http://www.w3.org/1999/xlink" width="32" height="32" viewBox="0 0 32 32"><defs><style>
.cls-1 {
	fill: #ffffff;
	stroke-width: 0px;
}
</style></defs><path d="M22.96 15.4c.02.2.04.4.04.6 0 .33-.02.65-.07.97l-.09.67 2.82 1.63-2 3.47-2.82-1.63-.53.42c-.52.4-1.08.73-1.69.98l-.62.25v3.25h-4v-3.25l-.62-.25a6.8 6.8 0 01-1.69-.98l-.53-.42-2.82 1.63-2-3.47 2.82-1.63-.09-.67C9.03 16.65 9 16.33 9 16s.02-.65.07-.97l.09-.67-2.82-1.63 2-3.47 2.82 1.63.53-.42c.52-.4 1.08-.73 1.69-.98l.62-.25V5.99h3.98v-2H12v3.94q-.51.255-.99.57L7.6 6.53l-3.99 6.93 3.41 1.97c-.01.19-.02.37-.02.56s0 .37.02.56l-3.41 1.97 3.99 6.93 3.41-1.97q.48.315.99.57v3.94h8v-3.94q.51-.255.99-.57l3.41 1.97 3.99-6.92z" class="cls-1"/><path d="m22.24 13.19 3.75-3.79L26 13h2l-.01-7-6.99.01.01 2h3.55l-3.74 3.77zM12 15.97c0 2.21 1.79 4 4 4s4-1.79 4-4-1.79-4-4-4-4 1.79-4 4m6 0c0 1.1-.9 2-2 2s-2-.9-2-2 .9-2 2-2 2 .9 2 2" class="cls-1"/></svg>