<svg xmlns="http://www.w3.org/2000/svg" xmlns:xlink="http://www.w3.org/1999/xlink" width="32" height="32" viewBox="0 0 32 32"><defs><style>
.cls-1 {
	fill: #ffffff;
	stroke-width: 0px;
}
</style></defs><path d="M7.02 28h10v2h-10zm19.68-8h-5.85l.8 2h3.7l1.67 4.19V28h2v-2.19z" class="cls-1"/><path d="m5.35 20-2.33 5.81V30h2v-3.81L6.7 22h10.65l1.67 4.19V30h2v-4.19L18.7 20zm16.67-4c-.75 0-1.43-.29-1.96-.75l-1.14 1.64c.85.68 1.92 1.11 3.09 1.11 2.76 0 5-2.24 5-5a5 5 0 00-4.02-4.9v2.07c1.18.41 2.02 1.52 2.02 2.84 0 1.65-1.35 3-3 3ZM12 16c-2.21 0-4-1.79-4-4H6c0 3.31 2.69 6 6 6s6-2.69 6-6h-2c0 2.21-1.79 4-4 4m9-8h-2.08c-.49-3.39-3.4-6-6.92-6S5.57 4.61 5.08 8H3v2h18zM7.1 8A5.01 5.01 0 0111 4.1v2.91h2V4.1c1.96.4 3.5 1.94 3.9 3.9z" class="cls-1"/></svg>