<svg xmlns="http://www.w3.org/2000/svg" xmlns:xlink="http://www.w3.org/1999/xlink" width="32" height="32" viewBox="0 0 32 32"><g fill="#ffffff"><path d="m8.08 12 1.05-1.77 2.13.55L14 8.57l2.74 2.19 2.12-.53L19.93 12h2.33l-2.44-4.06-2.6.64L14 6l-3.21 2.59-2.61-.66L5.75 12zM7 19.94h2v8H7z"/><path d="m28.58 13.58-2.83-2.83-1.41 1.41 1.83 1.83H5.6c-1.99 0-3.61 1.57-3.61 3.5s1.62 3.5 3.61 3.5H21v6.95h2v-8.95H5.6c-.89 0-1.61-.67-1.61-1.5s.72-1.5 1.61-1.5h20.56l-1.83 1.83 1.41 1.41 2.83-2.83L30 14.99z"/></g></svg>