<svg xmlns="http://www.w3.org/2000/svg" xmlns:xlink="http://www.w3.org/1999/xlink" width="32" height="32" viewBox="0 0 32 32"><defs><style>.cls-1{stroke-width:0px}</style></defs><g id="svgID0"><path fill="#e1f000" d="M7.7 21.5H5.4c2 3.9 6 6.5 10.6 6.5v-2c-3.5 0-6.5-1.8-8.3-4.5M16 6c5.5 0 10 4.5 10 10h2c0-6.6-5.4-12-12-12S7.4 6.6 5.4 10.5h2.3C9.5 7.8 12.6 6 16 6m11.5 16.1L25 24.7V19h-2v5.7l-2.5-2.6-1.4 1.5 4.9 4.9 4.9-5zM9.8 16.9h-2c-.1.6-.6 1-1.2 1S5 17.3 5 16s.7-1.9 1.6-1.9 1.2.4 1.2 1.1h2c-.1-1.6-1.4-2.7-3.2-2.7S3 13.8 3 16.1s1.7 3.6 3.6 3.6 3.1-1.1 3.2-2.7Z" class="cls-1"/><path fill="#e1f000" d="M13.9 12.4c-2.1 0-3.7 1.5-3.7 3.6s1.6 3.6 3.7 3.6 3.7-1.5 3.7-3.6-1.6-3.6-3.7-3.6m0 5.5c-1 0-1.7-.8-1.7-1.9s.7-1.9 1.7-1.9 1.7.8 1.7 1.9-.7 1.9-1.7 1.9m5.3-.3-1.1.9v.9H21v-1h-1.2.2c.7-.5 1-1 1-1.5 0-.8-.6-1.3-1.5-1.3s-1.6.7-1.5 1.6h1.2c0-.4.1-.5.4-.5s.3.1.3.3c0 .3-.3.5-.6.8Z" class="cls-1"/></g></svg>