<svg xmlns="http://www.w3.org/2000/svg" xmlns:xlink="http://www.w3.org/1999/xlink" width="32" height="32" viewBox="0 0 32 32"><defs><style>
.cls-1 {
	fill: #e1f000;
	stroke-width: 0px;
}
</style></defs><path d="m15.53 16.18-2.2-2.2-1.41 1.42 3.61 3.61 4.71-4.71-1.41-1.41z" class="cls-1"/><path d="M25 16c0-.19 0-.37-.02-.56l3.41-1.97-3.99-6.93-3.41 1.97q-.48-.315-.99-.57V4h-8v3.94q-.51.255-.99.57L7.6 6.54l-3.99 6.93 3.41 1.97c-.01.19-.02.37-.02.56s0 .37.02.56l-3.41 1.97 3.99 6.93 3.41-1.97q.48.315.99.57V28h8v-3.94q.51-.255.99-.57l3.41 1.97 3.99-6.93-3.41-1.97c.01-.19.02-.37.02-.56m.66 3.26-2 3.47-2.82-1.63-.53.42c-.52.4-1.08.73-1.69.98l-.62.25V26h-4v-3.25l-.62-.25a6.8 6.8 0 01-1.69-.98l-.53-.42-2.82 1.63-2-3.47 2.82-1.63-.09-.67c-.04-.32-.07-.64-.07-.97s.02-.65.07-.97l.09-.67-2.82-1.63 2-3.47 2.82 1.63.53-.42c.52-.4 1.08-.73 1.69-.98l.62-.25V5.98h4v3.25l.62.25c.6.24 1.17.57 1.69.98l.53.42 2.82-1.63 2 3.47-2.82 1.63.09.67c.04.32.07.64.07.97s-.02.65-.07.97l-.09.67z" class="cls-1"/></svg>