<svg xmlns="http://www.w3.org/2000/svg" xmlns:xlink="http://www.w3.org/1999/xlink" width="32" height="32" viewBox="0 0 32 32"><path fill="#e1f000" d="M15 13c-.68 0-1.29.23-1.8.61L9.69 9.29C9.88 8.9 10 8.46 10 8c0-1.65-1.35-3-3-3S4 6.35 4 8s1.35 3 3 3c.45 0 .88-.11 1.27-.29l3.8 4.67c-.04.2-.07.41-.07.62 0 .28.05.55.12.8l-3.84 4.5c-.39-.19-.82-.3-1.29-.3-1.65 0-3 1.35-3 3s1.35 3 3 3 3-1.35 3-3c0-.46-.11-.89-.3-1.28l3.62-4.24c.48.33 1.06.52 1.68.52 1.65 0 3-1.35 3-3s-1.35-3-3-3ZM6 8c0-.55.45-1 1-1s1 .45 1 1-.45 1-1 1-1-.45-1-1m1 17c-.55 0-1-.45-1-1s.45-1 1-1 1 .45 1 1-.45 1-1 1m8-8c-.55 0-1-.45-1-1s.45-1 1-1 1 .45 1 1-.45 1-1 1m10-4c-1.3 0-2.4.84-2.82 2H19v2h3.18c.41 1.16 1.51 2 2.82 2 1.65 0 3-1.35 3-3s-1.35-3-3-3m0 4c-.55 0-1-.45-1-1s.45-1 1-1 1 .45 1 1-.45 1-1 1"/></svg>