<svg xmlns="http://www.w3.org/2000/svg" xmlns:xlink="http://www.w3.org/1999/xlink" width="32" height="32" viewBox="0 0 32 32"><g fill="#e1f000"><path d="M12.99 22H8.26C5.91 22 4 20.11 4 17.79c0-2.01 1.45-3.75 3.46-4.13l.68-.13.12-.68c.49-2.78 2.92-4.79 5.77-4.79s5.28 2.01 5.77 4.79l.12.68.68.13c1.73.33 3.05 1.67 3.37 3.33h2.02a6.22 6.22 0 00-4.36-5.14c-.9-3.39-4-5.79-7.6-5.79s-6.69 2.4-7.6 5.79C3.83 12.64 2 15.04 2 17.79 2 21.21 4.81 24 8.26 24h4.73zm6.48 3.48c.77-.44 1.64-.68 2.54-.68s1.76.23 2.52.67l1.48-1.49c-1.17-.8-2.56-1.23-4.01-1.23s-2.84.43-4.02 1.24z"/><path d="M16.44 22.44c1.57-1.29 3.51-1.99 5.55-1.99s3.98.7 5.55 1.99L29 20.99a10.76 10.76 0 00-7-2.59c-2.59 0-5.04.91-7 2.58z"/></g></svg>