<svg xmlns="http://www.w3.org/2000/svg" xmlns:xlink="http://www.w3.org/1999/xlink" width="16" height="16" viewBox="0 0 16 16"><style>.st1{clip-path:url(#SVGID_00000150088779270274389240000000054051208535114893_)}.st2{fill-rule:evenodd;clip-rule:evenodd}</style><path fill="#e1f000" d="m6.6 8.9-.5.8H5l1.1-1.8L5 6.2h1.2l.4.7.4-.7h1.1l-1 1.7 1.1 1.9H7.1zm1.9-2.7h1v2.7H11v.9H8.5zm3.1 3.3c-.3-.2-.4-.6-.5-1h1c0 .1.1.3.2.3s.2.2.3.2.2 0 .3-.1.1-.1.1-.2 0-.1-.1-.2c-.1 0-.2-.1-.4-.1-.2-.1-.4-.1-.6-.2s-.3-.2-.4-.3c-.1-.2-.2-.4-.2-.6s.1-.4.2-.6.3-.3.5-.4.4-.1.6-.1c.4 0 .7.1 1 .3.2.2.4.5.4.9h-1c0-.1-.1-.2-.2-.2 0-.1-.1-.2-.2-.2s-.2 0-.2.1l-.1.1c0 .1 0 .1.1.1s.2.1.4.1c.2.1.4.1.6.2s.3.2.4.3c.1.3.2.5.2.8 0 .2-.1.4-.2.6s-.3.3-.5.4-.4.1-.7.1c-.4 0-.8-.1-1-.3" class="st0"/><path fill="#e1f000" d="M9 11v1H3V4h6v1h1V3H2v10h8v-2z" class="st0"/></svg>