<svg xmlns="http://www.w3.org/2000/svg" xmlns:xlink="http://www.w3.org/1999/xlink" width="32" height="32" viewBox="0 0 32 32"><defs><style>.cls-1{stroke-width:0px}</style></defs><path fill="#e1f000" d="M25.98 15.98h2c0-4.84-2.89-9.01-7.03-10.91v2.24c3 1.73 5.03 4.96 5.03 8.66Zm-20 0c0-5.18 3.97-9.46 9.02-9.95v-2c-6.16.5-11.02 5.66-11.02 11.95 0 5.23 3.36 9.67 8.03 11.31v-2.14c-3.54-1.54-6.03-5.07-6.03-9.17m21.53 6.16-2.52 2.53-.03-5.67-2 .01.03 5.67-2.54-2.54-1.41 1.42L24 28.5l4.93-4.95z" class="cls-1"/><path fill="#e1f000" d="M23.16 15h-4.17V4L9.88 17h4.11v11zm-9.46 0 3.28-4.66V17h2.32l-3.32 4.74V15z" class="cls-1"/></svg>