<svg xmlns="http://www.w3.org/2000/svg" xmlns:xlink="http://www.w3.org/1999/xlink" width="45" height="45" viewBox="0 0 45 45"><defs><style>.cls-1{stroke-width:0px}</style></defs><path fill="#e1f000" d="M22.49 6.95c-8.55 0-15.5 6.95-15.5 15.5s6.95 15.5 15.5 15.5 15.5-6.95 15.5-15.5-6.95-15.5-15.5-15.5m0 29c-7.44 0-13.5-6.06-13.5-13.5s6.06-13.5 13.5-13.5 13.5 6.06 13.5 13.5-6.06 13.5-13.5 13.5" class="cls-1"/><path fill="#e1f000" d="M27.84 21.69c1.48-.48 3.38-.56 4.76-.26l1.46.31-.27-1.47c-.38-2.08-1.64-4.45-3.12-5.89l-.38-.37-.52.11c-2.44.51-4.22 1.86-5.31 3.36.33-1.52 1.21-3.21 2.15-4.25l1-1.11-1.41-.5c-1.99-.71-4.67-.8-6.66-.24l-.51.14-.17.5c-.78 2.37-.5 4.58.26 6.28-1.15-1.04-2.17-2.65-2.61-3.99l-.46-1.42-1.14.97c-1.61 1.37-3.03 3.64-3.54 5.65l-.13.51.35.4c1.65 1.84 3.69 2.73 5.53 2.93-1.47.46-3.35.54-4.72.25l-1.46-.31.27 1.47c.38 2.08 1.64 4.45 3.12 5.89l.38.37.52-.11c2.44-.51 4.22-1.86 5.31-3.36-.33 1.52-1.21 3.21-2.15 4.25l-1 1.11 1.41.5c1.13.4 2.47.6 3.79.6 1.01 0 2.01-.12 2.87-.37l.51-.14.17-.5c.78-2.37.5-4.58-.26-6.28 1.15 1.04 2.17 2.65 2.61 3.99l.46 1.42 1.14-.97c1.61-1.37 3.03-3.64 3.54-5.65l.13-.51-.35-.4c-1.66-1.86-3.72-2.73-5.57-2.91m-5.35 3.07c-1.28 0-2.31-1.04-2.31-2.31s1.04-2.31 2.31-2.31 2.31 1.04 2.31 2.31-1.04 2.31-2.31 2.31m7.15-8.56c.72.83 1.37 1.95 1.79 3.06-1.75-.1-3.74.19-5.28.94-.17-.27-.35-.52-.57-.75.62-1.29 2-2.67 4.06-3.26Zm-9.03-3.03c1.08-.21 2.38-.21 3.55-.02-.95 1.45-1.7 3.3-1.82 5-.33.01-.64.06-.95.14-.81-1.18-1.29-3.06-.78-5.12m-5.38 3.22c.79 1.56 2.02 3.14 3.44 4.09-.14.28-.26.57-.34.88-1.43.12-3.32-.39-4.86-1.88.36-1.04 1-2.17 1.76-3.08Zm.13 12.42c-.72-.83-1.37-1.95-1.79-3.06 1.77.1 3.77-.19 5.31-.96.17.26.36.5.57.71-.6 1.31-2 2.71-4.08 3.31Zm9.03 3.03c-1.08.21-2.38.21-3.55.02.97-1.49 1.73-3.39 1.82-5.12.3-.01.59-.06.88-.13.85 1.17 1.38 3.11.85 5.23m5.39-3.22c-.8-1.58-2.06-3.19-3.51-4.13.14-.26.26-.54.34-.83 1.44-.14 3.36.37 4.93 1.88-.36 1.04-1 2.17-1.76 3.08" class="cls-1"/></svg>