<svg xmlns="http://www.w3.org/2000/svg" xmlns:xlink="http://www.w3.org/1999/xlink" width="32" height="32" viewBox="0 0 32 32"><defs><style>
.cls-1 {
	fill: #e1f000;
	stroke-width: 0px;
}
</style></defs><path d="M10 27.99h12v2H10zM25 9h-2c0-3.86-3.14-7-7-7S9 5.14 9 9H7v2h18zM11 9c0-1.63.79-3.06 2-3.97v1.98h2v-2.9c.32-.07.66-.1 1-.1s.68.04 1 .1v2.9h2V5.03c1.21.91 2 2.35 2 3.97zm5 8c-2.21 0-4-1.79-4-4h-2c0 3.31 2.69 6 6 6s6-2.69 6-6h-2c0 2.21-1.79 4-4 4" class="cls-1"/><path d="M23.61 21H8.38L6 25.76V30h2v-3.77L9.61 23h12.77l1.61 3.24V30h2v-4.23z" class="cls-1"/></svg>