<svg xmlns="http://www.w3.org/2000/svg" xmlns:xlink="http://www.w3.org/1999/xlink" width="32" height="32" viewBox="0 0 32 32"><path fill="#e1f000" d="M10.25 5.028c1.395 0 2.705.564 3.69 1.589l1.649 1.716 1.647-1.716a4.98 4.98 0 013.617-1.558c1.368 0 2.653.553 3.618 1.558 1.744 1.815 1.992 4.589.777 6.697l2.013.464c1.308-2.78.865-6.244-1.348-8.547a7 7 0 00-5.06-2.172 7 7 0 00-5.059 2.172l-.206.215-.206-.215a7.1 7.1 0 00-5.132-2.203 7.1 7.1 0 00-5.133 2.203c-2.823 2.938-2.823 7.746 0 10.684l8.687 9.041 1.415-1.414-8.66-9.013c-2.096-2.181-2.096-5.73 0-7.912a5.08 5.08 0 013.69-1.59"/><path fill="#e1f000" d="m23.544 13.948-6.504 1.499v7.95c0 3.25 3.85 5.335 5.506 6.081l.999.448.994-.447c1.657-.746 5.508-2.832 5.508-6.081v-7.951zm4.503 9.45c0 2.197-3.606 3.931-4.328 4.257l-.175.079-.176-.08c-.722-.325-4.328-2.06-4.328-4.256v-6.36L23.544 16l4.503 1.038z"/><path fill="#e1f000" d="m21.706 20.009-1.439 1.388 2.943 3.055 3.611-3.76-1.441-1.384-2.172 2.259z"/></svg>