<svg xmlns="http://www.w3.org/2000/svg" xmlns:xlink="http://www.w3.org/1999/xlink" width="16" height="16" viewBox="0 0 16 16"><path fill="#e1f000" fill-rule="evenodd" d="M12.67 2H3.33C2.59 2 2 2.6 2 3.33v9.33c0 .74.6 1.33 1.33 1.33h9.33c.74 0 1.33-.6 1.33-1.33V3.33c0-.74-.6-1.33-1.33-1.33ZM5.63 12.33H3.84V6.55h1.79zM4.72 5.8c-.58 0-1.06-.48-1.06-1.07s.47-1.07 1.06-1.07 1.06.48 1.06 1.07S5.31 5.8 4.72 5.8m7.61 6.53h-1.78V9.3c0-.83-.32-1.3-.97-1.3-.72 0-1.09.48-1.09 1.3v3.03H6.77V6.55h1.72v.78s.52-.95 1.74-.95 2.1.75 2.1 2.3v3.66Z"/></svg>