<svg xmlns="http://www.w3.org/2000/svg" xmlns:xlink="http://www.w3.org/1999/xlink" width="45" height="45" viewBox="0 0 45 45"><defs><style>
.cls-1 {
	fill: #e1f000;
	stroke-width: 0px;
}
</style></defs><path d="M3 7v35h39V7zm2 2h2v12h2V9h5v31H5zm35 31H16V9h24z" class="cls-1"/><path d="M27 11h-9v7h9zm-2 5h-5v-3h5zm13-5h-9v7h9zm-2 5h-5v-3h5zM18 32h9v2h-9zm0 4h9v2h-9zm11-4h9v2h-9zm0 4h9v2h-9zm2-16h5v2h-5zm-11 0h5v2h-5zm11 8h5v2h-5zm-11 0h5v2h-5zM7 24h5v2H7zm3 4h2v2h-2zM32.98 4H39v2h-6.02zm-8 0h6.01v2h-6.01zM17 4h5.99v2H17z" class="cls-1"/></svg>