<svg xmlns="http://www.w3.org/2000/svg" xmlns:xlink="http://www.w3.org/1999/xlink" width="32" height="32" viewBox="0 0 32 32"><defs><style>.cls-1{stroke-width:0px}</style></defs><path fill="#e1f000" d="M23.68 8.98v2.04h2.3V20H10.02v-2.02H7.98V22h9v2.96H14V27h8v-2.04h-2.98V22h9V8.98z" class="cls-1"/><path fill="#e1f000" d="M21.97 14.41V6.58l-1.59-1.59H7.74L4.98 6.37v3.12H2.03v2h2.95v3.12l2.76 1.38h12.65l1.59-1.59Zm-15-1.03V7.62L8.21 7h.76v7h-.76zm13 .21-.41.41h-8.59v-4h6.65V8h-6.65V7h8.59l.41.41v6.17Z" class="cls-1"/></svg>