<svg xmlns="http://www.w3.org/2000/svg" xmlns:xlink="http://www.w3.org/1999/xlink" width="32" height="32" viewBox="0 0 32 32"><defs><style>.cls-1{stroke-width:0px}</style></defs><path fill="#e1f000" d="m20.71 12.15-1.85 1.07c-.5-.51-1.14-.87-1.85-1.06v-2.14h-2v2.14c-.71.18-1.34.55-1.84 1.05l-1.84-1.07-1 1.73 1.85 1.08c-.1.34-.16.7-.16 1.07s.07.72.16 1.06l-1.86 1.07 1 1.73 1.85-1.06c.5.51 1.14.88 1.85 1.06v2.14h2v-2.14c.72-.18 1.35-.55 1.86-1.06l1.85 1.07 1-1.73-1.86-1.07c.09-.34.16-.69.16-1.06s-.07-.72-.16-1.06l1.86-1.07-1-1.73Zm-4.7 5.87c-1.1 0-2-.9-2-2s.9-2 2-2 2 .9 2 2-.9 2-2 2" class="cls-1"/><path fill="#e1f000" d="m27.82 13.82-1.97.36c.11.59.16 1.2.16 1.81 0 5.54-4.51 10.05-10.05 10.05-2.22 0-4.31-.72-6.04-2.03h4.1v-2h-7v7h2v-3.17c2.01 1.43 4.41 2.21 6.95 2.21 6.64 0 12.05-5.4 12.05-12.05 0-.72-.07-1.45-.2-2.16ZM16.03 6c2.17 0 4.27.72 6 2h-4.01v2h7V3h-2v3.24A12.1 12.1 0 0016.03 4C9.39 4 3.98 9.4 3.98 16.05c0 .75.07 1.5.21 2.23l1.96-.37c-.11-.61-.17-1.23-.17-1.86C5.98 10.51 10.49 6 16.03 6" class="cls-1"/></svg>