<svg xmlns="http://www.w3.org/2000/svg" xmlns:xlink="http://www.w3.org/1999/xlink" width="32" height="32" viewBox="0 0 32 32"><defs><style>.cls-1{stroke-width:0px}</style></defs><path fill="#e1f000" d="M17.04 8.05V6h2.99V4h-8v2h3.01v2.05c-2 .2-3.83.99-5.31 2.19L7.5 8.01 6.09 9.42l2.22 2.22A9.94 9.94 0 006.02 18c0 5.51 4.49 10 10 10s10-4.49 10-10c0-5.17-3.95-9.44-8.98-9.95M16.03 26c-4.41 0-8-3.59-8-8s3.59-8 8-8 8 3.59 8 8-3.59 8-8 8" class="cls-1"/><path fill="#e1f000" d="M20.84 20.58 15 18.73V12h2v5.27l4.45 1.41z" class="cls-1"/></svg>