<svg xmlns="http://www.w3.org/2000/svg" xmlns:xlink="http://www.w3.org/1999/xlink" width="32" height="32" viewBox="0 0 32 32"><path fill="#e1f000" d="m30 15.8-2.32-5.81h-5.87l1.2-4.02L2 9.13v7.86h4v2.68c-.91.82-1.5 2-1.5 3.33 0 2.48 2.02 4.5 4.5 4.5s4.5-2.02 4.5-4.5-2.02-4.5-4.5-4.5c-.34 0-.68.05-1 .12v-3.63H4v-4.14l16.19-2.43-2.08 6.95 1.92.57 1.18-3.95h5.11L28 16.18V20h-3.17c-.82-.91-2-1.5-3.33-1.5-2.48 0-4.5 2.02-4.5 4.5s2.02 4.5 4.5 4.5S26 25.48 26 23c0-.34-.05-.68-.12-1H30zM11.5 23a2.5 2.5 0 01-5 0 2.5 2.5 0 015 0m10 2.5a2.5 2.5 0 010-5 2.5 2.5 0 010 5"/></svg>