<svg xmlns="http://www.w3.org/2000/svg" xmlns:xlink="http://www.w3.org/1999/xlink" width="32" height="32" viewBox="0 0 32 32"><g fill="#e1f000"><path d="m20.69 12.15-1.84 1.06c-.5-.51-1.14-.87-1.85-1.05v-2.14h-2v2.14c-.71.18-1.35.55-1.85 1.06l-1.85-1.07-1 1.73 1.86 1.08c-.09.34-.16.69-.16 1.06s.06.71.16 1.05l-1.87 1.07 1 1.73 1.85-1.06c.5.51 1.14.88 1.85 1.07v2.14h2v-2.14c.71-.18 1.35-.55 1.85-1.06l1.84 1.06 1-1.73-1.85-1.07c.1-.34.16-.69.16-1.07 0-.37-.07-.72-.16-1.07l1.85-1.07zM16 18.02c-1.1 0-2-.9-2-2s.9-2 2-2 2 .9 2 2-.9 2-2 2"/><path d="m27.81 13.82-1.97.36c.11.59.16 1.2.16 1.81 0 5.54-4.5 10.04-10.03 10.04-2.23 0-4.31-.72-6.04-2.03h3.08v-2h-6v6H9v-2.18c2.02 1.44 4.42 2.21 6.96 2.21 6.64 0 12.04-5.4 12.04-12.05 0-.72-.06-1.45-.19-2.16M16.01 6c2.17 0 4.28.72 6 2H19v2h6V4h-2v2.24A12.1 12.1 0 0016.01 4C9.37 4 3.97 9.4 3.96 16.04c0 .75.07 1.5.21 2.23l1.97-.36c-.11-.61-.17-1.24-.17-1.86C5.97 10.51 10.47 6 16.01 6"/></g></svg>