<svg xmlns="http://www.w3.org/2000/svg" xmlns:xlink="http://www.w3.org/1999/xlink" width="47" height="48" viewBox="-7 -8 47 48"><g fill="#e1f000"><path d="M17.333 9.333v8h-2.666v-8zm-1.333 14a2 2 0 100-4 2 2 0 000 4"/><path fill-rule="evenodd" d="M2.667 16C2.667 8.636 8.637 2.667 16 2.667A13.333 13.333 0 0129.333 16c0 7.364-5.97 13.333-13.333 13.333S2.667 23.363 2.667 16m2.666 0c0 5.891 4.776 10.667 10.667 10.667A10.667 10.667 0 0026.667 16c0-5.891-4.776-10.667-10.667-10.667S5.333 10.11 5.333 16" clip-rule="evenodd"/></g></svg>