<svg xmlns="http://www.w3.org/2000/svg" xmlns:xlink="http://www.w3.org/1999/xlink" width="32" height="32" viewBox="0 0 32 32"><defs><style>.cls-1{stroke-width:0px}</style></defs><path fill="#e1f000" d="M18 10h6V4h-2v2.27A11.97 11.97 0 0015 4C8.38 4 3 9.38 3 16s5.38 12 12 12c3.21 0 6.22-1.25 8.49-3.52l-1.42-1.41A9.93 9.93 0 0115 26C9.49 26 5 21.51 5 16S9.49 6 15 6c2.18 0 4.27.71 5.99 2H18z" class="cls-1"/><path fill="#e1f000" d="M8.32 18.23h2.15c.05.58.35 1 1.08 1 .59 0 1-.37 1-.89s-.42-.89-1-.89c-.39 0-.73.07-1.08.2v-1.68l1.1-.97H8.59v-2.01h5.46V15l-1.25 1.07c1.35.2 2.02 1.07 2.02 2.35 0 1.64-1.35 2.74-3.29 2.74-2.15 0-3.25-1.34-3.21-2.93m7.17-.84c0-2.63 1.47-4.49 3.55-4.49 1.77 0 2.95.99 3.07 2.57h-2.16c-.06-.45-.42-.73-.91-.73-.69 0-1.13.67-1.29 1.45.38-.3.87-.46 1.51-.46 1.63 0 2.83 1.14 2.83 2.7s-1.33 2.72-3.14 2.72c-2.1 0-3.46-1.59-3.46-3.77Zm4.4.98c.01-.57-.4-.97-.99-.97s-.99.4-.99.97.42.97.99.97.98-.4.99-.97m2.88.1h2.15c.06.45.35.76.91.76s.91-.36.91-.91-.36-.9-.91-.9c-.36 0-.63.14-.83.42h-2.08l.72-4.85h4.76V15h-3.06l-.22 1.17c.31-.28.8-.44 1.32-.44 1.5 0 2.57 1.05 2.57 2.6 0 1.72-1.22 2.84-3.17 2.84-1.82 0-3.02-1.19-3.06-2.69Z" class="cls-1"/></svg>