<svg xmlns="http://www.w3.org/2000/svg" xmlns:xlink="http://www.w3.org/1999/xlink" width="32" height="32" viewBox="0 0 32 32"><defs><style>
.cls-1 {
	fill: #e1f000;
	stroke-width: 0px;
}
</style></defs><path d="M16 10c-3.31 0-6 2.69-6 6s2.69 6 6 6 6-2.69 6-6-2.69-6-6-6m0 10c-2.21 0-4-1.79-4-4s1.79-4 4-4 4 1.79 4 4-1.79 4-4 4" class="cls-1"/><path d="M16 4C9.38 4 4 9.38 4 16s5.38 12 12 12 12-5.38 12-12S22.62 4 16 4m0 22c-5.51 0-10-4.49-10-10S10.49 6 16 6s10 4.49 10 10-4.49 10-10 10" class="cls-1"/><circle cx="16" cy="8" r="1" class="cls-1"/><circle cx="16" cy="24" r="1" class="cls-1"/><circle cx="24" cy="16" r="1" class="cls-1"/><circle cx="8" cy="16" r="1" class="cls-1"/><path d="M20.95 9.64a.996.996 0 101.41 1.41.996.996 0 10-1.41-1.41M9.64 20.95a.996.996 0 101.41 1.41.996.996 0 10-1.41-1.41m11.31 0a.996.996 0 101.41 1.41.996.996 0 10-1.41-1.41m-9.9-9.9a.996.996 0 10-1.41-1.41.996.996 0 101.41 1.41" class="cls-1"/></svg>