<svg xmlns="http://www.w3.org/2000/svg" xmlns:xlink="http://www.w3.org/1999/xlink" width="68" height="127" viewBox="0 0 68 127"><defs><style>
.cls-1 {
	fill: #e1f000;
	stroke-width: 0px;
}
</style></defs><path d="M59.41 18.43 58 19.84l1.12 1.12H38.94c-.52-5.03-4.78-8.97-9.95-8.97s-9.43 3.94-9.95 8.97H5v2h14.04c.46 4.73 4.22 8.51 8.95 8.98v18.77c-7.25.52-13 6.57-13 13.95s5.75 13.43 13 13.95v22.26h-11v24h24v-24h-11V78.61c7.25-.52 13-6.57 13-13.95s-5.75-13.43-13-13.95V31.94c4.73-.47 8.49-4.25 8.95-8.98h20.24L58 24.14l1.41 1.41 3.57-3.57-3.57-3.57Zm-21.83 84.45-18.59 18.59v-18.59zm-17.17 20L39 104.29v18.59zM36.93 21.03l-9.42-6.88c.48-.09.98-.14 1.48-.14 4.08 0 7.45 3.07 7.93 7.03ZM20.99 22c0-3.05 1.71-5.7 4.23-7.05l9.56 6.99-9.67 7.05C22.66 27.62 20.99 25 20.99 22m20 42.67c0 6.62-5.38 12-12 12s-12-5.38-12-12 5.38-12 12-12 12 5.38 12 12M28.99 30c-.56 0-1.11-.06-1.64-.17l9.59-6.99A8.01 8.01 0 0128.98 30Z" class="cls-1"/><path d="M34.49 117.48c-.88 0-1.42-1.05-2.82-1.05-1.58 0-2.62 1.11-2.7 2.87h1.83c.09-.64.39-.93.95-.93.9 0 1.44 1.05 2.82 1.05 1.53 0 2.55-1.11 2.66-2.87H35.4c-.11.71-.42.93-.9.93Zm-10.72-9.22c.9 0 1.44 1.05 2.82 1.05 1.53 0 2.55-1.11 2.66-2.87h-1.83c-.11.71-.42.93-.9.93-.88 0-1.42-1.05-2.82-1.05-1.58 0-2.62 1.11-2.7 2.87h1.83c.09-.64.39-.93.95-.93Zm1.56-49.49h-2.8v11.8h1.99s-.02-8.45-.05-9.15c.22.67 3.73 9.15 3.73 9.15h1.58s3.5-8.48 3.74-9.15c-.04.71-.07 9.15-.07 9.15h1.99v-11.8h-2.73s-3.49 8.5-3.69 9.17c-.2-.67-3.69-9.17-3.69-9.17" class="cls-1"/></svg>