<svg xmlns="http://www.w3.org/2000/svg" xmlns:xlink="http://www.w3.org/1999/xlink" width="16" height="16" viewBox="0 0 16 16"><style>
.st0 {
	fill: #e1f000;
}
.st1 {
	clip-path: url(#SVGID_00000161621484141654456290000013573774019774422944_);
}
.st2 {
	fill-rule: evenodd;
	clip-rule: evenodd;
	fill: #e1f000;
}
</style><path d="m6 9 1.6-2H6.1v-.8h2.7V7L7.2 9h1.6v.9H6zm3.4-2.8h1v3.6h-1zm1.6 0h1.6c.3 0 .5 0 .7.1s.3.2.4.4.2.4.2.6-.1.4-.2.6-.2.3-.4.4-.4.1-.7.1H12v1.2h-1zm1.7 1.4c.1-.1.1-.1.1-.2s0-.2-.1-.2c-.1-.1-.2-.1-.3-.1H12v.6h.4c.1 0 .2 0 .3-.1" class="st0"/><path d="M9 11v1H3V4h6v1h1V3H2v10h8v-2z" class="st0"/></svg>