<svg xmlns="http://www.w3.org/2000/svg" xmlns:xlink="http://www.w3.org/1999/xlink" width="32" height="32" viewBox="0 0 32 32"><path fill="#e1f000" d="M10 18.153c0 3.865 4.438 5.699 4.626 5.775l.18.072H15v-2.445a2.7 2.7 0 01-.507-1.377c-.072-1 .448-2.139 1.507-3.327 1.052 1.18 1.572 2.31 1.51 3.302A2.7 2.7 0 0117 21.56V24h.19l.179-.07c.19-.075 4.631-1.88 4.631-5.777 0-4.252-5.096-9.232-5.313-9.442l-.696-.674-.696.675c-.216.21-5.295 5.19-5.295 9.441m5.993-7.284C17.532 12.546 20 15.744 20 18.153c0 .61-.205 1.143-.498 1.615-.075-1.666-1.015-3.37-2.814-5.075L16 14.041l-.687.652c-1.796 1.701-2.735 3.402-2.814 5.065-.293-.47-.499-1.001-.499-1.605 0-2.409 2.46-5.607 3.993-7.284"/><path fill="#e1f000" d="m15.976 3.035-10.75 2.14v13.391c0 5.365 8.606 9.602 10.33 10.397l.42.192.418-.192c1.725-.795 10.332-5.03 10.332-10.397V5.175zm8.75 15.531c0 3.302-5.313 6.727-8.75 8.383-3.438-1.657-8.75-5.082-8.75-8.383V6.816l8.75-1.742 8.75 1.741z"/></svg>