<svg xmlns="http://www.w3.org/2000/svg" xmlns:xlink="http://www.w3.org/1999/xlink" width="16" height="16" viewBox="0 0 16 16"><path fill="#e1f000" d="M8 2C4.69 2 2 4.69 2 8s2.69 6 6 6 6-2.69 6-6-2.69-6-6-6m4.95 5.52h-2.57a9.36 9.36 0 00-1.36-4.41c2.11.44 3.72 2.22 3.93 4.41m-3.58 0H6.54c.09-1.57.58-3.04 1.42-4.27.83 1.23 1.33 2.7 1.42 4.27ZM6.86 3.15a9.34 9.34 0 00-1.34 4.38H3.05a5 5 0 013.81-4.38M3.05 8.52h2.47c.09 1.58.57 3.05 1.33 4.33a4.98 4.98 0 01-3.8-4.33m4.9 4.23a8.43 8.43 0 01-1.41-4.22h2.82c-.1 1.55-.59 3-1.41 4.22m1.08.14a9.4 9.4 0 001.36-4.36h2.56a5 5 0 01-3.92 4.36"/></svg>