<svg xmlns="http://www.w3.org/2000/svg" xmlns:xlink="http://www.w3.org/1999/xlink" width="32" height="32" viewBox="0 0 32 32"><defs><style>.cls-1{stroke-width:0px}</style></defs><path fill="#e1f000" d="m27.42 27.09-2.28-2.28A5.002 5.002 0 0021 17c-2.76 0-5 2.24-5 5s2.24 5 5 5c1 0 1.92-.3 2.7-.8l2.3 2.3 1.41-1.41ZM18 22c0-1.65 1.35-3 3-3s3 1.35 3 3-1.35 3-3 3-3-1.35-3-3M7.02 28h10v2h-10z" class="cls-1"/><path fill="#e1f000" d="M5.35 20 3 25.81V30h2v-3.81L6.7 22H14v-2zM12 16c-2.21 0-4-1.79-4-4H6c0 3.31 2.69 6 6 6s6-2.69 6-6h-2c0 2.21-1.79 4-4 4m9-8h-2.08c-.49-3.39-3.4-6-6.92-6S5.57 4.61 5.08 8H3v2h18zM7.1 8A5.01 5.01 0 0111 4.1v2.91h2V4.1c1.96.4 3.5 1.94 3.9 3.9z" class="cls-1"/></svg>