<svg xmlns="http://www.w3.org/2000/svg" xmlns:xlink="http://www.w3.org/1999/xlink" width="16" height="16" viewBox="0 0 16 16"><style>
.st0 {
	fill: #e1f000;
}
.st1 {
	clip-path: url(#SVGID_00000183228241316624572030000014212002990508767378_);
}
.st2 {
	fill-rule: evenodd;
	clip-rule: evenodd;
	fill: #e1f000;
}
</style><path d="M8 3c1.7 0 3 1.3 3 3s-1.8 4.6-3 6.3C6.8 10.6 5 7.7 5 6s1.3-3 3-3m0-1C5.8 2 4 3.8 4 6c0 3 4 8 4 8s4-5 4-8c0-2.2-1.8-4-4-4" class="st0"/><path d="M8 5c.6 0 1 .4 1 1s-.4 1-1 1-1-.4-1-1 .4-1 1-1m0-1c-1.1 0-2 .9-2 2s.9 2 2 2 2-.9 2-2-.9-2-2-2" class="st0"/></svg>