<svg xmlns="http://www.w3.org/2000/svg" xmlns:xlink="http://www.w3.org/1999/xlink" width="32" height="32" viewBox="0 0 32 32"><defs><style>
.cls-1 {
	fill: #e1f000;
	stroke-width: 0px;
}
</style></defs><path d="m25.28 19.93-1.61 2.8-2.82-1.63-.53.42c-.52.4-1.08.73-1.69.98l-.62.25V26h-4v-3.25l-.62-.25a6.8 6.8 0 01-1.69-.98l-.53-.42-2.82 1.63-2-3.47 2.82-1.63-.09-.67c-.04-.32-.07-.64-.07-.97s.02-.65.07-.97l.09-.67-2.82-1.63 2-3.47 2.82 1.63.53-.42c.52-.4 1.08-.73 1.69-.98l.62-.25V5.98h4v-2h-6v3.94q-.51.255-.99.57L7.61 6.52l-3.99 6.93 3.41 1.97c-.01.19-.02.37-.02.56s0 .37.02.56l-3.41 1.97 3.99 6.93 3.41-1.97q.48.315.99.57v3.94h8v-3.94q.51-.255.99-.57l3.41 1.97 2.61-4.53-1.73-1Z" class="cls-1"/><path d="M16.58 13.12C18.01 11.81 19.9 11 21.99 11s4 .82 5.43 2.14l1.41-1.41c-1.79-1.68-4.19-2.72-6.84-2.72s-5.03 1.03-6.82 2.71l1.41 1.41Z" class="cls-1"/><path d="M19.42 15.96c.7-.59 1.59-.96 2.57-.96s1.89.38 2.59.98L26 14.56a5.965 5.965 0 00-8.01-.01l1.42 1.42Z" class="cls-1"/></svg>