<svg xmlns="http://www.w3.org/2000/svg" xmlns:xlink="http://www.w3.org/1999/xlink" width="32" height="32" viewBox="0 0 32 32"><defs><style>
.cls-1 {
	fill: #e1f000;
	stroke-width: 0px;
}
</style></defs><path d="M12.52 15h2v4h-2z" class="cls-1"/><path d="M20 12H7v10h13zm-2 8H9v-6h9zM11.61 7.84c0-.24.05-.47.14-.68a2 2 0 01.42-.62 2 2 0 01.62-.42c.47-.19 1-.19 1.47 0a2 2 0 01.62.42 2 2 0 01.42.62c.1.23.15.48.15.73v2.1h2.08V7.8c0-.5-.16-1.1-.31-1.44-.2-.49-.49-.92-.87-1.3s-.81-.67-1.3-.87c-.98-.4-2.08-.4-3.06 0-.49.2-.92.49-1.3.87-.37.37-.66.81-.87 1.3q-.3.735-.3 1.53v2.1h2.08V7.83Z" class="cls-1"/><path d="M23 14h-2v9H9v2h14z" class="cls-1"/><path d="M24 19v7H14v2h12v-9z" class="cls-1"/></svg>