<svg xmlns="http://www.w3.org/2000/svg" xmlns:xlink="http://www.w3.org/1999/xlink" width="16" height="16" viewBox="0 0 16 16"><path fill="#e1f000" d="M6 7.5h7v1H6zM6 5h7v1H6zm0 5h7v1H6zM3.46 6h.45V4.4h-.38c-.15.1-.35.2-.46.23v.39c.12-.03.29-.08.39-.14zm.04 1.28c.1 0 .16.06.16.16 0 .09-.07.19-.22.3l-.54.43v.34h1.21v-.38h-.56l.14-.09c.28-.18.42-.37.42-.6 0-.31-.25-.54-.61-.54s-.64.29-.62.65h.44c-.01-.17.05-.27.18-.27M3.73 10l.3-.26v-.35H2.91v.38h.6l-.23.2v.33c.07-.02.14-.04.21-.04.11 0 .2.07.2.17s-.08.17-.2.17c-.14 0-.2-.08-.21-.2h-.42c0 .31.21.57.63.57.38 0 .64-.21.64-.54 0-.25-.13-.42-.4-.46Z"/></svg>