<svg xmlns="http://www.w3.org/2000/svg" xmlns:xlink="http://www.w3.org/1999/xlink" width="32" height="32" viewBox="0 0 32 32"><defs><style>
.cls-1 {
	fill: #e1f000;
	stroke-width: 0px;
}
</style></defs><path d="m17.88 16.7-4.87-1.75V8.6h2v4.94l3.55 1.28z" class="cls-1"/><path d="M16 21.74c-.64.17-1.31.26-2 .26-4.41 0-8-3.59-8-8s3.59-8 8-8 8 3.59 8 8 2 0 2 0c0-5.51-4.49-10-10-10S4 8.49 4 14s4.49 10 10 10c.68 0 1.35-.07 2-.2z" class="cls-1"/><path d="m26.54 19.67-2.51 2.52-.02-6.2-2 .01.02 6.22-2.55-2.55-1.41 1.42 4.96 4.94 4.93-4.95z" class="cls-1"/></svg>