<svg xmlns="http://www.w3.org/2000/svg" xmlns:xlink="http://www.w3.org/1999/xlink" width="32" height="32" viewBox="0 0 32 32"><defs><style>.cls-1{stroke-width:0px}</style></defs><path fill="#e1f000" d="m12.95 9.04-.77.91c-1.02 1.22-2.19 2.6-2.19 4.05 0 1.65 1.35 3 3 3 .4 0 .77-.08 1.12-.22l1.87-2.89c-.06-1.4-1.16-2.73-2.15-3.91l-.89-.95ZM13 15c-.55 0-1-.45-1-1 0-.49.46-1.2 1-1.89.53.68 1 1.39 1 1.89 0 .55-.45 1-1 1m5.68 8.1c2.21 0 4-1.79 4-4 0-1.97-1.66-3.95-3.12-5.7l-.88-1.05-.85 1.01c-1.48 1.76-3.16 3.76-3.16 5.75 0 2.21 1.79 4 4 4Zm0-7.63c1.01 1.24 2 2.61 2 3.63 0 1.1-.9 2-2 2s-2-.9-2-2c0-1.03.99-2.39 2-3.63" class="cls-1"/><path fill="#e1f000" d="m27.77 13.84-1.97.37c.77 4.15-1.17 8.36-4.83 10.48a9.98 9.98 0 01-11.01-.68H14v-2H7v7.01h2v-3.23a12.01 12.01 0 0012.97.64c4.39-2.54 6.72-7.59 5.8-12.57ZM11 7.34a9.98 9.98 0 0111.03.67h-4.04v2h7V2.99h-2v3.23c-3.8-2.72-8.9-3-13-.62-4.39 2.55-6.7 7.61-5.76 12.59l1.96-.37c-.78-4.15 1.15-8.37 4.8-10.49Z" class="cls-1"/></svg>