<svg xmlns="http://www.w3.org/2000/svg" xmlns:xlink="http://www.w3.org/1999/xlink" width="32" height="32" viewBox="0 0 32 32"><defs><style>.cls-1{stroke-width:0px}</style></defs><path fill="#08191f" d="M17.25 23.03v-1.48c1.75-.36 2.95-1.6 2.95-3.33 0-4.29-5.7-3.03-5.7-4.77 0-.6.52-.96 1.36-.96.93 0 1.67.52 1.83 1.34h2.43c-.19-1.71-1.25-2.89-2.87-3.3v-1.5h-2.18v1.39c-1.75.27-3.06 1.47-3.06 3.14 0 4.07 5.68 2.84 5.68 4.81 0 .74-.66 1.15-1.56 1.15-1.26 0-2-.71-2.16-1.88h-2.43c.17 2.11 1.45 3.57 3.54 3.93v1.44l2.18.02Z" class="cls-1"/><path fill="#08191f" d="M25.99 6v3.42C23.85 6.16 20.18 4 15.99 4c-6.63 0-12 5.37-12 12s5.37 12 12 12c5.94 0 10.87-4.33 11.82-10h-2.02c-.93 4.56-4.97 8-9.8 8-5.51 0-10-4.49-10-10s4.49-10 10-10a9.99 9.99 0 018.65 5h-3.65v2h7V6z" class="cls-1"/></svg>