<svg xmlns="http://www.w3.org/2000/svg" xmlns:xlink="http://www.w3.org/1999/xlink" width="32" height="32" viewBox="0 0 32 32"><path fill="#08191f" d="m14.7 17.13-1.85 1.06c-.5-.51-1.14-.87-1.85-1.06v-2.14H9v2.14c-.71.18-1.35.55-1.84 1.05l-1.84-1.07-1 1.73 1.86 1.08c-.1.34-.16.7-.16 1.07s.07.72.16 1.06l-1.86 1.07 1 1.73 1.85-1.06c.5.51 1.14.88 1.85 1.06v2.14h2v-2.14c.71-.18 1.35-.55 1.86-1.06l1.84 1.07 1-1.73-1.86-1.07c.1-.34.16-.69.16-1.07s-.07-.72-.16-1.06l1.86-1.07-1-1.73ZM10 23c-1.1 0-2-.9-2-2s.9-2 2-2 2 .9 2 2-.9 2-2 2m7-16h3.59l-5.79 5.79 1.41 1.42L22 8.42V12h2.01V5H17zm8 7h2v13h-2zm-4 5h2v8h-2zm-4 4h2v4h-2z"/></svg>