<svg xmlns="http://www.w3.org/2000/svg" xmlns:xlink="http://www.w3.org/1999/xlink" width="32" height="32" viewBox="0 0 32 32"><defs><style>.cls-1{stroke-width:0px}</style></defs><path fill="#08191f" d="M16 3C8.59 3 3 5.58 3 9v14c0 3.42 5.59 6 13 6s13-2.58 13-6V9c0-3.42-5.59-6-13-6m0 2c6.3 0 11 2.11 11 4s-4.7 4-11 4S5 10.89 5 9s4.7-4 11-4m0 22c-6.3 0-11-2.11-11-4v-3.72C7.26 20.94 11.25 22 16 22s8.74-1.06 11-2.72V23c0 1.89-4.7 4-11 4m0-7c-6.3 0-11-2.11-11-4v-3.72C7.26 13.94 11.25 15 16 15s8.74-1.06 11-2.72V16c0 1.89-4.7 4-11 4" class="cls-1"/><circle cx="24" cy="16" r="1" fill="#08191f" class="cls-1"/><circle cx="24" cy="23" r="1" fill="#08191f" class="cls-1"/></svg>