<svg xmlns="http://www.w3.org/2000/svg" xmlns:xlink="http://www.w3.org/1999/xlink" width="32" height="32" viewBox="0 0 32 32"><path fill="#08191f" d="M13 5h1V3H4v2h1v14c0 2.206 1.794 4 4 4s4-1.794 4-4zm-2 0v4H7V5zM9 21c-1.103 0-2-.897-2-2v-8h4v8c0 1.103-.897 2-2 2m6-12h10v2H15zm12.755 16.701L23 15.801V12h-2v4.257L23.278 21h-6.574l2.267-4.744V12h-2v3.803l-4.733 9.902c-.342.718-.294 1.548.13 2.22S13.521 29 14.315 29H25.68a2.29 2.29 0 001.948-1.076 2.29 2.29 0 00.127-2.223m-1.82 1.157a.3.3 0 01-.255.142H14.315c-.145 0-.222-.088-.255-.14s-.08-.162-.017-.293L15.748 23h8.491l1.713 3.566a.3.3 0 01-.016.292"/></svg>