<svg xmlns="http://www.w3.org/2000/svg" xmlns:xlink="http://www.w3.org/1999/xlink" width="32" height="32" viewBox="0 0 32 32"><defs><style>.cls-1{stroke-width:0px}</style></defs><path fill="#08191f" d="M3 11h4v2H3zm11.13-2.74 2.13.54L19 6.59l2.74 2.19 2.12-.52 1.06 1.77h2.34l-2.44-4.07-2.6.64-3.23-2.58-3.21 2.6-2.6-.67-2.44 4.08h2.33zM10 13h16.08l-2.3 6h2.14l3.06-8H8v13.08c0 .68.34 1.3.91 1.66.32.21.69.31 1.05.31.29 0 .57-.06.84-.19l6.24-4.49 1.95.75v-2.14l-9-3.48V13Zm4.82 7.51L10 24v-5.35z" class="cls-1"/><path fill="#08191f" d="M24 20c-2.21 0-4 1.79-4 4s1.79 4 4 4 4-1.79 4-4-1.79-4-4-4m0 6c-1.1 0-2-.9-2-2s.9-2 2-2 2 .9 2 2-.9 2-2 2" class="cls-1"/></svg>