<svg xmlns="http://www.w3.org/2000/svg" xmlns:xlink="http://www.w3.org/1999/xlink" width="68" height="45" viewBox="0 0 68 45"><path fill="#08191f" d="M59.41 18.43 58 19.84l1.12 1.12H38.94c-.52-5.03-4.78-8.97-9.95-8.97s-9.43 3.94-9.95 8.97H5v2h14.04c.46 4.73 4.22 8.51 8.95 8.98v10.05h2V31.94c4.73-.47 8.49-4.25 8.95-8.98h20.24L58 24.14l1.41 1.41 3.57-3.57-3.57-3.57Zm-22.48 2.6-9.42-6.88c.48-.09.98-.14 1.48-.14 4.08 0 7.45 3.07 7.93 7.03ZM20.99 22c0-3.05 1.71-5.7 4.23-7.05l9.56 6.99-9.67 7.05C22.66 27.62 20.99 25 20.99 22m8 8c-.56 0-1.11-.06-1.64-.17l9.59-6.99A8.01 8.01 0 0128.98 30Z"/></svg>