<svg xmlns="http://www.w3.org/2000/svg" xmlns:xlink="http://www.w3.org/1999/xlink" width="32" height="32" viewBox="0 0 32 32"><defs><style>.cls-1{stroke-width:0px}</style></defs><path fill="#08191f" d="M6.01 15.99c0-5.51 4.49-10 10-10s10 4.49 10 10h2c0-6.62-5.38-12-12-12s-12 5.38-12 12 5.37 11.99 11.98 12v-2c-5.5-.01-9.98-4.49-9.98-10" class="cls-1"/><path fill="#08191f" d="m27.53 22.14-2.52 2.53-.03-5.67-2 .01.03 5.67-2.54-2.53-1.41 1.41 4.95 4.94 4.93-4.95zm-7.18-3.97c0-4.29-5.7-3.03-5.7-4.77 0-.6.52-.96 1.36-.96.93 0 1.67.52 1.83 1.34h2.43c-.19-1.71-1.25-2.89-2.87-3.3v-1.5h-2.18v1.39c-1.75.27-3.06 1.47-3.06 3.14 0 4.07 5.68 2.84 5.68 4.81 0 .74-.66 1.15-1.56 1.15-1.26 0-2-.71-2.16-1.88h-2.43c.17 2.11 1.45 3.57 3.54 3.93v1.44l2.18.02V21.5c1.75-.36 2.95-1.6 2.95-3.33Z" class="cls-1"/></svg>