<svg xmlns="http://www.w3.org/2000/svg" xmlns:xlink="http://www.w3.org/1999/xlink" width="32" height="32" viewBox="0 0 32 32"><defs><style>
.cls-1 {
	fill: #08191f;
	stroke-width: 0px;
}
</style></defs><path d="M26.64 6.42C25.89 3.83 23.51 2 20.75 2s-5.14 1.82-5.89 4.42A4.9 4.9 0 0011.64 10h2.08c.36-.9 1.16-1.6 2.17-1.79l.68-.13.12-.68c.35-1.97 2.06-3.4 4.07-3.4s3.72 1.43 4.07 3.4l.12.68.68.13c1.38.26 2.38 1.47 2.38 2.87 0 1.61-1.32 2.92-2.93 2.92H24v2h1.08c2.72 0 4.93-2.21 4.93-4.92 0-2.13-1.38-4-3.36-4.66Z" class="cls-1"/><path d="M2 25h9v3.01H8v2h8v-2h-3V25h9V12.01H2zm2-10.99h16V23H4z" class="cls-1"/></svg>