<svg xmlns="http://www.w3.org/2000/svg" xmlns:xlink="http://www.w3.org/1999/xlink" width="16" height="16" viewBox="0 0 16 16"><style>.st1{clip-path:url(#SVGID_00000057110472272029954620000006067816497291106477_)}.st2{fill-rule:evenodd;clip-rule:evenodd}</style><path fill="#08191f" d="M9 11v1H3V4h6v1h1V3H2v10h8v-2z" class="st0"/><path fill="#08191f" d="M4.7 6.2h1.4l.4 1.1c.2.4.3.7.3 1 .1-.3.2-.6.3-1l.5-1.1H9v3.6H8V7.6c-.1.3-.2.6-.4 1l-.4 1.2h-.7L6 8.6c-.2-.4-.3-.7-.4-1v2.2h-1V6.2zm4.5 0h1.5c.3 0 .5 0 .7.1s.3.2.4.4.2.4.2.7c0 .2-.1.4-.2.6s-.2.3-.4.4-.4.1-.7.1h-.5v1.2h-1zm1.7 1.4c.1 0 .1-.1.1-.2s0-.2-.1-.2c-.1-.1-.2-.1-.3-.1h-.4v.6h.4c.1 0 .2 0 .3-.1m2.7 1.6h-1.7v-.8l1.6-2.2h1v2.1h.5v.9h-.4v.6h-1zm0-.8v-.9l-.7.9z" class="st0"/></svg>