<svg xmlns="http://www.w3.org/2000/svg" xmlns:xlink="http://www.w3.org/1999/xlink" width="32" height="32" viewBox="0 0 32 32"><path fill="#08191f" d="M13 19V7c0-1.65-1.35-3-3-3S7 5.35 7 7v12c-1.25.94-2 2.42-2 4 0 2.76 2.24 5 5 5s5-2.24 5-5c0-1.58-.75-3.06-2-4M10 6c.55 0 1 .45 1 1v2H9V7c0-.55.45-1 1-1m0 20c-1.65 0-3-1.35-3-3 0-1.07.58-2.06 1.5-2.6l.5-.29V11h2v9.11l.5.29c.93.54 1.5 1.53 1.5 2.6 0 1.65-1.35 3-3 3m13.02-1.84-.03-6.2-2 .01.03 6.22-2.55-2.55-1.41 1.42L22.02 28l4.92-4.95-1.41-1.41zM20.98 7.84l.03 6.2 2-.01-.03-6.22 2.55 2.55 1.41-1.42L21.98 4l-4.92 4.95 1.41 1.41z"/></svg>