<svg xmlns="http://www.w3.org/2000/svg" xmlns:xlink="http://www.w3.org/1999/xlink" width="32" height="32" viewBox="0 0 32 32"><path fill="#08191f" d="M10.982 3.016h2v4.42h-2zM13.827 7.2l3.126-3.125 1.414 1.414-3.126 3.126zM5.678 5.488l1.414-1.414L10.217 7.2 8.803 8.613z"/><path fill="#08191f" d="m22.349 13.294 2.472-2.628a2.985 2.985 0 00-.068-4.185c-.58-.576-1.335-.867-2.168-.873a2.98 2.98 0 00-2.136.946l-7.88 8.387-.634-1.683a4.175 4.175 0 00-4.624-2.636l-1.88.331 1.56 8.824v5.212h2v-5.3l-1.242-7.11a2.16 2.16 0 012.314 1.384l1.42 3.766 1.87-.705.004-.002 8.55-9.099a1 1 0 01.712-.315c.26.009.53.098.724.29a.995.995 0 01.022 1.397l-4.882 5.187 1.457 1.37 1.038-1.101 4.01 4.01v2.536l-5.835 5.708h-5.19v2h6.007l5.151-5.04.017.016 1.85-1.85v-4.199z"/></svg>