<svg xmlns="http://www.w3.org/2000/svg" xmlns:xlink="http://www.w3.org/1999/xlink" width="32" height="32" viewBox="0 0 32 32"><defs><style>
.cls-1 {
	fill: #08191f;
	stroke-width: 0px;
}
</style></defs><path d="M7.9 13.62c.13.35.31.65.51.94L7.03 16.2l1.53 1.29 1.37-1.63c.64.31 1.37.43 2.1.36l.73 2.01 1.88-.68-.73-2.01c.6-.42 1.08-.97 1.37-1.62l2.1.37.35-1.97-2.11-.38c-.03-.35-.08-.71-.21-1.06s-.31-.65-.51-.94l1.38-1.64-1.53-1.29-1.37 1.63a4.06 4.06 0 00-2.1-.37l-.73-2.01-1.88.68.73 2.01c-.61.42-1.08.98-1.38 1.63l-2.1-.37-.35 1.97 2.11.37c.03.35.08.71.21 1.06Zm3.07-3.25c1.04-.38 2.19.16 2.56 1.2a2 2 0 11-2.56-1.2" class="cls-1"/><path d="M19.08 15.89c-.35.13-.65.31-.94.51l-1.64-1.38-1.29 1.53 1.63 1.37c-.31.64-.43 1.37-.36 2.1l-2.01.73.68 1.88 2.01-.73c.42.6.97 1.08 1.62 1.37l-.37 2.1 1.97.35.38-2.11c.35-.03.71-.08 1.06-.21s.65-.31.94-.51l1.64 1.38 1.29-1.53-1.63-1.37c.31-.64.43-1.37.37-2.1l2.01-.73-.68-1.88-2.01.73c-.42-.61-.98-1.08-1.63-1.38l.37-2.1-1.97-.35-.37 2.11c-.35.03-.71.08-1.06.21Zm3.25 3.08c.38 1.04-.16 2.19-1.2 2.56s-2.19-.16-2.56-1.2c-.38-1.04.16-2.19 1.2-2.56s2.19.16 2.56 1.2" class="cls-1"/></svg>