<svg xmlns="http://www.w3.org/2000/svg" xmlns:xlink="http://www.w3.org/1999/xlink" width="32" height="32" viewBox="0 0 32 32"><defs><style>.cls-1{stroke-width:0px}</style></defs><path fill="#08191f" d="M23.12 25.01A9.96 9.96 0 0026 18c0-4.1-2.47-7.62-6-9.16V4h3V2H9v2h3v4.84C8.47 10.38 6 13.9 6 18c0 2.73 1.1 5.21 2.88 7.01L7.39 28H6.01v2h5v-2H9.63l.84-1.68c1.59 1.06 3.49 1.68 5.54 1.68s3.96-.62 5.54-1.68l.84 1.68h-1.38v2h5v-2h-1.38l-1.49-2.99ZM14 4h4v4.2c-.65-.13-1.32-.2-2-.2s-1.35.07-2 .2zm2 22c-4.42 0-8-3.58-8-8s3.58-8 8-8 8 3.58 8 8-3.58 8-8 8" class="cls-1"/><path fill="#08191f" d="M16 17c-.55 0-1 .45-1 1s.45 1 1 1 1-.45 1-1-.45-1-1-1m-6 1c0 2.97 2.16 5.44 5 5.92v-2.03c-1.73-.44-3.01-2.02-3.01-3.88s1.28-3.44 3.01-3.88V12.1a6 6 0 00-5 5.92Zm7-5.92v2.03c1.73.44 3.01 2.02 3.01 3.88s-1.28 3.44-3.01 3.88v2.03a6 6 0 005-5.92 6 6 0 00-5-5.92Z" class="cls-1"/></svg>