<svg xmlns="http://www.w3.org/2000/svg" xmlns:xlink="http://www.w3.org/1999/xlink" width="32" height="32" viewBox="0 0 32 32"><defs><style>
.cls-1 {
	fill: #08191f;
	stroke-width: 0px;
}
</style></defs><path d="m27.82 13.82-1.97.36c.11.59.16 1.2.16 1.81 0 5.54-4.51 10.05-10.05 10.05-2.22 0-4.31-.72-6.04-2.03h4.09v-2h-7v7h2v-3.18c2.02 1.43 4.42 2.21 6.95 2.21 6.64 0 12.05-5.4 12.05-12.05 0-.73-.07-1.46-.19-2.16ZM16.03 6c2.17 0 4.27.72 6 2h-4.01v2h7V3h-2v3.24A12.1 12.1 0 0016.03 4C9.39 4 3.98 9.4 3.98 16.05c0 .75.07 1.5.21 2.23l1.96-.37c-.11-.61-.17-1.23-.17-1.86C5.98 10.51 10.49 6 16.03 6" class="cls-1"/><path d="M15 19h2v2h-2zm0-8h2v7h-2z" class="cls-1"/></svg>