<svg xmlns="http://www.w3.org/2000/svg" xmlns:xlink="http://www.w3.org/1999/xlink" width="32" height="32" viewBox="0 0 32 32"><path fill="#08191f" d="M24.904 9.72c-.244-.331-.474-.645-.587-.915-.122-.294-.185-.695-.252-1.117-.133-.844-.285-1.8-.994-2.51-.708-.707-1.664-.859-2.506-.992-.424-.067-.825-.13-1.12-.253-.27-.113-.583-.342-.914-.586-.664-.489-1.49-1.097-2.531-1.097s-1.867.608-2.53 1.097c-.331.244-.645.473-.915.586-.294.123-.696.186-1.12.253-.842.133-1.798.285-2.507.993-.707.709-.859 1.665-.993 2.508-.066.423-.13.824-.252 1.118-.112.27-.342.583-.586.914C6.608 10.383 6 11.209 6 12.25s.608 1.867 1.097 2.531c.244.331.474.644.586.914.123.294.186.695.252 1.118.134.843.286 1.8.994 2.51.606.605 1.391.799 2.134.927H11v9.618l5-2.5 5 2.5V20.25h-.063c.743-.128 1.528-.323 2.135-.929.707-.709.859-1.665.992-2.508.068-.423.131-.823.253-1.118.113-.27.343-.584.587-.915.488-.664 1.096-1.489 1.096-2.53s-.608-1.866-1.096-2.53M16 25.132l-3 1.5v-5.813c.15.1.308.216.47.335.664.489 1.489 1.096 2.53 1.096s1.866-.607 2.53-1.096q.244-.182.47-.335v5.813zm7.293-11.538c-.304.414-.618.84-.823 1.336-.213.512-.298 1.05-.38 1.57-.091.57-.185 1.158-.433 1.406-.248.25-.837.342-1.405.433-.52.082-1.06.168-1.572.38-.496.206-.922.52-1.336.824-.494.364-.96.707-1.344.707s-.85-.343-1.344-.707c-.414-.304-.84-.618-1.335-.823-.513-.213-1.052-.3-1.573-.381-.568-.091-1.157-.184-1.404-.432-.25-.249-.342-.837-.433-1.406-.082-.52-.167-1.059-.38-1.571-.205-.495-.52-.922-.824-1.335C8.344 13.1 8 12.635 8 12.25s.344-.85.707-1.345c.305-.413.62-.84.824-1.335.213-.512.298-1.05.38-1.571.09-.57.184-1.157.432-1.405.248-.25.837-.342 1.406-.433.52-.082 1.059-.168 1.572-.38.494-.206.922-.52 1.334-.824.494-.363.96-.707 1.345-.707s.851.344 1.346.707c.413.304.84.618 1.333.823.513.213 1.052.3 1.573.381.568.091 1.157.184 1.405.432.25.249.342.838.433 1.407.082.52.167 1.058.38 1.57.205.495.52.922.823 1.336.364.493.707.96.707 1.344s-.343.85-.707 1.344"/><path fill="#08191f" fill-rule="evenodd" d="m19.276 10.077-3.295 3.293-2.2-2.198-1.413 1.415 3.613 3.61 4.709-4.706z"/></svg>