<svg xmlns="http://www.w3.org/2000/svg" xmlns:xlink="http://www.w3.org/1999/xlink" width="32" height="32" viewBox="0 0 32 32"><defs><style>.cls-1{stroke-width:0px}</style></defs><path fill="#08191f" d="M7.02 28h10v2h-10z" class="cls-1"/><path fill="#08191f" d="M5.35 20 3 25.81V30h2v-3.81L6.7 22H14v-2zM12 16c-2.21 0-4-1.79-4-4H6c0 3.31 2.69 6 6 6s6-2.69 6-6h-2c0 2.21-1.79 4-4 4m9-8h-2.08c-.49-3.39-3.4-6-6.92-6S5.57 4.61 5.08 8H3v2h18zM7.1 8A5.01 5.01 0 0111 4.1v2.91h2V4.1c1.96.4 3.5 1.94 3.9 3.9zm9.48 16.12C18.01 22.81 19.9 22 21.99 22s4 .82 5.43 2.14l1.41-1.41c-1.79-1.68-4.19-2.72-6.84-2.72s-5.03 1.03-6.82 2.71l1.41 1.41Z" class="cls-1"/><path fill="#08191f" d="M19.42 26.96c.7-.59 1.59-.96 2.57-.96s1.89.38 2.59.98L26 25.56a5.965 5.965 0 00-8.01-.01l1.42 1.42Z" class="cls-1"/></svg>