<svg xmlns="http://www.w3.org/2000/svg" xmlns:xlink="http://www.w3.org/1999/xlink" width="32" height="32" viewBox="0 0 32 32"><defs><style>.cls-1{stroke-width:0px}</style></defs><path fill="#08191f" d="M19.99 18.64v-2.09a3.01 3.01 0 00-2.49 2.96c0 1.65 1.35 3 3 3 1.48 0 2.71-1.09 2.95-2.5h-2.1c-.17.29-.48.5-.85.5-.55 0-1-.45-1-1 0-.37.2-.69.49-.86Zm-5.98-9.65H3v11.96l8 .05v-2l-5.98-.05v-7.97h6.97v-.01h2.02z" class="cls-1"/><path fill="#08191f" d="M7 13h4v2H7zm14 5h7v-7h-2v3.42A7.5 7.5 0 0020.5 12c-4.14 0-7.5 3.36-7.5 7.5a7.5 7.5 0 002.04 5.13L13.36 28h2.23l1.04-2.09c1.13.68 2.45 1.09 3.87 1.09s2.74-.4 3.87-1.09L25.41 28h2.25l-1.68-3.39a7.5 7.5 0 002-4.61h-2a5.5 5.5 0 01-5.47 5c-3.03 0-5.5-2.47-5.5-5.5s2.47-5.5 5.5-5.5c1.7 0 3.23.78 4.24 2h-3.74v2Zm2-7.02v-2h-5V11h5z" class="cls-1"/></svg>