<svg xmlns="http://www.w3.org/2000/svg" xmlns:xlink="http://www.w3.org/1999/xlink" width="32" height="32" viewBox="0 0 32 32"><path fill="#08191f" d="m25.44 18-7.01-6.89-.7.65s-1.44 1.27-3 1.24c-.58-.02-1.12-.23-1.62-.61L15.86 9h5.77l2.32 1.98h5.02v-2h-4.28L22.37 7H14.9l-4.42 5.57.58.64c1.04 1.14 2.26 1.74 3.61 1.79 1.56.06 2.88-.64 3.67-1.18l5.29 5.2 1.01.98H29v-2zM12 9H3v2h7.41zm8.99 10.23-2.38 2.38-5.63-5.62H3v2h2.47l5.4 5.62c.96.99 2.48 1.58 4.17 1.61h.12c1.66 0 3.17-.54 4.14-1.49l.65-.64 2.47-2.46zm-5.92 3.99c-1.15-.02-2.18-.39-2.76-.99L8.24 18h3.91l4.88 4.87c-.56.24-1.23.36-1.96.36Z"/></svg>