<svg xmlns="http://www.w3.org/2000/svg" xmlns:xlink="http://www.w3.org/1999/xlink" width="47" height="48" viewBox="-7 -8 47 48"><g fill="#08191f"><path d="m9.723 16.954 4.943 4.942 8.241-8.275-1.885-1.885-6.356 6.39-3.057-3.058z"/><path fill-rule="evenodd" d="M2.666 16.5c0-7.364 5.97-13.333 13.333-13.333S29.333 9.137 29.333 16.5s-5.97 13.334-13.334 13.334c-7.362 0-13.333-5.971-13.333-13.334m2.667 0c0 5.882 4.785 10.667 10.666 10.667 5.883 0 10.667-4.785 10.667-10.667S21.882 5.834 15.999 5.834c-5.881 0-10.666 4.785-10.666 10.666" clip-rule="evenodd"/></g></svg>