<svg xmlns="http://www.w3.org/2000/svg" xmlns:xlink="http://www.w3.org/1999/xlink" width="32" height="32" viewBox="0 0 32 32"><path fill="#08191f" d="M14 27h4v2h-4zm-2-4h8v2h-8z"/><path fill="#08191f" fill-rule="evenodd" d="M13.81 19c-.296-1-.89-2.4-1.78-3.3-1.286-1.2-2.03-2.8-2.03-4.6C10 7.7 12.636 5 16 5c.71 0 1.38.13 2 .359V3.264A8 8 0 0015.987 3C11.535 3 8.099 6.7 8 11.2c0 2.3.864 4.6 2.645 6.1.692.5 1.187 1.9 1.385 3l.198.7h7.42l.197-.8c.075-.341.193-.768.348-1.2z"/><path fill="#08191f" d="M25.002 12c0-.37-.067-.72-.16-1.06l1.857-1.072-1-1.732L23.852 9.2a4 4 0 00-1.85-1.059V6h-2v2.142a4 4 0 00-1.845 1.052l-1.844-1.07-1.003 1.73 1.856 1.076a4 4 0 00-.164 1.07c0 .368.066.717.16 1.056l-1.86 1.069.998 1.733 1.848-1.063c.5.51 1.138.876 1.849 1.061L19.994 18l2 .002.003-2.141a4 4 0 001.852-1.057l1.845 1.067 1.002-1.731-1.856-1.074c.095-.341.162-.694.162-1.065m-4 2c-1.103 0-2-.897-2-2s.897-2 2-2 2 .897 2 2-.898 2-2 2"/></svg>