<svg xmlns="http://www.w3.org/2000/svg" xmlns:xlink="http://www.w3.org/1999/xlink" width="32" height="32" viewBox="0 0 32 32"><defs><style>
.cls-1 {
	fill: #08191f;
	stroke-width: 0px;
}
</style></defs><path d="m9.13 9.23 2.13.55L14 7.57l2.74 2.19 2.12-.53L19.93 11h2.33l-2.44-4.06-2.6.64L14 5l-3.21 2.59-2.61-.66L5.75 11h2.33zM7 20.97h2v5.96H7z" class="cls-1"/><path d="m28.58 12.58-2.83-2.83-1.41 1.41 1.83 1.83H5.6c-1.99 0-3.61 1.57-3.61 3.5s1.62 3.5 3.61 3.5h15.39v6.95h2v-8.95H5.6c-.89 0-1.61-.67-1.61-1.5s.72-1.5 1.61-1.5h20.56l-1.83 1.83 1.41 1.41 2.83-2.83 1.41-1.41-1.41-1.41Z" class="cls-1"/></svg>