<svg xmlns="http://www.w3.org/2000/svg" xmlns:xlink="http://www.w3.org/1999/xlink" width="32" height="32" viewBox="0 0 32 32"><path fill="#08191f" d="M15 12V3H3v22h9v-2H5V5h8v7z"/><path fill="#08191f" d="M7 7h4v2H7zm14.5 9.5c-1.654 0-3 1.346-3 3s1.346 3 3 3 3-1.346 3-3-1.346-3-3-3m0 4a1 1 0 11.001-2.001 1 1 0 010 2.001"/><path fill="#08191f" d="M29 19.5a7.5 7.5 0 00-4-6.628V9h-7v3.872a7.5 7.5 0 00-4 6.628c0 1.993.786 3.801 2.058 5.146L14.378 28h2.236l1.04-2.074A7.44 7.44 0 0021.5 27a7.44 7.44 0 003.85-1.076L26.39 28h2.237l-1.683-3.357A7.47 7.47 0 0029 19.5M20 11h3v1.151a7.5 7.5 0 00-3 0zm1.5 14c-3.032 0-5.5-2.468-5.5-5.5s2.468-5.5 5.5-5.5 5.5 2.468 5.5 5.5-2.468 5.5-5.5 5.5"/></svg>