<svg xmlns="http://www.w3.org/2000/svg" xmlns:xlink="http://www.w3.org/1999/xlink" width="32" height="32" viewBox="0 0 32 32"><defs><style>.cls-1{stroke-width:0px}</style></defs><path fill="#08191f" d="M20.38 4.83c.56.87 1.03 1.9 1.41 3.04C24.34 9.68 26 12.64 26 16s-1.67 6.31-4.21 8.13c-.38 1.13-.84 2.16-1.39 3.02 4.45-1.75 7.61-6.07 7.61-11.15s-3.16-9.43-7.62-11.17Z" class="cls-1"/><path fill="#08191f" d="M16.04 4H16C9.37 4 4 9.37 4 16s5.37 12 12 12c2.76 0 5-5.37 5-12S18.78 4.06 16.04 4M13 16c0-.93.05-1.8.13-2.6h5.74c.08.81.13 1.67.13 2.6s-.05 1.85-.14 2.68h-5.73c-.08-.83-.14-1.71-.14-2.68Zm3-10c.56 0 1.9 1.85 2.58 5.4h-5.17C14.09 7.85 15.43 6 16 6m2.57 14.68C17.88 24.18 16.56 26 16 26s-1.88-1.82-2.57-5.32zm-5.6-14.21c-.69 1.27-1.25 2.96-1.59 4.93H7.13c1.21-2.32 3.3-4.12 5.84-4.93M6.36 13.4h4.77c-.08.84-.12 1.71-.12 2.6s.05 1.81.13 2.68H6.39c-.24-.85-.37-1.75-.37-2.68s.13-1.77.36-2.6Zm.81 7.28h4.23c.34 1.93.89 3.59 1.57 4.85-2.51-.8-4.58-2.56-5.8-4.85" class="cls-1"/></svg>