<svg xmlns="http://www.w3.org/2000/svg" xmlns:xlink="http://www.w3.org/1999/xlink" width="32" height="32" viewBox="0 0 32 32"><defs><style>.cls-1{stroke-width:0px}</style></defs><path fill="#08191f" d="m30 14.28-6.39-2.13L20.5 8H6.52L2 13.65V22h3.18c.41 1.16 1.51 2 2.82 2 1.65 0 3-1.35 3-3s-1.35-3-3-3c-1.3 0-2.4.84-2.82 2H4v-5.65L7.48 10H19.5l2.89 3.85L28 15.72V20h-1.18A2.99 2.99 0 0024 18c-1.65 0-3 1.35-3 3s1.35 3 3 3c1.3 0 2.4-.84 2.82-2H30zM8 20c.55 0 1 .45 1 1s-.45 1-1 1-1-.45-1-1 .45-1 1-1m16 2c-.55 0-1-.45-1-1s.45-1 1-1 1 .45 1 1-.45 1-1 1" class="cls-1"/><path fill="#08191f" d="M13 20h6v2h-6z" class="cls-1"/></svg>