<svg xmlns="http://www.w3.org/2000/svg" xmlns:xlink="http://www.w3.org/1999/xlink" width="32" height="32" viewBox="0 0 32 32"><path fill="#08191f" d="M7.677 21.5H5.366C7.362 25.35 11.374 27.992 16 28v-2c-3.474-.007-6.536-1.797-8.323-4.5M16 6c5.514 0 10 4.486 10 10h2c0-6.617-5.383-12-12-12-4.634 0-8.655 2.645-10.653 6.5h2.31C9.45 7.792 12.518 6 16 6m11.527 16.142-2.517 2.527L24.98 19l-2 .01.03 5.665-2.541-2.531-1.412 1.416 4.96 4.94 4.926-4.946zM9.79 16.853H7.816c-.11.638-.619 1.038-1.248 1.038-.878 0-1.626-.639-1.626-1.907 0-1.266.739-1.905 1.626-1.905.66 0 1.158.439 1.228 1.068H9.77c-.11-1.607-1.417-2.735-3.204-2.735-1.995 0-3.602 1.258-3.602 3.572 0 2.326 1.657 3.574 3.602 3.574 1.857 0 3.074-1.148 3.224-2.705"/><path fill="#08191f" d="M13.879 12.412c-2.115 0-3.702 1.517-3.702 3.572 0 2.057 1.587 3.574 3.702 3.574 2.095 0 3.673-1.517 3.673-3.574 0-2.055-1.578-3.572-3.673-3.572m0 5.479c-1.018 0-1.726-.819-1.726-1.907 0-1.086.708-1.905 1.726-1.905.988 0 1.697.819 1.697 1.905 0 1.088-.709 1.907-1.697 1.907m5.313-.288-1.078.878v.918h2.924V18.36h-1.207l.23-.13c.717-.408.977-.848.977-1.387 0-.768-.599-1.327-1.517-1.327-.928 0-1.586.719-1.516 1.577h1.167c-.03-.369.14-.539.35-.539.199 0 .298.12.298.29 0 .259-.27.468-.628.758"/></svg>