<svg xmlns="http://www.w3.org/2000/svg" xmlns:xlink="http://www.w3.org/1999/xlink" width="16" height="16" viewBox="0 0 16 16"><style>.st1{clip-path:url(#SVGID_00000067233033254061146720000002966294778051785128_)}.st2{fill-rule:evenodd;clip-rule:evenodd}</style><path fill="#08191f" d="M5 6.2h1.6c.3 0 .5 0 .7.1s.3.2.4.4.2.4.2.6-.1.4-.2.6-.3.4-.5.5-.4.1-.6.1H6v1.2H5zm1.7 1.4c.1-.1.1-.1.1-.2s0-.2-.1-.2c-.1-.1-.2-.1-.3-.1H6v.6h.4c.1 0 .2 0 .3-.1M8 6.2h1.3c.3 0 .7.1.9.2s.6.3.8.6.3.6.3 1-.1.7-.3 1-.4.5-.7.6-.6.2-1 .2H8zm1.9 2.5c.2-.1.3-.4.3-.7s-.1-.6-.3-.7c-.2-.2-.4-.2-.7-.2H9V9h.2c.3-.1.5-.1.7-.3m1.5-2.5H14v.9h-1.6v.5h1.3v.9h-1.3v1.4h-1z" class="st0"/><path fill="#08191f" d="M9 11v1H3V4h6v1h1V3H2v10h8v-2z" class="st0"/></svg>