<svg xmlns="http://www.w3.org/2000/svg" xmlns:xlink="http://www.w3.org/1999/xlink" width="32" height="32" viewBox="0 0 32 32"><defs><style>.cls-1{stroke-width:0px}</style></defs><path fill="#08191f" d="M16 4C9.38 4 4 9.38 4 16s5.38 12 12 12 12-5.38 12-12S22.62 4 16 4m0 22c-5.51 0-10-4.49-10-10S10.49 6 16 6s10 4.49 10 10-4.49 10-10 10" class="cls-1"/><path fill="#08191f" d="m23.34 16.84 1.38.57v-1.5c0-1.61-.61-3.56-1.52-4.85l-.31-.43h-.53c-2.05.05-3.68.94-4.71 2.03.17-1.14.85-2.49 1.59-3.31l1-1.11-1.41-.5c-1.52-.54-3.56-.61-5.08-.18l-.51.14-.17.5c-.7 2.11-.3 4.07.51 5.43-1.14-.37-2.45-1.53-3.1-2.57l-.8-1.27-.87 1.22c-.93 1.32-1.56 3.26-1.56 4.84v.53l.44.3c1.26.85 2.6 1.2 3.81 1.2.55 0 1.07-.08 1.55-.2-.67.99-2.14 1.93-3.31 2.27l-1.44.42.94 1.17c1.01 1.26 2.71 2.39 4.24 2.82l.51.14.41-.34c1.57-1.32 2.28-3.04 2.39-4.53.58.99.91 2.47.85 3.57l-.08 1.49 1.41-.5c1.52-.54 3.16-1.76 4.07-3.05l.31-.43-.19-.5c-.72-1.92-2.1-3.16-3.48-3.77 1.13-.22 2.63-.03 3.65.39Zm-7.34.27c-.62 0-1.12-.5-1.12-1.12s.5-1.12 1.12-1.12 1.12.5 1.12 1.12-.5 1.12-1.12 1.12m-1.17-7.74c.61-.1 1.31-.11 1.97-.04-.64 1.08-1.11 2.39-1.18 3.59-.04 0-.08 0-.11.01-.6-.77-1-2.09-.68-3.56M9.3 15.32c.07-.62.25-1.29.5-1.91.87.91 1.99 1.72 3.13 2.11 0 .04 0 .08-.01.11-.91.37-2.29.4-3.62-.31m4.23 6.94a7.4 7.4 0 01-1.7-1c1.11-.59 2.19-1.45 2.88-2.44.04.02.07.04.11.05.1.97-.24 2.3-1.28 3.38Zm7.55-1.84c-.41.46-.95.91-1.51 1.27-.18-1.24-.63-2.55-1.34-3.52a.6.6 0 00.07-.09c.95.22 2.1.99 2.77 2.34Zm-2.3-5.8s-.04-.07-.05-.1c.53-.83 1.63-1.65 3.13-1.84.3.54.54 1.2.69 1.85-1.23-.24-2.62-.25-3.77.09" class="cls-1"/></svg>