<svg xmlns="http://www.w3.org/2000/svg" xmlns:xlink="http://www.w3.org/1999/xlink" width="16" height="16" viewBox="0 0 16 16"><path fill="#08191f" d="M8 2C4.69 2 2 4.69 2 8s2.69 6 6 6 6-2.69 6-6-2.69-6-6-6m0 11c-2.76 0-5-2.24-5-5s2.24-5 5-5 5 2.24 5 5-2.24 5-5 5m-.72-1.81h1.07v-1.1H7.28zm1.77-6.15c-.31-.15-.66-.22-1.06-.22s-.78.09-1.09.26-.55.41-.71.72-.23.67-.22 1.08h.93c-.03-.36.06-.66.26-.89s.48-.35.83-.35c.3 0 .55.09.74.27s.29.41.29.68c0 .24-.06.43-.18.58q-.18.225-.57.51c-.22.17-.4.31-.52.44s-.23.29-.31.5-.12.46-.1.76h.94c-.01-.28.05-.5.18-.67s.34-.36.61-.55c.2-.16.37-.29.5-.41s.23-.27.32-.46.14-.42.14-.68c0-.35-.09-.66-.26-.93q-.255-.405-.72-.63Z"/></svg>