<svg xmlns="http://www.w3.org/2000/svg" xmlns:xlink="http://www.w3.org/1999/xlink" width="32" height="32" viewBox="0 0 32 32"><path fill="#08191f" d="M9 19c-2.21 0-4 1.79-4 4s1.79 4 4 4 4-1.79 4-4-1.79-4-4-4m0 6c-1.1 0-2-.9-2-2s.9-2 2-2 2 .9 2 2-.9 2-2 2m-3-7.01h2v-3H4v-4.14l15.09-2.27.64-2.11L2 9.13v7.86h4zm24-2.19-2.32-5.81h-4.82l-.6 2h4.07l1.68 4.19V20h-3.88c-.7-.61-1.61-1-2.62-1-2.21 0-4 1.79-4 4s1.79 4 4 4 4-1.79 4-4c0-.35-.06-.68-.14-1h4.64v-6.2ZM21.5 25c-1.1 0-2-.9-2-2s.9-2 2-2 2 .9 2 2-.9 2-2 2m-1.47-9.06L23.3 5.01h-2.09l-3.1 10.35z"/></svg>