<svg xmlns="http://www.w3.org/2000/svg" xmlns:xlink="http://www.w3.org/1999/xlink" width="32" height="32" viewBox="0 0 32 32"><defs><style>
.cls-1 {
	fill: #08191f;
	stroke-width: 0px;
}
</style></defs><path d="M20.93 23.93c-1.61 1.24-3.46 2.29-4.96 3.02-3.44-1.66-8.75-5.08-8.75-8.38V6.82l8.75-1.74 8.75 1.74V11h2V5.17L15.97 3.03 5.22 5.17v13.39c0 5.36 8.61 9.6 10.33 10.4l.42.19.42-.19c.88-.41 3.56-1.71 5.96-3.61z" class="cls-1"/><path d="m22.29 22.76-1.42-1.41 4.3-4.3-4.3-4.29 1.42-1.41 5.7 5.7z" class="cls-1"/><path d="m16.63 22.76-1.41-1.41 4.29-4.3-4.29-4.29 1.41-1.41 5.71 5.7z" class="cls-1"/></svg>