<svg xmlns="http://www.w3.org/2000/svg" xmlns:xlink="http://www.w3.org/1999/xlink" width="32" height="32" viewBox="0 0 32 32"><g fill="#08191f"><path d="M7 28h10v2H7z"/><path d="M21 30h-2v-3.82l-1.68-4.19H6.67L5 26.18V30H3v-4.2l2.32-5.81h13.35L21 25.8zm-9-12c-3.31 0-6-2.69-6-6h2c0 2.21 1.79 4 4 4s4-1.79 4-4h2c0 3.31-2.69 6-6 6m6.92-10c-.49-3.39-3.4-6-6.92-6S5.57 4.61 5.08 8H3v2h18V8zM11 4.1v2.91h2V4.1c1.96.4 3.5 1.94 3.9 3.9H7.1A5.01 5.01 0 0111 4.1m15.67 15.89h-5.84l.8 2h3.69L27 26.18v2.81h2V25.8zm-8.15-3.41c.9.87 2.13 1.42 3.48 1.42 2.76 0 5-2.24 5-5a5 5 0 00-4.03-4.9v2.08c1.18.4 2.03 1.5 2.03 2.82 0 1.65-1.35 3-3 3-.93 0-1.77-.43-2.32-1.1z"/></g></svg>