<svg xmlns="http://www.w3.org/2000/svg" xmlns:xlink="http://www.w3.org/1999/xlink" width="32" height="32" viewBox="0 0 32 32"><defs><style>
.cls-1 {
	fill: #08191f;
	stroke-width: 0px;
}
</style></defs><path d="M9 6h4v2H9z" class="cls-1"/><path d="M17 13V5h1.5V3h-15v2H5v8zM7 5h8v6H7zm22 13.13-6-1.28v-2.39C23 13.1 21.86 12 20.5 12s-2.48 1.1-2.48 2.46v6.83c-.7-.12-1.42-.06-2.1.18a4.02 4.02 0 00-2.31 2.12l-.37.81L19 27.95V29h2v-2.18l-5.04-3.1c.19-.16.4-.29.64-.37.52-.19 1.09-.16 1.59.07l1.82.87v-9.83c0-.26.23-.46.48-.46s.5.2.5.46v4.02l6 1.28v3.67l-2.02 2.02v3.56h2.01v-2.73l2-2.02v-6.12Z" class="cls-1"/></svg>