<svg xmlns="http://www.w3.org/2000/svg" xmlns:xlink="http://www.w3.org/1999/xlink" width="45" height="45" viewBox="0 0 45 45"><defs><style>
.cls-1 {
	fill: #08191f;
	stroke-width: 0px;
}
</style></defs><path d="M13.97 3v39h17.05V3zm15.06 2v2.08H15.98V5zM15.97 28.01V16h2.02v1.97h2V16h9.03v12.01zm13.06 2V34H15.98v-3.99zM15.97 14V9.08h13.05V14zm0 26v-4h13.05v4z" class="cls-1"/><path d="M19 10h7v2h-7zm-1 8.99h2v2h-2zm-.05 12.02h2v2h-2zm7.09 0h2v2h-2zm-7.09 5.98h2v2h-2zm3.55-5.98h2v2h-2zm0 5.98h2v2h-2zm3.54 0h2v2h-2z" class="cls-1"/></svg>