<?xml version="1.0" encoding="UTF-8"?>
<svg id="Motiv" xmlns="http://www.w3.org/2000/svg" viewBox="0 0 32 32">
  <defs>
    <style>
      .cls-1 {
        fill: #08191f;
        stroke-width: 0px;
      }
    </style>
  </defs>
  <path class="cls-1" d="M19.49,11.01l.19-1.31c.2-1.43-.23-2.88-1.17-3.98-.95-1.09-2.33-1.72-3.77-1.72h-.74l-2.46,8-.53,1.53v.47h0v12h-5.96v2h7.96v-1.99h11.69l3.54-15.02h-8.74ZM23.11,24.01h-10.1v-10.01h0l2.44-7.91c.6.15,1.14.47,1.55.95.57.66.83,1.53.71,2.39l-.51,3.59h8.51s-2.59,11-2.59,11Z"/>
  <rect class="cls-1" x="4.04" y="13" width="5.96" height="2"/>
</svg>