<?xml version="1.0" encoding="UTF-8"?>
<svg id="Ebene_1" data-name="Ebene 1" xmlns="http://www.w3.org/2000/svg" version="1.1" viewBox="0 0 32 32">
  <defs>
    <style>
      .cls-1 {
        fill: #08191f;
        stroke-width: 0px;
      }
    </style>
  </defs>
  <g id="Icon_PG" data-name="Icon PG">
    <g>
      <path class="cls-1" d="M17.2,23v-1.5c1.8-.4,3-1.6,3-3.3,0-4.3-5.7-3-5.7-4.8s.5-1,1.4-1,1.7.5,1.8,1.3h2.4c-.2-1.7-1.2-2.9-2.9-3.3v-1.5h-2.2v1.4c-1.8.3-3.1,1.5-3.1,3.1,0,4.1,5.7,2.8,5.7,4.8s-.7,1.1-1.6,1.1-2-.7-2.2-1.9h-2.4c.2,2.1,1.4,3.6,3.5,3.9v1.4h2.2s0,0,0,0Z"/>
      <path class="cls-1" d="M26,6v3.4c-2.1-3.3-5.8-5.4-10-5.4-6.6,0-12,5.4-12,12s5.4,12,12,12,10.9-4.3,11.8-10h-2c-.9,4.6-5,8-9.8,8s-10-4.5-10-10S10.5,6,16,6s6.9,2,8.6,5h-3.6v2h7v-7h-2Z"/>
    </g>
  </g>
</svg>