<?xml version="1.0" encoding="UTF-8"?>
<svg id="Icon" xmlns="http://www.w3.org/2000/svg" viewBox="0 0 32 32">
  <defs>
    <style>
      .cls-1 {
        fill: #08191f;
        stroke-width: 0px;
      }
    </style>
  </defs>
  <path class="cls-1" d="M6,12h20v9h2v-11h-7v-2.01c0-1.1-.89-1.99-1.99-1.99h-6.03c-1.1,0-1.99.89-1.99,1.99v2.01H4v16h16v-2H6v-12ZM19,8v2h-6v-2s6,0,6,0Z"/>
  <path class="cls-1" d="M15.79,15.83c.5,0,.95.31,1.03.74h2.2c-.13-1.24-.88-2.13-2.03-2.48v-1.09h-1.96v1c-1.21.26-2.14,1.16-2.14,2.37,0,3,3.86,2.27,3.86,3.28,0,.38-.33.55-.78.55-.77,0-1.14-.43-1.26-1.06h-2.2c.15,1.5,1.03,2.57,2.52,2.88v.97h1.96s0-1.01,0-1.01c1.21-.32,2.03-1.22,2.03-2.48,0-3.11-3.86-2.33-3.86-3.25,0-.26.24-.42.63-.42Z"/>
  <polygon class="cls-1" points="29 23.39 27.59 21.98 25.29 24.27 23 21.98 21.59 23.39 23.88 25.69 21.59 27.98 23 29.39 25.29 27.1 27.59 29.39 29 27.98 26.71 25.69 29 23.39"/>
</svg>