<?xml version="1.0" encoding="UTF-8"?>
<svg id="Motiv" xmlns="http://www.w3.org/2000/svg" viewBox="0 0 32 32">
  <defs>
    <style>
      .cls-1 {
        fill: #08191f;
        stroke-width: 0px;
      }
    </style>
  </defs>
  <path class="cls-1" d="M14.7,17.13l-1.85,1.06c-.5-.51-1.14-.87-1.85-1.06v-2.14h-2v2.14c-.71.18-1.35.55-1.84,1.05l-1.84-1.07-1,1.73,1.86,1.08c-.1.34-.16.7-.16,1.07s.07.72.16,1.06l-1.86,1.07,1,1.73,1.85-1.06c.5.51,1.14.88,1.85,1.06v2.14s2,0,2,0v-2.14c.71-.18,1.35-.55,1.86-1.06l1.84,1.07,1-1.73-1.86-1.07c.1-.34.16-.69.16-1.07s-.07-.72-.16-1.06l1.86-1.07-1-1.73ZM10,23c-1.1,0-2-.9-2-2s.9-2,2-2,2,.9,2,2-.9,2-2,2Z"/>
  <polygon class="cls-1" points="17 7 20.59 7 14.8 12.79 16.21 14.21 22 8.42 22 12 24.01 12 24.01 5 17 5 17 7"/>
  <rect class="cls-1" x="25" y="14" width="2" height="13"/>
  <rect class="cls-1" x="21" y="19" width="2" height="8"/>
  <rect class="cls-1" x="17" y="23" width="2" height="4"/>
</svg>