<?xml version="1.0" encoding="utf-8"?>
<!-- Generator: Adobe Illustrator 28.1.0, SVG Export Plug-In . SVG Version: 6.00 Build 0)  -->
<svg version="1.1" id="power_grey" xmlns="http://www.w3.org/2000/svg" xmlns:xlink="http://www.w3.org/1999/xlink" x="0px" y="0px"
	 viewBox="0 0 16 16" style="enable-background:new 0 0 16 16;" xml:space="preserve">
<style type="text/css">
	.st0{fill:#08191F;}
	.st1{clip-path:url(#SVGID_00000098212971046661881090000016444124527652647086_);}
	.st2{fill-rule:evenodd;clip-rule:evenodd;fill:#08191F;}
</style>
<path class="st0" d="M8,2C5.8,2,4,3.8,4,6v5c0,1.7,1.3,3,3,3s3-1.3,3-3V9.4V8.2V6c0-1.1-0.9-2-2-2S6,4.9,6,6v3.3v0.2V11h1V9.9V9V8.8
	V8V7.7V6c0-0.6,0.4-1,1-1s1,0.4,1,1v1.7v1.1v0v1V11c0,1.1-0.9,2-2,2s-2-0.9-2-2V6c0-1.7,1.3-3,3-3s3,1.3,3,3v2.6V11h1V6
	C12,3.8,10.2,2,8,2z"/>
</svg>
