<?xml version="1.0" encoding="utf-8"?>
<!-- Generator: Adobe Illustrator 28.1.0, SVG Export Plug-In . SVG Version: 6.00 Build 0)  -->
<svg version="1.1" id="Automation" xmlns="http://www.w3.org/2000/svg" xmlns:xlink="http://www.w3.org/1999/xlink" x="0px" y="0px"
	 viewBox="0 0 32 32" enable-background="new 0 0 32 32" xml:space="preserve">
<g id="Motiv_x5F_White">
	<polygon fill="#FFFFFF" points="26,21.03 26,19.03 6,19.03 6,21.03 15,21.03 15,27.02 10,27.02 10,29.02 22,29.02 22,27.02 
		17,27.02 17,21.03 	"/>
	<polygon fill="#FFFFFF" points="30,21.03 28,21.03 28,5.03 4,5.03 4,21.03 2,21.03 2,3.03 30,3.03 	"/>
	<path fill="#FFFFFF" d="M26.03,17.01H5.97l4.58-7.66l2.44,0.62l3-2.42l3.02,2.41l2.44-0.6L26.03,17.01z M9.5,15.01h13l-2.01-3.35
		l-1.96,0.48L16,10.11l-2.53,2.04l-1.97-0.5L9.5,15.01z"/>
</g>
</svg>
