<?xml version="1.0" encoding="UTF-8"?><svg id="Icon_White" xmlns="http://www.w3.org/2000/svg" viewBox="0 0 32 32"><defs><style>.cls-1{fill:#fff;stroke-width:0px;}</style></defs><path class="cls-1" d="M18,10h6s0-6,0-6h-2v2.27c-2.03-1.46-4.46-2.27-7-2.27-6.62,0-12,5.38-12,12s5.38,12,12,12c3.21,0,6.22-1.25,8.49-3.52l-1.42-1.41c-1.89,1.89-4.4,2.93-7.07,2.93-5.51,0-10-4.49-10-10S9.49,6,15,6c2.18,0,4.27.71,5.99,2h-2.99v2Z"/><path class="cls-1" d="M8.32,18.23h2.15c.05.58.35,1,1.08,1,.59,0,1-.37,1-.89s-.42-.89-1-.89c-.39,0-.73.07-1.08.2v-1.68l1.1-.97h-2.98s0-2.01,0-2.01h5.46v2.01l-1.25,1.07c1.35.2,2.02,1.07,2.02,2.35,0,1.64-1.35,2.74-3.29,2.74-2.15,0-3.25-1.34-3.21-2.93Z"/><path class="cls-1" d="M15.49,17.39c0-2.63,1.47-4.49,3.55-4.49,1.77,0,2.95.99,3.07,2.57h-2.16c-.06-.45-.42-.73-.91-.73-.69,0-1.13.67-1.29,1.45.38-.3.87-.46,1.51-.46,1.63,0,2.83,1.14,2.83,2.7s-1.33,2.72-3.14,2.72c-2.1,0-3.46-1.59-3.46-3.77ZM19.89,18.37c.01-.57-.4-.97-.99-.97s-.99.4-.99.97.42.97.99.97.98-.4.99-.97Z"/><path class="cls-1" d="M22.77,18.47h2.15c.06.45.35.76.91.76s.91-.36.91-.91-.36-.9-.91-.9c-.36,0-.63.14-.83.42h-2.08l.72-4.85h4.76v2.01h-3.06s-.22,1.17-.22,1.17c.31-.28.8-.44,1.32-.44,1.5,0,2.57,1.05,2.57,2.6,0,1.72-1.22,2.84-3.17,2.84-1.82,0-3.02-1.19-3.06-2.69Z"/></svg>