<?xml version="1.0" encoding="utf-8"?>
<!-- Generator: Adobe Illustrator 28.1.0, SVG Export Plug-In . SVG Version: 6.00 Build 0)  -->
<svg version="1.1" id="power_grey" xmlns="http://www.w3.org/2000/svg" xmlns:xlink="http://www.w3.org/1999/xlink" x="0px" y="0px"
	 viewBox="0 0 16 16" style="enable-background:new 0 0 16 16;" xml:space="preserve">
<style type="text/css">
	.st0{fill:#08191F;}
	.st1{clip-path:url(#SVGID_00000005253966236058116400000015269798551600424127_);}
	.st2{fill-rule:evenodd;clip-rule:evenodd;fill:#08191F;}
</style>
<g>
	<g>
		<rect x="4.4" y="3.7" transform="matrix(-0.7071 -0.7071 0.7071 -0.7071 4.1464 13.4246)" class="st0" width="1" height="4.2"/>
	</g>
	<g>
		<rect x="4.4" y="6" transform="matrix(0.7071 -0.7071 0.7071 0.7071 -4.3388 5.818)" class="st0" width="1" height="4.2"/>
	</g>
</g>
<g>
	<g>
		<path class="st0" d="M13.1,9.2c0-1.5-1.2-2.8-2.8-2.8H4v1h6.3c1,0,1.8,0.8,1.8,1.8S11.3,11,10.3,11H11v0.9
			C12.2,11.6,13.1,10.5,13.1,9.2z"/>
	</g>
	<g>
		<rect x="9" y="11" class="st0" width="1.3" height="1"/>
	</g>
	<g>
		<path class="st0" d="M10.3,11v1c0.2,0,0.5,0,0.7-0.1V11H10.3z"/>
	</g>
</g>
</svg>
