<?xml version="1.0" encoding="UTF-8"?>
<svg id="Motiv" xmlns="http://www.w3.org/2000/svg" viewBox="0 0 32 32">
  <defs>
    <style>
      .cls-1 {
        fill: #08191f;
        stroke-width: 0px;
      }
    </style>
  </defs>
  <path class="cls-1" d="M16,10c-3.31,0-6,2.69-6,6s2.69,6,6,6,6-2.69,6-6-2.69-6-6-6ZM16,20c-2.21,0-4-1.79-4-4s1.79-4,4-4,4,1.79,4,4-1.79,4-4,4Z"/>
  <path class="cls-1" d="M16,4c-6.62,0-12,5.38-12,12s5.38,12,12,12,12-5.38,12-12S22.62,4,16,4ZM16,26c-5.51,0-10-4.49-10-10S10.49,6,16,6s10,4.49,10,10-4.49,10-10,10Z"/>
  <circle class="cls-1" cx="16" cy="8" r="1"/>
  <circle class="cls-1" cx="16" cy="24" r="1"/>
  <circle class="cls-1" cx="24" cy="16" r="1"/>
  <circle class="cls-1" cx="8" cy="16" r="1"/>
  <path class="cls-1" d="M20.95,9.64c-.39.39-.39,1.02,0,1.41.39.39,1.02.39,1.41,0,.39-.39.39-1.02,0-1.41-.39-.39-1.02-.39-1.41,0Z"/>
  <path class="cls-1" d="M9.64,20.95c-.39.39-.39,1.02,0,1.41s1.02.39,1.41,0c.39-.39.39-1.02,0-1.41-.39-.39-1.02-.39-1.41,0Z"/>
  <path class="cls-1" d="M20.95,20.95c-.39.39-.39,1.02,0,1.41.39.39,1.02.39,1.41,0,.39-.39.39-1.02,0-1.41-.39-.39-1.02-.39-1.41,0Z"/>
  <path class="cls-1" d="M11.05,11.05c.39-.39.39-1.02,0-1.41-.39-.39-1.02-.39-1.41,0s-.39,1.02,0,1.41,1.02.39,1.41,0Z"/>
</svg>