<?xml version="1.0" encoding="UTF-8"?>
<svg id="Ebene_1" data-name="Ebene 1" xmlns="http://www.w3.org/2000/svg" version="1.1" viewBox="0 0 32 32">
  <defs>
    <style>
      .cls-1 {
        fill: #08191f;
        stroke-width: 0px;
      }
    </style>
  </defs>
  <g id="Icon_PG" data-name="Icon PG">
    <g>
      <path class="cls-1" d="M7.7,21.5h-2.3c2,3.9,6,6.5,10.6,6.5v-2c-3.5,0-6.5-1.8-8.3-4.5Z"/>
      <path class="cls-1" d="M16,6c5.5,0,10,4.5,10,10h2c0-6.6-5.4-12-12-12s-8.6,2.6-10.6,6.5h2.3c1.8-2.7,4.9-4.5,8.3-4.5Z"/>
      <polygon class="cls-1" points="27.5 22.1 25 24.7 25 19 23 19 23 24.7 20.5 22.1 19.1 23.6 24 28.5 28.9 23.5 27.5 22.1"/>
      <path class="cls-1" d="M9.8,16.9h-2c-.1.6-.6,1-1.2,1s-1.6-.6-1.6-1.9.7-1.9,1.6-1.9,1.2.4,1.2,1.1h2c-.1-1.6-1.4-2.7-3.2-2.7s-3.6,1.3-3.6,3.6,1.7,3.6,3.6,3.6,3.1-1.1,3.2-2.7h0Z"/>
      <path class="cls-1" d="M13.9,12.4c-2.1,0-3.7,1.5-3.7,3.6s1.6,3.6,3.7,3.6,3.7-1.5,3.7-3.6-1.6-3.6-3.7-3.6ZM13.9,17.9c-1,0-1.7-.8-1.7-1.9s.7-1.9,1.7-1.9,1.7.8,1.7,1.9-.7,1.9-1.7,1.9Z"/>
      <path class="cls-1" d="M19.2,17.6l-1.1.9v.9h2.9v-1h-1.2.2c.7-.5,1-1,1-1.5,0-.8-.6-1.3-1.5-1.3s-1.6.7-1.5,1.6h1.2c0-.4.1-.5.4-.5s.3.1.3.3c0,.3-.3.5-.6.8h0Z"/>
    </g>
  </g>
</svg>