<?xml version="1.0" encoding="UTF-8"?>
<svg id="Motiv" xmlns="http://www.w3.org/2000/svg" viewBox="0 0 32.000018313799956 32.000018318110961">
  <g>
    <rect x="7.022416774610974" y="27.999811709909409" width="10" height="1.999985516147717" fill="#08191f" stroke-width="0"/>
    <polygon points="5.345658962110974 20.000072419265052 3.022416774610974 25.807647548428577 3.022416774610974 30 5.022416774610974 30 5.022416774610974 26.192410386984193 6.699174587110974 22.000057935412769 15.99999999784086 22.000057935412769 15.99999999784086 20.000072419265052 5.345658962110974 20.000072419265052" fill="#08191f" stroke-width="0"/>
    <path d="M11.999955837110974,15.999898613028563c-2.2060546875,0-4-1.793932320879321-4-3.999971032293615h-2c0,3.308569789409376,2.69140625,5.999956548441332,6,5.999956548441332s6-2.691386759031957,6-5.999956548441332h-2c0,2.206038711414294-1.7939453125,3.999971032293615-4,3.999971032293615Z" fill="#08191f" stroke-width="0"/>
    <path d="M20.999955837110974,7.999956548441332h-2.079833984380457c-.488037109369543-3.386205945918846-3.401123046869543-5.999956548441332-6.920166015619543-5.999956548441332s-6.43212890625,2.613750602522487-6.920166015630457,5.999956548441332h-2.079833984369543v1.999985516145898h18v-1.999985516145898ZM7.101030055860974,7.999956548441332c.398681640619543-1.956040521896284,1.94287109375-3.500157757400302,3.89892578125-3.898897545515865v2.909646897147468h2v-2.909646897147468c1.9560546875.398739788115563,3.500244140619543,1.942857023619581,3.89892578125,3.898897545515865H7.101030055860974Z" fill="#08191f" stroke-width="0"/>
  </g>
  <path d="M27.00146484159086,23c0-.369384765625-.066528320310681-.72021484375-.16064453125-1.06005859375l1.85791015625-1.07177734375-1-1.732421875-1.8466796875,1.06524658203125c-.500244140621362-.5093994140625-1.138916015621362-.87408447265625-1.8505859375-1.05902099609375v-2.1419677734375h-2v2.1419677734375c-.708251953121362.18402099609375-1.344970703121362.54541015625-1.843994140621362,1.05108642578125l-1.844482421878638-1.07000732421875-1.00390625,1.73046875,1.85595703125,1.0767822265625c-.095825195310681.34271240234375-.16357421875.69677734375-.16357421875,1.0697021484375,0,.36737060546875.06591796875.71636962890625.158935546878638,1.05450439453125l-1.859130859378638,1.06951904296875.998046875,1.734375,1.848388671878638-1.06329345703125c.49951171875.510009765625,1.137451171871362.87548828125,1.848754882810681,1.06134033203125l-.002807617189319,2.142578125,2,.001953125.002807617189319-2.14141845703125c.71240234375-.18408203125,1.351928710939319-.5482177734375,1.852905273439319-1.05731201171875l1.844482421871362,1.06689453125,1.001953125-1.73046875-1.8564453125-1.07379150390625c.094970703128638-.34124755859375.162109375-.6937255859375.162109375-1.06488037109375ZM23.00146484159086,25c-1.1025390625,0-2-.8974609375-2-2s.8974609375-2,2-2,2,.8974609375,2,2-.8974609375,2-2,2Z" fill="#08191f" stroke-width="0"/>
</svg>