<?xml version="1.0" encoding="UTF-8"?>
<svg id="power_grey" data-name="power grey" xmlns="http://www.w3.org/2000/svg" viewBox="0 0 16 16">
  <defs>
    <style>
      .cls-1 {
        fill: #08191f;
        stroke-width: 0px;
      }
    </style>
  </defs>
  <path class="cls-1" d="M4,6.09v-3.09h-1v3.09c-.58.21-1,.76-1,1.41s.42,1.2,1,1.41v4.09h1v-4.09c.58-.21,1-.76,1-1.41s-.42-1.2-1-1.41ZM3.5,8c-.28,0-.5-.22-.5-.5s.22-.5.5-.5.5.22.5.5-.22.5-.5.5Z"/>
  <path class="cls-1" d="M8.5,9.09V3h-1v6.09c-.58.21-1,.76-1,1.41s.42,1.2,1,1.41v1.09h1v-1.09c.58-.21,1-.76,1-1.41s-.42-1.2-1-1.41ZM8,11c-.28,0-.5-.22-.5-.5s.22-.5.5-.5.5.22.5.5-.22.5-.5.5Z"/>
  <path class="cls-1" d="M14,5.5c0-.65-.42-1.2-1-1.41v-1.09h-1v1.09c-.58.21-1,.76-1,1.41s.42,1.2,1,1.41v6.09h1v-6.09c.58-.21,1-.76,1-1.41ZM12.5,6c-.28,0-.5-.22-.5-.5s.22-.5.5-.5.5.22.5.5-.22.5-.5.5Z"/>
</svg>