<?xml version="1.0" encoding="UTF-8"?>
<svg id="Ebene_2" data-name="Ebene 2" xmlns="http://www.w3.org/2000/svg" viewBox="0 0 68 45">
  <defs>
    <style>
      .cls-1 {
        fill: #08191f;
        stroke-width: 0px;
      }
    </style>
  </defs>
  <path class="cls-1" d="M59.41,24.43l-1.41,1.41,1.12,1.12h-13.12V9h-10.01V2.87l-7,5.83-7-5.83v6.13h-9.99v17.97h-7v2h14.04c.46,4.73,4.22,8.51,8.95,8.98v4.05h2v-4.05c4.73-.47,8.49-4.25,8.95-8.98h20.24l-1.18,1.18,1.41,1.41,3.57-3.57-3.57-3.57ZM33.99,7.14v5.73l-3.44-2.86,3.44-2.86ZM23.99,7.14l3.44,2.86-3.44,2.86v-5.73ZM14,11h7.99v6.14l7-5.83,7,5.83v-6.14h8.01v15.97h-5.06c-.52-5.03-4.78-8.97-9.95-8.97s-9.43,3.94-9.95,8.97h-5.04v-15.97ZM36.93,27.03l-9.42-6.88c.48-.09.98-.14,1.48-.14,4.08,0,7.45,3.07,7.93,7.03ZM20.99,28c0-3.05,1.71-5.7,4.23-7.05l9.56,6.99-9.67,7.05c-2.45-1.37-4.12-3.99-4.12-6.99ZM28.99,36c-.56,0-1.11-.06-1.64-.17l9.59-6.99c-.42,4.02-3.83,7.16-7.96,7.16Z"/>
</svg>