<?xml version="1.0" encoding="UTF-8"?>
<svg id="Ebene_2" data-name="Ebene 2" xmlns="http://www.w3.org/2000/svg" viewBox="0 0 68 127">
  <defs>
    <style>
      .cls-1 {
        fill: #08191f;
        stroke-width: 0px;
      }
    </style>
  </defs>
  <path class="cls-1" d="M25.33,58.77h-2.8v11.8h1.99v-6.47c0-1.08-.02-1.97-.05-2.68.22.67,3.73,9.15,3.73,9.15h1.58s3.5-8.48,3.74-9.15c-.04.71-.07,9.15-.07,9.15h1.99v-11.8h-2.73s-3.49,8.5-3.69,9.17c-.2-.67-3.69-9.17-3.69-9.17Z"/>
  <polygon class="cls-1" points="18.18 102.25 27.99 112.47 27.99 123.88 29.99 123.88 29.99 111.66 19.62 100.86 18.18 102.25"/>
  <path class="cls-1" d="M59.41,24.43l-1.41,1.41,1.12,1.12h-13.12V9h-10.01V2.87l-7,5.83-7-5.83v6.13h-9.99v17.97h-7v2h14.04c.46,4.73,4.22,8.51,8.95,8.98v12.77c-7.25.52-13,6.57-13,13.95s5.72,13.41,12.95,13.95v19.26h2v-19.26c7.27-.49,13.05-6.55,13.05-13.95s-5.75-13.43-13-13.95v-12.77c4.73-.47,8.49-4.25,8.95-8.98h20.24l-1.18,1.18,1.41,1.41,3.57-3.57-3.57-3.57ZM33.99,7.14v5.73l-3.44-2.86,3.44-2.86ZM23.99,7.14l3.44,2.86-3.44,2.86v-5.73ZM14,11h7.99v6.14l7-5.83,7,5.83v-6.14h8.01v15.97h-5.06c-.52-5.03-4.78-8.97-9.95-8.97s-9.43,3.94-9.95,8.97h-5.04v-15.97ZM36.93,27.03l-9.42-6.88c.48-.09.98-.14,1.48-.14,4.08,0,7.45,3.07,7.93,7.03ZM20.99,28c0-3.05,1.71-5.7,4.23-7.05l9.56,6.99-9.67,7.05c-2.45-1.37-4.12-3.99-4.12-6.99ZM40.99,64.67c0,6.62-5.38,12-12,12s-12-5.38-12-12,5.38-12,12-12,12,5.38,12,12ZM28.99,36c-.56,0-1.11-.06-1.64-.17l9.59-6.99c-.42,4.02-3.83,7.16-7.96,7.16Z"/>
</svg>