<?xml version="1.0" encoding="UTF-8"?>
<svg id="Icon_PG" xmlns="http://www.w3.org/2000/svg" viewBox="0 0 32 32">
  <defs>
    <style>
      .cls-1 {
        fill: #08191f;
        stroke-width: 0px;
      }
    </style>
  </defs>
  <path class="cls-1" d="M6.01,15.99c0-5.51,4.49-10,10-10s10,4.49,10,10h2c0-6.62-5.38-12-12-12S4.01,9.37,4.01,15.99s5.37,11.99,11.98,12v-2c-5.5-.01-9.98-4.49-9.98-10Z"/>
  <polygon class="cls-1" points="27.53 22.14 25.01 24.67 24.98 19 22.98 19.01 23.01 24.68 20.47 22.15 19.06 23.56 24.01 28.5 28.94 23.55 27.53 22.14"/>
  <path class="cls-1" d="M20.35,18.17c0-4.29-5.7-3.03-5.7-4.77,0-.6.52-.96,1.36-.96.93,0,1.67.52,1.83,1.34h2.43c-.19-1.71-1.25-2.89-2.87-3.3v-1.5h-2.18v1.39c-1.75.27-3.06,1.47-3.06,3.14,0,4.07,5.68,2.84,5.68,4.81,0,.74-.66,1.15-1.56,1.15-1.26,0-2-.71-2.16-1.88h-2.43c.17,2.11,1.45,3.57,3.54,3.93v1.44l2.18.02v-1.48c1.75-.36,2.95-1.6,2.95-3.33Z"/>
</svg>