<?xml version="1.0" encoding="UTF-8"?><svg id="Motiv_White" xmlns="http://www.w3.org/2000/svg" viewBox="0 0 32 32"><defs><style>.cls-1{fill:#fff;stroke-width:0px;}</style></defs><path class="cls-1" d="M16,21.74c-.64.17-1.31.26-2,.26-4.41,0-8-3.59-8-8s3.59-8,8-8,8,3.59,8,8h0s2,0,2,0h0c0-5.51-4.49-10-10-10S4,8.49,4,14s4.49,10,10,10c.68,0,1.35-.07,2-.2v-2.06Z"/><polygon class="cls-1" points="26.54 19.67 24.03 22.19 24.01 15.99 22.01 16 22.03 22.22 19.48 19.67 18.07 21.09 23.03 26.03 27.96 21.08 26.54 19.67"/><path class="cls-1" d="M12.73,11.95c0-.47.41-.76,1.07-.76.73,0,1.32.41,1.44,1.06h1.91c-.14-1.3-.94-2.21-2.15-2.56h0v-1.69h-2v1.6c-1.29.26-2.24,1.17-2.24,2.43,0,3.21,4.47,2.24,4.47,3.79,0,.58-.52.91-1.23.91-.99,0-1.58-.56-1.7-1.48h-1.91c.13,1.6,1.07,2.71,2.61,3.05v1.7h2v-1.72h0v.02c1.32-.32,2.21-1.26,2.21-2.59,0-3.38-4.48-2.39-4.48-3.75Z"/></svg>