<?xml version="1.0" encoding="UTF-8"?>
<svg id="Icon_PG" xmlns="http://www.w3.org/2000/svg" viewBox="0 0 32 32">
  <defs>
    <style>
      .cls-1 {
        fill: #08191f;
        stroke-width: 0px;
      }
    </style>
  </defs>
  <path class="cls-1" d="M30,17.81l-2.32-5.81h-7.68v6h2v-4h4.32l1.68,4.19v5.81h-2.18c-.41-1.16-1.51-2-2.82-2s-2.4.84-2.82,2h-10.39c-.42-1.15-1.51-1.99-2.81-1.99-1.65,0-2.99,1.34-2.99,2.99s1.34,2.99,2.99,2.99c1.3,0,2.4-.84,2.81-1.99h10.39c.41,1.16,1.51,2,2.82,2s2.4-.84,2.82-2h4.18v-8.19ZM6.99,25.99c-.55,0-.99-.44-.99-.99s.45-.99.99-.99.99.44.99.99-.45.99-.99.99ZM23,26c-.55,0-1-.45-1-1s.45-1,1-1,1,.45,1,1-.45,1-1,1Z"/>
  <path class="cls-1" d="M9.99,20v-2c-3.27.01-5.99-2.7-5.99-6s2.69-6,6-6,6,2.69,6,6h2c0-4.41-3.59-8-8-8S2,7.59,2,12s3.58,8,7.99,8Z"/>
  <polygon class="cls-1" points="11.57 15.56 9 13 9 8.01 11 8.01 11 12.17 12.98 14.15 11.57 15.56"/>
</svg>