<?xml version="1.0" encoding="utf-8"?>
<!-- Generator: Adobe Illustrator 28.1.0, SVG Export Plug-In . SVG Version: 6.00 Build 0)  -->
<svg version="1.1" id="Digitalization" xmlns="http://www.w3.org/2000/svg" xmlns:xlink="http://www.w3.org/1999/xlink" x="0px"
	 y="0px" viewBox="0 0 32 32" enable-background="new 0 0 32 32" xml:space="preserve">
<g id="Motiv_x5F_White">
	<path fill="#FFFFFF" d="M12.99,22H8.26C5.91,22,4,20.11,4,17.79c0-2.01,1.45-3.75,3.46-4.13l0.68-0.13l0.12-0.68
		c0.49-2.78,2.92-4.79,5.77-4.79s5.28,2.01,5.77,4.79l0.12,0.68l0.68,0.13c1.73,0.33,3.05,1.67,3.37,3.33h2.02
		c-0.31-2.41-2.02-4.43-4.36-5.14c-0.9-3.39-4-5.79-7.6-5.79s-6.69,2.4-7.6,5.79C3.83,12.64,2,15.04,2,17.79
		C2,21.21,4.81,24,8.26,24h4.73V22z"/>
	<g>
		<path fill="#FFFFFF" d="M19.47,25.48c0.77-0.44,1.64-0.68,2.54-0.68s1.76,0.23,2.52,0.67l1.48-1.49c-1.17-0.8-2.56-1.23-4.01-1.23
			s-2.84,0.43-4.02,1.24L19.47,25.48z"/>
		<g>
			<path fill="#FFFFFF" d="M16.44,22.44c1.57-1.29,3.51-1.99,5.55-1.99s3.98,0.7,5.55,1.99L29,20.99c-1.96-1.67-4.42-2.59-7-2.59
				c-2.59,0-5.04,0.91-7,2.58L16.44,22.44z"/>
		</g>
	</g>
</g>
</svg>
