<?xml version="1.0" encoding="utf-8"?>
<!-- Generator: Adobe Illustrator 28.1.0, SVG Export Plug-In . SVG Version: 6.00 Build 0)  -->
<svg version="1.1" id="power_grey" xmlns="http://www.w3.org/2000/svg" xmlns:xlink="http://www.w3.org/1999/xlink" x="0px" y="0px"
	 viewBox="0 0 16 16" style="enable-background:new 0 0 16 16;" xml:space="preserve">
<style type="text/css">
	.st0{fill:#08191F;}
	.st1{clip-path:url(#SVGID_00000150088779270274389240000000054051208535114893_);}
	.st2{fill-rule:evenodd;clip-rule:evenodd;fill:#08191F;}
</style>
<g>
	<path class="st0" d="M6.6,8.9L6.1,9.7H5l1.1-1.8L5,6.2h1.2l0.4,0.7l0.4-0.7h1.1l-1,1.7l1.1,1.9H7.1L6.6,8.9z"/>
	<path class="st0" d="M8.5,6.2h1v2.7H11v0.9H8.5V6.2z"/>
	<path class="st0" d="M11.6,9.5c-0.3-0.2-0.4-0.6-0.5-1h1c0,0.1,0.1,0.3,0.2,0.3S12.5,9,12.6,9c0.1,0,0.2,0,0.3-0.1S13,8.8,13,8.7
		c0-0.1,0-0.1-0.1-0.2c-0.1,0-0.2-0.1-0.4-0.1c-0.2-0.1-0.4-0.1-0.6-0.2c-0.2-0.1-0.3-0.2-0.4-0.3c-0.1-0.2-0.2-0.4-0.2-0.6
		c0-0.2,0.1-0.4,0.2-0.6c0.1-0.2,0.3-0.3,0.5-0.4s0.4-0.1,0.6-0.1c0.4,0,0.7,0.1,1,0.3C13.8,6.7,14,7,14,7.4h-1
		c0-0.1-0.1-0.2-0.2-0.2C12.8,7.1,12.7,7,12.6,7c-0.1,0-0.2,0-0.2,0.1c0,0-0.1,0.1-0.1,0.1c0,0.1,0,0.1,0.1,0.1
		c0.1,0,0.2,0.1,0.4,0.1c0.2,0.1,0.4,0.1,0.6,0.2c0.2,0.1,0.3,0.2,0.4,0.3C13.9,8.2,14,8.4,14,8.7c0,0.2-0.1,0.4-0.2,0.6
		s-0.3,0.3-0.5,0.4c-0.2,0.1-0.4,0.1-0.7,0.1C12.2,9.8,11.8,9.7,11.6,9.5z"/>
</g>
<polygon class="st0" points="9,11 9,12 3,12 3,4 9,4 9,5 10,5 10,3 2,3 2,13 10,13 10,11 "/>
</svg>
