<?xml version="1.0" encoding="utf-8"?>
<!-- Generator: Adobe Illustrator 28.1.0, SVG Export Plug-In . SVG Version: 6.00 Build 0)  -->
<svg version="1.1" id="power_grey" xmlns="http://www.w3.org/2000/svg" xmlns:xlink="http://www.w3.org/1999/xlink" x="0px" y="0px"
	 viewBox="0 0 16 16" style="enable-background:new 0 0 16 16;" xml:space="preserve">
<style type="text/css">
	.st0{fill:#08191F;}
	.st1{clip-path:url(#SVGID_00000181780385236956059200000004092125681217779646_);}
	.st2{fill-rule:evenodd;clip-rule:evenodd;fill:#08191F;}
</style>
<g>
	<path class="st0" d="M5,6.2h1.6c0.3,0,0.5,0,0.7,0.1c0.2,0.1,0.3,0.2,0.4,0.4s0.2,0.4,0.2,0.6c0,0.2-0.1,0.4-0.2,0.6
		S7.4,8.3,7.2,8.4S6.8,8.5,6.6,8.5H6v1.2H5V6.2z M6.7,7.6c0.1-0.1,0.1-0.1,0.1-0.2s0-0.2-0.1-0.2C6.6,7.1,6.5,7.1,6.4,7.1H6v0.6h0.4
		C6.5,7.7,6.6,7.7,6.7,7.6z"/>
	<path class="st0" d="M8,6.2h1.6c0.3,0,0.5,0,0.7,0.1c0.2,0.1,0.3,0.2,0.4,0.4s0.2,0.4,0.2,0.6c0,0.2-0.1,0.4-0.2,0.6
		s-0.2,0.3-0.4,0.4S9.8,8.5,9.6,8.5H9v1.2H8V6.2z M9.7,7.6c0.1-0.1,0.1-0.1,0.1-0.2s0-0.2-0.1-0.2C9.6,7.1,9.5,7.1,9.4,7.1H9v0.6
		h0.4C9.5,7.7,9.6,7.7,9.7,7.6z"/>
	<path class="st0" d="M12,7.1h-1V6.2h3v0.9h-1v2.7h-1V7.1z"/>
</g>
<polygon class="st0" points="9,11 9,12 3,12 3,4 9,4 9,5 10,5 10,3 2,3 2,13 10,13 10,11 "/>
</svg>
