<?xml version="1.0" encoding="utf-8"?>
<!-- Generator: Adobe Illustrator 28.1.0, SVG Export Plug-In . SVG Version: 6.00 Build 0)  -->
<svg version="1.1" id="Electrification" xmlns="http://www.w3.org/2000/svg" xmlns:xlink="http://www.w3.org/1999/xlink" x="0px"
	 y="0px" viewBox="0 0 32 32" enable-background="new 0 0 32 32" xml:space="preserve">
<g id="Motiv_x5F_White">
	<g>
		<path fill="#FFFFFF" d="M22.92,3.87l-1.14,1.64c3.68,2.05,6.18,5.98,6.18,10.49c0,6.62-5.38,12-12,12s-12-5.38-12-12
			c0-6.47,5.14-11.74,11.55-11.98l1.37-1.98C16.58,2.03,16.27,2,15.96,2c-7.72,0-14,6.28-14,14s6.28,14,14,14s14-6.28,14-14
			C29.96,10.82,27.12,6.29,22.92,3.87z"/>
	</g>
	<path fill="#FFFFFF" d="M22.99,12h-8.15l5.86-8.43h-0.01L21.09,3c-0.64-0.26-1.32-0.45-2-0.61l-1.24,1.78l0,0L11.01,14h8.05
		l-5.08,6.99V17H12v5.99l-0.01,1.02L13.01,24h5.98v-2h-3.26L22.99,12z"/>
</g>
</svg>
