<?xml version="1.0" encoding="utf-8"?>
<svg width="32" height="33" viewBox="0 0 32 33" fill="none" xmlns="http://www.w3.org/2000/svg">
<path d="M19.0573 11.5574L20.9426 13.4427L17.8853 16.5L20.9426 19.5574L19.0573 21.4427L16 18.3854L12.9426 21.4427L11.0573 19.5574L14.1146 16.5L11.0573 13.4427L12.9426 11.5574L16 14.6147L19.0573 11.5574Z" fill="#CB0E0E"/>
<path fill-rule="evenodd" clip-rule="evenodd" d="M2.66663 16.5C2.66663 9.13735 8.63729 3.16669 16 3.16669C23.3626 3.16669 29.3333 9.13735 29.3333 16.5C29.3333 23.8627 23.3626 29.8334 16 29.8334C8.63729 29.8334 2.66663 23.8627 2.66663 16.5ZM26.6666 16.5C26.6666 10.6187 21.8813 5.83335 16 5.83335C10.1186 5.83335 5.33329 10.6187 5.33329 16.5C5.33329 22.3814 10.1186 27.1667 16 27.1667C21.8813 27.1667 26.6666 22.3814 26.6666 16.5Z" fill="#CB0E0E"/>
</svg>
