<?xml version="1.0" encoding="utf-8"?>
<!-- Generator: Adobe Illustrator 28.1.0, SVG Export Plug-In . SVG Version: 6.00 Build 0)  -->
<svg version="1.1" id="Excavation" xmlns="http://www.w3.org/2000/svg" xmlns:xlink="http://www.w3.org/1999/xlink" x="0px" y="0px"
	 viewBox="0 0 32 32" enable-background="new 0 0 32 32" xml:space="preserve">
<g id="Motiv_x5F_White">
	<path fill="#FFFFFF" d="M30,28H11.99L17,22h4l2-2.01V17l2-2.01v-2.96l5-3.05V28z M16.26,26H28V12.54l-1,0.61v2.66l-2,2.01v2.99
		L21.82,24h-3.89L16.26,26z"/>
	<path fill="#FFFFFF" d="M21,15v-2h-3.11c-0.13-0.64-0.38-1.22-0.73-1.75l2.21-2.21l-1.41-1.41l-2.21,2.21
		c-0.52-0.35-1.11-0.6-1.74-0.73V5.99h-2v3.12c-0.63,0.13-1.22,0.38-1.74,0.73L8.04,7.62L6.63,9.04l1.95,1.95c0,0,4.41,0,4.42,0
		c0.83,0,1.58,0.34,2.13,0.88l0,0c0.53,0.53,0.86,1.26,0.88,2.07v0.12c-0.02,0.78-0.33,1.48-0.82,2.01l-0.11,0.11
		c-0.52,0.49-1.21,0.8-1.98,0.82H8.57l-1.94,1.95l1.41,1.41l2.2-2.2c0.52,0.35,1.11,0.6,1.75,0.73V22h2v-3.11
		c0.64-0.13,1.23-0.38,1.75-0.73l2.2,2.2l1.41-1.41l-2.2-2.2c0.35-0.52,0.6-1.11,0.73-1.75H21z"/>
	<rect x="2" y="12.99" fill="#FFFFFF" width="11" height="2"/>
</g>
</svg>
