<?xml version="1.0" encoding="UTF-8"?>
<svg id="Motiv" xmlns="http://www.w3.org/2000/svg" viewBox="0 0 32 32">
  <defs>
    <style>
      .cls-1 {
        fill: #08191f;
        stroke-width: 0px;
      }
    </style>
  </defs>
  <path class="cls-1" d="M25,12.03v2.96l-2,2.01v2.99l-2,2.01h-4l-5.01,6h18.01s0-19.02,0-19.02l-5,3.05ZM28,26h-11.74s1.67-2,1.67-2h3.89l3.17-3.18v-2.99l2-2.01v-2.66l1-.61v13.46Z"/>
  <path class="cls-1" d="M11.99,20h2v-3.11c.64-.13,1.23-.38,1.75-.73l2.2,2.2,1.41-1.41-2.2-2.2c.35-.52.6-1.11.73-1.75h3.11v-2h-3.11c-.13-.64-.38-1.22-.73-1.75l2.21-2.21-1.41-1.41-2.21,2.21c-.52-.35-1.11-.6-1.74-.73v-3.12h-2v3.12c-.63.13-1.22.38-1.74.73l-2.21-2.21-1.41,1.41,1.95,1.95h4.42c.83,0,1.58.34,2.13.88h0c.53.53.86,1.26.88,2.07v.12c-.02.78-.33,1.48-.82,2.01l-.11.11c-.52.49-1.21.8-1.98.82h-4.52l-1.94,1.95,1.41,1.41,2.2-2.2c.52.35,1.11.6,1.75.73v3.11Z"/>
  <rect class="cls-1" x="2" y="10.99" width="11" height="2"/>
</svg>