<?xml version="1.0" encoding="UTF-8"?>
<svg id="Ebene_2" data-name="Ebene 2" xmlns="http://www.w3.org/2000/svg" viewBox="0 0 45 45">
  <defs>
    <style>
      .cls-1 {
        fill: #08191f;
        stroke-width: 0px;
      }
    </style>
  </defs>
  <path class="cls-1" d="M22.5,40c-9.65,0-17.5-7.85-17.5-17.5S12.85,5,22.5,5s17.5,7.85,17.5,17.5-7.85,17.5-17.5,17.5ZM22.5,7c-8.55,0-15.5,6.95-15.5,15.5s6.95,15.5,15.5,15.5,15.5-6.95,15.5-15.5-6.95-15.5-15.5-15.5Z"/>
  <path class="cls-1" d="M22.5,36c-7.44,0-13.5-6.06-13.5-13.5s6.06-13.5,13.5-13.5,13.5,6.06,13.5,13.5-6.06,13.5-13.5,13.5ZM22.5,11c-6.34,0-11.5,5.16-11.5,11.5s5.16,11.5,11.5,11.5,11.5-5.16,11.5-11.5-5.16-11.5-11.5-11.5Z"/>
  <path class="cls-1" d="M15.99,16.55h2.82l2.8,6.75c.65,1.56.92,2.5.92,2.5,0,0,.27-.93.92-2.5l2.8-6.75h2.75v11.9h-2.01v-6.54c0-1.7.07-2.69.07-2.69,0,0-.34.93-.99,2.5l-2.79,6.73h-1.6l-2.79-6.71c-.66-1.58-.97-2.52-.97-2.52,0,0,.05.99.05,2.7v6.53h-2.01v-11.9Z"/>
</svg>