<?xml version="1.0" encoding="UTF-8"?>
<svg id="Motiv" xmlns="http://www.w3.org/2000/svg" viewBox="0 0 32 32">
  <defs>
    <style>
      .cls-1 {
        fill: #08191f;
        stroke-width: 0px;
      }
    </style>
  </defs>
  <path class="cls-1" d="M13,19V7c0-1.65-1.35-3-3-3s-3,1.35-3,3v12c-1.25.94-2,2.42-2,4,0,2.76,2.24,5,5,5s5-2.24,5-5c0-1.58-.75-3.06-2-4ZM10,6c.55,0,1,.45,1,1v2h-2v-2c0-.55.45-1,1-1ZM10,26c-1.65,0-3-1.35-3-3,0-1.07.58-2.06,1.5-2.6l.5-.29v-9.11h2v9.11s.5.29.5.29c.93.54,1.5,1.53,1.5,2.6,0,1.65-1.35,3-3,3Z"/>
  <polygon class="cls-1" points="23.02 24.16 22.99 17.96 20.99 17.97 21.02 24.19 18.47 21.64 17.06 23.06 22.02 28 26.94 23.05 25.53 21.64 23.02 24.16"/>
  <polygon class="cls-1" points="20.98 7.84 21.01 14.04 23.01 14.03 22.98 7.81 25.53 10.36 26.94 8.94 21.98 4 17.06 8.95 18.47 10.36 20.98 7.84"/>
</svg>