<?xml version="1.0" encoding="utf-8"?>
<!-- Generator: Adobe Illustrator 28.1.0, SVG Export Plug-In . SVG Version: 6.00 Build 0)  -->
<svg version="1.1" id="power_grey" xmlns="http://www.w3.org/2000/svg" xmlns:xlink="http://www.w3.org/1999/xlink" x="0px" y="0px"
	 viewBox="0 0 16 16" style="enable-background:new 0 0 16 16;" xml:space="preserve">
<style type="text/css">
	.st0{fill:#08191F;}
	.st1{clip-path:url(#SVGID_00000001621809629844984340000016496878081457850267_);}
	.st2{fill-rule:evenodd;clip-rule:evenodd;fill:#08191F;}
</style>
<path class="st2" d="M11.8,2H4.3C3,2,2,3,2,4.3v7.5C2,13,3,14,4.3,14h7.5c1.2,0,2.2-1,2.2-2.2V4.3C14,3,13,2,11.8,2z M11.4,8.5h-1.1
	v4.2H8.4V8.5H7.7V7.1h0.7V6.2c0-1.2,0.5-1.9,1.9-1.9h1.4v1.4h-0.8c-0.5,0-0.6,0.2-0.6,0.6l0,0.8h1.3L11.4,8.5L11.4,8.5z"/>
</svg>
