<?xml version="1.0" encoding="UTF-8"?><svg id="Icons_Power_Gray" xmlns="http://www.w3.org/2000/svg" viewBox="0 0 16 16"><defs><style>.cls-1{fill:#08191f;fill-rule:evenodd;}</style></defs><path class="cls-1" d="M11.75,2h-7.5c-1.24,0-2.25,1.01-2.25,2.25v7.5c0,1.24,1.01,2.25,2.25,2.25h7.5c1.24,0,2.25-1.01,2.25-2.25v-7.5c0-1.24-1.01-2.25-2.25-2.25ZM11.71,5.7h-.81c-.54,0-.57.2-.57.57v.79s1.27,0,1.27,0l-.15,1.4h0s-1.12,0-1.12,0v4.16h-1.88v-4.16h-.73v-1.4h.73v-.89c0-1.17.49-1.86,1.86-1.86h1.4v1.39Z"/></svg>