<?xml version="1.0" encoding="UTF-8"?>
<svg id="Motiv" xmlns="http://www.w3.org/2000/svg" viewBox="0 0 32 32">
  <defs>
    <style>
      .cls-1 {
        fill: #08191f;
        stroke-width: 0px;
      }
    </style>
  </defs>
  <rect class="cls-1" x="10" y="27.99" width="12" height="2"/>
  <g>
    <path class="cls-1" d="M25,9h-2c0-3.86-3.14-7-7-7s-7,3.14-7,7h-2v2h18v-2ZM11,9c0-1.63.79-3.06,2-3.97v1.98h2v-2.9c.32-.07.66-.1,1-.1s.68.04,1,.1v2.9h2v-1.98c1.21.91,2,2.35,2,3.97h-10Z"/>
    <path class="cls-1" d="M16,17c-2.21,0-4-1.79-4-4h-2c0,3.31,2.69,6,6,6s6-2.69,6-6h-2c0,2.21-1.79,4-4,4Z"/>
    <polygon class="cls-1" points="23.61 21 8.38 21 6 25.76 6 30 8 30 8 26.23 9.61 23 22.38 23 23.99 26.24 23.99 30 25.99 30 25.99 25.77 23.61 21"/>
  </g>
</svg>