<?xml version="1.0" encoding="UTF-8"?>
<svg id="Icon_PG" data-name="Icon PG" xmlns="http://www.w3.org/2000/svg" viewBox="0 0 32 32">
  <defs>
    <style>
      .cls-1 {
        fill: #08191f;
        stroke-width: 0px;
      }
    </style>
  </defs>
  <polygon class="cls-1" points="19 6 19 8 22.52 8 17 13.55 18.42 14.96 23.96 9.4 23.96 13 25.96 13 25.96 6 19 6"/>
  <g>
    <polygon class="cls-1" points="5 5 13 5 13 9 15 9 15 3 3 3 3 25 7 25 7 23 5 23 5 5"/>
    <rect class="cls-1" x="7" y="7" width="4" height="2"/>
    <rect class="cls-1" x="13" y="15" width="2" height="2"/>
    <polygon class="cls-1" points="17 26 11 26 11 13 15.02 13 15.02 11 9 11 9 28 17 28 18 28 19 28 19 17.02 17 17.02 17 26"/>
    <rect class="cls-1" x="19" y="2" width="3.01" height="2"/>
    <rect class="cls-1" x="23" y="1.98" width="2.96" height="2"/>
    <polygon class="cls-1" points="29.96 2.04 29.96 2 27.01 2 27.01 4 27.96 4 27.96 5.03 29.96 5.03 29.96 2.04 29.96 2.04"/>
    <rect class="cls-1" x="27.96" y="6.03" width="2" height="3"/>
    <rect class="cls-1" x="27.96" y="9.99" width="2" height="3"/>
  </g>
</svg>