<?xml version="1.0" encoding="UTF-8"?><svg id="Icons_Power_Gray" xmlns="http://www.w3.org/2000/svg" viewBox="0 0 16 16"><defs><style>.cls-1{fill:#08191f;}</style></defs><path class="cls-1" d="M8,2c-3.31,0-6,2.69-6,6s2.69,6,6,6,6-2.69,6-6-2.69-6-6-6ZM12.95,7.52h-2.57c-.08-1.61-.57-3.11-1.36-4.41,2.11.44,3.72,2.22,3.93,4.41ZM9.37,7.52h-2.83c.09-1.57.58-3.04,1.42-4.27.83,1.23,1.33,2.7,1.42,4.27ZM6.86,3.15c-.78,1.29-1.26,2.78-1.34,4.38h-2.47c.21-2.15,1.76-3.89,3.81-4.38ZM3.05,8.52h2.47c.09,1.58.57,3.05,1.33,4.33-2.03-.48-3.58-2.2-3.8-4.33ZM7.95,12.75c-.82-1.22-1.32-2.67-1.41-4.22h2.82c-.1,1.55-.59,3-1.41,4.22ZM9.03,12.89c.78-1.29,1.27-2.77,1.36-4.36h2.56c-.23,2.16-1.83,3.92-3.92,4.36Z"/></svg>