<?xml version="1.0" encoding="utf-8"?>
<!-- Generator: Adobe Illustrator 28.1.0, SVG Export Plug-In . SVG Version: 6.00 Build 0)  -->
<svg version="1.1" id="power_grey" xmlns="http://www.w3.org/2000/svg" xmlns:xlink="http://www.w3.org/1999/xlink" x="0px" y="0px"
	 viewBox="0 0 16 16" style="enable-background:new 0 0 16 16;" xml:space="preserve">
<style type="text/css">
	.st0{fill:#08191F;}
	.st1{clip-path:url(#SVGID_00000082354655415864141330000008464837123331565733_);}
	.st2{fill-rule:evenodd;clip-rule:evenodd;fill:#08191F;}
</style>
<g>
	<path class="st0" d="M8,4c2.2,0,4,1.8,4,4s-1.8,4-4,4s-4-1.8-4-4S5.8,4,8,4 M8,3C5.2,3,3,5.3,3,8s2.2,5,5,5s5-2.2,5-5S10.8,3,8,3
		L8,3z"/>
</g>
<g>
	<defs>
		<circle id="SVGID_1_" cx="8" cy="8" r="5"/>
	</defs>
	<clipPath id="SVGID_00000093175198182458429780000016300292523371503265_">
		<use xlink:href="#SVGID_1_"  style="overflow:visible;"/>
	</clipPath>
	<g style="clip-path:url(#SVGID_00000093175198182458429780000016300292523371503265_);">
		<path class="st0" d="M2.5,1c3.9,0,7,3.1,7,7s-3.1,7-7,7s-7-3.1-7-7S-1.4,1,2.5,1 M2.5,0c-4.4,0-8,3.6-8,8s3.6,8,8,8s8-3.6,8-8
			S6.9,0,2.5,0L2.5,0z"/>
	</g>
	<g style="clip-path:url(#SVGID_00000093175198182458429780000016300292523371503265_);">
		<path class="st0" d="M13.5,1c3.9,0,7,3.1,7,7s-3.1,7-7,7s-7-3.1-7-7S9.6,1,13.5,1 M13.5,0c-4.4,0-8,3.6-8,8s3.6,8,8,8s8-3.6,8-8
			S17.9,0,13.5,0L13.5,0z"/>
	</g>
</g>
<g>
	<rect x="3.7" y="7.5" class="st0" width="8.9" height="1"/>
</g>
</svg>
