<?xml version="1.0" encoding="UTF-8"?>
<svg id="Motiv" xmlns="http://www.w3.org/2000/svg" viewBox="0 0 32 32">
  <defs>
    <style>
      .cls-1 {
        fill: #08191f;
        stroke-width: 0px;
      }
    </style>
  </defs>
  <path class="cls-1" d="M3.02,14l1.97,11h2.13c.44,1.72,2.01,3,3.87,3s3.43-1.28,3.87-3h2.25c.44,1.72,2.01,3,3.87,3s3.43-1.28,3.87-3h2.12l1.99-11H3.02ZM25.32,23h-2.32v1c0,1.1-.9,2-2,2s-2-.9-2-2v-1h-6v1c0,1.1-.9,2-2,2s-2-.9-2-2v-1h-2.33l-1.26-7h21.18l-1.26,7Z"/>
  <polygon class="cls-1" points="7.95 9.29 11.49 10.19 16 6.55 20.52 10.16 24.05 9.29 25.67 12 28 12 25.01 7 21 7.98 15.99 3.99 11.01 8.01 6.99 6.98 4 12 6.33 12 7.95 9.29"/>
</svg>