<?xml version="1.0" encoding="utf-8"?>
<!-- Generator: Adobe Illustrator 28.1.0, SVG Export Plug-In . SVG Version: 6.00 Build 0)  -->
<svg version="1.1" id="Grinding" xmlns="http://www.w3.org/2000/svg" xmlns:xlink="http://www.w3.org/1999/xlink" x="0px" y="0px"
	 viewBox="0 0 32 32" enable-background="new 0 0 32 32" xml:space="preserve">
<g id="Motiv_x5F_White">
	<path fill="#FFFFFF" d="M21,29c-1.86,0-3.43-1.28-3.87-3h-2.25c-0.44,1.72-2.01,3-3.87,3s-3.43-1.28-3.87-3H4.99L3.02,15h25.96
		l-1.99,11h-2.12C24.43,27.72,22.86,29,21,29z M13,24h6v1c0,1.1,0.9,2,2,2s2-0.9,2-2v-1h2.32l1.26-7H5.41l1.26,7H9v1
		c0,1.1,0.9,2,2,2s2-0.9,2-2V24z"/>
	<polygon fill="#FFFFFF" points="6.33,13 7.95,10.29 11.49,11.19 16,7.55 20.52,11.16 24.05,10.29 25.67,13 28,13 25.01,8 21,8.98 
		15.99,4.99 11.01,9.01 6.99,7.98 4,13 	"/>
</g>
</svg>
