<?xml version="1.0" encoding="UTF-8"?><svg id="Icon_White" xmlns="http://www.w3.org/2000/svg" viewBox="0 0 32 32"><defs><style>.cls-1{fill:#fff;stroke-width:0px;}</style></defs><rect class="cls-1" x="9.99" y="2" width="2" height="5"/><rect class="cls-1" x="12.73" y="4.77" width="5" height="2" transform="translate(.38 12.46) rotate(-45)"/><rect class="cls-1" x="5.77" y="3.27" width="2" height="5" transform="translate(-2.09 6.47) rotate(-44.99)"/><path class="cls-1" d="M22.22,12.5l3.11-3.11c1.16-1.16,1.16-3.05,0-4.21s-3.05-1.16-4.21,0l-9.96,9.96-.8-2.13c-.78-2.06-2.91-3.28-5.09-2.9l-2,.35,1.74,9.86v5.67h2v-5.76l-1.43-8.15h.02c1.22-.22,2.43.47,2.87,1.63l1.58,4.18,1.87-.7h0s10.6-10.6,10.6-10.6c.38-.38,1-.38,1.39,0,.38.38.38,1,0,1.39l-5.97,5.97,1.41,1.41,1.44-1.44,5.22,5.22v2.98l-5.88,5.88h-6.14v2h6.96l5-5h0s2.05-2.05,2.05-2.05v-4.64l-5.8-5.8Z"/></svg>