<?xml version="1.0" encoding="UTF-8"?>
<svg id="Motiv" xmlns="http://www.w3.org/2000/svg" viewBox="0 0 32.000086386680778 32.000099999999293">
  <rect x="10.982421875" y="3.015998312945158" width="2" height="4.419921875" fill="#08191f" stroke-width="0"/>
  <rect x="13.886869842969727" y="5.345206692673555" width="4.420107970321464" height="1.999786365543205" transform="translate(.228016683782904 13.240680721326338) rotate(-45.000000000000014)" fill="#08191f" stroke-width="0"/>
  <rect x="6.948104864108855" y="4.134414621737196" width="1.999786365543205" height="4.419417382415922" transform="translate(-2.158057884193337 7.47823401348458) rotate(-45.000000000000014)" fill="#08191f" stroke-width="0"/>
  <path d="M22.348876953130457,13.293586203570158l2.472412109369543-2.627197265625c1.123046875-1.19140625,1.0927734375-3.0302734375-.068359375-4.185546875-.5791015625-.576171875-1.3349609375-.8671875-2.16796875-.873046875-.8173828125.0146484375-1.576171875.3505859375-2.1357421875.9462890625l-7.880615234369543,8.3870849609375-.634033203130457-1.6829833984375c-.705078125-1.875-2.650390625-2.978515625-4.6240234375-2.6357421875l-1.8798828125.3310546875,1.560546875,8.8232421875v5.2119140625h2v-5.2998046875l-1.2421875-7.1103515625c1.001953125-.134765625,1.9580078125.439453125,2.314453125,1.384765625l1.4189453125,3.765625,1.87109375-.705078125v-.000244140625l.003173828130457-.001220703125,8.549560546869543-9.09912109375c.1875-.19921875.4404296875-.310546875.712890625-.3154296875.2607421875.0087890625.5302734375.0986328125.7236328125.291015625.3876953125.3857421875.3974609375.9990234375.0224609375,1.396484375l-4.8818359375,5.1865234375,1.45703125,1.37109375,1.037353515630457-1.102294921875,4.009521484369543,4.009521484375v2.53717041015625l-5.833984375,5.70794677734375h-5.1904296875v2h6.0068359375l5.1513671875-5.0408935546875.0166015625.0164794921875,1.849609375-1.8505859375v-4.1982421875l-4.638427734369543-4.638427734375Z" fill="#08191f" stroke-width="0"/>
</svg>