<?xml version="1.0" encoding="UTF-8"?><svg id="Icons_Power_Gray" xmlns="http://www.w3.org/2000/svg" viewBox="0 0 16 16"><defs><style>.cls-1{fill:#08191f;}</style></defs><path class="cls-1" d="M8,2c-3.31,0-6,2.69-6,6s2.69,6,6,6,6-2.69,6-6-2.69-6-6-6ZM8,13c-2.76,0-5-2.24-5-5s2.24-5,5-5,5,2.24,5,5-2.24,5-5,5ZM7.28,11.19h1.07v-1.1h-1.07v1.1ZM9.05,5.04c-.31-.15-.66-.22-1.06-.22s-.78.09-1.09.26-.55.41-.71.72c-.16.31-.23.67-.22,1.08h.93c-.03-.36.06-.66.26-.89.2-.23.48-.35.83-.35.3,0,.55.09.74.27.19.18.29.41.29.68,0,.24-.06.43-.18.58-.12.15-.31.32-.57.51-.22.17-.4.31-.52.44s-.23.29-.31.5c-.08.21-.12.46-.1.76h.94c-.01-.28.05-.5.18-.67.13-.17.34-.36.61-.55.2-.16.37-.29.5-.41s.23-.27.32-.46c.09-.19.14-.42.14-.68,0-.35-.09-.66-.26-.93-.17-.27-.41-.48-.72-.63Z"/></svg>