<?xml version="1.0" encoding="utf-8"?>
<!-- Generator: Adobe Illustrator 28.1.0, SVG Export Plug-In . SVG Version: 6.00 Build 0)  -->
<svg version="1.1" id="power_grey" xmlns="http://www.w3.org/2000/svg" xmlns:xlink="http://www.w3.org/1999/xlink" x="0px" y="0px"
	 viewBox="0 0 16 16" style="enable-background:new 0 0 16 16;" xml:space="preserve">
<style type="text/css">
	.st0{fill:#08191F;}
	.st1{clip-path:url(#SVGID_00000167355223556067989960000017633556590777371320_);}
	.st2{fill-rule:evenodd;clip-rule:evenodd;fill:#08191F;}
</style>
<g>
	<g>
		<path class="st0" d="M7.4,8.5c0-0.1,0-0.3,0.1-0.4C7.5,8.1,7.6,8,7.6,7.9s0.2-0.1,0.3-0.2c0.1-0.1,0.3-0.2,0.3-0.2
			s0.1-0.2,0.1-0.3c0-0.1,0-0.2-0.1-0.3C8.2,6.9,8.1,6.9,8,6.9c-0.1,0-0.2,0-0.3,0.1C7.6,7,7.5,7.1,7.5,7.3c0,0.1,0,0.1,0,0.2h-1
			c0-0.1,0-0.2,0-0.2c0-0.4,0.1-0.7,0.4-0.9C7.2,6.1,7.5,6,8,6c0.3,0,0.5,0,0.8,0.1c0.2,0.1,0.4,0.2,0.5,0.4C9.4,6.7,9.4,7,9.4,7.2
			c0,0.2,0,0.3-0.1,0.4C9.3,7.8,9.2,7.9,9.1,7.9C9,8,8.9,8.1,8.7,8.2C8.6,8.3,8.5,8.3,8.4,8.4S8.3,8.6,8.3,8.7h-1
			C7.4,8.6,7.4,8.6,7.4,8.5z M7.3,9h1.1v1H7.3V9z"/>
	</g>
	<path class="st0" d="M8,5c1.7,0,3,1.3,3,3s-1.3,3-3,3S5,9.7,5,8S6.3,5,8,5 M8,4C5.8,4,4,5.8,4,8s1.8,4,4,4s4-1.8,4-4S10.2,4,8,4
		L8,4z"/>
</g>
</svg>
