<?xml version="1.0" encoding="UTF-8"?><svg id="Motiv_White" xmlns="http://www.w3.org/2000/svg" viewBox="0 0 32 32"><defs><style>.cls-1{fill:#fff;stroke-width:0px;}</style></defs><path class="cls-1" d="M16.01,16.31h-2.02v2.69h-1.99v-6.99h1.99v2.62h2.02v-2.62h1.99v6.99h-1.99v-2.69Z"/><path class="cls-1" d="M19.07,19.81l1.09-.88c.36-.29.63-.5.63-.76,0-.17-.1-.29-.3-.29s-.38.17-.35.54h-1.18c-.07-.87.59-1.59,1.53-1.59s1.53.56,1.53,1.34c0,.54-.26.99-.99,1.4l-.23.13h1.22v1.04h-2.95v-.92Z"/><path class="cls-1" d="M27.77,13.84l-1.97.37c.77,4.15-1.17,8.36-4.83,10.48-3.5,2.02-7.85,1.72-11.01-.68h3.04v-2h-6v2h0v4.01h2v-2.23c2.07,1.48,4.52,2.24,6.98,2.24,2.06,0,4.12-.53,5.99-1.6,4.4-2.54,6.73-7.59,5.8-12.57Z"/><path class="cls-1" d="M11,7.34c3.5-2.03,7.85-1.74,11.03.67h-3.05v2h6v-2h0V3.99h-2v2.23c-3.8-2.72-8.9-3-13-.62-4.39,2.55-6.7,7.61-5.76,12.59l1.96-.37c-.78-4.15,1.15-8.37,4.8-10.49Z"/></svg>