<?xml version="1.0" encoding="utf-8"?>
<!-- Generator: Adobe Illustrator 28.1.0, SVG Export Plug-In . SVG Version: 6.00 Build 0)  -->
<svg version="1.1" id="Incident" xmlns="http://www.w3.org/2000/svg" xmlns:xlink="http://www.w3.org/1999/xlink" x="0px" y="0px"
	 viewBox="0 0 32 32" enable-background="new 0 0 32 32" xml:space="preserve">
<g id="HG_Power_Grey" display="none">
	<rect display="inline" fill="#08191F" width="32" height="32"/>
</g>
<g id="Motiv_Lime">
	<g>
		
			<rect x="25.12" y="22.03" transform="matrix(0.7077 -0.7065 0.7065 0.7077 -10.8124 26.0835)" fill="#FFFFFF" width="2" height="8.16"/>
		<path fill="#FFFFFF" d="M14.03,25c-6.07,0-11-4.93-11-11s4.93-11,11-11s11,4.93,11,11S20.09,25,14.03,25z M14.03,5
			c-4.96,0-9,4.04-9,9s4.04,9,9,9s9-4.04,9-9S18.99,5,14.03,5z"/>
		<g>
			<rect x="13" y="8" fill="#FFFFFF" width="2" height="8"/>
			<rect x="13" y="18" fill="#FFFFFF" width="2" height="2"/>
		</g>
	</g>
</g>
</svg>
