<?xml version="1.0" encoding="UTF-8"?><svg id="Motiv_White" xmlns="http://www.w3.org/2000/svg" viewBox="0 0 32 32"><defs><style>.cls-1{fill:#fff;stroke-width:0px;}</style></defs><rect class="cls-1" x="13.95" y="26.98" width="4" height="2"/><rect class="cls-1" x="11.95" y="23" width="8" height="2"/><path class="cls-1" d="M18.92,21.02h-6.7l-.18-.76c-.24-1.06-.73-2.46-1.38-3.03-1.76-1.54-2.77-3.76-2.77-6.1,0-4.47,3.64-8.11,8.11-8.11s8.11,3.64,8.11,8.11c0,2.33-1.01,4.56-2.76,6.1-.68.59-1.23,2.13-1.44,3.02l-.18.77h-.79ZM13.79,19.02h4.38c.3-.95.89-2.45,1.86-3.3,1.32-1.16,2.08-2.83,2.08-4.59,0-3.37-2.74-6.11-6.11-6.11s-6.11,2.74-6.11,6.11c0,1.76.76,3.44,2.09,4.6.95.84,1.52,2.28,1.81,3.3Z"/></svg>