<?xml version="1.0" encoding="UTF-8"?>
<svg id="Ebene_1" data-name="Ebene 1" xmlns="http://www.w3.org/2000/svg" version="1.1" viewBox="0 0 32 32">
  <defs>
    <style>
      .cls-1 {
        fill: #08191f;
        stroke-width: 0px;
      }
    </style>
  </defs>
  <g id="Icon_PG" data-name="Icon PG">
    <g>
      <polygon class="cls-1" points="16 16.8 19.1 14.8 24 11.6 24 13 26 13 26 8 18 13.1 18 8 10 13.1 10 3 4 3 4 24 19 24 19 22 6 22 6 5 8 5 8 13.1 8 16.8 11.1 14.8 16 11.6 16 13.1 16 16.8"/>
      <path class="cls-1" d="M23.4,19.4c0-.6.5-1,1.4-1s1.7.5,1.8,1.3h2.4c-.2-1.7-1.2-2.9-2.9-3.3v-1.5h-2.2v1.4c-1.8.3-3.1,1.5-3.1,3.1,0,4.1,5.7,2.8,5.7,4.8s-.7,1.1-1.6,1.1-2-.7-2.2-1.9h-2.4c.2,2.1,1.5,3.6,3.5,3.9v1.4h2.2s0-1.5,0-1.5c1.8-.4,3-1.6,3-3.3,0-4.3-5.7-3-5.7-4.8h0Z"/>
    </g>
  </g>
</svg>