<?xml version="1.0" encoding="UTF-8"?><svg id="Icons_Power_Gray" xmlns="http://www.w3.org/2000/svg" viewBox="0 0 16 16"><defs><style>.cls-1{fill:#08191f;fill-rule:evenodd;}</style></defs><path class="cls-1" d="M12.67,2H3.33c-.74,0-1.33.6-1.33,1.33v9.33c0,.74.6,1.33,1.33,1.33h9.33c.74,0,1.33-.6,1.33-1.33V3.33c0-.74-.6-1.33-1.33-1.33ZM5.63,12.33h-1.79v-5.78h1.79v5.78ZM4.72,5.8c-.58,0-1.06-.48-1.06-1.07s.47-1.07,1.06-1.07,1.06.48,1.06,1.07-.47,1.07-1.06,1.07ZM12.33,12.33h-1.78v-3.03c0-.83-.32-1.3-.97-1.3-.72,0-1.09.48-1.09,1.3v3.03h-1.72v-5.78h1.72v.78s.52-.95,1.74-.95,2.1.75,2.1,2.3v3.66Z"/></svg>