<?xml version="1.0" encoding="utf-8"?>
<!-- Generator: Adobe Illustrator 28.1.0, SVG Export Plug-In . SVG Version: 6.00 Build 0)  -->
<svg version="1.1" id="power_grey" xmlns="http://www.w3.org/2000/svg" xmlns:xlink="http://www.w3.org/1999/xlink" x="0px" y="0px"
	 viewBox="0 0 16 16" style="enable-background:new 0 0 16 16;" xml:space="preserve">
<style type="text/css">
	.st0{fill:#08191F;}
	.st1{clip-path:url(#SVGID_00000110432392830577796120000004742843719679479704_);}
	.st2{fill-rule:evenodd;clip-rule:evenodd;fill:#08191F;}
</style>
<path class="st2" d="M12.7,2H3.3C2.6,2,2,2.6,2,3.3v9.3C2,13.4,2.6,14,3.3,14h9.3c0.7,0,1.3-0.6,1.3-1.3V3.3C14,2.6,13.4,2,12.7,2z
	 M5.6,12.3H3.8V6.6h1.8V12.3z M4.7,5.8c-0.6,0-1.1-0.5-1.1-1.1c0-0.6,0.5-1.1,1.1-1.1s1.1,0.5,1.1,1.1C5.8,5.3,5.3,5.8,4.7,5.8z
	 M12.3,12.3h-1.8v-3c0-0.8-0.3-1.3-1-1.3C8.9,8,8.5,8.5,8.5,9.3v3H6.8V6.6h1.7v0.8c0,0,0.5-1,1.7-1c1.2,0,2.1,0.7,2.1,2.3V12.3z"/>
</svg>
