<?xml version="1.0" encoding="utf-8"?>
<!-- Generator: Adobe Illustrator 28.1.0, SVG Export Plug-In . SVG Version: 6.00 Build 0)  -->
<svg version="1.1" id="power_grey" xmlns="http://www.w3.org/2000/svg" xmlns:xlink="http://www.w3.org/1999/xlink" x="0px" y="0px"
	 viewBox="0 0 16 16" style="enable-background:new 0 0 16 16;" xml:space="preserve">
<style type="text/css">
	.st0{fill:#08191F;}
	.st1{clip-path:url(#SVGID_00000183228241316624572030000014212002990508767378_);}
	.st2{fill-rule:evenodd;clip-rule:evenodd;fill:#08191F;}
</style>
<g>
	<path class="st0" d="M8,3c1.7,0,3,1.3,3,3c0,1.7-1.8,4.6-3,6.3C6.8,10.6,5,7.7,5,6C5,4.3,6.3,3,8,3 M8,2C5.8,2,4,3.8,4,6
		c0,3,4,8,4,8s4-5,4-8C12,3.8,10.2,2,8,2L8,2z"/>
	<path class="st0" d="M8,5c0.6,0,1,0.4,1,1S8.6,7,8,7S7,6.6,7,6S7.4,5,8,5 M8,4C6.9,4,6,4.9,6,6s0.9,2,2,2s2-0.9,2-2S9.1,4,8,4L8,4z
		"/>
</g>
</svg>
