<?xml version="1.0" encoding="UTF-8"?><svg id="Motiv_White" xmlns="http://www.w3.org/2000/svg" viewBox="0 0 32 32"><defs><style>.cls-1{fill:#fff;stroke-width:0px;}</style></defs><path class="cls-1" d="M23,11.47c.44.77.68,1.64.68,2.54s-.23,1.76-.67,2.52l1.49,1.48c.8-1.17,1.23-2.56,1.23-4.01s-.43-2.84-1.24-4.02l-1.49,1.48Z"/><path class="cls-1" d="M26.04,8.44c1.29,1.57,1.99,3.51,1.99,5.55s-.7,3.98-1.99,5.55l1.45,1.46c1.67-1.96,2.59-4.42,2.59-7s-.91-5.04-2.58-7l-1.46,1.45Z"/><path class="cls-1" d="M21,21l-19-2.94v-7.09l19-3.97v14ZM4,16.34l15,2.32v-9.21l-15,3.13v3.75Z"/><rect class="cls-1" x="6" y="18" width="2" height="8"/></svg>