<?xml version="1.0" encoding="utf-8"?>
<!-- Generator: Adobe Illustrator 28.1.0, SVG Export Plug-In . SVG Version: 6.00 Build 0)  -->
<svg version="1.1" id="Mobile_Mining" xmlns="http://www.w3.org/2000/svg" xmlns:xlink="http://www.w3.org/1999/xlink" x="0px"
	 y="0px" viewBox="0 0 32 32" enable-background="new 0 0 32 32" xml:space="preserve">
<g>
	<path fill="#FFFFFF" d="M30,15.81L27.68,10H22V6h-5.54l-2,3H2v8h3v3.18C3.83,20.59,2.99,21.7,2.99,23c0,1.66,1.35,3.01,3.01,3.01
		S9.01,24.66,9.01,23c0-1.31-0.84-2.41-2.01-2.82V15H4v-4h11.54l2-3H20v8h2v-4h4.32L28,16.19v5.82h-2.18C25.41,20.84,24.31,20,23,20
		s-2.41,0.84-2.82,2.01H11v2h9.18c0.41,1.17,1.52,2.01,2.82,2.01s2.41-0.84,2.82-2.01H30V15.81z M6,24.02
		c-0.56,0-1.01-0.45-1.01-1.01S5.44,22,6,22s1.01,0.45,1.01,1.01S6.56,24.02,6,24.02z M23,24.02c-0.56,0-1.01-0.45-1.01-1.01
		S22.44,22,23,22s1.01,0.45,1.01,1.01S23.56,24.02,23,24.02z"/>
</g>
</svg>
