<?xml version="1.0" encoding="UTF-8"?>
<svg id="Motiv" xmlns="http://www.w3.org/2000/svg" viewBox="0 0 32 32">
  <defs>
    <style>
      .cls-1 {
        fill: #08191f;
        stroke-width: 0px;
      }
    </style>
  </defs>
  <g>
    <path class="cls-1" d="M23.12,25.01c1.78-1.81,2.88-4.28,2.88-7.01,0-4.1-2.47-7.62-6-9.16V4h3V2h-14v2h3v4.84c-3.53,1.54-6,5.06-6,9.16,0,2.73,1.1,5.21,2.88,7.01l-1.49,2.99h-1.38v2h5v-2h-1.38l.84-1.68c1.59,1.06,3.49,1.68,5.54,1.68s3.96-.62,5.54-1.68l.84,1.68h-1.38v2h5v-2h-1.38l-1.49-2.99ZM14,4h4v4.2c-.65-.13-1.32-.2-2-.2s-1.35.07-2,.2V4ZM16,26c-4.42,0-8-3.58-8-8s3.58-8,8-8,8,3.58,8,8-3.58,8-8,8Z"/>
    <path class="cls-1" d="M16,17c-.55,0-1,.45-1,1s.45,1,1,1,1-.45,1-1-.45-1-1-1Z"/>
  </g>
  <g>
    <path class="cls-1" d="M10,18c0,2.97,2.16,5.44,5,5.92v-2.03c-1.73-.44-3.01-2.02-3.01-3.88s1.28-3.44,3.01-3.88v-2.03c-2.84.48-5,2.94-5,5.92Z"/>
    <path class="cls-1" d="M17,12.08v2.03c1.73.44,3.01,2.02,3.01,3.88s-1.28,3.44-3.01,3.88v2.03c2.84-.48,5-2.94,5-5.92s-2.16-5.44-5-5.92Z"/>
  </g>
</svg>