<?xml version="1.0" encoding="UTF-8"?>
<svg id="Motiv" xmlns="http://www.w3.org/2000/svg" viewBox="0 0 32 32">
  <defs>
    <style>
      .cls-1 {
        fill: #08191f;
        stroke-width: 0px;
      }
    </style>
  </defs>
  <polygon class="cls-1" points="23.68 8.98 23.68 11.02 25.98 11.02 25.98 20 10.02 20 10.02 17.98 7.98 17.98 7.98 22 10.02 22 10.02 22 16.98 22 16.98 24.96 14 24.96 14 27 22 27 22 24.96 19.02 24.96 19.02 22 25.98 22 27.06 22 28.02 22 28.02 8.98 23.68 8.98"/>
  <path class="cls-1" d="M21.97,14.41v-7.83l-1.59-1.59H7.74l-2.76,1.38v3.12h-2.95v2h2.95v3.12l2.76,1.38h12.65l1.59-1.59ZM6.97,13.38v-5.76l1.24-.62h.76v7h-.76l-1.24-.62ZM19.97,13.59l-.41.41h-8.59v-4h6.65v-2h-6.65v-1h8.59l.41.41v6.17Z"/>
</svg>