<?xml version="1.0" encoding="UTF-8"?>
<svg id="Motiv" xmlns="http://www.w3.org/2000/svg" viewBox="0 0 32.000014579480194 32.000028192769605">
  <path d="M24.904184859979068,9.7197265625c-.244140625-.3310546875-.474609375-.64453125-.5869140625-.9150390625-.1220703125-.2939453125-.185546875-.6943359375-.251953125-1.1171875-.1337890625-.84375-.28515625-1.7998046875-.994140625-2.509765625-.7080078125-.70703125-1.6640625-.8583984375-2.505859375-.9921875-.4248046875-.06640625-.8251953125-.1298828125-1.1201171875-.2529296875-.2705078125-.1123046875-.5830078125-.341796875-.9140625-.5859375-.6640625-.48828125-1.490234375-1.0966796875-2.53125-1.0966796875s-1.8671875.6083984375-2.5302734375,1.0966796875c-.3310546875.244140625-.64453125.4736328125-.9150390625.5859375-.2939453125.123046875-.6953125.1865234375-1.119140625.2529296875-.8427734375.1337890625-1.798828125.28515625-2.5078125.9931640625-.70703125.708984375-.8583984375,1.6650390625-.9921875,2.5078125-.06640625.423828125-.1298828125.82421875-.251953125,1.1181640625-.1123046875.2705078125-.3427734375.5830078125-.5869140625.9140625-.48828125.6640625-1.0966796875,1.490234375-1.0966796875,2.53125s.6083984375,1.8671875,1.0966796875,2.53125c.244140625.3310546875.474609375.6435546875.5869140625.9140625.1220703125.2939453125.185546875.6943359375.251953125,1.1181640625.1337890625.8427734375.28515625,1.798828125.9931640625,2.5087890625.606201171880457.605346679689319,1.391357421880457.79931640625,2.13427734375.927734375h-.06298828125v9.6181640625l5-2.5,5,2.5v-9.6181640625h-.0625c.74267578125-.12841796875,1.52783203125-.322509765619543,2.134765625-.9287109375.70703125-.708984375.8583984375-1.6650390625.9921875-2.5078125.0673828125-.423828125.130859375-.8232421875.2529296875-1.1181640625.1123046875-.2705078125.3427734375-.583984375.5869140625-.9150390625.48828125-.6640625,1.095703125-1.4892578125,1.095703125-2.5302734375s-.607421875-1.8662109375-1.095703125-2.5302734375ZM15.999887984979068,25.1318359375l-3,1.5v-5.81298828125c.150390625.100708007810681.307861328130457.216064453130457.4697265625.33544921875.6640625.48828125,1.4892578125,1.095703125,2.5302734375,1.095703125s1.8662109375-.607421875,2.5302734375-1.095703125c.161865234380457-.119384765619543.319091796880457-.234619140619543.4697265625-.335327148439319v5.812866210939319l-3-1.5ZM23.292856734979068,13.59375c-.3037109375.4140625-.6181640625.8408203125-.8232421875,1.3359375-.212890625.5126953125-.2978515625,1.05078125-.3798828125,1.5703125-.0908203125.5693359375-.1845703125,1.158203125-.4326171875,1.40625-.248046875.2490234375-.8369140625.341796875-1.4052734375.4326171875-.5205078125.08203125-1.0595703125.16796875-1.572265625.380859375-.4951171875.205078125-.921875.51953125-1.3359375.8232421875-.4931640625.3642578125-.9599609375.70703125-1.34375.70703125s-.8505859375-.3427734375-1.34375-.70703125c-.4140625-.3037109375-.8408203125-.6181640625-1.3349609375-.8232421875-.513671875-.212890625-1.0517578125-.298828125-1.5732421875-.380859375-.568359375-.0908203125-1.1572265625-.18359375-1.404296875-.431640625-.2490234375-.2490234375-.341796875-.8369140625-.4326171875-1.40625-.08203125-.5205078125-.1669921875-1.05859375-.3798828125-1.5712890625-.205078125-.4951171875-.51953125-.921875-.82421875-1.3349609375-.36328125-.494140625-.70703125-.9599609375-.70703125-1.3447265625s.34375-.8505859375.70703125-1.3447265625c.3046875-.4130859375.619140625-.83984375.82421875-1.3349609375.212890625-.5126953125.2978515625-1.05078125.3798828125-1.5712890625.0908203125-.5693359375.18359375-1.1572265625.431640625-1.4052734375.248046875-.2490234375.8369140625-.341796875,1.40625-.4326171875.5205078125-.08203125,1.05859375-.16796875,1.572265625-.380859375.494140625-.205078125.921875-.51953125,1.333984375-.8232421875.494140625-.36328125.9599609375-.70703125,1.3447265625-.70703125s.8515625.34375,1.345703125.70703125c.4130859375.3037109375.83984375.6181640625,1.3330078125.8232421875.513671875.212890625,1.052734375.298828125,1.5732421875.380859375.568359375.0908203125,1.1572265625.18359375,1.4052734375.431640625.2490234375.2490234375.341796875.837890625.4326171875,1.4072265625.08203125.5205078125.1669921875,1.0576171875.3798828125,1.5703125.205078125.4951171875.51953125.921875.8232421875,1.3359375.3642578125.4931640625.70703125.9599609375.70703125,1.34375s-.3427734375.8505859375-.70703125,1.34375Z" fill="#08191f" stroke-width="0"/>
  <polygon points="19.275652105108747 10.07666015625 15.981218511358747 13.3701171875 13.781023198858747 11.17236328125 12.367937261358747 12.58740234375 15.981218511358747 16.197265625 20.689714605108747 11.49072265625 19.275652105108747 10.07666015625" fill="#08191f" fill-rule="evenodd" stroke-width="0"/>
</svg>