<?xml version="1.0" encoding="utf-8"?>
<!-- Generator: Adobe Illustrator 28.1.0, SVG Export Plug-In . SVG Version: 6.00 Build 0)  -->
<svg version="1.1" id="Partner_News" xmlns="http://www.w3.org/2000/svg" xmlns:xlink="http://www.w3.org/1999/xlink" x="0px"
	 y="0px" viewBox="0 0 32 32" enable-background="new 0 0 32 32" xml:space="preserve">
<g id="HG_Power_Grey" display="none">
	<rect display="inline" fill="#08191F" width="32" height="32"/>
</g>
<g id="Motiv_Lime">
	<polygon fill="#FFFFFF" points="16,30 14,30 14,27.19 12.32,23 5.68,23 4,27.19 4,30 2,30 2,26.81 4.32,21 13.68,21 16,26.81 	"/>
	<path fill="#FFFFFF" d="M9,19c-2.76,0-5-2.24-5-5s2.24-5,5-5s5,2.24,5,5S11.76,19,9,19z M9,11c-1.65,0-3,1.35-3,3s1.35,3,3,3
		s3-1.35,3-3S10.65,11,9,11z"/>
	<polygon fill="#FFFFFF" points="17,14.98 15.67,13.48 19.57,10.01 28,9.99 28,4 17,4 17,8.03 15,8.03 15,2 30,2 30,11.99 
		20.34,12.01 	"/>
</g>
</svg>
