<?xml version="1.0" encoding="UTF-8"?><svg id="Motiv_White" xmlns="http://www.w3.org/2000/svg" viewBox="0 0 32 32"><defs><style>.cls-1{fill:#fff;stroke-width:0px;}</style></defs><polygon class="cls-1" points="26.67 18 20.83 18 21.63 20 25.32 20 27 24.19 27 27 29 27 29 23.81 26.67 18"/><rect class="cls-1" x="7" y="28" width="10" height="2"/><path class="cls-1" d="M12,16c-3.86,0-7-3.14-7-7s3.14-7,7-7,7,3.14,7,7-3.14,7-7,7ZM12,4c-2.76,0-5,2.24-5,5s2.24,5,5,5,5-2.24,5-5-2.24-5-5-5Z"/><polygon class="cls-1" points="21 30 19 30 19 24.19 17.32 20 6.67 20 5 24.19 5 30 3 30 3 23.81 5.32 18 18.67 18 21 23.81 21 30"/><path class="cls-1" d="M22,6c-.49,0-.95.09-1.4.23l.45,1.94c.3-.1.62-.17.95-.17,1.65,0,3,1.35,3,3s-1.35,3-3,3c-.75,0-1.43-.29-1.96-.75l-1.14,1.64c.85.68,1.92,1.11,3.09,1.11,2.76,0,5-2.24,5-5s-2.24-5-5-5Z"/></svg>