<?xml version="1.0" encoding="UTF-8"?>
<svg id="Icon_PG" data-name="Icon PG" xmlns="http://www.w3.org/2000/svg" viewBox="0 0 32 32">
  <defs>
    <style>
      .cls-1 {
        fill-rule: evenodd;
      }

      .cls-1, .cls-2 {
        fill: #08191f;
        stroke-width: 0px;
      }
    </style>
  </defs>
  <g id="Umrichter">
    <polygon class="cls-2" points="6 24.98 3 24.98 3 2.98 15 2.98 15 12.98 13 12.98 13 4.98 5 4.98 5 22.98 6 22.98 6 24.98"/>
    <rect class="cls-2" x="7" y="6.98" width="4" height="2"/>
  </g>
  <path class="cls-2" d="M21.5,16.48c-.17,0-.34.02-.5.05v2.1c.15-.09.31-.15.5-.15.55,0,1,.45,1,1s-.45,1-1,1c-.19,0-.35-.06-.5-.15v2.1c.16.03.33.05.5.05,1.65,0,3-1.35,3-3s-1.35-3-3-3Z"/>
  <path class="cls-2" d="M29,19.48c0-2.87-1.62-5.37-4-6.63v-3.87h-4v2h2v1.15c-.48-.1-.99-.15-1.5-.15-.17,0-.33.01-.5.03v2c.17-.01.33-.03.5-.03,3.03,0,5.5,2.47,5.5,5.5s-2.47,5.5-5.5,5.5c-.17,0-.33-.01-.5-.03v1.99c.17.01.33.03.5.03,1.41,0,2.72-.4,3.85-1.08l1.04,2.08h2.24l-1.68-3.36c1.27-1.34,2.06-3.15,2.06-5.14Z"/>
  <polygon class="cls-1" points="19 27 8 26.95 8 14.99 19.01 14.99 19.01 16.97 10.02 16.98 10.02 24.95 19 25 19 27"/>
  <rect class="cls-2" x="12" y="19" width="6" height="2"/>
</svg>