<?xml version="1.0" encoding="UTF-8"?><svg id="Motiv_White" xmlns="http://www.w3.org/2000/svg" viewBox="0 0 32 32"><defs><style>.cls-1{fill:#fff;stroke-width:0px;}</style></defs><path class="cls-1" d="M21,6v9h2V4H7v20h8v-2s-6,0-6,0V6h12"/><polygon class="cls-1" points="19 8 11 8 11 10 19 10 19 8 19 8"/><polygon class="cls-1" points="19 12 11 12 11 14 19 14 19 12 19 12"/><polygon class="cls-1" points="16 16 11 16 11 18 16 18 16 16 16 16"/><path class="cls-1" d="M26,23c0-.37-.07-.72-.16-1.06l1.86-1.07-1-1.73-1.85,1.07c-.5-.51-1.14-.87-1.85-1.06v-2.14h-2v2.14c-.71.18-1.34.55-1.84,1.05l-1.84-1.07-1,1.73,1.86,1.08c-.1.34-.16.7-.16,1.07s.07.72.16,1.05l-1.86,1.07,1,1.73,1.85-1.06c.5.51,1.14.88,1.85,1.06v2.14s2,0,2,0v-2.14c.72-.18,1.35-.55,1.86-1.06l1.84,1.07,1-1.73-1.86-1.07c.09-.34.16-.69.16-1.06ZM22,25c-1.1,0-2-.9-2-2s.9-2,2-2,2,.9,2,2-.9,2-2,2Z"/></svg>