<?xml version="1.0" encoding="UTF-8"?>
<svg id="Motiv" xmlns="http://www.w3.org/2000/svg" viewBox="0 0 32.00000980383993 32.000003491659299">
  <path d="M25.001894105429528,22.00000174582965c0-.369384765625-.06640625-.72021484375-.16064453125-1.06005859375l1.85791015625-1.07177734375-1-1.732421875-1.8466796875,1.06524658203125c-.500244140630457-.5093994140625-1.138916015630457-.87408447265625-1.8505859375-1.05902099609375v-2.1419677734375h-2v2.1419677734375c-.708251953130457.18402099609375-1.344970703130457.54541015625-1.843994140630457,1.05108642578125l-1.844482421869543-1.07000732421875-1.00390625,1.73046875,1.85595703125,1.0767822265625c-.095703125.34271240234375-.16357421875.69677734375-.16357421875,1.0697021484375,0,.36737060546875.06591796875.71636962890625.158935546869543,1.05450439453125l-1.859130859369543,1.06951904296875.998046875,1.734375,1.848388671869543-1.06329345703125c.49951171875.510009765625,1.137451171880457.87548828125,1.848876953130457,1.06134033203125l-.0029296875,2.142578125,2,.001953125.0029296875-2.14141845703125c.71240234375-.18408203125,1.351806640619543-.5482177734375,1.852783203119543-1.05731201171875l1.844482421880457,1.06689453125,1.001953125-1.73046875-1.8564453125-1.07379150390625c.094970703119543-.34124755859375.162109375-.6937255859375.162109375-1.06488037109375ZM21.001894105429528,24.00000174582965c-1.1025390625,0-2-.8974609375-2-2s.8974609375-2,2-2,2,.8974609375,2,2-.8974609375,2-2,2Z" fill="#08191f" stroke-width="0"/>
  <polygon points="7.999940980429528 5.9988420778609 19.999940980429528 5.9988420778609 19.999940980429528 13.9988420778609 21.999940980429528 13.9988420778609 21.999940980429528 3.9988420778609 5.999940980429528 3.9988420778609 5.999940980429528 27.9988420778609 13.999940980429528 27.9988420778609 13.999940980429528 25.9988420778609 7.999940980429528 25.9988420778609 7.999940980429528 5.9988420778609" fill="#08191f" stroke-width="0"/>
  <rect x="9.999940980429528" y="7.9988420778609" width="8" height="2" fill="#08191f" stroke-width="0"/>
  <rect x="9.999940980429528" y="11.9988420778609" width="8" height="2" fill="#08191f" stroke-width="0"/>
  <rect x="9.999940980429528" y="15.9988420778609" width="5" height="2" fill="#08191f" stroke-width="0"/>
</svg>