<?xml version="1.0" encoding="UTF-8"?>
<svg id="Motiv" xmlns="http://www.w3.org/2000/svg" viewBox="0 0 32 32">
  <defs>
    <style>
      .cls-1 {
        fill: #08191f;
        stroke-width: 0px;
      }
    </style>
  </defs>
  <path class="cls-1" d="M22.96,15.4c.02.2.04.4.04.6,0,.33-.02.65-.07.97l-.09.67,2.82,1.63-2,3.47-2.82-1.63-.53.42c-.52.4-1.08.73-1.69.98l-.62.25v3.25h-4v-3.25l-.62-.25c-.6-.24-1.17-.57-1.69-.98l-.53-.42-2.82,1.63-2-3.47,2.82-1.63-.09-.67c-.04-.32-.07-.64-.07-.97s.02-.65.07-.97l.09-.67-2.82-1.63,2-3.47,2.82,1.63.53-.42c.52-.4,1.08-.73,1.69-.98l.62-.25v-3.25h3.98v-2h-5.98v3.94c-.34.17-.67.36-.99.57l-3.41-1.97-3.99,6.93,3.41,1.97c-.01.19-.02.37-.02.56s0,.37.02.56l-3.41,1.97,3.99,6.93,3.41-1.97c.32.21.65.4.99.57v3.94h8v-3.94c.34-.17.67-.36.99-.57l3.41,1.97,3.99-6.92-5.43-3.13Z"/>
  <polygon class="cls-1" points="22.24 13.19 25.99 9.4 26 13 28 13 27.99 6 21 6.01 21.01 8.01 24.56 8.01 20.82 11.78 22.24 13.19"/>
  <path class="cls-1" d="M12,15.97c0,2.21,1.79,4,4,4s4-1.79,4-4-1.79-4-4-4-4,1.79-4,4ZM18,15.97c0,1.1-.9,2-2,2s-2-.9-2-2,.9-2,2-2,2,.9,2,2Z"/>
</svg>