<?xml version="1.0" encoding="UTF-8"?>
<svg id="Motiv" xmlns="http://www.w3.org/2000/svg" viewBox="0 0 32.000013637540178 32.000024304807084">
  <path d="M21.50048828125,25c-3.0322265625,0-5.5-2.4677734375-5.5-5.5s2.4677734375-5.5,5.5-5.5c1.6982421875,0,3.204345703125.78570556640625,4.212646484375,2h-3.713134765625v2h7v-7h-2v3.4151611328125c-1.370849609375-1.48175048828125-3.326416015625-2.4151611328125-5.49951171875-2.4151611328125-4.1357421875,0-7.5,3.3642578125-7.5,7.5s3.3642578125,7.5,7.5,7.5c2.871826171875,0,5.36865234375-1.6239013671875,6.62841796875-4.00006103515625h-2.389404296875c-1.009765625,1.220703125-2.53515625,2.00006103515625-4.239013671875,2.00006103515625Z" fill="#08191f" stroke-width="0"/>
  <g id="Umrichter">
    <polygon points="11.999572263001028 25.000033614069253 2.999572263001028 25.000033614069253 2.999572263001028 3.000033614069253 14.999572263001028 3.000033614069253 14.999572263001028 12.000033614069253 12.999572263001028 12.000033614069253 12.999572263001028 5.000033614069253 4.999572263001028 5.000033614069253 4.999572263001028 23.000033614069253 11.999572263001028 23.000033614069253 11.999572263001028 25.000033614069253" fill="#08191f" stroke-width="0"/>
    <rect x="6.999572263001028" y="7.000033614069253" width="4" height="2" fill="#08191f" stroke-width="0"/>
  </g>
</svg>