<?xml version="1.0" encoding="UTF-8"?><svg id="Motiv" xmlns="http://www.w3.org/2000/svg" viewBox="0 0 32 32"><defs><style>.cls-1{fill:#fff;stroke-width:0px;}</style></defs><polygon class="cls-1" points="26.7 20 20.85 20 21.65 22 25.35 22 27.02 26.19 27.02 28 29.02 28 29.02 25.81 26.7 20"/><polygon class="cls-1" points="21.02 30 19.02 30 19.02 26.19 17.35 22 6.7 22 5.02 26.19 5.02 30 3.02 30 3.02 25.8 5.35 20 18.7 20 21.02 25.8 21.02 30"/><path class="cls-1" d="M23,10.16c1.18.41,2.02,1.52,2.02,2.84,0,1.65-1.35,3-3,3-.75,0-1.43-.29-1.96-.75l-1.14,1.64c.85.68,1.92,1.11,3.09,1.11,2.76,0,5-2.24,5-5,0-2.42-1.73-4.45-4.02-4.9v2.07Z"/><rect class="cls-1" x="7.02" y="28" width="10" height="2"/><path class="cls-1" d="M12,18c-3.31,0-6-2.69-6-6h2c0,2.21,1.79,4,4,4s4-1.79,4-4h2c0,3.31-2.69,6-6,6Z"/><path class="cls-1" d="M19,9h-2c0-2.76-2.24-5-5-5s-5,2.24-5,5h-2c0-3.86,3.14-7,7-7s7,3.14,7,7Z"/><rect class="cls-1" x="3" y="8" width="18" height="2"/><rect class="cls-1" x="11" y="3.41" width="2" height="3.6"/></svg>