<?xml version="1.0" encoding="UTF-8"?>
<svg id="Motiv" xmlns="http://www.w3.org/2000/svg" viewBox="0 0 32 32">
  <defs>
    <style>
      .cls-1 {
        fill: #08191f;
        stroke-width: 0px;
      }
    </style>
  </defs>
  <path class="cls-1" d="M25.44,18l-7.01-6.89-.7.65s-1.44,1.27-3,1.24c-.58-.02-1.12-.23-1.62-.61l2.75-3.39h5.77l2.32,1.98h5.02v-2h-4.28l-2.32-1.98h-7.47l-4.42,5.57.58.64c1.04,1.14,2.26,1.74,3.61,1.79,1.56.06,2.88-.64,3.67-1.18l5.29,5.2,1.01.98h4.36v-2h-3.56Z"/>
  <g>
    <polygon class="cls-1" points="12 9 3 9 3 11 10.41 11 12 9"/>
    <path class="cls-1" d="M20.99,19.23l-2.38,2.38-5.63-5.62H3v2h2.47l5.4,5.62c.96.99,2.48,1.58,4.17,1.61.04,0,.08,0,.12,0,1.66,0,3.17-.54,4.14-1.49l.65-.64h0s2.47-2.46,2.47-2.46l-1.43-1.4ZM15.07,23.22c-1.15-.02-2.18-.39-2.76-.99l-4.07-4.23h3.91l4.88,4.87c-.56.24-1.23.36-1.96.36Z"/>
  </g>
</svg>