<?xml version="1.0" encoding="UTF-8"?>
<svg id="Motiv" xmlns="http://www.w3.org/2000/svg" viewBox="0 0 32 32">
  <defs>
    <style>
      .cls-1 {
        fill: #08191f;
        stroke-width: 0px;
      }
    </style>
  </defs>
  <rect class="cls-1" x="7.02" y="28" width="10" height="2"/>
  <g>
    <polygon class="cls-1" points="26.7 20 20.85 20 21.65 22 25.35 22 27.02 26.19 27.02 28 29.02 28 29.02 25.81 26.7 20"/>
    <polygon class="cls-1" points="5.35 20 3.02 25.81 3.02 30 5.02 30 5.02 26.19 6.7 22 17.35 22 19.02 26.19 19.02 30 21.02 30 21.02 25.81 18.7 20 5.35 20"/>
    <path class="cls-1" d="M22.02,16c-.75,0-1.43-.29-1.96-.75l-1.14,1.64c.85.68,1.92,1.11,3.09,1.11,2.76,0,5-2.24,5-5,0-2.42-1.73-4.45-4.02-4.9v2.07c1.18.41,2.02,1.52,2.02,2.84,0,1.65-1.35,3-3,3Z"/>
    <path class="cls-1" d="M12,16c-2.21,0-4-1.79-4-4h-2c0,3.31,2.69,6,6,6s6-2.69,6-6h-2c0,2.21-1.79,4-4,4Z"/>
    <path class="cls-1" d="M21,8h-2.08c-.49-3.39-3.4-6-6.92-6s-6.43,2.61-6.92,6h-2.08v2h18v-2ZM7.1,8c.4-1.96,1.94-3.5,3.9-3.9v2.91h2v-2.91c1.96.4,3.5,1.94,3.9,3.9H7.1Z"/>
  </g>
</svg>