<?xml version="1.0" encoding="utf-8"?>
<!-- Generator: Adobe Illustrator 28.1.0, SVG Export Plug-In . SVG Version: 6.00 Build 0)  -->
<svg version="1.1" id="Services" xmlns="http://www.w3.org/2000/svg" xmlns:xlink="http://www.w3.org/1999/xlink" x="0px" y="0px"
	 viewBox="0 0 32 32" enable-background="new 0 0 32 32" xml:space="preserve">
<g id="Motiv_x5F_White">
	<g>
		<rect x="7" y="28" fill="#FFFFFF" width="10" height="2"/>
		<polygon fill="#FFFFFF" points="21,30 19,30 19,26.18 17.32,21.99 6.67,21.99 5,26.18 5,30 3,30 3,25.8 5.32,19.99 18.67,19.99 
			21,25.8 		"/>
		<g>
			<path fill="#FFFFFF" d="M12,18c-3.31,0-6-2.69-6-6h2c0,2.21,1.79,4,4,4s4-1.79,4-4h2C18,15.31,15.31,18,12,18z"/>
			<path fill="#FFFFFF" d="M18.92,8c-0.49-3.39-3.4-6-6.92-6S5.57,4.61,5.08,8H3v2h18V8H18.92z M11,4.1v2.91h2V4.1
				c1.96,0.4,3.5,1.94,3.9,3.9H7.1C7.5,6.04,9.04,4.5,11,4.1z"/>
		</g>
	</g>
	<g>
		<g>
			<polygon fill="#FFFFFF" points="26.67,19.99 20.83,19.99 21.63,21.99 25.32,21.99 27,26.18 27,28.99 29,28.99 29,25.8 			"/>
		</g>
		<path fill="#FFFFFF" d="M18.52,16.58C19.42,17.45,20.65,18,22,18c2.76,0,5-2.24,5-5c0-2.43-1.74-4.45-4.03-4.9v2.08
			C24.15,10.58,25,11.68,25,13c0,1.65-1.35,3-3,3c-0.93,0-1.77-0.43-2.32-1.1L18.52,16.58z"/>
	</g>
</g>
</svg>
