<svg width="27" height="25" viewBox="0 0 27 25" fill="none" xmlns="http://www.w3.org/2000/svg">
<g id="Group">
<path id="Vector" d="M24.8266 11.1196C24.2709 11.4297 23.9263 11.7098 23.9048 12.4722C23.8789 13.2993 24.2709 13.6052 24.874 13.9067C25.2876 14.1135 25.6839 14.359 26.0802 14.6003C26.2267 14.6864 26.3473 14.8114 26.4722 14.9148C26.3301 15.1732 26.2094 15.3929 26.0845 15.6126C25.0894 17.3401 24.09 19.0632 23.0949 20.7906C22.3942 22.0054 21.4192 22.2624 20.1699 21.5617C19.0542 20.9371 17.96 21.5703 17.9514 22.8411C17.9514 23.3064 17.9126 23.7716 17.96 24.2325C18.0246 24.8442 17.8006 25.0122 17.1932 24.9993C15.0867 24.9649 12.9759 24.9864 10.8694 24.9864C8.76285 24.9864 8.72839 24.9864 8.71546 22.8454C8.70685 21.5703 7.61697 20.9371 6.50125 21.5617C6.12647 21.7685 5.73446 21.9494 5.39415 22.2036C4.84706 22.6128 4.54982 22.5611 4.19658 21.9106C3.19717 20.0626 2.1116 18.2619 1.06481 16.444C0.142937 14.8458 0.138629 14.8329 1.79713 13.911C2.38299 13.5836 2.76208 13.295 2.7707 12.4765C2.77931 11.6193 2.31838 11.3737 1.75405 11.0679C1.43959 10.8999 1.14665 10.6845 0.819262 10.5553C0.164476 10.2968 0.242016 9.95648 0.552178 9.43524C1.59467 7.69489 2.58977 5.92438 3.6021 4.16679C4.28848 2.97497 5.2405 2.72368 6.45817 3.41293C7.6299 4.07633 8.71546 3.44739 8.71977 2.10766C8.71977 1.68119 8.76285 1.24611 8.71115 0.82394C8.625 0.156231 8.87485 -0.0160828 9.53395 0.00114822C11.606 0.0442257 13.6781 0.018383 15.7501 0.018383C17.2061 0.018383 17.9428 0.750706 17.96 2.21536C17.9729 3.40862 19.0886 4.05479 20.1311 3.47324C20.5361 3.24923 20.9625 3.05107 21.3287 2.77107C21.8586 2.36613 22.1343 2.46521 22.453 3.05107C23.4438 4.86035 24.4949 6.63947 25.5245 8.43152C26.5239 10.1719 26.5368 10.1848 24.8353 11.1282L24.8266 11.1196ZM21.3287 13.532C21.5355 12.847 21.5182 11.9984 21.3115 11.3134C21.0401 10.4088 21.4536 10.0599 22.13 9.79709C22.9657 9.4697 23.1897 9.05615 22.578 8.27213C22.1429 7.71642 21.7983 7.07456 21.4967 6.4327C21.1995 5.79515 20.8462 5.76068 20.3767 6.19146C19.5797 6.91948 18.9034 6.83763 18.1323 6.07946C17.5809 5.54098 16.8572 5.15328 16.0603 5.03697C15.3667 4.93358 15.1513 4.58465 15.1772 3.88679C15.2246 2.50398 15.1815 2.50398 13.7513 2.50398H13.1094C11.3648 2.50398 11.3389 2.50398 11.2614 4.21849C11.2398 4.67081 11.0589 4.85173 10.6884 4.96374C9.64595 5.2739 8.70254 5.78222 7.93575 6.54901C7.33266 7.1521 6.94496 6.59639 6.57448 6.33362C5.85077 5.8296 5.37692 5.76499 4.99783 6.7127C4.75229 7.33303 4.38612 7.92751 3.97257 8.45737C3.47287 9.10353 3.68826 9.42662 4.33443 9.6894C5.16153 10.0254 5.63969 10.4863 5.31661 11.5202C5.13568 12.1061 5.12706 12.8427 5.31661 13.4243C5.67415 14.5141 5.18737 15.0052 4.29135 15.3369C3.53318 15.6169 3.57195 16.0305 4.00273 16.5862C4.23966 16.892 4.40766 17.2582 4.61013 17.5899C4.9289 18.1025 5.14429 18.8349 5.60523 19.0546C6.03601 19.2613 6.5831 18.6281 7.05696 18.3351C7.44897 18.0939 7.69021 18.2275 7.97452 18.4988C8.681 19.1752 9.5081 19.7007 10.4386 19.9506C11.1537 20.1444 11.3691 20.5106 11.2485 21.1611C11.0331 22.3156 11.5586 22.6817 12.6356 22.5051C12.8466 22.4706 13.062 22.5008 13.2774 22.5008C15.0436 22.5008 15.0781 22.5008 15.1858 20.7432C15.2202 20.1918 15.539 20.0841 15.9138 20.0109C16.9347 19.8213 17.8092 19.3216 18.52 18.6281C19.0628 18.0982 19.4893 18.1499 19.9674 18.5678C20.8592 19.3518 21.3675 19.0416 21.8069 18.0638C22.1429 17.3228 22.6167 16.6422 23.0648 15.8711C22.9226 15.5437 22.5607 15.436 22.2764 15.2982C21.5053 14.932 21.0272 14.5529 21.3373 13.532H21.3287Z" fill="white"/>
<path id="Vector_2" d="M13.2163 17.4566C10.4722 17.5126 8.25372 15.2683 8.23649 12.5328C8.21495 9.79736 10.4076 7.52284 13.1474 7.54007C15.9431 7.55299 18.3684 9.45704 18.4115 12.4122C18.4546 15.4061 16.1068 17.4006 13.212 17.4609L13.2163 17.4566ZM13.1646 10.0084C11.7861 10.0429 10.6575 11.2405 10.7264 12.6017C10.791 13.9415 11.9412 15.0184 13.268 14.984C14.6465 14.9495 15.7751 13.7519 15.7062 12.3907C15.6416 11.0509 14.4914 9.97398 13.1646 10.0084Z" fill="white"/>
</g>
</svg>
