<?xml version="1.0" encoding="UTF-8"?><svg id="Motiv_White" xmlns="http://www.w3.org/2000/svg" viewBox="0 0 32 32"><defs><style>.cls-1{fill:#fff;stroke-width:0px;}</style></defs><path class="cls-1" d="M28,15V5h-2s0,0,0,0h0s0,0,0,0L4.98,14h-2.98v7h5v2h-2.5c-1.38,0-2.5,1.12-2.5,2.5s1.12,2.5,2.5,2.5h14c1.38,0,2.5-1.12,2.5-2.5s-1.12-2.5-2.5-2.5h-4.5v-2h5s7-12.03,7-12.03v6.03h-2v8h2.41l3.59-3.59v-4.41h-2ZM24.31,7.9l-5.31,9.13v-3.02h-8.94l14.25-6.1ZM19,25.5c0,.28-.22.5-.5.5H4.5c-.28,0-.5-.22-.5-.5s.22-.5.5-.5h14c.28,0,.5.22.5.5ZM12,23h-3v-2h3v2ZM17,19H4v-3h13v3ZM28,18.59l-2,2v-3.59h2v1.59Z"/></svg>