<?xml version="1.0" encoding="UTF-8"?><svg id="Motiv_White" xmlns="http://www.w3.org/2000/svg" viewBox="0 0 32 32"><defs><style>.cls-1{fill:#fff;stroke-width:0px;}</style></defs><path class="cls-1" d="M17.04,8.05v-2.05h2.99v-2h-8v2h3.01v2.05c-2,.2-3.83.99-5.31,2.19l-2.23-2.23-1.41,1.41,2.22,2.22c-1.43,1.73-2.29,3.94-2.29,6.36,0,5.51,4.49,10,10,10s10-4.49,10-10c0-5.17-3.95-9.44-8.98-9.95ZM16.03,26c-4.41,0-8-3.59-8-8s3.59-8,8-8,8,3.59,8,8-3.59,8-8,8Z"/><polygon class="cls-1" points="20.84 20.58 15 18.73 15 12 17 12 17 17.27 21.45 18.68 20.84 20.58"/></svg>