<svg width="32" height="33" viewBox="0 0 32 33" fill="none" xmlns="http://www.w3.org/2000/svg">
<path d="M9.72335 16.9535L14.666 21.8961L22.9073 13.6215L21.022 11.7361L14.666 18.1255L11.6087 15.0681L9.72335 16.9535Z" fill="#02884E"/>
<path fill-rule="evenodd" clip-rule="evenodd" d="M2.66602 16.5003C2.66602 9.13626 8.63668 3.16693 15.9993 3.16693C23.3633 3.16693 29.3327 9.13626 29.3327 16.5003C29.3327 23.8629 23.3633 29.8336 15.9993 29.8336C8.63668 29.8336 2.66602 23.8629 2.66602 16.5003ZM5.33268 16.5003C5.33268 22.3816 10.118 27.1669 15.9993 27.1669C21.882 27.1669 26.666 22.3816 26.666 16.5003C26.666 10.6189 21.882 5.8336 15.9993 5.8336C10.118 5.8336 5.33268 10.6189 5.33268 16.5003Z" fill="#02884E"/>
</svg>
