<?xml version="1.0" encoding="utf-8"?>
<!-- Generator: Adobe Illustrator 28.1.0, SVG Export Plug-In . SVG Version: 6.00 Build 0)  -->
<svg version="1.1" id="power_grey" xmlns="http://www.w3.org/2000/svg" xmlns:xlink="http://www.w3.org/1999/xlink" x="0px" y="0px"
	 viewBox="0 0 16 16" style="enable-background:new 0 0 16 16;" xml:space="preserve">
<style type="text/css">
	.st0{fill:#08191F;}
	.st1{clip-path:url(#SVGID_00000107550999628009670940000015191566022270512024_);}
	.st2{fill-rule:evenodd;clip-rule:evenodd;fill:#08191F;}
</style>
<g>
	<path class="st0" d="M12,6c0-2.2-1.8-4-4-4S4,3.8,4,6H3v4h3V9.4V9V8.2V6H5c0-1.7,1.3-3,3-3s3,1.3,3,3h-1v0.2v0.4v0.7v0.5v0.4v1.2
		V10h1c0,1.7-1.3,3-3,3v1c2.2,0,4-1.8,4-4h1V6H12z M5,8.6V9H4V7h0.1H5V8.6z M12,9h-0.1H11V8.6V7.4V7h0.2h0.6H12V9z"/>
</g>
</svg>
