<?xml version="1.0" encoding="UTF-8"?>
<svg id="Ebene_2" data-name="Ebene 2" xmlns="http://www.w3.org/2000/svg" viewBox="0 0 45 45">
  <defs>
    <style>
      .cls-1 {
        fill: #08191f;
        stroke-width: 0px;
      }
    </style>
  </defs>
  <path class="cls-1" d="M15.41,15.76c1.42,0,2.06,1.53,4.02,1.53,1.85,0,3.14-1.33,3.27-3.37h-1.96c-.13.92-.64,1.31-1.38,1.31-1.38,0-2.06-1.53-4.02-1.53s-3.2,1.33-3.31,3.37h1.96c.13-.88.62-1.31,1.42-1.31Z"/>
  <path class="cls-1" d="M6,6v33h33V6H6ZM35.59,8l-27.59,27.59V8h27.59ZM9.41,37l27.59-27.59v27.59H9.41Z"/>
  <path class="cls-1" d="M30.67,29.26c-1.38,0-2.06-1.53-4.02-1.53s-3.2,1.33-3.31,3.37h1.96c.13-.88.62-1.31,1.42-1.31,1.42,0,2.06,1.53,4.02,1.53,1.85,0,3.14-1.33,3.27-3.37h-1.96c-.13.92-.64,1.31-1.38,1.31Z"/>
</svg>