<?xml version="1.0" encoding="UTF-8"?>
<svg id="Motiv" xmlns="http://www.w3.org/2000/svg" viewBox="0 0 32.000011582938896 32.000051920760598">
  <path d="M16,26.000025960380299c-5.513671875,0-10-4.486328125-10-10s4.486328125-10,10-10,10,4.486328125,10,10h2c0-6.6171875-5.3828125-12-12-12s-12,5.3828125-12,12,5.3828125,12,12,12c.880859375,0,1.7783203125-.1044921875,2.6689453125-.3095703125l-.44921875-1.94921875c-.744140625.171875-1.490234375.2587890625-2.2197265625.2587890625Z" fill="#08191f" stroke-width="0"/>
  <polygon points="14.9794921875 8.019557210380299 14.9794921875 16.028346272880299 19.61962890625 19.502467366630299 20.8154296875 17.898219319760756 16.9794921875 15.026393147880299 16.9794921875 8.019557210380299 14.9794921875 8.019557210380299" fill="#08191f" stroke-width="0"/>
  <polygon points="28.943359375 23.553736897880299 27.52734375 22.141627522880299 25.00634765625 24.672389241630299 24.97998046875 19.000025960380299 22.97998046875 19.009791585380299 23.00634765625 24.671412679130299 20.46875 22.143580647880299 19.056640625 23.559596272880299 24.0166015625 28.500025960380299 28.943359375 23.553736897880299" fill="#08191f" stroke-width="0"/>
</svg>