<?xml version="1.0" encoding="UTF-8"?><svg id="Motiv_White" xmlns="http://www.w3.org/2000/svg" viewBox="0 0 32 32"><defs><style>.cls-1{fill:#fff;stroke-width:0px;}</style></defs><polygon class="cls-1" points="17.88 16.7 13.01 14.95 13.01 8.6 15.01 8.6 15.01 13.54 18.56 14.82 17.88 16.7"/><path class="cls-1" d="M16,21.74c-.64.17-1.31.26-2,.26-4.41,0-8-3.59-8-8s3.59-8,8-8,8,3.59,8,8h0s2,0,2,0h0c0-5.51-4.49-10-10-10S4,8.49,4,14s4.49,10,10,10c.68,0,1.35-.07,2-.2v-2.06Z"/><polygon class="cls-1" points="26.54 19.67 24.03 22.19 24.01 15.99 22.01 16 22.03 22.22 19.48 19.67 18.07 21.09 23.03 26.03 27.96 21.08 26.54 19.67"/></svg>