<?xml version="1.0" encoding="UTF-8"?>
<svg id="Motiv" xmlns="http://www.w3.org/2000/svg" viewBox="0 0 32 32">
  <defs>
    <style>
      .cls-1 {
        fill: #08191f;
        stroke-width: 0px;
      }
    </style>
  </defs>
  <polygon class="cls-1" points="8.99 3 8.99 6 10.99 6 10.99 5 26.99 5 26.99 16 16 16 16 18 28.99 18 28.99 3 8.99 3"/>
  <rect class="cls-1" x="15" y="7" width="10" height="2"/>
  <rect class="cls-1" x="17" y="10.99" width="8" height="2"/>
  <polygon class="cls-1" points="5.32 20 3 25.81 3 29 5 29 5 26.19 6.68 22 13.32 22 15 26.19 15 29 17 29 17 25.81 14.68 20 5.32 20"/>
  <path class="cls-1" d="M10,18c2.76,0,5-2.24,5-5s-2.24-5-5-5-5,2.24-5,5,2.24,5,5,5ZM10,10c1.65,0,3,1.35,3,3s-1.35,3-3,3-3-1.35-3-3,1.35-3,3-3Z"/>
</svg>