<?xml version="1.0" encoding="utf-8"?>
<!-- Generator: Adobe Illustrator 28.1.0, SVG Export Plug-In . SVG Version: 6.00 Build 0)  -->
<svg version="1.1" id="Transportation" xmlns="http://www.w3.org/2000/svg" xmlns:xlink="http://www.w3.org/1999/xlink" x="0px"
	 y="0px" viewBox="0 0 32 32" enable-background="new 0 0 32 32" xml:space="preserve">
<g id="Motiv_x5F_White">
	<polygon fill="#FFFFFF" points="8.08,12 9.13,10.23 11.26,10.78 14,8.57 16.74,10.76 18.86,10.23 19.93,12 22.26,12 19.82,7.94 
		17.22,8.58 14,6 10.79,8.59 8.18,7.93 5.75,12 	"/>
	<rect x="7" y="19.94" fill="#FFFFFF" width="2" height="8"/>
	<path fill="#FFFFFF" d="M28.58,13.58L28.58,13.58l-2.83-2.83l-1.41,1.41l1.83,1.83H5.6c-1.99,0-3.61,1.57-3.61,3.5
		s1.62,3.5,3.61,3.5H21v6.95h2v-6.95v-1.05v-0.95H5.6c-0.89,0-1.61-0.67-1.61-1.5s0.72-1.5,1.61-1.5h20.56l-1.83,1.83l1.41,1.41
		l2.83-2.83L30,14.99L28.58,13.58z"/>
</g>
</svg>
