<?xml version="1.0" encoding="UTF-8"?><svg id="Motiv_White" xmlns="http://www.w3.org/2000/svg" viewBox="0 0 32 32"><defs><style>.cls-1{fill:#fff;stroke-width:0px;}</style></defs><path class="cls-1" d="M30,15.8l-2.32-5.81h-5.87l1.2-4.02L2,9.13v7.86h4v2.68c-.91.82-1.5,2-1.5,3.33,0,2.48,2.02,4.5,4.5,4.5s4.5-2.02,4.5-4.5-2.02-4.5-4.5-4.5c-.34,0-.68.05-1,.12v-3.63h-4v-4.14l16.19-2.43-2.08,6.95,1.92.57,1.18-3.95h5.11l1.68,4.19v3.82h-3.17c-.82-.91-2-1.5-3.33-1.5-2.48,0-4.5,2.02-4.5,4.5s2.02,4.5,4.5,4.5,4.5-2.02,4.5-4.5c0-.34-.05-.68-.12-1h4.12v-6.2ZM11.5,23c0,1.38-1.12,2.5-2.5,2.5s-2.5-1.12-2.5-2.5,1.12-2.5,2.5-2.5,2.5,1.12,2.5,2.5ZM21.5,25.5c-1.38,0-2.5-1.12-2.5-2.5s1.12-2.5,2.5-2.5,2.5,1.12,2.5,2.5-1.12,2.5-2.5,2.5Z"/></svg>