<?xml version="1.0" encoding="utf-8"?>
<!-- Generator: Adobe Illustrator 28.1.0, SVG Export Plug-In . SVG Version: 6.00 Build 0)  -->
<svg version="1.1" id="Upgrade" xmlns="http://www.w3.org/2000/svg" xmlns:xlink="http://www.w3.org/1999/xlink" x="0px" y="0px"
	 viewBox="0 0 32 32" enable-background="new 0 0 32 32" xml:space="preserve">
<g id="HG_Power_Grey" display="none">
	<rect display="inline" fill="#08191F" width="32" height="32"/>
</g>
<g>
	<path fill="#FFFFFF" d="M20.69,12.15l-1.84,1.06c-0.5-0.51-1.14-0.87-1.85-1.05v-2.14h-2v2.14c-0.71,0.18-1.35,0.55-1.85,1.06
		l-1.85-1.07l-1,1.73l1.86,1.08C12.07,15.3,12,15.65,12,16.02c0,0.37,0.06,0.71,0.16,1.05l-1.87,1.07l1,1.73l1.85-1.06
		c0.5,0.51,1.14,0.88,1.85,1.07l0,2.14l2,0l0-2.14c0.71-0.18,1.35-0.55,1.85-1.06l1.84,1.06l1-1.73l-1.85-1.07
		c0.1-0.34,0.16-0.69,0.16-1.07c0-0.37-0.07-0.72-0.16-1.07l1.85-1.07L20.69,12.15z M16,18.02c-1.1,0-2-0.9-2-2c0-1.1,0.9-2,2-2
		s2,0.9,2,2C18,17.12,17.1,18.02,16,18.02z"/>
	<path fill="#FFFFFF" d="M27.81,13.82l-1.97,0.36c0.11,0.59,0.16,1.2,0.16,1.81c0,5.54-4.5,10.04-10.03,10.04
		c-2.23,0-4.31-0.72-6.04-2.03h3.08v-2h-6v6H9v-2.18c2.02,1.44,4.42,2.21,6.96,2.21c6.64,0,12.04-5.4,12.04-12.05
		C28,15.26,27.94,14.53,27.81,13.82z"/>
	<path fill="#FFFFFF" d="M16.01,6c2.17,0,4.28,0.72,6,2H19v2h6V4h-2v2.24C20.97,4.8,18.52,4,16.01,4C9.37,4,3.97,9.4,3.96,16.04
		c0,0.75,0.07,1.5,0.21,2.23l1.97-0.36c-0.11-0.61-0.17-1.24-0.17-1.86C5.97,10.51,10.47,6,16.01,6z"/>
</g>
</svg>
