<?xml version="1.0" encoding="utf-8"?>
<!-- Generator: Adobe Illustrator 28.1.0, SVG Export Plug-In . SVG Version: 6.00 Build 0)  -->
<svg version="1.1" id="power_grey" xmlns="http://www.w3.org/2000/svg" xmlns:xlink="http://www.w3.org/1999/xlink" x="0px" y="0px"
	 viewBox="0 0 16 16" style="enable-background:new 0 0 16 16;" xml:space="preserve">
<style type="text/css">
	.st0{fill:#08191F;}
	.st1{clip-path:url(#SVGID_00000183968259902009574500000001356679876006079624_);}
	.st2{fill-rule:evenodd;clip-rule:evenodd;fill:#08191F;}
</style>
<g>
	<path class="st0" d="M11,9h-1H6H5l-1,2v3h8v-3L11,9z M5,13v-2l0.5-1h5l0.5,1v2H5z"/>
	<path class="st0" d="M8,8c1.7,0,3-1.3,3-3S9.7,2,8,2S5,3.3,5,5S6.3,8,8,8z M8,3c1.1,0,2,0.9,2,2S9.1,7,8,7S6,6.1,6,5S6.9,3,8,3z"/>
</g>
</svg>
