<svg width="32" height="32" viewBox="0 0 32 32" fill="none" xmlns="http://www.w3.org/2000/svg">
<path d="M17.3333 9.33332V17.3333H14.6666V9.33332H17.3333Z" fill="#FC7703"/>
<path d="M16 23.3333C17.1045 23.3333 18 22.4379 18 21.3333C18 20.2288 17.1045 19.3333 16 19.3333C14.8954 19.3333 14 20.2288 14 21.3333C14 22.4379 14.8954 23.3333 16 23.3333Z" fill="#FC7703"/>
<path fill-rule="evenodd" clip-rule="evenodd" d="M2.66663 16C2.66663 8.63619 8.63616 2.66666 16 2.66666C19.5362 2.66666 22.9276 4.07141 25.4281 6.5719C27.9285 9.07238 29.3333 12.4638 29.3333 16C29.3333 23.3638 23.3638 29.3333 16 29.3333C8.63616 29.3333 2.66663 23.3638 2.66663 16ZM5.33329 16C5.33329 21.891 10.1089 26.6667 16 26.6667C18.8289 26.6667 21.542 25.5429 23.5424 23.5425C25.5428 21.5421 26.6666 18.829 26.6666 16C26.6666 10.109 21.891 5.33332 16 5.33332C10.1089 5.33332 5.33329 10.109 5.33329 16Z" fill="#FC7703"/>
</svg>
