<?xml version="1.0" encoding="UTF-8"?>
<svg id="Motiv" xmlns="http://www.w3.org/2000/svg" viewBox="0 0 32 32.000000000003638">
  <path d="M16.005859375,9c1.9296875,0,3.5-1.5703125,3.5-3.5s-1.5703125-3.5-3.5-3.5-3.5,1.5703125-3.5,3.5,1.5703125,3.5,3.5,3.5ZM16.005859375,4c.8271484375,0,1.5.6728515625,1.5,1.5s-.6728515625,1.5-1.5,1.5-1.5-.6728515625-1.5-1.5.6728515625-1.5,1.5-1.5Z" fill="#08191f" stroke-width="0"/>
  <polygon points="18.982421875 9.9833984375 12.9970703125 9.9833984375 11 13 11 24 13 24 13 30 15 30 15 22 13 22 13 13.5771484375 14.0634765625 11.9833984375 17.923828125 11.9833984375 19 13.576171875 19 22 17 22 17 30 19 30 19 24 21 24 21 13 18.982421875 9.9833984375" fill="#08191f" stroke-width="0"/>
</svg>