<?xml version="1.0" encoding="UTF-8"?><svg id="Motiv_White" xmlns="http://www.w3.org/2000/svg" viewBox="0 0 32 32"><defs><style>.cls-1{fill:#fff;stroke-width:0px;}</style></defs><g id="Umrichter"><polygon class="cls-1" points="12 25 3 25 3 3 15 3 15 12 13 12 13 5 5 5 5 23 12 23 12 25"/><rect class="cls-1" x="7" y="7" width="4" height="2"/></g><path class="cls-1" d="M21.5,22.5c-1.65,0-3-1.35-3-3s1.35-3,3-3,3,1.35,3,3-1.35,3-3,3ZM21.5,18.5c-.55,0-1,.45-1,1s.45,1,1,1,1-.45,1-1-.45-1-1-1Z"/><path class="cls-1" d="M14.38,28h2.24l1.04-2.07c1.13.68,2.44,1.07,3.85,1.07s2.72-.4,3.85-1.08l1.04,2.08h2.24l-1.68-3.36c1.27-1.34,2.06-3.15,2.06-5.14,0-2.87-1.62-5.37-4-6.63v-3.87h-7v3.87c-2.38,1.26-4,3.76-4,6.63,0,1.99.79,3.8,2.06,5.15l-1.68,3.35ZM20,11h3v1.15c-.48-.1-.99-.15-1.5-.15s-1.02.05-1.5.15v-1.15ZM16,19.5c0-3.03,2.47-5.5,5.5-5.5s5.5,2.47,5.5,5.5-2.47,5.5-5.5,5.5-5.5-2.47-5.5-5.5Z"/></svg>