<?xml version="1.0" encoding="UTF-8"?>
<svg id="Motiv" xmlns="http://www.w3.org/2000/svg" viewBox="0 0 32.000018313818146 32.000015187981262">
  <polygon points="14.999572263008304 12.000033614069253 14.999572263008304 3.000033614069253 2.999572263008304 3.000033614069253 2.999572263008304 25.000033614069253 11.999572263008304 25.000033614069253 11.999572263008304 23.000033614069253 4.999572263008304 23.000033614069253 4.999572263008304 5.000033614069253 12.999572263008304 5.000033614069253 12.999572263008304 12.000033614069253 14.999572263008304 12.000033614069253" fill="#08191f" stroke-width="0"/>
  <rect x="6.999572263008304" y="7.000033614069253" width="4" height="2" fill="#08191f" stroke-width="0"/>
  <path d="M21.500060544258304,16.499972578913003c-1.654296875,0-3,1.345703125-3,3s1.345703125,3,3,3,3-1.345703125,3-3-1.345703125-3-3-3ZM21.500060544258304,20.499972578913003c-.5517578125,0-1-.4482421875-1-1s.4482421875-1,1-1,1,.4482421875,1,1-.4482421875,1-1,1Z" fill="#08191f" stroke-width="0"/>
  <path d="M29.000060544258304,19.499972578913003c0-2.87176513671875-1.623779296869543-5.3685302734375-4-6.6282958984375v-3.8717041015625h-7v3.8717041015625c-2.376220703119543,1.259765625-4,3.75653076171875-4,6.6282958984375,0,1.99273681640625.7861328125,3.801513671875,2.058349609380457,5.14599609375l-1.68115234375,3.35400390625h2.236328125l1.03955078125-2.07366943359375c1.12646484375.67694091796875,2.439453125,1.07366943359375,3.846923828119543,1.07366943359375,1.408447265630457,0,2.722900390630457-.3974609375,3.849853515630457-1.07550048828125l1.04052734375,2.07550048828125h2.236328125l-1.6826171875-3.35675048828125c1.2705078125-1.34423828125,2.055908203119543-3.15185546875,2.055908203119543-5.14324951171875ZM20.000060544258304,10.999972578913003h3v1.15118408203125c-.48486328125-.09881591796875-.986328125-.15118408203125-1.5-.15118408203125s-1.01513671875.0523681640625-1.5.15118408203125v-1.15118408203125ZM21.500060544258304,24.999972578913003c-3.0322265625,0-5.5-2.4677734375-5.5-5.5s2.4677734375-5.5,5.5-5.5,5.5,2.4677734375,5.5,5.5-2.4677734375,5.5-5.5,5.5Z" fill="#08191f" stroke-width="0"/>
</svg>