<?xml version="1.0" encoding="UTF-8"?>
<svg id="Motiv" xmlns="http://www.w3.org/2000/svg" viewBox="0 0 32 32">
  <defs>
    <style>
      .cls-1 {
        fill: #08191f;
        stroke-width: 0px;
      }
    </style>
  </defs>
  <path class="cls-1" d="M20.38,4.83c.56.87,1.03,1.9,1.41,3.04,2.55,1.81,4.21,4.77,4.21,8.13s-1.67,6.31-4.21,8.13c-.38,1.13-.84,2.16-1.39,3.02,4.45-1.75,7.61-6.07,7.61-11.15s-3.16-9.43-7.62-11.17Z"/>
  <path class="cls-1" d="M16.04,4s-.03,0-.04,0c0,0,0,0,0,0-6.63,0-12,5.37-12,12s5.37,12,12,12h0c2.76,0,5-5.37,5-12s-2.22-11.94-4.96-12ZM13,16c0-.93.05-1.8.13-2.6h5.74c.08.81.13,1.67.13,2.6s-.05,1.85-.14,2.68h-5.73c-.08-.83-.14-1.71-.14-2.68ZM16,6h0c.56,0,1.9,1.85,2.58,5.4h-5.17c.68-3.55,2.02-5.4,2.59-5.4ZM18.57,20.68c-.69,3.5-2.01,5.32-2.57,5.32-.56,0-1.88-1.82-2.57-5.32h5.14ZM12.97,6.47c-.69,1.27-1.25,2.96-1.59,4.93h-4.25c1.21-2.32,3.3-4.12,5.84-4.93ZM6.36,13.4h4.77c-.08.84-.12,1.71-.12,2.6s.05,1.81.13,2.68h-4.75c-.24-.85-.37-1.75-.37-2.68s.13-1.77.36-2.6ZM7.17,20.68h4.23c.34,1.93.89,3.59,1.57,4.85-2.51-.8-4.58-2.56-5.8-4.85Z"/>
</svg>