<?xml version="1.0" encoding="utf-8"?>
<!-- Generator: Adobe Illustrator 28.1.0, SVG Export Plug-In . SVG Version: 6.00 Build 0)  -->
<svg version="1.1" id="power_grey" xmlns="http://www.w3.org/2000/svg" xmlns:xlink="http://www.w3.org/1999/xlink" x="0px" y="0px"
	 viewBox="0 0 16 16" style="enable-background:new 0 0 16 16;" xml:space="preserve">
<style type="text/css">
	.st0{fill:#08191F;}
	.st1{clip-path:url(#SVGID_00000047033006479843793360000010915956475307174825_);}
	.st2{fill-rule:evenodd;clip-rule:evenodd;fill:#08191F;}
</style>
<path class="st0" d="M13.7,5.1c-0.1-0.5-0.5-0.9-1.1-1.1C11.8,3.8,8,3.8,8,3.8s-3.8,0-4.7,0.3C2.8,4.2,2.4,4.6,2.3,5.1C2,6,2,8,2,8
	s0,2,0.3,2.9c0.1,0.5,0.5,0.9,1.1,1.1C4.2,12.2,8,12.2,8,12.2s3.8,0,4.7-0.3c0.5-0.1,0.9-0.5,1.1-1.1C14,10,14,8,14,8S14,6,13.7,5.1
	z M6.8,9.8V6.2L9.9,8L6.8,9.8z"/>
</svg>
