<svg width="250" height="55" viewBox="0 0 250 55" fill="none" xmlns="http://www.w3.org/2000/svg">
<g clip-path="url(#clip0_8_7469)">
<path d="M10.25 53.75H0.875V0.875H10.25V53.75ZM23.5 0.875L30 27.9222V0.875H38.375V53.75H30.375L23 24.75V53.75H14.625V0.875H23.5ZM51.5 0.875L58 27.9222V0.875H66.375V53.75H58.375L51 24.75V53.75H42.625V0.875H51.5ZM115.125 28.25L119.375 0.875H130V53.75H121.375V20L116.375 53.75H112.875L107.75 20V53.75H99.5V0.875H110.875L115.125 28.25ZM182.5 0.875V10.25H176V53.75H166.625V10.25H160.125V0.875H182.5ZM194.25 53.75H184.875V0.875H194.25V53.75ZM222.5 11.875C222.5 5.82842 220.605 0.25 211.5 0.25H209.5C201.177 0.25 198.375 5.84803 198.375 12.25V42C198.375 48.6152 200.52 54.5 209.625 54.5H211.25C219.573 54.5 222.5 48.5098 222.5 42.25V30.5H213V45.125H208.25V9.25H213V20.875H222.5V11.875ZM243.423 25.9179L238.017 19.8714C235.67 17.239 235.125 15.4902 235.125 13V8.375H239.25V17.75H248.375V10.625C248.375 3.51102 245.523 0.25 238.125 0.25H236.25C229.634 0.25 225.5 3.92156 225.5 10.75V13.625C225.5 18.7463 226.564 22.8591 230.548 27.1269L236.025 33.1735C238.871 36.2323 239.125 37.6759 239.125 41.375V45.625H234.375V34.25H225V43.5453C225 50.6587 228.566 54.5 235.75 54.5H237.625C245.521 54.5 249.125 49.3425 249.125 41.375V39.5C249.125 34.8756 248.189 31.3236 243.423 25.9179ZM84.125 0.25H82C73.8193 0.25 70.5 5.56984 70.5 13.75V41.625C70.5 49.9479 74.5306 54.5 82 54.5H84.125C91.2384 54.5 95.375 49.3793 95.375 41.625V13.75C95.375 5.64091 92.4473 0.25 84.125 0.25ZM85.5 45H80.5V9.5H85.5V45ZM147.625 0.25H145.5C137.319 0.25 134 5.56984 134 13.75V41.625C134 49.9479 138.031 54.5 145.5 54.5H147.625C154.738 54.5 158.875 49.3793 158.875 41.625V13.75C158.875 5.64091 155.947 0.25 147.625 0.25ZM149 45H144V9.5H149V45Z" fill="#08191F"/>
</g>
<defs>
<clipPath id="clip0_8_7469">
<rect width="250" height="54.25" fill="white" transform="translate(0 0.25)"/>
</clipPath>
</defs>
</svg>
