<?xml version="1.0" encoding="UTF-8"?>
<svg xmlns="http://www.w3.org/2000/svg" viewBox="0 0 32 32">
  <defs>
    <style>
      .cls-1 {
        fill: #e1f000;
      }

      .cls-1, .cls-2, .cls-3 {
        stroke-width: 0px;
      }

      .cls-2 {
        fill: #08191f;
      }

      .cls-3 {
        fill: #fff;
      }
    </style>
  </defs>
  <g id="HG">
    <rect class="cls-2" x="0" y="0" width="32" height="32"/>
  </g>
  <g id="White_Lime" data-name="White&amp;amp;Lime">
    <path class="cls-3" d="M26,12c0-5.51-4.49-10-10-10S6,6.49,6,12h-2v8h6v-8h-2c0-4.41,3.59-8,8-8s8,3.59,8,8h-2v8h6v-8h-2ZM8,18h-2v-4h2v4ZM26,18h-2v-4h2v4Z"/>
    <g>
      <path class="cls-1" d="M3.94,27.78l2.5-2.08c.69-.58,1.04-1.04,1.04-1.52,0-.56-.39-.92-.96-.92-.7,0-1.1.53-1.03,1.39h-1.58c-.08-1.55,1.04-2.75,2.62-2.75s2.56.94,2.56,2.28c0,.95-.58,1.77-1.76,2.59l-1.08.88h2.86v1.35H3.94v-1.22Z"/>
      <path class="cls-1" d="M13.09,27.65h-3.45v-1.21l3.36-4.45h1.68v4.32h.83v1.34h-.83v1.35h-1.59v-1.35ZM13.09,26.3v-2.39l-1.84,2.39h1.84Z"/>
      <path class="cls-1" d="M20.11,21.98h1.53l-3.16,7.02h-1.52l3.15-7.02Z"/>
      <path class="cls-1" d="M26.41,23.34h-3.5v-1.35h5.14v1.35c-1.61,2.12-2.69,4.19-2.81,5.66h-1.58c.22-1.71,1.23-3.78,2.75-5.66Z"/>
    </g>
  </g>
</svg>