<?xml version="1.0" encoding="UTF-8"?>
<svg xmlns="http://www.w3.org/2000/svg" viewBox="0 0 32 32">
  <defs>
    <style>
      .cls-1 {
        fill: #e1f000;
      }

      .cls-1, .cls-2, .cls-3 {
        stroke-width: 0px;
      }

      .cls-2 {
        fill: #08191f;
      }

      .cls-3 {
        fill: #fff;
      }
    </style>
  </defs>
  <g id="HG">
    <rect class="cls-2" x="0" y="0" width="32" height="32"/>
  </g>
  <g id="White_and_lime" data-name="White and lime">
    <path class="cls-3" d="M28.23,11h-8.74s.19-1.3.19-1.3c.2-1.43-.23-2.88-1.17-3.98-.95-1.09-2.33-1.72-3.77-1.72h-.74l-2.46,8-.53,1.53v.47h0v12h-5.96v2h7.96v-1.99h11.69l3.54-15.02ZM13,24.01v-10.01h0l2.44-7.91c.6.15,1.14.47,1.55.95.57.66.83,1.53.71,2.39l-.51,3.59h8.51s-2.59,11-2.59,11h-10.1Z"/>
    <rect class="cls-1" x="4.04" y="13" width="5.96" height="2"/>
  </g>
</svg>