<?xml version="1.0" encoding="UTF-8"?>
<svg xmlns="http://www.w3.org/2000/svg" viewBox="0 0 32 32">
  <defs>
    <style>
      .cls-1 {
        fill: #e1f000;
      }

      .cls-1, .cls-2, .cls-3 {
        stroke-width: 0px;
      }

      .cls-2 {
        fill: #08191f;
      }

      .cls-3 {
        fill: #fff;
      }
    </style>
  </defs>
  <g id="HG">
    <rect class="cls-2" x="0" y="0" width="32" height="32"/>
  </g>
  <g id="Icon_mix" data-name="Icon mix">
    <path class="cls-3" d="M15.77,15.61c.5,0,.95.31,1.03.74h2.2c-.13-1.24-.88-2.13-2.03-2.48v-1.09h-1.96v1c-1.21.26-2.14,1.16-2.14,2.37,0,3,3.86,2.27,3.86,3.28,0,.38-.33.55-.78.55-.77,0-1.14-.43-1.26-1.06h-2.2c.15,1.5,1.03,2.57,2.52,2.88v.97h1.96s0-1.01,0-1.01c1.21-.32,2.03-1.22,2.03-2.48,0-3.11-3.86-2.33-3.86-3.25,0-.26.24-.42.63-.42Z"/>
    <path class="cls-3" d="M20,23.79H6v-12h20v9h2v-11h-7v-2.01c0-1.1-.89-1.99-1.99-1.99h-6.03c-1.1,0-1.99.89-1.99,1.99v2.01H4v16h16v-2ZM19,7.79v2h-6v-2s6,0,6,0Z"/>
    <polygon class="cls-1" points="29 23.79 27.59 22.37 25.29 24.67 23 22.37 21.59 23.79 23.88 26.08 21.59 28.37 23 29.79 25.29 27.5 27.59 29.79 29 28.37 26.71 26.08 29 23.79"/>
  </g>
</svg>