<?xml version="1.0" encoding="UTF-8"?>
<svg xmlns="http://www.w3.org/2000/svg" viewBox="0 0 32.000014579462004 32.000028192767786">
  <g id="HG">
    <rect x=".000006351881893" y=".00001755741323" width="32" height="31.99996837683284" fill="#08191f" stroke-width="0"/>
  </g>
  <g id="White_and_lime" data-name="White and lime">
    <path d="M14.000981464399956,20.998069839050004c0-.36907958984375-.06640625-.7197265625-.160400390608629-1.05926513671875l1.857666015608629-1.07159423828125-1-1.732421875-1.84619140625,1.06494140625c-.500244140608629-.50970458984375-1.13916015625-.87469482421875-1.85107421875-1.0596923828125v-2.1419677734375h-1.999999999989086v2.1419677734375c-.70849609375.18414306640625-1.345458984369543.5457763671875-1.844604492189319,1.0517578125l-1.843872070310681-1.0697021484375-1.00390625,1.73046875,1.855712890630457,1.07659912109375c-.095703125.34246826171875-.163330078130457.6962890625-.163330078130457,1.06890869140625,0,.36773681640625.06591796875.71710205078125.1591796875,1.0555419921875l-1.8583984375,1.0684814453125.99609375,1.734375,1.849365234380457-1.063232421875c.49951171875.50994873046875,1.137451171869543.87542724609375,1.848754882799767,1.061279296875l-.002807617180224,2.1435546875,1.999999999989086.001953125.002807617191138-2.14239501953125c.712036132808862-.1839599609375,1.351440429700233-.54791259765625,1.852416992200233-1.056640625l1.844970703108629,1.06719970703125,1.001953125-1.73046875-1.856689453108629-1.073974609375c.095092773430224-.34149169921875.162353515608629-.6942138671875.162353515608629-1.065673828125ZM10.00098146441087,22.998069839050004c-1.1025390625,0-2-.8974609375-2-2s.8974609375-2,2-2c1.102539062489086,0,1.999999999989086.8974609375,1.999999999989086,2s-.8974609375,2-1.999999999989086,2Z" fill="#e1f000" stroke-width="0"/>
    <polygon points="17.004582394121826 4.998046875 17.004582394121826 7.001953125 20.588566769121826 7.001953125 14.797551144121826 12.79296875 16.211613644121826 14.20703125 22.002629269121826 8.416015625 22.002629269121826 12 24.006535519121826 12 24.006535519121826 4.998046875 17.004582394121826 4.998046875" fill="#fff" stroke-width="0"/>
    <rect x="25.000676144121826" y="14" width="1.998046875" height="13" fill="#fff" stroke-width="0"/>
    <rect x="21.000676144121826" y="19" width="1.998046875" height="8" fill="#fff" stroke-width="0"/>
    <rect x="17.001652706621826" y="23" width="1.99609375" height="4" fill="#fff" stroke-width="0"/>
  </g>
</svg>