<?xml version="1.0" encoding="UTF-8"?>
<svg xmlns="http://www.w3.org/2000/svg" viewBox="0 0 32 32">
  <defs>
    <style>
      .cls-1 {
        fill: #e1f000;
      }

      .cls-1, .cls-2, .cls-3 {
        stroke-width: 0px;
      }

      .cls-2 {
        fill: #08191f;
      }

      .cls-3 {
        fill: #fff;
      }
    </style>
  </defs>
  <g id="HG">
    <rect class="cls-2" x="0" y="0" width="32" height="32"/>
  </g>
  <g id="White_and_lime" data-name="White and lime">
    <g>
      <path class="cls-3" d="M30,14.28l-6.39-2.13-3.11-4.15H6.52L2,13.65v8.35h3.18c.41,1.16,1.51,2,2.82,2,1.65,0,3-1.35,3-3s-1.35-3-3-3c-1.3,0-2.4.84-2.82,2h-1.18v-5.65l3.48-4.35h12.02l2.89,3.85,5.61,1.87v4.28h-1.18c-.41-1.16-1.51-2-2.82-2-1.65,0-3,1.35-3,3s1.35,3,3,3c1.3,0,2.4-.84,2.82-2h3.18v-7.72ZM8,20c.55,0,1,.45,1,1s-.45,1-1,1-1-.45-1-1,.45-1,1-1ZM24,22c-.55,0-1-.45-1-1s.45-1,1-1,1,.45,1,1-.45,1-1,1Z"/>
      <rect class="cls-1" x="13" y="20" width="6" height="2"/>
    </g>
  </g>
</svg>