<?xml version="1.0" encoding="UTF-8"?>
<svg xmlns="http://www.w3.org/2000/svg" viewBox="0 0 32 32">
  <defs>
    <style>
      .cls-1 {
        fill: #e1f000;
      }

      .cls-1, .cls-2, .cls-3 {
        stroke-width: 0px;
      }

      .cls-2 {
        fill: #08191f;
      }

      .cls-3 {
        fill: #fff;
      }
    </style>
  </defs>
  <g id="HG">
    <rect class="cls-2" x="0" y="0" width="32" height="32"/>
  </g>
  <g id="White_and_lime" data-name="White and lime">
    <g>
      <polygon class="cls-3" points="6 21.03 15 21.03 15 26.02 10 26.02 10 28.02 22 28.02 22 26.02 17 26.02 17 21.03 26 21.03 26 19.03 6 19.03 6 21.03"/>
      <polygon class="cls-3" points="2 4.03 2 21.03 4 21.03 4 6.03 28 6.03 28 21.03 30 21.03 30 4.03 2 4.03"/>
    </g>
    <path class="cls-1" d="M26.03,17.01H5.97l4.58-7.66,2.44.62,3-2.42,3.02,2.41,2.44-.6,4.58,7.65ZM9.5,15.01h13l-2.01-3.35-1.96.48-2.53-2.02-2.53,2.04-1.97-.5-2,3.35Z"/>
  </g>
</svg>