<?xml version="1.0" encoding="UTF-8"?>
<svg xmlns="http://www.w3.org/2000/svg" viewBox="0 0 32 32">
  <defs>
    <style>
      .cls-1 {
        fill: #e1f000;
      }

      .cls-1, .cls-2, .cls-3 {
        stroke-width: 0px;
      }

      .cls-2 {
        fill: #08191f;
      }

      .cls-3 {
        fill: #fff;
      }
    </style>
  </defs>
  <g id="HG_PG" data-name="HG PG">
    <rect class="cls-2" x="0" y="0" width="32" height="32"/>
  </g>
  <g id="Motiv_Mix">
    <path class="cls-1" d="M23.37,23.22l-1.47-1.47c-.4.16-.82.25-1.27.25h0s0,0,0,0h0s-2.62,0-2.62,0v2h2.62s0,0,0,0c.48,0,.93-.08,1.38-.2h0c.49-.13.94-.33,1.37-.58Z"/>
    <path class="cls-3" d="M20.62,13h-10.8l2.54-2.54-1.41-1.41-4.95,4.95,4.95,4.95,1.41-1.41-2.54-2.54h10.8c1.93,0,3.5,1.57,3.5,3.5,0,.76-.25,1.47-.67,2.04l1.42,1.42c.78-.94,1.25-2.14,1.25-3.46,0-3.03-2.47-5.5-5.5-5.5Z"/>
  </g>
</svg>