<?xml version="1.0" encoding="UTF-8"?>
<svg xmlns="http://www.w3.org/2000/svg" viewBox="0 0 32 32">
  <defs>
    <style>
      .cls-1 {
        fill: #e1f000;
      }

      .cls-1, .cls-2, .cls-3 {
        stroke-width: 0px;
      }

      .cls-2 {
        fill: #08191f;
      }

      .cls-3 {
        fill: #fff;
      }
    </style>
  </defs>
  <g id="HG">
    <rect class="cls-2" x="0" width="32" height="32"/>
  </g>
  <g id="Icon_mix">
    <g>
      <path class="cls-1" d="M23.97,21h-15.95l-1.04,9h18.03l-1.04-9ZM20,28v-3h-2v3h-8.77l.58-5h12.38l.58,5h-2.77Z"/>
      <path class="cls-3" d="M24,14h-3.01c-1.1,0-1.99-.89-1.99-1.99s.53-5.82.81-7.72c.09-.58-.08-1.16-.46-1.6-.38-.44-.93-.7-1.52-.7h-3.67c-.58,0-1.14.25-1.52.7-.38.44-.55,1.02-.46,1.6.29,1.95.81,6.59.81,7.72s-.89,1.99-1.99,1.99h-3.01v6h16v-6ZM22,18h-12v-2h1.01c2.2,0,3.99-1.79,3.99-3.99,0-1.31-.56-6.18-.83-8.01h3.67c-.28,1.84-.84,6.71-.84,8.01,0,2.2,1.79,3.99,3.99,3.99h1.01v2Z"/>
    </g>
  </g>
</svg>