<?xml version="1.0" encoding="UTF-8"?>
<svg xmlns="http://www.w3.org/2000/svg" viewBox="0 0 32.000039243459469 32.000019480530682">
  <g id="HG">
    <rect x=".000006351889169" y=".000017557409592" width="32" height="31.999968376840116" fill="#08191f" stroke-width="0"/>
  </g>
  <g id="White_and_lime" data-name="White and lime">
    <path d="M14.000019621729734,3H4.000019621729734v2h1v14c0,2.2060546875,1.7939453125,4,4,4s4-1.7939453125,4-4V5h1v-2ZM9.000019621729734,21c-1.1025390625,0-2-.8974609375-2-2v-8h4v8c0,1.1025390625-.8974609375,2-2,2ZM11.000019621729734,9h-4v-4h4v4Z" fill="#e1f000" stroke-width="0"/>
    <g>
      <rect x="15.000019621729734" y="9" width="10" height="2" fill="#fff" stroke-width="0"/>
      <path d="M27.754902434229734,25.701171875l-4.7548828125-9.8994140625v-3.8017578125h-2v4.2568359375l2.2783203125,4.7431640625h-6.57470703125l2.26708984375-4.744140625v-4.255859375h-2v3.802734375l-4.732421875,9.90234375c-.3427734375.7177734375-.2939453125,1.5478515625.1298828125,2.220703125s1.15234375,1.07421875,1.947265625,1.07421875h11.3642578125c.7958984375,0,1.5244140625-.40234375,1.9482421875-1.076171875.4248046875-.673828125.4716796875-1.5048828125.126953125-2.22265625ZM25.935566496729734,26.8583984375c-.033203125.052734375-.1103515625.1416015625-.255859375.1416015625h-11.3642578125c-.1455078125,0-.22265625-.087890625-.255859375-.140625s-.0791015625-.1611328125-.0166015625-.2919921875l1.704833984380457-3.5673828125h8.4912109375l1.713134765619543,3.56640625c.0625.130859375.0166015625.2392578125-.0166015625.2919921875Z" fill="#fff" stroke-width="0"/>
    </g>
  </g>
</svg>