<?xml version="1.0" encoding="UTF-8"?>
<svg xmlns="http://www.w3.org/2000/svg" viewBox="0 0 32 32">
  <defs>
    <style>
      .cls-1 {
        fill: #e1f000;
      }

      .cls-1, .cls-2, .cls-3 {
        stroke-width: 0px;
      }

      .cls-2 {
        fill: #08191f;
      }

      .cls-3 {
        fill: #fff;
      }
    </style>
  </defs>
  <g id="HG">
    <rect class="cls-2" width="32" height="32"/>
  </g>
  <g id="Icon_mix">
    <g>
      <path class="cls-3" d="M7.68,21.5h-2.31c2,3.85,6.01,6.49,10.63,6.5v-2c-3.47,0-6.54-1.8-8.32-4.5Z"/>
      <path class="cls-3" d="M16,6c5.51,0,10,4.49,10,10h2c0-6.62-5.38-12-12-12-4.63,0-8.65,2.64-10.65,6.5h2.31c1.79-2.71,4.86-4.5,8.34-4.5Z"/>
      <polygon class="cls-3" points="27.53 22.14 25.01 24.67 24.98 19 22.98 19.01 23.01 24.67 20.47 22.14 19.06 23.56 24.02 28.5 28.94 23.55 27.53 22.14"/>
      <path class="cls-1" d="M9.79,16.85h-1.98c-.11.64-.62,1.04-1.25,1.04-.88,0-1.63-.64-1.63-1.91s.74-1.91,1.63-1.91c.66,0,1.16.44,1.23,1.07h1.98c-.11-1.61-1.42-2.73-3.2-2.73-2,0-3.6,1.26-3.6,3.57s1.66,3.57,3.6,3.57,3.07-1.15,3.22-2.71Z"/>
      <path class="cls-1" d="M13.88,12.41c-2.12,0-3.7,1.52-3.7,3.57s1.59,3.57,3.7,3.57,3.67-1.52,3.67-3.57-1.58-3.57-3.67-3.57ZM13.88,17.89c-1.02,0-1.73-.82-1.73-1.91s.71-1.91,1.73-1.91,1.7.82,1.7,1.91-.71,1.91-1.7,1.91Z"/>
      <path class="cls-1" d="M19.19,17.6l-1.08.88v.92h2.92v-1.04h-1.21l.23-.13c.72-.41.98-.85.98-1.39,0-.77-.6-1.33-1.52-1.33s-1.59.72-1.52,1.58h1.17c-.03-.37.14-.54.35-.54s.3.12.3.29c0,.26-.27.47-.63.76Z"/>
    </g>
  </g>
</svg>