<?xml version="1.0" encoding="UTF-8"?>
<svg id="Ebene_1" data-name="Ebene 1" xmlns="http://www.w3.org/2000/svg" version="1.1" viewBox="0 0 32 32">
  <defs>
    <style>
      .cls-1 {
        fill: #08191f;
      }

      .cls-1, .cls-2, .cls-3 {
        stroke-width: 0px;
      }

      .cls-2 {
        fill: #e1f000;
      }

      .cls-3 {
        fill: #fff;
      }
    </style>
  </defs>
  <g id="HG">
    <rect class="cls-1" x="0" y="0" width="32" height="32"/>
  </g>
  <g id="White_and_lime" data-name="White and lime">
    <g>
      <polygon class="cls-2" points="15.5 16.2 13.3 14 11.9 15.4 15.5 19 20.2 14.3 18.8 12.9 15.5 16.2"/>
      <path class="cls-3" d="M25,16c0-.2,0-.4,0-.6l3.4-2-4-6.9-3.4,2c-.3-.2-.6-.4-1-.6v-3.9h-8v3.9c-.3.2-.7.4-1,.6l-3.4-2-4,6.9,3.4,2c0,.2,0,.4,0,.6s0,.4,0,.6l-3.4,2,4,6.9,3.4-2c.3.2.6.4,1,.6v3.9h8v-3.9c.3-.2.7-.4,1-.6l3.4,2,4-6.9-3.4-2c0-.2,0-.4,0-.6ZM25.7,19.3l-2,3.5-2.8-1.6-.5.4c-.5.4-1.1.7-1.7,1l-.6.3v3.3h-4v-3.3l-.6-.3c-.6-.2-1.2-.6-1.7-1l-.5-.4-2.8,1.6-2-3.5,2.8-1.6v-.7c-.1-.3-.2-.6-.2-1s0-.7,0-1v-.7c0,0-2.7-1.6-2.7-1.6l2-3.5,2.8,1.6.5-.4c.5-.4,1.1-.7,1.7-1l.6-.3v-3.3h4v3.3l.6.3c.6.2,1.2.6,1.7,1l.5.4,2.8-1.6,2,3.5-2.8,1.6v.7c.1.3.2.6.2,1s0,.7,0,1v.7c0,0,2.7,1.6,2.7,1.6Z"/>
    </g>
  </g>
</svg>