<?xml version="1.0" encoding="UTF-8"?>
<svg xmlns="http://www.w3.org/2000/svg" viewBox="0 0 32 32">
  <defs>
    <style>
      .cls-1 {
        fill: #e1f000;
      }

      .cls-1, .cls-2, .cls-3 {
        stroke-width: 0px;
      }

      .cls-2 {
        fill: #08191f;
      }

      .cls-3 {
        fill: #fff;
      }
    </style>
  </defs>
  <g id="HG">
    <rect class="cls-2" x="0" y="0" width="32" height="32"/>
  </g>
  <g id="White_and_lime" data-name="White and lime">
    <polygon class="cls-1" points="13.07 10.03 14.13 8.26 16.26 8.8 19 6.59 21.74 8.78 23.86 8.26 24.92 10.03 27.26 10.03 24.82 5.96 22.22 6.6 18.99 4.02 15.78 6.62 13.18 5.95 10.74 10.03 13.07 10.03"/>
    <g>
      <rect class="cls-3" x="3" y="11" width="4" height="2"/>
      <path class="cls-3" d="M10,13h16.08l-2.3,6h2.14l3.06-8H8v6.25h0v6.83c0,.68.34,1.3.91,1.66.32.21.69.31,1.05.31.29,0,.57-.06.84-.19l6.24-4.49,1.95.75v-2.14l-9-3.48v-3.5ZM14.82,20.51l-4.82,3.49v-5.35l4.82,1.86Z"/>
      <path class="cls-3" d="M24,20c-2.21,0-4,1.79-4,4s1.79,4,4,4,4-1.79,4-4-1.79-4-4-4ZM24,26c-1.1,0-2-.9-2-2s.9-2,2-2,2,.9,2,2-.9,2-2,2Z"/>
    </g>
  </g>
</svg>