<?xml version="1.0" encoding="UTF-8"?>
<svg xmlns="http://www.w3.org/2000/svg" viewBox="0 0 32 32">
  <defs>
    <style>
      .cls-1 {
        fill: #e1f000;
      }

      .cls-1, .cls-2, .cls-3 {
        stroke-width: 0px;
      }

      .cls-2 {
        fill: #08191f;
      }

      .cls-3 {
        fill: #fff;
      }
    </style>
  </defs>
  <g id="HG">
    <rect class="cls-2" x="0" y="0" width="32" height="32"/>
  </g>
  <g id="White_and_lime" data-name="White and lime">
    <g>
      <g>
        <polygon class="cls-3" points="5 5 13 5 13 9 15 9 15 3 3 3 3 25 7 25 7 23 5 23 5 5"/>
        <rect class="cls-3" x="7" y="7" width="4" height="2"/>
        <path class="cls-3" d="M9,11v17h10V11h-10ZM11,26v-13h6v13h-6Z"/>
        <rect class="cls-3" x="13" y="15" width="2" height="2"/>
      </g>
      <g>
        <path class="cls-1" d="M24.5,19.5c0-1.65-1.35-3-3-3-.17,0-.34.02-.5.05v2.1c.15-.09.31-.15.5-.15.55,0,1,.45,1,1s-.45,1-1,1c-.19,0-.35-.06-.5-.15v2.1c.16.03.33.05.5.05,1.65,0,3-1.35,3-3Z"/>
        <path class="cls-1" d="M29,19.5c0-2.87-1.62-5.37-4-6.63v-3.87h-4v2h2v1.15c-.48-.1-.99-.15-1.5-.15-.17,0-.33.01-.5.03v2c.17-.01.33-.03.5-.03,3.03,0,5.5,2.47,5.5,5.5s-2.47,5.5-5.5,5.5c-.17,0-.33-.01-.5-.03v1.99c.17.01.33.03.5.03,1.41,0,2.72-.4,3.85-1.08l1.04,2.08h2.24l-1.68-3.36c1.27-1.34,2.06-3.15,2.06-5.14Z"/>
      </g>
    </g>
  </g>
</svg>