<?xml version="1.0" encoding="UTF-8"?>
<svg xmlns="http://www.w3.org/2000/svg" viewBox="0 0 32 32">
  <defs>
    <style>
      .cls-1 {
        fill: #e1f000;
      }

      .cls-1, .cls-2, .cls-3 {
        stroke-width: 0px;
      }

      .cls-2 {
        fill: #08191f;
      }

      .cls-3 {
        fill: #fff;
      }
    </style>
  </defs>
  <g id="HG">
    <rect class="cls-2" x="0" y="0" width="32" height="32"/>
  </g>
  <g id="White_and_lime" data-name="White and lime">
    <g>
      <path class="cls-3" d="M16.01,5.99c5.51,0,10,4.49,10,10h2c0-6.62-5.38-12-12-12S4.01,9.37,4.01,15.99s5.37,11.99,11.98,12v-2c-5.5-.01-9.98-4.49-9.98-10s4.49-10,10-10Z"/>
      <polygon class="cls-3" points="27.53 22.14 25.01 24.67 24.98 19 22.98 19.01 23.01 24.67 20.47 22.14 19.06 23.56 24.02 28.5 28.94 23.55 27.53 22.14"/>
    </g>
    <path class="cls-1" d="M15.21,21.53c-2.08-.36-3.36-1.82-3.54-3.93h2.43c.16,1.17.9,1.88,2.16,1.88.9,0,1.56-.41,1.56-1.15,0-1.97-5.68-.74-5.68-4.81,0-1.67,1.31-2.87,3.06-3.14v-1.39h2.18v1.5c1.63.41,2.68,1.59,2.87,3.3h-2.43c-.16-.82-.9-1.34-1.83-1.34-.84,0-1.36.36-1.36.96,0,1.74,5.7.47,5.7,4.77,0,1.74-1.2,2.97-2.95,3.33v1.48l-2.18-.02v-1.44Z"/>
  </g>
</svg>