<?xml version="1.0" encoding="UTF-8"?>
<svg xmlns="http://www.w3.org/2000/svg" viewBox="0 0 32 32">
  <defs>
    <style>
      .cls-1 {
        fill: #e1f000;
      }

      .cls-1, .cls-2, .cls-3 {
        stroke-width: 0px;
      }

      .cls-2 {
        fill: #08191f;
      }

      .cls-3 {
        fill: #fff;
      }
    </style>
  </defs>
  <g id="HG">
    <rect class="cls-2" x="0" y="0" width="32" height="32"/>
  </g>
  <g id="White_and_lime" data-name="White and lime">
    <path class="cls-3" d="M12.99,22h-4.73c-2.35,0-4.26-1.89-4.26-4.21,0-2.01,1.45-3.75,3.46-4.13l.68-.13.12-.68c.49-2.78,2.92-4.79,5.77-4.79s5.28,2.01,5.77,4.79l.12.68.68.13c1.73.33,3.05,1.67,3.37,3.33h2.02c-.31-2.41-2.02-4.43-4.36-5.14-.9-3.39-4-5.79-7.6-5.79s-6.69,2.4-7.6,5.79c-2.6.78-4.43,3.18-4.43,5.93,0,3.42,2.81,6.21,6.26,6.21h4.73v-2Z"/>
    <g>
      <path class="cls-1" d="M17.99,23.99l1.48,1.49c.77-.44,1.64-.68,2.54-.68s1.76.23,2.52.67l1.48-1.49c-1.18-.8-2.56-1.23-4.01-1.23s-2.84.43-4.02,1.24Z"/>
      <path class="cls-1" d="M21.99,18.41c-2.59,0-5.04.91-7,2.58l1.45,1.46c1.57-1.29,3.51-1.99,5.55-1.99s3.98.7,5.55,1.99l1.46-1.45c-1.96-1.67-4.42-2.59-7-2.59Z"/>
    </g>
  </g>
</svg>