<?xml version="1.0" encoding="UTF-8"?>
<svg xmlns="http://www.w3.org/2000/svg" viewBox="0 0 32 32">
  <defs>
    <style>
      .cls-1 {
        fill: #e1f000;
      }

      .cls-1, .cls-2, .cls-3 {
        stroke-width: 0px;
      }

      .cls-2 {
        fill: #08191f;
      }

      .cls-3 {
        fill: #fff;
      }
    </style>
  </defs>
  <g id="HG">
    <rect class="cls-2" y="0" width="32" height="32"/>
  </g>
  <g id="White_Lime" data-name="White&amp;amp;Lime">
    <path class="cls-3" d="M25,16c0-.19,0-.37-.02-.56l3.41-1.97-3.99-6.93-3.41,1.97c-.32-.21-.65-.4-.99-.57v-3.94h-8v3.94c-.34.17-.67.36-.99.57l-3.41-1.97-3.99,6.93,3.41,1.97c-.01.19-.02.37-.02.56s0,.37.02.56l-3.41,1.97,3.99,6.93,3.41-1.97c.32.21.65.4.99.57v3.94h8v-3.94c.34-.17.67-.36.99-.57l3.41,1.97,3.99-6.93-3.41-1.97c.01-.19.02-.37.02-.56ZM25.66,19.26l-2,3.47-2.82-1.63-.53.42c-.52.4-1.08.73-1.69.98l-.62.25v3.25h-4v-3.25l-.62-.25c-.6-.24-1.17-.57-1.69-.98l-.53-.42-2.82,1.63-2-3.47,2.82-1.63-.09-.67c-.04-.32-.07-.64-.07-.97s.02-.65.07-.97l.09-.67-2.82-1.63,2-3.47,2.82,1.63.53-.42c.52-.4,1.08-.73,1.69-.98l.62-.25v-3.25h4v3.25l.62.25c.6.24,1.17.57,1.69.98l.53.42,2.82-1.63,2,3.47-2.82,1.63.09.67c.04.32.07.64.07.97s-.02.65-.07.97l-.09.67,2.82,1.63Z"/>
    <polygon class="cls-1" points="20.95 15.95 16 11 11.05 15.95 12.46 17.36 15 14.83 15 20 17 20 17 14.83 19.54 17.36 20.95 15.95"/>
  </g>
</svg>