<?xml version="1.0" encoding="UTF-8"?>
<svg xmlns="http://www.w3.org/2000/svg" viewBox="0 0 32 32">
  <defs>
    <style>
      .cls-1 {
        fill: #e1f000;
      }

      .cls-1, .cls-2, .cls-3 {
        stroke-width: 0px;
      }

      .cls-2 {
        fill: #08191f;
      }

      .cls-3 {
        fill: #fff;
      }
    </style>
  </defs>
  <g id="HG">
    <rect class="cls-2" x="0" y="0" width="32" height="32"/>
  </g>
  <g id="White_and_lime" data-name="White and lime">
    <g>
      <g>
        <path class="cls-3" d="M4,16c0,5.22,3.35,9.65,8.01,11.3v-2.14c-3.53-1.55-6.01-5.07-6.01-9.16,0-5.17,3.94-9.44,8.98-9.95v-2c-6.14.52-10.98,5.68-10.98,11.95Z"/>
        <path class="cls-3" d="M20.97,5.1v2.24c3,1.73,5.03,4.96,5.03,8.66,0,4.83-3.44,8.87-8,9.8v2.02c5.67-.96,10-5.88,10-11.82,0-4.84-2.89-9.01-7.03-10.91Z"/>
      </g>
      <path class="cls-1" d="M13.99,28.05v-11.04h-4.13L18.99,3.96v11.04l4.16-.04-9.16,13.08ZM13.7,15.01h2.29v6.69l3.29-4.7-2.29.02v-6.71l-3.29,4.7Z"/>
    </g>
  </g>
</svg>