<?xml version="1.0" encoding="UTF-8"?>
<svg xmlns="http://www.w3.org/2000/svg" viewBox="0 0 32 32">
  <defs>
    <style>
      .cls-1 {
        fill: #e1f000;
      }

      .cls-1, .cls-2, .cls-3 {
        stroke-width: 0px;
      }

      .cls-2 {
        fill: #08191f;
      }

      .cls-3 {
        fill: #fff;
      }
    </style>
  </defs>
  <g id="HG">
    <rect class="cls-2" x="0" y="0" width="32" height="32"/>
  </g>
  <g id="Icon_mix">
    <g>
      <path class="cls-3" d="M25.98,15.98h2c0-4.84-2.89-9.01-7.03-10.91v2.24c3,1.73,5.03,4.96,5.03,8.66Z"/>
      <path class="cls-3" d="M5.98,15.98c0-5.18,3.97-9.46,9.02-9.95v-2c-6.16.5-11.02,5.66-11.02,11.95,0,5.23,3.36,9.67,8.03,11.31v-2.14c-3.54-1.54-6.03-5.07-6.03-9.17Z"/>
      <polygon class="cls-3" points="27.51 22.14 24.99 24.67 24.96 19 22.96 19.01 22.99 24.68 20.45 22.14 19.04 23.56 24 28.5 28.93 23.55 27.51 22.14"/>
      <path class="cls-1" d="M23.16,15h-4.17V4l-9.11,13h4.11v11l9.17-13ZM13.7,15l3.28-4.66v6.66h2.32l-3.32,4.74v-6.74h-2.28Z"/>
    </g>
  </g>
</svg>