<?xml version="1.0" encoding="UTF-8"?>
<svg xmlns="http://www.w3.org/2000/svg" viewBox="0 0 32 32">
  <defs>
    <style>
      .cls-1 {
        fill: #e1f000;
      }

      .cls-1, .cls-2, .cls-3 {
        stroke-width: 0px;
      }

      .cls-2 {
        fill: #08191f;
      }

      .cls-3 {
        fill: #fff;
      }
    </style>
  </defs>
  <g id="HG">
    <rect class="cls-2" x="0" y="0" width="32" height="32"/>
  </g>
  <g id="White_and_lime" data-name="White and lime">
    <path class="cls-3" d="M30,28H11.98s5.01-6,5.01-6h4l2-2.01v-2.99l2-2.01v-2.96l5-3.05v19.02ZM16.26,26h11.74s0-13.45,0-13.45l-1,.61v2.66l-2,2.01v2.99l-3.17,3.18h-3.89l-1.67,2Z"/>
    <path class="cls-1" d="M21,13v-2h-3.11c-.13-.64-.38-1.22-.73-1.75l2.21-2.21-1.41-1.41-2.21,2.21c-.52-.35-1.11-.6-1.74-.73v-3.12h-2v3.12c-.63.13-1.22.38-1.74.73l-2.21-2.21-1.41,1.41,1.95,1.95h4.42c.83,0,1.58.34,2.13.88h0c.53.53.86,1.26.88,2.07v.12c-.02.78-.33,1.48-.82,2.01l-.11.11c-.52.49-1.21.8-1.98.82h-4.52l-1.94,1.95,1.41,1.41,2.2-2.2c.52.35,1.11.6,1.75.73v3.11h2v-3.11c.64-.13,1.23-.38,1.75-.73l2.2,2.2,1.41-1.41-2.2-2.2c.35-.52.6-1.11.73-1.75h3.11Z"/>
    <rect class="cls-1" x="2" y="10.99" width="11" height="2"/>
  </g>
</svg>