<?xml version="1.0" encoding="UTF-8"?>
<svg xmlns="http://www.w3.org/2000/svg" version="1.1" viewBox="0 0 400 225">
  <defs>
    <style>
      .cls-1 {
        stroke: #e1f000;
      }

      .cls-1, .cls-2 {
        fill: none;
        stroke-miterlimit: 10;
        stroke-width: 10px;
      }

      .cls-2 {
        stroke: #fff;
      }
    </style>
  </defs>
  <!-- Generator: Adobe Illustrator 28.7.2, SVG Export Plug-In . SVG Version: 1.2.0 Build 154)  -->
  <g>
    <g id="Ebene_2">
      <circle class="cls-2" cx="200" cy="112.5" r="64.8"/>
      <circle class="cls-1" cx="200" cy="112.5" r="14.8"/>
      <path class="cls-1" d="M194.1,99.7c-6.3-6.3-10.4-19-6-32.4,8-2.3,19.1-1.8,27,1-6.8,7.5-12.8,21-11.1,30.5"/>
      <path class="cls-1" d="M208.3,101c2.3-8.6,11.2-18.5,25.1-21.4,5.9,5.8,11.1,15.6,12.7,23.9-9.9-2.1-24.6-.6-32,5.6"/>
      <path class="cls-1" d="M214.4,114.1c8.6-2.3,21.6.5,31.1,11-2,8-7.9,17.4-14.4,22.9-3.1-9.6-11.8-21.6-20.9-24.9"/>
      <path class="cls-1" d="M206.1,125.8c6.3,6.3,10.4,19,6,32.4-8,2.3-19.1,1.9-27-1,6.8-7.5,12.8-21,11.1-30.5"/>
      <path class="cls-1" d="M191.8,124.5c-2.3,8.6-11.2,18.5-25.1,21.4-5.9-5.8-11.1-15.6-12.7-23.9,9.9,2.1,24.6.6,32-5.6"/>
      <path class="cls-1" d="M185.8,111.4c-8.6,2.3-21.6-.5-31.1-11,2-8,7.9-17.5,14.4-22.9,3.1,9.6,11.8,21.6,20.9,24.9"/>
    </g>
  </g>
</svg>