<?xml version="1.0" encoding="UTF-8"?>
<svg xmlns="http://www.w3.org/2000/svg" viewBox="0 0 32 32">
  <defs>
    <style>
      .cls-1 {
        fill: #e1f000;
      }

      .cls-1, .cls-2, .cls-3 {
        stroke-width: 0px;
      }

      .cls-2 {
        fill: #08191f;
      }

      .cls-3 {
        fill: #fff;
      }
    </style>
  </defs>
  <g id="HG">
    <rect class="cls-2" x="0" y="0" width="32" height="32"/>
  </g>
  <g id="White_and_lime" data-name="White and lime">
    <g>
      <path class="cls-3" d="M13,9v-2H5v2h1v1.84l-1,3v11.16h8v-11.16l-1-3v-1.84h1ZM11,14.16v8.84h-4v-8.84l1-3v-2.16h2v2.16l1,3Z"/>
      <path class="cls-1" d="M28.66,21.91c-.98-2.93-3.86-4.91-7.16-4.91s-6.06,1.9-7.1,4.74c-.28.75-.17,1.59.29,2.24.45.65,1.17,1.02,1.96,1.02h9.71c.78,0,1.52-.38,1.98-1.01.44-.62.56-1.37.32-2.08ZM26.71,22.82c-.08.11-.21.18-.35.18h-9.71c-.17,0-.27-.09-.32-.17-.04-.06-.12-.21-.05-.41.47-1.28,1.46-2.3,2.72-2.88v1.46h2v-1.96c.17-.01.33-.04.5-.04s.33.02.5.04v1.96h2v-1.44c1.3.61,2.32,1.67,2.76,2.98.03.09.01.19-.05.28Z"/>
    </g>
  </g>
</svg>