<?xml version="1.0" encoding="UTF-8"?>
<svg xmlns="http://www.w3.org/2000/svg" viewBox="0 0 32 32">
  <defs>
    <style>
      .cls-1 {
        fill: #e1f000;
      }

      .cls-1, .cls-2, .cls-3 {
        stroke-width: 0px;
      }

      .cls-2 {
        fill: #08191f;
      }

      .cls-3 {
        fill: #fff;
      }
    </style>
  </defs>
  <g id="HG">
    <rect class="cls-2" x="0" y="0" width="32" height="32"/>
  </g>
  <g id="White_and_lime" data-name="White and lime">
    <g>
      <polygon class="cls-3" points="6 4 6 28 14 28 14 26 8 26 8 6 20 6 20 15 22 15 22 4 6 4"/>
      <rect class="cls-3" x="10" y="8" width="8" height="2"/>
      <rect class="cls-3" x="10" y="12" width="8" height="2"/>
      <rect class="cls-3" x="10" y="16" width="5" height="2"/>
    </g>
    <path class="cls-1" d="M27.42,27.09l-2.28-2.28c.54-.8.86-1.77.86-2.81,0-2.76-2.24-5-5-5s-5,2.24-5,5,2.24,5,5,5c1,0,1.92-.3,2.7-.8l2.3,2.3,1.41-1.41ZM18,22c0-1.65,1.35-3,3-3s3,1.35,3,3-1.35,3-3,3-3-1.35-3-3Z"/>
  </g>
</svg>