<?xml version="1.0" encoding="UTF-8"?>
<svg id="Ebene_1" data-name="Ebene 1" xmlns="http://www.w3.org/2000/svg" version="1.1" viewBox="0 0 32 32">
  <defs>
    <style>
      .cls-1 {
        fill: #08191f;
      }

      .cls-1, .cls-2, .cls-3 {
        stroke-width: 0px;
      }

      .cls-2 {
        fill: #e1f000;
      }

      .cls-3 {
        fill: #fff;
      }
    </style>
  </defs>
  <g id="HG">
    <rect class="cls-1" width="32" height="32"/>
  </g>
  <g id="Icon_Kopie" data-name="Icon Kopie">
    <polygon class="cls-2" points="19 6 19 8 22.5 8 17 13.6 18.4 15 24 9.4 24 13 26 13 26 6 19 6"/>
    <g>
      <polygon class="cls-3" points="5 5 13 5 13 9 15 9 15 3 3 3 3 25 7 25 7 23 5 23 5 5"/>
      <rect class="cls-3" x="7" y="7" width="4" height="2"/>
      <rect class="cls-3" x="13" y="15" width="2" height="2"/>
      <polygon class="cls-3" points="17 26 11 26 11 13 15 13 15 11 9 11 9 28 17 28 18 28 19 28 19 17 17 17 17 26"/>
      <rect class="cls-3" x="19" y="2" width="3" height="2"/>
      <rect class="cls-3" x="23" y="2" width="3" height="2"/>
      <polygon class="cls-3" points="30 2 30 2 27 2 27 4 28 4 28 5 30 5 30 2 30 2"/>
      <rect class="cls-3" x="28" y="6" width="2" height="3"/>
      <rect class="cls-3" x="28" y="10" width="2" height="3"/>
    </g>
  </g>
</svg>