<?xml version="1.0" encoding="UTF-8"?>
<svg xmlns="http://www.w3.org/2000/svg" viewBox="0 0 32.00000980383993 32.000005820718798">
  <g id="HG">
    <rect x=".00000980383993" y="-.000019990400688" width="32" height="32.000045801520173" fill="#08191f" stroke-width="0"/>
  </g>
  <g id="White_and_lime" data-name="White and lime">
    <g>
      <path d="M16.040410175361103,4.004885722859399c-.01318359375-.000244140619543-.02587890625-.004760742189319-.0390625-.004760742189319-.00048828125,0-.000854492191138-.000122070310681-.001342773441138-.000122070310681-6.62744140625,0-12,5.372680664060681-12,12s5.372314453130457,11.999877929689319,11.999755859380457,12h.000244140619543c2.761352539060681,0,5-5.37255859375,5-12,0-6.594604492189319-2.217041015619543-11.942260742189319-4.959594726558862-11.9951171875ZM13.000004901919965,16.000002910359399c0-.933227539060681.049072265630457-1.795776367189319.128540039060681-2.601684570310681h5.742553710939319c.07958984375.805908203121362.128662109380457,1.66845703125.128662109380457,2.6015625,0,.962646484371362-.052490234380457,1.849609375-.13671875,2.6767578125h-5.726318359380457c-.084228515619543-.8271484375-.13671875-1.714111328128638-.13671875-2.676635742189319ZM15.999882831611103,6.00012498067008h0c.563598632808862.000366210939319,1.903442382808862,1.846435546880457,2.5849609375,5.398193359378638h-5.170043945310681c.681396484369543-3.552246093748181,2.021362304680224-5.397949218748181,2.585083007810681-5.398193359378638ZM18.569829120669965,20.676638652548718c-.685913085939319,3.50244140625-2.010375976558862,5.322998046871362-2.569946289058862,5.3232421875-.559692382810681-.000244140628638-1.884155273441138-1.820678710939319-2.569946289060681-5.3232421875h5.139892578119543ZM12.968510761300422,6.47278123067008c-.693603515630457,1.273071289069776-1.246337890630457,2.96337890625-1.586181640630457,4.925537109378638h-4.251220703119543c1.211181640619543-2.324707031248181,3.30419921875-4.117675781248181,5.83740234375-4.925537109378638ZM6.355229511300422,13.398318340048718h4.765991210930224c-.077270507810681.838623046871362-.121215820310681,1.707275390621362-.121215820310681,2.601684570310681,0,.921508789060681.04736328125,1.814819335939319.129150390630457,2.676635742189319h-4.754516601569776c-.237670898430224-.853393554689319-.374633789060681-1.74853515625-.374633789060681-2.676635742189319,0-.901245117189319.130737304691138-1.7705078125.355224609380457-2.601684570310681ZM7.167241230050422,20.676638652548718h4.226806640619543c.3408203125,1.93115234375.8896484375,3.593505859371362,1.574462890630457,4.8505859375-2.50634765625-.79931640625-4.58447265625-2.561645507808862-5.80126953125-4.8505859375Z" fill="#fff" stroke-width="0"/>
      <polygon points="24.929354361051082 29.046156756508935 21.29231259423068 25.416180043768691 22.719025334610706 23.988349890529207 24.929354361051082 26.200515136169997 28.234870061160109 22.892310602668658 29.661582801560144 24.310116905249743 24.929354361051082 29.046156756508935" fill="#e1f000" fill-rule="evenodd" stroke-width="0"/>
      <path d="M26,16.000002910359399c0,2.361083984380457-.83984375,4.51611328125-2.216796875,6.223754882810681l1.43408203125,1.434204101569776c1.734375-2.074462890630457,2.78271484375-4.73974609375,2.78271484375-7.657958984380457,0-5.083129882810681-3.161376953119543-9.425415039058862-7.62451171875-11.173950195308862.55859375.869140625,1.0283203125,1.900268554689319,1.409912109380457,3.04296875,2.54541015625,1.811767578119543,4.214599609369543,4.774902343748181,4.214599609369543,8.130981445308862Z" fill="#fff" stroke-width="0"/>
    </g>
  </g>
</svg>