<?xml version="1.0" encoding="UTF-8"?>
<svg xmlns="http://www.w3.org/2000/svg" viewBox="0 0 32 32">
  <defs>
    <style>
      .cls-1 {
        fill: #08191f;
      }

      .cls-1, .cls-2, .cls-3, .cls-4 {
        stroke-width: 0px;
      }

      .cls-2 {
        fill: #e1f000;
      }

      .cls-3 {
        fill: #08191f;
      }

      .cls-4 {
        fill: #fff;
      }
    </style>
  </defs>
  <g id="HG">
    <rect class="cls-1" x="0" y="0" width="32" height="32"/>
  </g>
  <g id="Motiv">
    <g>
      <path class="cls-3" d="M10.25,5.03c1.4,0,2.71.56,3.69,1.59l1.65,1.72,1.65-1.72c.97-1,2.25-1.56,3.62-1.56s2.65.55,3.62,1.56c1.74,1.82,1.99,4.59.78,6.7l2.01.46c1.31-2.78.86-6.24-1.35-8.55-1.39-1.45-3.23-2.17-5.06-2.17s-3.67.72-5.06,2.17l-.21.21-.21-.21c-1.41-1.47-3.27-2.2-5.13-2.2s-3.72.73-5.13,2.2c-2.82,2.94-2.82,7.75,0,10.68l8.69,9.04,1.41-1.41L6.56,14.53c-2.1-2.18-2.1-5.73,0-7.91.98-1.02,2.3-1.59,3.69-1.59Z"/>
      <path class="cls-3" d="M23.54,13.95l-6.5,1.5v7.95c0,3.25,3.85,5.33,5.51,6.08l1,.45.99-.45c1.66-.75,5.51-2.83,5.51-6.08v-7.95l-6.5-1.5ZM28.05,23.4c0,2.2-3.61,3.93-4.33,4.26l-.18.08-.18-.08c-.72-.33-4.33-2.06-4.33-4.26v-6.36l4.5-1.04,4.5,1.04v6.36Z"/>
      <polygon class="cls-3" points="21.71 20.01 20.27 21.4 23.21 24.45 26.82 20.69 25.38 19.31 23.21 21.57 21.71 20.01"/>
    </g>
  </g>
  <g id="White_and_lime" data-name="White and lime">
    <path class="cls-4" d="M25.25,13.31l2.01.46c1.31-2.78.86-6.24-1.35-8.55-1.39-1.45-3.23-2.17-5.06-2.17s-3.67.72-5.06,2.17l-.21.21-.21-.21c-1.41-1.47-3.27-2.2-5.13-2.2s-3.72.73-5.13,2.2c-2.82,2.94-2.82,7.75,0,10.68l8.69,9.04,1.41-1.41L6.56,14.53c-2.1-2.18-2.1-5.73,0-7.91.98-1.02,2.3-1.59,3.69-1.59s2.71.56,3.69,1.59l1.65,1.72,1.65-1.72c.97-1,2.25-1.56,3.62-1.56s2.65.55,3.62,1.56c1.74,1.82,1.99,4.59.78,6.7Z"/>
    <path class="cls-2" d="M23.54,16l4.5,1.04v6.36c0,2.2-3.61,3.93-4.33,4.26l-.18.08-.18-.08c-.72-.33-4.33-2.06-4.33-4.26v-6.36l4.5-1.04M23.54,13.95l-6.5,1.5v7.95c0,3.25,3.85,5.33,5.51,6.08l1,.45.99-.45c1.66-.75,5.51-2.83,5.51-6.08v-7.95l-6.5-1.5h0Z"/>
    <polygon class="cls-2" points="23.21 24.45 20.27 21.4 21.71 20.01 23.21 21.57 25.38 19.31 26.82 20.69 23.21 24.45"/>
  </g>
</svg>