<?xml version="1.0" encoding="UTF-8"?>
<svg xmlns="http://www.w3.org/2000/svg" viewBox="0 0 32 32">
  <defs>
    <style>
      .cls-1 {
        fill: #e1f000;
      }

      .cls-1, .cls-2, .cls-3 {
        stroke-width: 0px;
      }

      .cls-2 {
        fill: #08191f;
      }

      .cls-3 {
        fill: #fff;
      }
    </style>
  </defs>
  <g id="HG">
    <rect class="cls-2" x="0" y="0" width="32" height="32"/>
  </g>
  <g id="Icon_mix">
    <g>
      <path class="cls-3" d="M16,4c-4.2,0-7.86,2.18-10,5.46v-3.46h-2v8h8v-2h-5.14c1.54-3.52,5.04-6,9.14-6,5.52,0,10,4.48,10,10s-4.48,10-10,10c-4.82,0-8.86-3.44-9.8-8h-2.02c.96,5.68,5.88,10,11.82,10,6.62,0,12-5.38,12-12s-5.38-12-12-12Z"/>
      <polygon class="cls-1" points="14.98 8.04 14.98 16.04 14.95 16.08 14.98 16.1 14.98 16.1 14.99 16.1 21.38 20.84 22.57 19.24 16.98 15.09 16.98 8.04 14.98 8.04"/>
    </g>
  </g>
</svg>