<?xml version="1.0" encoding="UTF-8"?>
<svg xmlns="http://www.w3.org/2000/svg" viewBox="0 0 32 32">
  <defs>
    <style>
      .cls-1 {
        fill: #e1f000;
      }

      .cls-1, .cls-2, .cls-3 {
        stroke-width: 0px;
      }

      .cls-2 {
        fill: #08191f;
      }

      .cls-3 {
        fill: #fff;
      }
    </style>
  </defs>
  <g id="HG">
    <rect class="cls-2" x="0" y="0" width="32" height="32"/>
  </g>
  <g id="White_and_lime" data-name="White and lime">
    <g>
      <g>
        <path class="cls-1" d="M16.01,16.31h-2.02v2.69h-1.99v-6.99h1.99v2.62h2.02v-2.62h1.99v6.99h-1.99v-2.69Z"/>
        <path class="cls-1" d="M19.07,19.81l1.09-.88c.36-.29.63-.5.63-.76,0-.17-.1-.29-.3-.29s-.38.17-.35.54h-1.18c-.07-.87.59-1.59,1.53-1.59s1.53.56,1.53,1.34c0,.54-.26.99-.99,1.4l-.23.13h1.22v1.04h-2.95v-.92Z"/>
      </g>
      <g>
        <path class="cls-3" d="M25,8V2.99h-2v3.24c-3.8-2.72-8.9-3-13-.62-4.39,2.55-6.7,7.61-5.76,12.59l1.96-.37c-.78-4.15,1.15-8.37,4.8-10.49,3.49-2.03,7.85-1.74,11.03.67h-4.04v2h7v-2h0Z"/>
        <path class="cls-3" d="M27.77,13.84l-1.97.37c.77,4.15-1.17,8.36-4.83,10.48-3.5,2.02-7.85,1.71-11.01-.68h4.04v-2h-7v2h0v5.01h2v-3.23c2.07,1.48,4.52,2.24,6.98,2.24,2.06,0,4.13-.53,5.99-1.6,4.39-2.54,6.72-7.59,5.8-12.57Z"/>
      </g>
    </g>
  </g>
</svg>