<?xml version="1.0" encoding="UTF-8"?>
<svg xmlns="http://www.w3.org/2000/svg" viewBox="0 0 32 32">
  <g id="HG">
    <rect width="32" height="32" fill="#08191f" stroke-width="0"/>
  </g>
  <g id="White_and_lime" data-name="White and lime">
    <rect x="10.995794713449868" y="27.99979722459102" width="10" height="2" fill="#fff" stroke-width="0"/>
    <polygon points="24.995794713449868 29.99979722459102 22.995794713449868 29.99979722459102 22.995794713449868 24.19218003709102 21.319036900949868 19.99979722459102 10.672552525949868 19.99979722459102 8.995794713449868 24.19218003709102 8.995794713449868 29.99979722459102 6.995794713449868 29.99979722459102 6.995794713449868 23.80741441209102 9.319036900949868 17.99979722459102 22.672552525949868 17.99979722459102 24.995794713449868 23.80741441209102 24.995794713449868 29.99979722459102" fill="#fff" stroke-width="0"/>
    <path d="M16,13.999328613279431c-.00146484375,0-.002746582029431.000427246101026-.004211425779431.000427246101026-2.7568359375,0-5-2.2431640625-5-5s2.2431640625-5,5-5c.00146484375,0,.002746582029431.000427246090112.004211425779431.000427246090112V1.999938964840112c-.001403808590112,0-.002807617189319-.000183105459655-.004211425779431-.000183105459655-3.859375,0-7,3.140625-7,7s3.140625,7,7,7c.001403808590112,0,.002807617189319-.000183105470569.004211425779431-.000183105470569v-2.000244140630457Z" fill="#fff" stroke-width="0"/>
    <path d="M26.010090973670231,9.028808752669647c0-.369263628968838-.066517493900392-.720036615130084-.160618388928924-1.059703010580051l1.857119609439906-1.071297803089692-.998860862500806-1.732139951180216-1.846623270948839,1.065256305939329c-.502786818551613-.512123677788622-1.145199349060931-.878824247358352-1.861269324661407-1.062815296989356v-2.138323840519661h-1.999674532129575v2.145036615129357c-.70392595606063.185150528890517-1.336940602119284.545077298620527-1.833502847850468,1.048474369410542l-1.843144833188489-1.069344995928986-1.003742880391655,1.729210740439157,1.85522782750013,1.076362896659703c-.095870626528267.342595606191026-.163608624900007.696541903989782-.163608624900007,1.069283970709876,0,.367554922700947.06590724166017.716863303499849.159214808791148,1.055187144020238l-1.859133441830636,1.068978844590674.9969080553401,1.733116354758749,1.848942229449676-1.063120423108558c.498331977220005.508889340928363,1.134458909669775.873698128560136,1.843694060211419,1.060069161920183l-.002807160290104,2.143816110659827,1.99967453213867.002929210739239.002807160290104-2.140581773799568c.71375101707963-.183563873069943,1.354698942230243-.548189585029832,1.85669243286975-1.057994304310341l1.84546379170024,1.067575264440165,1.001790073240045-1.731163547599863-1.856753458099774-1.074104963379796c.095016273389774-.341192026040517.162205044749498-.693612693250543.162205044749498-1.064707078930951ZM22.010741909380158,11.028483284810136c-1.102847843769268,0-1.999674532129575-.896826688369401-1.999674532129575-1.999674532140489,0-1.102847843769268.896826688360306-1.99967453213867,1.999674532129575-1.99967453213867,1.102847843791096,0,1.999674532151403.896826688369401,1.999674532151403,1.99967453213867,0,1.102847843771087-.896826688360306,1.999674532140489-1.999674532151403,1.999674532140489Z" fill="#e1f000" stroke-width="0"/>
  </g>
</svg>