<?xml version="1.0" encoding="UTF-8"?>
<svg xmlns="http://www.w3.org/2000/svg" viewBox="0 0 32 32">
  <defs>
    <style>
      .cls-1 {
        fill: #e1f000;
      }

      .cls-1, .cls-2, .cls-3 {
        stroke-width: 0px;
      }

      .cls-2 {
        fill: #08191f;
      }

      .cls-3 {
        fill: #fff;
      }
    </style>
  </defs>
  <g id="HG">
    <rect class="cls-2" width="32" height="32"/>
  </g>
  <g id="White_Lime" data-name="White&amp;amp;Lime">
    <path class="cls-1" d="M27.42,27.09l-2.28-2.28c.54-.8.86-1.77.86-2.81,0-2.76-2.24-5-5-5s-5,2.24-5,5,2.24,5,5,5c1,0,1.92-.3,2.7-.8l2.3,2.3,1.41-1.41ZM18,22c0-1.65,1.35-3,3-3s3,1.35,3,3-1.35,3-3,3-3-1.35-3-3Z"/>
    <g>
      <rect class="cls-3" x="7.02" y="28" width="10" height="2"/>
      <g>
        <polygon class="cls-3" points="5.35 20 3 25.81 3 30 5 30 5 26.19 6.7 22 14 22 14 20 5.35 20"/>
        <g>
          <path class="cls-3" d="M12,16c-2.21,0-4-1.79-4-4h-2c0,3.31,2.69,6,6,6s6-2.69,6-6h-2c0,2.21-1.79,4-4,4Z"/>
          <path class="cls-3" d="M21,8h-2.08c-.49-3.39-3.4-6-6.92-6s-6.43,2.61-6.92,6h-2.08v2h18v-2ZM7.1,8c.4-1.96,1.94-3.5,3.9-3.9v2.91h2v-2.91c1.96.4,3.5,1.94,3.9,3.9H7.1Z"/>
        </g>
      </g>
    </g>
  </g>
</svg>