<?xml version="1.0" encoding="UTF-8"?>
<svg xmlns="http://www.w3.org/2000/svg" viewBox="0 0 32 32">
  <defs>
    <style>
      .cls-1 {
        fill: #e1f000;
      }

      .cls-1, .cls-2, .cls-3 {
        stroke-width: 0px;
      }

      .cls-2 {
        fill: #08191f;
      }

      .cls-3 {
        fill: #fff;
      }
    </style>
  </defs>
  <g id="HG">
    <rect class="cls-2" y="0" width="32" height="32"/>
  </g>
  <g id="Icon_mix">
    <g>
      <rect class="cls-3" x="13.95" y="26.98" width="4" height="2"/>
      <rect class="cls-3" x="11.95" y="23" width="8" height="2"/>
      <path class="cls-1" d="M16,3.02c-4.47,0-8.11,3.64-8.11,8.11,0,2.34,1.01,4.56,2.77,6.1.65.57,1.14,1.96,1.38,3.03l.18.76h7.49s.18-.77.18-.77c.21-.89.77-2.43,1.44-3.02,1.76-1.54,2.76-3.76,2.76-6.1,0-4.47-3.64-8.11-8.11-8.11ZM20.02,15.72c-.97.85-1.56,2.36-1.86,3.3h-4.38c-.29-1.01-.86-2.46-1.81-3.3-1.33-1.16-2.09-2.84-2.09-4.6,0-3.37,2.74-6.11,6.11-6.11s6.11,2.74,6.11,6.11c0,1.76-.76,3.43-2.08,4.59Z"/>
    </g>
  </g>
</svg>