<?xml version="1.0" encoding="UTF-8"?>
<svg xmlns="http://www.w3.org/2000/svg" viewBox="0 0 32 32">
  <defs>
    <style>
      .cls-1 {
        fill: #000;
      }

      .cls-1, .cls-2, .cls-3, .cls-4 {
        stroke-width: 0px;
      }

      .cls-2 {
        fill: #e1f000;
      }

      .cls-3 {
        fill: #08191f;
      }

      .cls-4 {
        fill: #fff;
      }
    </style>
  </defs>
  <g id="HG">
    <rect class="cls-3" x="0" y="0" width="32" height="32"/>
  </g>
  <g id="Motiv">
    <g>
      <polygon class="cls-1" points="22.2 12.06 20.78 13.48 23.32 16.01 17.13 16.01 17.14 18.01 23.32 18.01 20.78 20.55 22.2 21.96 27.15 17.01 22.2 12.06"/>
      <path class="cls-1" d="M9.82,13.42c0-.6.52-.96,1.36-.96.93,0,1.67.52,1.83,1.34h2.43c-.19-1.71-1.25-2.89-2.87-3.3v-1.5h-2.18v1.39c-1.75.27-3.06,1.47-3.06,3.14,0,4.07,5.68,2.84,5.68,4.81,0,.74-.66,1.15-1.56,1.15-1.26,0-2-.71-2.16-1.88h-2.43c.17,2.11,1.45,3.57,3.54,3.93v1.44l2.18.02v-1.48c1.75-.36,2.95-1.6,2.95-3.33,0-4.29-5.7-3.03-5.7-4.77Z"/>
    </g>
  </g>
  <g id="White_and_lime" data-name="White and lime">
    <g>
      <polygon class="cls-2" points="22.2 12.06 20.78 13.48 23.32 16.01 17.13 16.01 17.14 18.01 23.32 18.01 20.78 20.55 22.2 21.96 27.15 17.01 22.2 12.06"/>
      <path class="cls-4" d="M10.39,21.55c-2.08-.36-3.36-1.82-3.54-3.93h2.43c.16,1.17.9,1.88,2.16,1.88.9,0,1.56-.41,1.56-1.15,0-1.97-5.68-.74-5.68-4.81,0-1.67,1.31-2.87,3.06-3.14v-1.39h2.18v1.5c1.63.41,2.68,1.59,2.87,3.3h-2.43c-.16-.82-.9-1.34-1.83-1.34-.84,0-1.36.36-1.36.96,0,1.74,5.7.47,5.7,4.77,0,1.74-1.2,2.97-2.95,3.33v1.48l-2.18-.02v-1.44Z"/>
    </g>
  </g>
</svg>