<?xml version="1.0" encoding="UTF-8"?>
<svg xmlns="http://www.w3.org/2000/svg" viewBox="0 0 32 32.000000000003638">
  <g id="HG">
    <rect x=".000006351889169" y=".000031623170798" width="32" height="31.99996837683284" fill="#08191f" stroke-width="0"/>
  </g>
  <g id="White_and_lime" data-name="White and lime">
    <g>
      <path d="M16.005859375,9c-1.9296875,0-3.5-1.5703125-3.5-3.5s1.5703125-3.5,3.5-3.5,3.5,1.5703125,3.5,3.5-1.5703125,3.5-3.5,3.5ZM16.005859375,4c-.8271484375,0-1.5.6728515625-1.5,1.5s.6728515625,1.5,1.5,1.5,1.5-.6728515625,1.5-1.5-.6728515625-1.5-1.5-1.5Z" fill="#fff" stroke-width="0"/>
      <polygon points="19 30 17 30 17 22 19 22 19 13.576171875 17.923828125 11.9833984375 14.0634765625 11.9833984375 13 13.5771484375 13 22 15 22 15 30 13 30 13 23.9765625 11 24 11 13 12.9970703125 9.9833984375 18.982421875 9.9833984375 21 12.9609375 21 24 19 24 19 30" fill="#e1f000" stroke-width="0"/>
    </g>
  </g>
</svg>