<?xml version="1.0" encoding="UTF-8"?>
<svg xmlns="http://www.w3.org/2000/svg" viewBox="0 0 32 32">
  <defs>
    <style>
      .cls-1 {
        fill: #e1f000;
      }

      .cls-1, .cls-2, .cls-3 {
        stroke-width: 0px;
      }

      .cls-2 {
        fill: #08191f;
      }

      .cls-3 {
        fill: #fff;
      }
    </style>
  </defs>
  <g id="HG">
    <rect class="cls-2" x="0" y="0" width="32" height="32"/>
  </g>
  <g id="White_and_lime" data-name="White and lime">
    <g>
      <polygon class="cls-3" points="16.02 14.94 4.57 19.41 5.86 22.01 8.09 22.01 7.33 20.48 16.01 17.09 24.57 20.53 23.85 22.01 26.08 22.01 27.32 19.47 16.02 14.94"/>
      <rect class="cls-3" x="14.99" y="4" width="2" height="3.03"/>
      <polygon class="cls-3" points="11.76 10.01 20.25 10.01 21.66 15.04 24 15.98 21.76 8.01 10.24 8.01 8.05 15.89 10.38 14.98 11.76 10.01"/>
    </g>
    <path class="cls-1" d="M27.94,25.66c-.13-.1-.27-.22-.43-.37-.58-.53-1.37-1.27-2.84-1.27s-2.27.73-2.84,1.27c-.5.46-.79.73-1.49.73s-.99-.28-1.49-.73c-.58-.53-1.37-1.27-2.84-1.27s-2.27.73-2.85,1.27c-.5.46-.8.73-1.49.73s-.99-.28-1.49-.74c-.58-.53-1.37-1.26-2.85-1.26s-2.27.73-2.85,1.26c-.17.16-.32.28-.47.4v2.2c.85-.24,1.4-.74,1.82-1.13.5-.46.8-.74,1.49-.74s.99.28,1.49.74c.58.53,1.37,1.26,2.85,1.26s2.27-.73,2.85-1.27c.5-.46.8-.73,1.49-.73s.99.28,1.49.73c.58.53,1.37,1.27,2.84,1.27s2.27-.73,2.84-1.27c.5-.46.79-.73,1.49-.73s.99.28,1.49.73c.42.39.96.88,1.78,1.12v-2.22Z"/>
  </g>
</svg>