<?xml version="1.0" encoding="UTF-8"?>
<svg xmlns="http://www.w3.org/2000/svg" viewBox="0 0 32 32">
  <defs>
    <style>
      .cls-1 {
        fill: #e1f000;
      }

      .cls-1, .cls-2, .cls-3 {
        stroke-width: 0px;
      }

      .cls-2 {
        fill: #08191f;
      }

      .cls-3 {
        fill: #fff;
      }
    </style>
  </defs>
  <g id="HG">
    <rect class="cls-2" x="0" y="0" width="32" height="32"/>
  </g>
  <g id="White_Lime" data-name="White&amp;amp;Lime">
    <path class="cls-3" d="M25.28,19.93l-1.61,2.8-2.82-1.63-.53.42c-.52.4-1.08.73-1.69.98l-.62.25v3.25h-4v-3.25l-.62-.25c-.6-.24-1.17-.57-1.69-.98l-.53-.42-2.82,1.63-2-3.47,2.82-1.63-.09-.67c-.04-.32-.07-.64-.07-.97s.02-.65.07-.97l.09-.67-2.82-1.63,2-3.47,2.82,1.63.53-.42c.52-.4,1.08-.73,1.69-.98l.62-.25v-3.25h4v-2h-6v3.94c-.34.17-.67.36-.99.57l-3.41-1.97-3.99,6.93,3.41,1.97c-.01.19-.02.37-.02.56s0,.37.02.56l-3.41,1.97,3.99,6.93,3.41-1.97c.32.21.65.4.99.57v3.94h8v-3.94c.34-.17.67-.36.99-.57l3.41,1.97,2.61-4.53-1.73-1Z"/>
    <path class="cls-1" d="M16.58,13.12c1.43-1.31,3.32-2.12,5.41-2.12s4,.82,5.43,2.14l1.41-1.41c-1.79-1.68-4.19-2.72-6.84-2.72s-5.03,1.03-6.82,2.71l1.41,1.41Z"/>
    <path class="cls-1" d="M19.42,15.96c.7-.59,1.59-.96,2.57-.96s1.89.38,2.59.98l1.42-1.42c-1.06-.96-2.47-1.55-4.01-1.55s-2.93.58-4,1.54l1.42,1.42Z"/>
  </g>
</svg>