<?xml version="1.0" encoding="UTF-8"?>
<svg xmlns="http://www.w3.org/2000/svg" viewBox="0 0 32 32">
  <defs>
    <style>
      .cls-1 {
        fill: #08191f;
      }

      .cls-1, .cls-2, .cls-3 {
        stroke-width: 0px;
      }

      .cls-2 {
        fill: #e1f000;
        fill-rule: evenodd;
      }

      .cls-3 {
        fill: #fff;
      }
    </style>
  </defs>
  <g id="HG">
    <rect class="cls-1" x="0" y="0" width="32" height="32"/>
  </g>
  <g id="White_and_lime" data-name="White and lime">
    <g>
      <g>
        <path class="cls-3" d="M23.12,25.01c1.78-1.81,2.88-4.28,2.88-7.01,0-4.1-2.47-7.62-6-9.16V4h3V2h-14v2h3v4.84c-3.53,1.54-6,5.06-6,9.16,0,2.73,1.1,5.21,2.88,7.01l-1.49,2.99h-1.38v2h5v-2h-1.38l.84-1.68c1.59,1.06,3.49,1.68,5.54,1.68s3.96-.62,5.54-1.68l.84,1.68h-1.38v2h5v-2h-1.38l-1.49-2.99ZM14,4h4v4.2c-.65-.13-1.32-.2-2-.2s-1.35.07-2,.2V4ZM8,18c0-4.42,3.58-8,8-8s8,3.58,8,8-3.58,8-8,8-8-3.58-8-8Z"/>
        <path class="cls-3" d="M16,17c-.55,0-1,.45-1,1s.45,1,1,1,1-.45,1-1-.45-1-1-1Z"/>
      </g>
      <path class="cls-2" d="M17,23.92c2.84-.48,5-2.94,5-5.92s-2.16-5.44-5-5.92v2.03c1.73.44,3.01,2.02,3.01,3.88s-1.28,3.44-3.01,3.88v2.03ZM10,18c0-2.97,2.16-5.44,5-5.92v2.03c-1.73.44-3.01,2.02-3.01,3.88s1.28,3.44,3.01,3.88v2.03c-2.84-.48-5-2.94-5-5.92Z"/>
    </g>
  </g>
</svg>