<?xml version="1.0" encoding="UTF-8"?>
<svg xmlns="http://www.w3.org/2000/svg" viewBox="0 0 32 32">
  <defs>
    <style>
      .cls-1 {
        fill: #e1f000;
      }

      .cls-1, .cls-2, .cls-3 {
        stroke-width: 0px;
      }

      .cls-2 {
        fill: #08191f;
      }

      .cls-3 {
        fill: #fff;
      }
    </style>
  </defs>
  <g id="HG">
    <rect class="cls-2" x="0" y="0" width="32" height="32"/>
  </g>
  <g id="White_and_lime" data-name="White and lime">
    <rect class="cls-1" x="12.52" y="15" width="2" height="4"/>
    <g>
      <path class="cls-3" d="M20,12H7v10h13v-10ZM18,20h-9v-6h9v6Z"/>
      <path class="cls-3" d="M11.61,7.84c0-.24.05-.47.14-.68.1-.23.24-.44.42-.62.18-.18.39-.32.62-.42.47-.19,1-.19,1.47,0,.23.1.44.24.62.42.18.18.32.39.42.62.1.23.15.48.15.73v2.1h2.08v-2.19c0-.5-.16-1.1-.31-1.44-.2-.49-.49-.92-.87-1.3s-.81-.67-1.3-.87c-.98-.4-2.08-.4-3.06,0-.49.2-.92.49-1.3.87-.37.37-.66.81-.87,1.3-.2.49-.3,1-.3,1.53v2.1h2.08v-2.16Z"/>
      <polygon class="cls-3" points="23 14 21 14 21 23 9 23 9 25 23 25 23 14"/>
      <polygon class="cls-3" points="24 19 24 26 14 26 14 28 26 28 26 19 24 19"/>
    </g>
  </g>
</svg>