<?xml version="1.0" encoding="UTF-8"?>
<svg xmlns="http://www.w3.org/2000/svg" viewBox="0 0 32 32">
  <defs>
    <style>
      .cls-1 {
        fill: #e1f000;
      }

      .cls-1, .cls-2, .cls-3 {
        stroke-width: 0px;
      }

      .cls-2 {
        fill: #08191f;
      }

      .cls-3 {
        fill: #fff;
      }
    </style>
  </defs>
  <g id="HG">
    <rect class="cls-2" x="0" y="0" width="32" height="32"/>
  </g>
  <g id="White_and_lime" data-name="White and lime">
    <path class="cls-1" d="M27,25.21c-.7.41-1.55.79-2.34.79-1.45,0-3.13-1.25-3.66-1.74l-.68-.62-.68.62c-.52.48-2.2,1.73-3.66,1.73s-3.13-1.25-3.65-1.74l-.68-.62-.68.62c-.53.48-2.21,1.74-3.65,1.74-.82,0-1.65-.17-2.33-.36v2.06c.71.17,1.52.29,2.33.29,1.75,0,3.43-1.04,4.33-1.71.9.67,2.58,1.71,4.33,1.71s3.43-1.04,4.33-1.71c.9.67,2.58,1.71,4.34,1.71.82,0,1.62-.24,2.34-.55v-2.23Z"/>
    <path class="cls-3" d="M20.84,18l-1.13-8h2.29v-2h-2.57l-.56-4h-5.74l-.56,4h-2.57v2h2.29l-1.13,8h-5.16v2h2v4h2v-4h12v4h2v-4h2v-2h-5.16ZM14.87,6h2.26l.28,2h-2.83l.28-2ZM14.31,10h3.39l1.13,8h-5.65l1.13-8Z"/>
  </g>
</svg>