<?xml version="1.0" encoding="UTF-8"?>
<svg xmlns="http://www.w3.org/2000/svg" viewBox="0 0 32 32">
  <defs>
    <style>
      .cls-1 {
        fill: #e1f000;
      }

      .cls-1, .cls-2, .cls-3 {
        stroke-width: 0px;
      }

      .cls-2 {
        fill: #08191f;
      }

      .cls-3 {
        fill: #fff;
      }
    </style>
  </defs>
  <g id="HG">
    <rect class="cls-2" x="0" y="0" width="32" height="32"/>
  </g>
  <g id="White_and_lime" data-name="White and lime">
    <rect class="cls-1" x="7" y="28" width="10" height="2"/>
    <g>
      <polygon class="cls-3" points="26.67 18 20.83 18 21.63 20 25.32 20 27 24.19 27 27 29 27 29 23.81 26.67 18"/>
      <path class="cls-3" d="M12,16c3.86,0,7-3.14,7-7S15.86,2,12,2s-7,3.14-7,7,3.14,7,7,7ZM12,4c2.76,0,5,2.24,5,5s-2.24,5-5,5-5-2.24-5-5,2.24-5,5-5Z"/>
      <polygon class="cls-3" points="5.32 18 3 23.81 3 30 5 30 5 24.19 6.67 20 17.32 20 19 24.19 19 30 21 30 21 23.81 18.67 18 5.32 18"/>
      <path class="cls-3" d="M22,14c-.75,0-1.43-.29-1.96-.75l-1.14,1.64c.85.68,1.92,1.11,3.09,1.11,2.76,0,5-2.24,5-5s-2.24-5-5-5c-.49,0-.95.09-1.4.23l.45,1.94c.3-.1.62-.17.95-.17,1.65,0,3,1.35,3,3s-1.35,3-3,3Z"/>
    </g>
  </g>
</svg>