<?xml version="1.0" encoding="UTF-8"?>
<svg xmlns="http://www.w3.org/2000/svg" viewBox="0 0 32 32">
  <defs>
    <style>
      .cls-1 {
        fill: #e1f000;
      }

      .cls-1, .cls-2, .cls-3 {
        stroke-width: 0px;
      }

      .cls-2 {
        fill: #08191f;
      }

      .cls-3 {
        fill: #fff;
      }
    </style>
  </defs>
  <g id="HG">
    <rect class="cls-2" x="0" y="0" width="32" height="32"/>
  </g>
  <g id="White_and_lime" data-name="White and lime">
    <g>
      <path class="cls-3" d="M28.48,13.46c-.23,0-5.6.05-9.29,3.46-1.58,1.46-2.56,3.27-3.18,4.89-.62-1.62-1.61-3.43-3.18-4.89-3.69-3.41-9.07-3.46-9.29-3.46h-1.09s.09,1.08.09,1.08c.02.23.49,5.58,4.18,8.99,2.76,2.52,6.26,3.18,8.21,3.39.73.09,1.44.08,2.17,0,1.86-.19,5.46-.87,8.21-3.39,3.69-3.41,4.17-8.77,4.19-8.99l.09-1.08h-1.09ZM8.07,22.07c-2.16-2-3.03-4.9-3.36-6.51,1.63.2,4.59.84,6.75,2.84,2.16,2,3.03,4.9,3.36,6.51-1.63-.2-4.59-.84-6.75-2.84ZM23.93,22.07c-2.16,1.99-5.12,2.63-6.75,2.84.33-1.61,1.2-4.51,3.36-6.51,2.16-1.99,5.13-2.63,6.75-2.84-.33,1.61-1.2,4.51-3.36,6.51Z"/>
      <path class="cls-1" d="M15.99,10.61c.69.96,1.68,2.6,2.18,4.54.53-.46,1.11-.87,1.73-1.25-1.03-3.21-3.06-5.45-3.17-5.58l-.74-.8-.74.8c-.11.12-2.14,2.36-3.17,5.57.62.38,1.2.8,1.73,1.25.5-1.94,1.49-3.57,2.18-4.53Z"/>
      <circle class="cls-3" cx="6" cy="11" r="1"/>
      <circle class="cls-3" cx="15.99" cy="5.01" r="1"/>
      <circle class="cls-3" cx="26" cy="11" r="1"/>
    </g>
  </g>
</svg>