<?xml version="1.0" encoding="UTF-8"?>
<svg xmlns="http://www.w3.org/2000/svg" viewBox="0 0 32 32">
  <defs>
    <style>
      .cls-1 {
        fill: #e1f000;
      }

      .cls-1, .cls-2, .cls-3 {
        stroke-width: 0px;
      }

      .cls-2 {
        fill: #08191f;
      }

      .cls-3 {
        fill: #fff;
      }
    </style>
  </defs>
  <g id="HG">
    <rect class="cls-2" x="0" y="0" width="32" height="32"/>
  </g>
  <g id="White_and_lime" data-name="White and lime">
    <g>
      <rect class="cls-1" x="11" y="28" width="10" height="2"/>
      <path class="cls-3" d="M16,16c-3.86,0-7-3.14-7-7S12.14,2,16,2s7,3.14,7,7-3.14,7-7,7ZM16,4c-2.76,0-5,2.24-5,5s2.24,5,5,5,5-2.24,5-5-2.24-5-5-5Z"/>
      <polygon class="cls-3" points="25 30 23 30 23 24.19 21.32 20 10.67 20 9 24.19 9 30 7 30 7 23.81 9.32 18 22.67 18 25 23.81 25 30"/>
    </g>
  </g>
</svg>