<?xml version="1.0" encoding="UTF-8"?>
<svg id="Ebene_1" data-name="Ebene 1" xmlns="http://www.w3.org/2000/svg" version="1.1" viewBox="0 0 32 32">
  <defs>
    <style>
      .cls-1 {
        fill: #08191f;
      }

      .cls-1, .cls-2, .cls-3, .cls-4 {
        stroke-width: 0px;
      }

      .cls-2 {
        fill: #e1f000;
      }

      .cls-3 {
        fill-rule: evenodd;
      }

      .cls-3, .cls-4 {
        fill: #fff;
      }
    </style>
  </defs>
  <g id="HG">
    <rect class="cls-1" width="32" height="32"/>
  </g>
  <g id="Icon_Kopie" data-name="Icon Kopie">
    <g id="Umrichter">
      <polygon class="cls-4" points="6 25 3 25 3 3 15 3 15 13 13 13 13 5 5 5 5 23 6 23 6 25"/>
      <rect class="cls-2" x="7" y="7" width="4" height="2"/>
    </g>
    <path class="cls-4" d="M21.5,16.5c-.2,0-.3,0-.5,0v2.1c.1,0,.3-.1.5-.1.5,0,1,.5,1,1s-.5,1-1,1-.4,0-.5-.1v2.1c.2,0,.3,0,.5,0,1.6,0,3-1.4,3-3s-1.4-3-3-3Z"/>
    <path class="cls-4" d="M29,19.5c0-2.9-1.6-5.4-4-6.6v-3.9h-4v2h2v1.1c-.5-.1-1-.1-1.5-.1s-.3,0-.5,0v2c.2,0,.3,0,.5,0,3,0,5.5,2.5,5.5,5.5s-2.5,5.5-5.5,5.5-.3,0-.5,0v2c.2,0,.3,0,.5,0,1.4,0,2.7-.4,3.9-1.1l1,2.1h2.2l-1.7-3.4c1.3-1.3,2.1-3.1,2.1-5.1h0Z"/>
    <polygon class="cls-3" points="19 27 8 27 8 15 19 15 19 17 10 17 10 25 19 25 19 27"/>
    <rect class="cls-2" x="12" y="19" width="6" height="2"/>
  </g>
</svg>