<?xml version="1.0" encoding="UTF-8"?>
<svg xmlns="http://www.w3.org/2000/svg" version="1.1" viewBox="0 0 400 225">
  <defs>
    <style>
      .cls-1 {
        stroke: #e1f000;
      }

      .cls-1, .cls-2 {
        fill: none;
        stroke-miterlimit: 10;
        stroke-width: 10px;
      }

      .cls-2 {
        stroke: #fff;
      }
    </style>
  </defs>
  <!-- Generator: Adobe Illustrator 28.7.2, SVG Export Plug-In . SVG Version: 1.2.0 Build 154)  -->
  <g>
    <g id="Ebene_2">
      <g>
        <polygon class="cls-1" points="98.5 46.5 98.5 177.5 167.5 177.5 167.5 84.5 142.5 84.5 142.5 46.5 98.5 46.5"/>
        <rect class="cls-1" x="73.5" y="102.5" width="25" height="62"/>
        <line class="cls-1" x1="168" y1="46.5" x2="80" y2="46.5"/>
      </g>
      <polygon class="cls-2" points="204.5 177.5 317.1 177.5 327.5 171.5 327.5 102 317.1 96.5 204.5 96.5 189.5 102.2 189.5 171.8 204.5 177.5"/>
      <line class="cls-2" x1="217.5" y1="98.3" x2="217.5" y2="176.2"/>
      <line class="cls-2" x1="288.5" y1="98.3" x2="288.5" y2="176.2"/>
      <line class="cls-2" x1="217.9" y1="120.5" x2="288.9" y2="120.5"/>
      <line class="cls-2" x1="217.9" y1="144.5" x2="288.9" y2="144.5"/>
      <rect class="cls-2" x="217.5" y="77.5" width="43" height="19"/>
    </g>
  </g>
</svg>