<?xml version="1.0" encoding="UTF-8"?>
<svg xmlns="http://www.w3.org/2000/svg" viewBox="0 0 32.00000980383993 32.000003491659299">
  <g id="HG">
    <rect x=".000004901919965" y=".00001755741323" width="32" height="31.99996837683284" fill="#08191f" stroke-width="0"/>
  </g>
  <g id="White_and_lime" data-name="White and lime">
    <path d="M25.001958026919965,22.000000000001819c0-.369384765625-.066528320310681-.72021484375-.16064453125-1.06005859375l1.85791015625-1.07177734375-1-1.732421875-1.8466796875,1.06524658203125c-.500244140619543-.5093994140625-1.138916015619543-.87408447265625-1.8505859375-1.05902099609375v-2.1419677734375h-2v2.1419677734375c-.708251953119543.18402099609375-1.344970703119543.54541015625-1.843994140619543,1.05108642578125l-1.844482421880457-1.07000732421875-1.00390625,1.73046875,1.85595703125,1.0767822265625c-.095825195310681.34271240234375-.16357421875.69677734375-.16357421875,1.0697021484375,0,.36737060546875.06591796875.71636962890625.158935546880457,1.05450439453125l-1.859130859380457,1.06951904296875.998046875,1.734375,1.848388671880457-1.06329345703125c.49951171875.510009765625,1.137451171869543.87548828125,1.848754882808862,1.06134033203125l-.002807617189319,2.142578125,2,.001953125.002807617189319-2.14141845703125c.71240234375-.18408203125,1.351928710941138-.5482177734375,1.852905273441138-1.05731201171875l1.844482421869543,1.06689453125,1.001953125-1.73046875-1.8564453125-1.07379150390625c.094970703130457-.34124755859375.162109375-.6937255859375.162109375-1.06488037109375ZM21.001958026919965,24.000000000001819c-1.1025390625,0-2-.8974609375-2-2s.8974609375-2,2-2,2,.8974609375,2,2-.8974609375,2-2,2Z" fill="#e1f000" stroke-width="0"/>
    <path d="M20.000004901939974,5.998841207707301v7.99999974147795l2-.000001062438969V3.998841207707301H6.000004901939974v24h7.999999741490683l.000009399109331-2h-6.000009140600014V5.998841207707301h12" fill="#fff" stroke-width="0"/>
    <polygon points="18.000004901939974 7.998841207707301 10.000004901939974 7.998841207707301 10.000004901939974 9.998841207707301 18.000004901939974 9.998841207707301 18.000004901939974 7.998841207707301 18.000004901939974 7.998841207707301" fill="#fff" stroke-width="0"/>
    <polygon points="18.000004901939974 11.998841207707301 10.000004901939974 11.998841207707301 10.000004901939974 13.998841207707301 18.000004901939974 13.998841207707301 18.000004901939974 11.998841207707301 18.000004901939974 11.998841207707301" fill="#fff" stroke-width="0"/>
    <polygon points="15.000000000009095 15.998841207707301 10.000004901939974 15.998841207707301 10.000004901939974 17.998841207707301 15.000000000009095 17.998841207707301 15.000000000009095 15.998841207707301 15.000000000009095 15.998841207707301" fill="#fff" stroke-width="0"/>
  </g>
</svg>