<?xml version="1.0" encoding="UTF-8"?>
<svg xmlns="http://www.w3.org/2000/svg" viewBox="0 0 32 32">
  <defs>
    <style>
      .cls-1 {
        fill: #e1f000;
      }

      .cls-1, .cls-2, .cls-3 {
        stroke-width: 0px;
      }

      .cls-2 {
        fill: #08191f;
      }

      .cls-3 {
        fill: #fff;
      }
    </style>
  </defs>
  <g id="HG">
    <rect class="cls-2" y="0" width="32" height="32"/>
  </g>
  <g id="White_Lime" data-name="White&amp;amp;Lime">
    <g>
      <rect class="cls-3" x="7.02" y="28" width="10" height="2"/>
      <g>
        <polygon class="cls-3" points="5.35 20 3 25.81 3 30 5 30 5 26.19 6.7 22 14 22 14 20 5.35 20"/>
        <path class="cls-3" d="M12,16c-2.21,0-4-1.79-4-4h-2c0,3.31,2.69,6,6,6s6-2.69,6-6h-2c0,2.21-1.79,4-4,4Z"/>
        <path class="cls-3" d="M21,8h-2.08c-.49-3.39-3.4-6-6.92-6s-6.43,2.61-6.92,6h-2.08v2h18v-2ZM7.1,8c.4-1.96,1.94-3.5,3.9-3.9v2.91h2v-2.91c1.96.4,3.5,1.94,3.9,3.9H7.1Z"/>
      </g>
    </g>
    <g>
      <path class="cls-1" d="M16.58,24.12c1.43-1.31,3.32-2.12,5.41-2.12s4,.82,5.43,2.14l1.41-1.41c-1.79-1.68-4.19-2.72-6.84-2.72s-5.03,1.03-6.82,2.71l1.41,1.41Z"/>
      <path class="cls-1" d="M19.42,26.96c.7-.59,1.59-.96,2.57-.96s1.89.38,2.59.98l1.42-1.42c-1.06-.96-2.47-1.55-4.01-1.55s-2.93.58-4,1.54l1.42,1.42Z"/>
    </g>
  </g>
</svg>