<?xml version="1.0" encoding="UTF-8"?>
<svg xmlns="http://www.w3.org/2000/svg" viewBox="0 0 32.000013637538359 32.000024304805265">
  <g id="HG">
    <rect x=".000006351878255" y=".00001755741323" width="32" height="31.99996837683284" fill="#08191f" stroke-width="0"/>
  </g>
  <g id="White_and_lime" data-name="White and lime">
    <path d="M19.994873046878638,18.637829535215133v-2.094970703125c-1.41162109375.24188232421875-2.494873046878638,1.4791259765625-2.494873046878638,2.9571533203125,0,1.64996337890625,1.35009765625,3,3,3,1.478759765628638,0,2.70849609375-1.08709716796875,2.94921875-2.50006103515625h-2.103515625c-.1748046875.29302978515625-.4814453125.50006103515625-.845703125.50006103515625-.550048828121362,0-1-.4500732421875-1-1,0-.3660888671875.19921875-.68792724609375.494873046878638-.8621826171875Z" fill="#e1f000" stroke-width="0"/>
    <rect x="18" y="9.000012152402633" width="5" height="2" fill="#fff" stroke-width="0"/>
    <g>
      <polygon points="5.01953806876918 10.9842529296875 14.00977244376918 10.9720458984375 14.00977244376918 8.98773193359375 3.00000681876918 8.98773193359375 3.00000681876918 20.949462890625 11.00000681876918 21 11.00000681876918 19 5.01953806876918 18.95294189453125 5.01953806876918 10.9842529296875" fill="#fff" stroke-width="0"/>
      <rect x="7.00000681876918" y="13" width="4" height="2" fill="#fff" stroke-width="0"/>
      <path d="M21.00000681876918,18h7v-7h-2v3.41522216796875c-1.3701171875-1.48260498046875-3.326416015625-2.41522216796875-5.5-2.41522216796875-4.1357421875,0-7.5,3.3642578125-7.5,7.5,0,1.9837646484375.779541015625,3.784912109375,2.04150390625,5.12750244140625l-1.68017578125,3.37249755859375h2.228759765625l1.041748046875-2.086669921875c1.131103515625.6849365234375,2.451904296875,1.086669921875,3.8681640625,1.086669921875,1.41796875,0,2.74072265625-.4012451171875,3.871337890625-1.08807373046875l1.037109375,2.08807373046875h2.248779296875l-1.684814453125-3.39208984375c1.142333984375-1.2265625,1.88427734375-2.8316650390625,2.002197265625-4.60791015625h-2c-.25390625,2.798583984375-2.611083984375,5-5.474609375,5-3.0322265625,0-5.5-2.4677734375-5.5-5.5s2.4677734375-5.5,5.5-5.5c1.703857421875,0,3.229248046875.77935791015625,4.239013671875,1.99993896484375l-3.739013671875.00006103515625v2Z" fill="#fff" stroke-width="0"/>
      <rect x="18.00293650626918" y="8.9814453125" width="5" height="2" fill="#fff" stroke-width="0"/>
    </g>
  </g>
</svg>