<?xml version="1.0" encoding="UTF-8"?>
<svg xmlns="http://www.w3.org/2000/svg" viewBox="0 0 32.00000980383993 32.000003491659299">
  <g id="HG">
    <rect x=".000006351890988" y=".000017557409592" width="32" height="31.999968376840116" fill="#08191f" stroke-width="0"/>
  </g>
  <g id="White_and_lime" data-name="White and lime">
    <path d="M20.010540904730078,16.018181707180702c0-.369384765621362-.06640625-.72021484375-.16064453125-1.06005859375l1.85791015625-1.07177734375-1-1.732421875-1.8466796875,1.065185546878638c-.500244140619543-.50927734375-1.138916015619543-.8740234375-1.8505859375-1.058959960939319v-2.141967773439319h-2v2.141967773439319c-.708251953119543.183959960939319-1.344970703119543.54541015625-1.84423828125,1.051147460939319l-1.84326171875-1.069091796878638-1.00390625,1.73046875,1.85498046875,1.075927734378638c-.095703125.342529296871362-.16357421875.696655273430224-.16357421875,1.069580078121362,0,.36767578125.06591796875.717041015628638.1591796875,1.055541992189319l-1.8583984375,1.068481445310681.99609375,1.734375,1.849365234380457-1.063232421871362c.49951171875.510009765621362,1.137451171869543.87548828125,1.848876953119543,1.061279296871362l-.0029296875,2.142578125,2,.001953125.0029296875-2.141357421871362c.712158203130457-.18408203125,1.351806640630457-.548217773439319,1.852783203130457-1.057250976569776l1.845458984369543,1.067749023441138,1.001953125-1.73046875-1.857421875-1.07470703125c.094970703130457-.34130859375.162109375-.693725585941138.162109375-1.06494140625ZM16.010540904730078,18.018181707180702c-1.1025390625,0-2-.8974609375-2-2s.8974609375-2,2-2,2,.8974609375,2,2-.8974609375,2-2,2Z" fill="#e1f000" stroke-width="0"/>
    <g>
      <path d="M27.824017467230078,13.820916082180702l-1.966796875.357421875c.107421875.59375.162109375,1.201171875.162109375,1.806640625,0,5.5400390625-4.5068359375,10.046875-10.046875,10.046875-2.2216796875,0-4.312744140619543-.718994140621362-6.0439453125-2.031860351560681h4.09521484375v-2h-7v7h2v-3.173583984380457c2.0146484375,1.431518554691138,4.413330078130457,2.205444335941138,6.94873046875,2.205444335941138,6.642578125,0,12.046875-5.404296875,12.046875-12.046875,0-.724609375-.0654296875-1.453125-.1953125-2.1640625Z" fill="#fff" stroke-width="0"/>
      <path d="M16.028119029730078,5.999627019680702c2.170166015630457,0,4.274169921880457.7197265625,5.99658203125,2.000366210939319h-4.005859375v2h7V2.999993230620021h-2v3.241333007810681c-2.0263671875-1.441650390621362-4.473876953119543-2.24169921875-6.99072265625-2.24169921875-6.642578125,0-12.046875,5.404296875-12.046875,12.046875,0,.75.0693359375,1.5.2060546875,2.228515625l1.96484375-.369140625c-.11328125-.6064453125-.1708984375-1.232421875-.1708984375-1.859375,0-5.5400390625,4.5068359375-10.046875,10.046875-10.046875Z" fill="#fff" stroke-width="0"/>
    </g>
  </g>
</svg>