<?xml version="1.0" encoding="UTF-8"?>
<svg xmlns="http://www.w3.org/2000/svg" viewBox="0 0 32.000111860601464 32.000099999999293">
  <g id="HG">
    <rect x=".000006351890988" y=".00001755741323" width="32" height="31.99996837683284" fill="#08191f" stroke-width="0"/>
  </g>
  <g id="White_and_lime" data-name="White and lime">
    <path d="M14.90094624250014,6.997374614104046h7.4658203125l2.3173828125,1.978515625h4.2841796875v2h-5.0224609375l-2.3173828125-1.978515625h-5.7744140625l-2.74609375,3.38671875c.5078125.3876953125,1.0439453125.58984375,1.625.61328125,1.560546875.0322265625,2.986328125-1.2236328125,3.0009765625-1.236328125l.7001953125-.6513671875,7.0107421875,6.8857421875h3.5576171875v2h-4.360749703309921l-1.011320609190079-.9794921875-5.2919921875-5.201171875c-.7939453125.5390625-2.1123046875,1.2451171875-3.6689453125,1.181640625-1.3525390625-.0498046875-2.5673828125-.6533203125-3.6103515625-1.7939453125l-.58203125-.6357421875,4.423828125-5.5693359375Z" fill="#e1f000" stroke-width="0"/>
    <polygon points="12.003226694439945 8.995429465288908 2.997611460070402 8.995429465288908 2.997611460070402 10.995429465288908 10.414603647570402 10.995429465288908 12.003226694439945 8.995429465288908" fill="#fff" stroke-width="0"/>
    <path d="M22.419001242800732,20.628248959666962l-1.426513671875-1.40167236328125-2.385009765625,2.38433837890625-5.62939453125-5.615478515625H2.997614524050732v2h2.46923828125l5.39892578125,5.6171875c.955078125.994140625,2.4755859375,1.580078125,4.171875,1.607421875.041015625,0,.0810546875.0009765625.1220703125.0009765625,1.662109375,0,3.1650390625-.5400390625,4.138671875-1.490234375l3.12060546875-3.1025390625ZM15.068903586550732,23.220045834666962c-1.1494140625-.0185546875-2.181640625-.3896484375-2.76171875-.9931640625l-4.0673828125-4.2314453125h3.912109375l4.87890625,4.8671875c-.55859375.240234375-1.2275390625.359375-1.9619140625.357421875Z" fill="#fff" stroke-width="0"/>
  </g>
</svg>