<?xml version="1.0" encoding="UTF-8"?>
<svg xmlns="http://www.w3.org/2000/svg" viewBox="0 0 32 32">
  <defs>
    <style>
      .cls-1 {
        fill: #e1f000;
      }

      .cls-1, .cls-2, .cls-3 {
        stroke-width: 0px;
      }

      .cls-2 {
        fill: #08191f;
      }

      .cls-3 {
        fill: #fff;
      }
    </style>
  </defs>
  <g id="HG">
    <rect class="cls-2" x="0" y="0" width="32" height="32"/>
  </g>
  <g id="White_and_lime" data-name="White and lime">
    <polygon class="cls-3" points="26.7 20 20.85 20 21.65 22 25.35 22 27.02 26.19 27.02 28 29.02 28 29.02 25.81 26.7 20"/>
    <polygon class="cls-3" points="21.02 30 19.02 30 19.02 26.19 17.35 22 6.7 22 5.02 26.19 5.02 30 3.02 30 3.02 25.81 5.35 20 18.7 20 21.02 25.81 21.02 30"/>
    <path class="cls-3" d="M23,10.16c1.18.41,2.02,1.52,2.02,2.84,0,1.65-1.35,3-3,3-.75,0-1.43-.29-1.96-.75l-1.14,1.64c.85.68,1.92,1.11,3.09,1.11,2.76,0,5-2.24,5-5,0-2.42-1.73-4.45-4.02-4.9v2.07Z"/>
    <g>
      <rect class="cls-1" x="7.02" y="28" width="10" height="2"/>
      <path class="cls-3" d="M12,18c-3.31,0-6-2.69-6-6h2c0,2.21,1.79,4,4,4s4-1.79,4-4h2c0,3.31-2.69,6-6,6Z"/>
      <path class="cls-3" d="M18.92,8c-.49-3.39-3.4-6-6.92-6s-6.43,2.61-6.92,6h-2.08v2h18v-2h-2.08ZM11,4.1v2.91h2v-2.91c1.96.4,3.5,1.94,3.9,3.9H7.1c.4-1.96,1.94-3.5,3.9-3.9Z"/>
    </g>
  </g>
</svg>