<?xml version="1.0" encoding="UTF-8"?>
<svg xmlns="http://www.w3.org/2000/svg" viewBox="0 0 32 32">
  <defs>
    <style>
      .cls-1 {
        fill: #e1f000;
      }

      .cls-1, .cls-2, .cls-3 {
        stroke-width: 0px;
      }

      .cls-2 {
        fill: #08191f;
      }

      .cls-3 {
        fill: #fff;
      }
    </style>
  </defs>
  <g id="HG">
    <rect class="cls-2" x="0" y="0" width="32" height="32"/>
  </g>
  <g id="White_and_lime" data-name="White and lime">
    <g>
      <g>
        <path class="cls-3" d="M27.24,11H9.79l-2.76,1.22-.03,11.4,2.77,1.38h17.47l2.76-1.38v-11.24l-2.76-1.38ZM22,19h-9v-2h9v2ZM13,21h9v2h-9v-2ZM22,15h-9v-2h9v2ZM9,22.38l.03-8.86,1.18-.52h.79v10h-.76l-1.23-.62ZM28,22.38l-1.24.62h-2.76v-10h2.76l1.24.62v8.76Z"/>
        <polygon class="cls-3" points="18 9 20 9 20 7 11 7 11 9 13 9 18 9"/>
      </g>
      <rect class="cls-1" x="2" y="17" width="4" height="2"/>
    </g>
  </g>
</svg>