<?xml version="1.0" encoding="UTF-8"?>
<svg xmlns="http://www.w3.org/2000/svg" viewBox="0 0 32 32">
  <defs>
    <style>
      .cls-1 {
        fill: #e1f000;
      }

      .cls-1, .cls-2, .cls-3 {
        stroke-width: 0px;
      }

      .cls-2 {
        fill: #08191f;
      }

      .cls-3 {
        fill: #fff;
      }
    </style>
  </defs>
  <g id="HG">
    <rect class="cls-2" x="0" y="0" width="32" height="32"/>
  </g>
  <g id="Icon_mix">
    <g>
      <polygon class="cls-1" points="27.15 18.01 27.14 16.01 20.96 16.01 23.49 13.48 22.08 12.06 17.13 17.01 22.08 21.96 23.49 20.55 20.96 18.01 27.15 18.01"/>
      <path class="cls-3" d="M9.82,13.42c0-.6.52-.96,1.36-.96.93,0,1.67.52,1.83,1.34h2.43c-.19-1.71-1.25-2.89-2.87-3.3v-1.5h-2.18v1.39c-1.75.27-3.06,1.47-3.06,3.14,0,4.07,5.68,2.84,5.68,4.81,0,.74-.66,1.15-1.56,1.15-1.26,0-2-.71-2.16-1.88h-2.43c.17,2.11,1.45,3.57,3.54,3.93v1.44l2.18.02v-1.48c1.75-.36,2.95-1.6,2.95-3.33,0-4.29-5.7-3.03-5.7-4.77Z"/>
    </g>
  </g>
</svg>