<?xml version="1.0" encoding="UTF-8"?>
<svg xmlns="http://www.w3.org/2000/svg" viewBox="0 0 32 32">
  <defs>
    <style>
      .cls-1 {
        fill: #e1f000;
      }

      .cls-1, .cls-2, .cls-3 {
        stroke-width: 0px;
      }

      .cls-2 {
        fill: #08191f;
      }

      .cls-3 {
        fill: #fff;
      }
    </style>
  </defs>
  <g id="HG">
    <rect class="cls-2" x="0" y="0" width="32" height="32"/>
  </g>
  <g id="White_and_lime" data-name="White and lime">
    <path class="cls-1" d="M16.71,2.69l-.71-.71-.71.71c-3.99,3.99-8.29,10.49-8.29,15.31,0,3.91,2.51,7.24,6,8.48v-2.16c-2.36-1.13-4-3.53-4-6.31,0-3.81,3.41-9.34,7-13.17,3.59,3.83,7,9.35,7,13.17,0,2.78-1.64,5.19-4,6.31v2.16c3.49-1.24,6-4.57,6-8.47,0-4.82-4.3-11.32-8.29-15.31Z"/>
    <polygon class="cls-3" points="21.02 18 19.61 16.58 17 19.19 17 8 15 8 15 15.17 13.4 13.57 11.99 14.99 15 18 15 30 17 30 17 22.02 21.02 18"/>
  </g>
</svg>