<?xml version="1.0" encoding="UTF-8"?>
<svg xmlns="http://www.w3.org/2000/svg" viewBox="0 0 32 32">
  <g id="HG">
    <rect width="32" height="32" fill="#08191f" stroke-width="0"/>
  </g>
  <g id="White_and_lime" data-name="White and lime">
    <g>
      <rect x="14.000025256631488" y="26.99999738563929" width="4" height="2" fill="#fff" stroke-width="0"/>
      <rect x="12.000025256631488" y="22.99999738563929" width="8" height="2" fill="#fff" stroke-width="0"/>
    </g>
    <path d="M13.810546875,19c-.296752929689319-1-.890380859369543-2.400024414060681-1.780700683590112-3.299987792970569-1.286071777349207-1.200012207029431-2.029846191409888-2.79998779296875-2.029846191409888-4.599975585939319,0-3.400024414060681,2.636474609380457-6.100036621090112,6-6.100036621090112.709533691409888,0,1.379089355470569.130920410159888,2,.358520507810681v-2.094421386720569c-.643615722659888-.166442871090112-1.315490722659888-.264099121090112-2.013061523439319-.264099121090112-4.451721191400793,0-7.888061523430224,3.699951171880457-7.986938476560681,8.200012207029431,0,2.299987792970569.864196777340112,4.599975585941138,2.644897460941138,6.099975585941138.692504882808862.5,1.187072753898974,1.900024414058862,1.38494873046875,3.000061035159888l.197875976560681.699951171869543h7.419494628909888l.197814941400793-.799987792970569c.075012207029431-.341064453119543.192932128909888-.76824951171875.347778320308862-1.200012207029431h-6.382263183590112Z" fill="#fff" fill-rule="evenodd" stroke-width="0"/>
    <path d="M25.001953125,12c0-.369384765619543-.06658935546875-.720275878909888-.160705566409888-1.06005859375l1.857971191409888-1.07177734375-1-1.732421875-1.846740722659888,1.065307617189319c-.500183105459655-.509399414058862-1.138916015619543-.874084472659888-1.850524902340112-1.05908203125v-2.141967773439319h-2v2.141967773439319c-.70849609375.184143066400793-1.345275878909888.545837402340112-1.844482421869543,1.051818847650793l-1.843994140630457-1.069763183590112-1.00390625,1.7294921875,1.856079101560681,1.076782226560681c-.095886230470569.342712402349207-.163696289060681.69677734375-.163696289060681,1.069702148439319,0,.36767578125.065979003909888.717102050779431.159301757810681,1.055541992189319l-1.859497070310681,1.068969726560681.998046875,1.7333984375,1.848327636720569-1.06298828125c.499572753909888.510070800779431,1.137573242189319.875610351560681,1.848815917970569,1.0615234375l-.002807617191138,2.142578125,2,.001953125.002807617191138-2.141418457029431c.712036132808862-.184020996090112,1.351379394529431-.547973632810681,1.85223388671875-1.056701660159888l1.845153808590112,1.067260742189319,1.001953125-1.7314453125-1.856506347659888-1.073852539060681c.095031738290345-.341247558599207.162170410159888-.693725585939319.162170410159888-1.064819335939319ZM21.001953125,14c-1.1025390625,0-2-.89697265625-2-2s.8974609375-2,2-2,2,.89697265625,2,2-.8974609375,2-2,2Z" fill="#e1f000" stroke-width="0"/>
  </g>
</svg>