<?xml version="1.0" encoding="UTF-8"?>
<svg xmlns="http://www.w3.org/2000/svg" viewBox="0 0 32 32">
  <defs>
    <style>
      .cls-1 {
        fill: #e1f000;
      }

      .cls-1, .cls-2, .cls-3 {
        stroke-width: 0px;
      }

      .cls-2 {
        fill: #08191f;
      }

      .cls-3 {
        fill: #fff;
      }
    </style>
  </defs>
  <g id="HG">
    <rect class="cls-2" x="0" y="0" width="32" height="32"/>
  </g>
  <g id="White_and_lime" data-name="White and lime">
    <polygon class="cls-3" points="28.99 18 16 18 16 16 26.99 16 26.99 5 10.99 5 10.99 6 8.99 6 8.99 3 28.99 3 28.99 18"/>
    <rect class="cls-1" x="15" y="7" width="10" height="2"/>
    <rect class="cls-1" x="17" y="10.99" width="8" height="2"/>
    <polygon class="cls-3" points="17 29 15 29 15 26.19 13.32 22 6.68 22 5 26.19 5 29 3 29 3 25.81 5.32 20 14.68 20 17 25.81 17 29"/>
    <path class="cls-3" d="M10,18c-2.76,0-5-2.24-5-5s2.24-5,5-5,5,2.24,5,5-2.24,5-5,5ZM10,10c-1.65,0-3,1.35-3,3s1.35,3,3,3,3-1.35,3-3-1.35-3-3-3Z"/>
  </g>
</svg>