<?xml version="1.0" encoding="UTF-8"?>
<svg xmlns="http://www.w3.org/2000/svg" viewBox="0 0 32 32">
  <defs>
    <style>
      .cls-1 {
        fill: #e1f000;
      }

      .cls-1, .cls-2, .cls-3 {
        stroke-width: 0px;
      }

      .cls-2 {
        fill: #08191f;
      }

      .cls-3 {
        fill: #fff;
      }
    </style>
  </defs>
  <g id="HG">
    <rect class="cls-2" x="0" y="0" width="32" height="32"/>
  </g>
  <g id="White_and_lime" data-name="White and lime">
    <g>
      <path class="cls-1" d="M13.84,9.99l-.89-.95-.77.91c-1.02,1.22-2.19,2.6-2.19,4.05,0,1.65,1.35,3,3,3,.4,0,.77-.08,1.12-.22l1.87-2.89c-.06-1.4-1.16-2.73-2.15-3.91ZM13,15c-.55,0-1-.45-1-1,0-.49.46-1.2,1-1.89.53.68,1,1.39,1,1.89,0,.55-.45,1-1,1Z"/>
      <path class="cls-1" d="M19.56,13.4l-.88-1.05-.85,1.01c-1.48,1.76-3.16,3.76-3.16,5.75,0,2.21,1.79,4,4,4s4-1.79,4-4c0-1.97-1.66-3.95-3.12-5.7ZM18.68,21.1c-1.1,0-2-.9-2-2,0-1.03.99-2.39,2-3.63,1.01,1.24,2,2.61,2,3.63,0,1.1-.9,2-2,2Z"/>
    </g>
    <g>
      <path class="cls-3" d="M27.77,13.84l-1.97.37c.77,4.15-1.17,8.36-4.83,10.48-3.49,2.02-7.85,1.72-11.01-.68h4.04v-2h-7v2h0v5.01h2v-3.23c2.07,1.48,4.52,2.24,6.98,2.24,2.06,0,4.12-.53,5.99-1.6,4.39-2.54,6.72-7.59,5.8-12.57Z"/>
      <path class="cls-3" d="M11,7.34c3.5-2.03,7.85-1.74,11.03.67h-4.04v2h7v-2h0V2.99h-2v3.23c-3.8-2.72-8.9-3-13-.62-4.39,2.55-6.7,7.61-5.76,12.59l1.96-.37c-.78-4.15,1.15-8.37,4.8-10.49Z"/>
    </g>
  </g>
</svg>