<?xml version="1.0" encoding="UTF-8"?>
<svg xmlns="http://www.w3.org/2000/svg" viewBox="0 0 32 32.000000000003638">
  <g id="HG">
    <rect x=".000006351889169" y=".000031623170798" width="32" height="31.99996837683284" fill="#08191f" stroke-width="0"/>
  </g>
  <g id="White_and_lime" data-name="White and lime">
    <g>
      <path d="M15.96533203125,9c-1.9296875,0-3.5-1.5703125-3.5-3.5s1.5703125-3.5,3.5-3.5,3.5,1.5703125,3.5,3.5-1.5703125,3.5-3.5,3.5ZM15.96533203125,4c-.8271484375,0-1.5.6728515625-1.5,1.5s.6728515625,1.5,1.5,1.5,1.5-.6728515625,1.5-1.5-.6728515625-1.5-1.5-1.5Z" fill="#fff" stroke-width="0"/>
      <polygon points="19 30 17 30 17 22 20.38623046875 22 17.68896484375 11.9833984375 14.23486328125 11.9833984375 11.59619140625 22 15 22 15 30 13 30 13 24 9 24 12.69384765625 9.9833984375 19.22021484375 9.9833984375 23 24 19 24 19 30" fill="#e1f000" stroke-width="0"/>
    </g>
  </g>
</svg>